<?xml version="1.0" encoding="UTF-8" standalone="no"?>
<!-- Created with Inkscape (http://www.inkscape.org/) -->

<svg
   xmlns:dc="http://purl.org/dc/elements/1.1/"
   xmlns:cc="http://creativecommons.org/ns#"
   xmlns:rdf="http://www.w3.org/1999/02/22-rdf-syntax-ns#"
   xmlns:svg="http://www.w3.org/2000/svg"
   xmlns="http://www.w3.org/2000/svg"
   xmlns:sodipodi="http://sodipodi.sourceforge.net/DTD/sodipodi-0.dtd"
   xmlns:inkscape="http://www.inkscape.org/namespaces/inkscape"
   id="svg2"
   sodipodi:version="0.32"
   inkscape:version="0.48.2 r9819"
   width="500"
   height="500"
   version="1.0"
   sodipodi:docname="18+.svg"
   inkscape:output_extension="org.inkscape.output.svg.inkscape">
  <metadata
     id="metadata7">
    <rdf:RDF>
      <cc:Work
         rdf:about="">
        <dc:format>image/svg+xml</dc:format>
        <dc:type
           rdf:resource="http://purl.org/dc/dcmitype/StillImage" />
        <dc:title></dc:title>
      </cc:Work>
    </rdf:RDF>
  </metadata>
  <defs
     id="defs5">
    <inkscape:perspective
       sodipodi:type="inkscape:persp3d"
       inkscape:vp_x="0 : 526.18109 : 1"
       inkscape:vp_y="0 : 1000 : 0"
       inkscape:vp_z="744.09448 : 526.18109 : 1"
       inkscape:persp3d-origin="372.04724 : 350.78739 : 1"
       id="perspective9" />
    <inkscape:perspective
       id="perspective3330"
       inkscape:persp3d-origin="372.04724 : 350.78739 : 1"
       inkscape:vp_z="744.09448 : 526.18109 : 1"
       inkscape:vp_y="0 : 1000 : 0"
       inkscape:vp_x="0 : 526.18109 : 1"
       sodipodi:type="inkscape:persp3d" />
    <inkscape:perspective
       id="perspective3469"
       inkscape:persp3d-origin="372.04724 : 350.78739 : 1"
       inkscape:vp_z="744.09448 : 526.18109 : 1"
       inkscape:vp_y="0 : 1000 : 0"
       inkscape:vp_x="0 : 526.18109 : 1"
       sodipodi:type="inkscape:persp3d" />
    <inkscape:perspective
       id="perspective3539"
       inkscape:persp3d-origin="372.04724 : 350.78739 : 1"
       inkscape:vp_z="744.09448 : 526.18109 : 1"
       inkscape:vp_y="0 : 1000 : 0"
       inkscape:vp_x="0 : 526.18109 : 1"
       sodipodi:type="inkscape:persp3d" />
    <inkscape:perspective
       id="perspective3749"
       inkscape:persp3d-origin="372.04724 : 350.78739 : 1"
       inkscape:vp_z="744.09448 : 526.18109 : 1"
       inkscape:vp_y="0 : 1000 : 0"
       inkscape:vp_x="0 : 526.18109 : 1"
       sodipodi:type="inkscape:persp3d" />
    <inkscape:perspective
       id="perspective3819"
       inkscape:persp3d-origin="372.04724 : 350.78739 : 1"
       inkscape:vp_z="744.09448 : 526.18109 : 1"
       inkscape:vp_y="0 : 1000 : 0"
       inkscape:vp_x="0 : 526.18109 : 1"
       sodipodi:type="inkscape:persp3d" />
    <inkscape:perspective
       id="perspective3889"
       inkscape:persp3d-origin="372.04724 : 350.78739 : 1"
       inkscape:vp_z="744.09448 : 526.18109 : 1"
       inkscape:vp_y="0 : 1000 : 0"
       inkscape:vp_x="0 : 526.18109 : 1"
       sodipodi:type="inkscape:persp3d" />
    <inkscape:perspective
       id="perspective3959"
       inkscape:persp3d-origin="372.04724 : 350.78739 : 1"
       inkscape:vp_z="744.09448 : 526.18109 : 1"
       inkscape:vp_y="0 : 1000 : 0"
       inkscape:vp_x="0 : 526.18109 : 1"
       sodipodi:type="inkscape:persp3d" />
    <inkscape:perspective
       id="perspective4029"
       inkscape:persp3d-origin="372.04724 : 350.78739 : 1"
       inkscape:vp_z="744.09448 : 526.18109 : 1"
       inkscape:vp_y="0 : 1000 : 0"
       inkscape:vp_x="0 : 526.18109 : 1"
       sodipodi:type="inkscape:persp3d" />
    <inkscape:perspective
       id="perspective4099"
       inkscape:persp3d-origin="372.04724 : 350.78739 : 1"
       inkscape:vp_z="744.09448 : 526.18109 : 1"
       inkscape:vp_y="0 : 1000 : 0"
       inkscape:vp_x="0 : 526.18109 : 1"
       sodipodi:type="inkscape:persp3d" />
    <inkscape:perspective
       id="perspective4169"
       inkscape:persp3d-origin="372.04724 : 350.78739 : 1"
       inkscape:vp_z="744.09448 : 526.18109 : 1"
       inkscape:vp_y="0 : 1000 : 0"
       inkscape:vp_x="0 : 526.18109 : 1"
       sodipodi:type="inkscape:persp3d" />
    <inkscape:perspective
       id="perspective4239"
       inkscape:persp3d-origin="372.04724 : 350.78739 : 1"
       inkscape:vp_z="744.09448 : 526.18109 : 1"
       inkscape:vp_y="0 : 1000 : 0"
       inkscape:vp_x="0 : 526.18109 : 1"
       sodipodi:type="inkscape:persp3d" />
    <inkscape:perspective
       id="perspective4309"
       inkscape:persp3d-origin="372.04724 : 350.78739 : 1"
       inkscape:vp_z="744.09448 : 526.18109 : 1"
       inkscape:vp_y="0 : 1000 : 0"
       inkscape:vp_x="0 : 526.18109 : 1"
       sodipodi:type="inkscape:persp3d" />
    <inkscape:perspective
       id="perspective4449"
       inkscape:persp3d-origin="372.04724 : 350.78739 : 1"
       inkscape:vp_z="744.09448 : 526.18109 : 1"
       inkscape:vp_y="0 : 1000 : 0"
       inkscape:vp_x="0 : 526.18109 : 1"
       sodipodi:type="inkscape:persp3d" />
  </defs>
  <sodipodi:namedview
     inkscape:window-height="750"
     inkscape:window-width="1280"
     inkscape:pageshadow="2"
     inkscape:pageopacity="0.0"
     guidetolerance="10.0"
     gridtolerance="10.0"
     objecttolerance="10.0"
     borderopacity="1.0"
     bordercolor="#666666"
     pagecolor="#ffffff"
     id="base"
     showgrid="false"
     inkscape:zoom="0.543"
     inkscape:cx="-46.500921"
     inkscape:cy="337.22088"
     inkscape:window-x="93"
     inkscape:window-y="198"
     inkscape:current-layer="svg2"
     inkscape:window-maximized="0" />
  <path
     sodipodi:type="arc"
     style="opacity:1;fill:#d40000;fill-opacity:1;fill-rule:nonzero;stroke:none;stroke-width:1;stroke-linecap:square;stroke-linejoin:bevel;stroke-miterlimit:4;stroke-dasharray:none;stroke-dashoffset:0;stroke-opacity:1"
     id="path2384"
     sodipodi:cx="118.92857"
     sodipodi:cy="109.31818"
     sodipodi:rx="82.489174"
     sodipodi:ry="82.489174"
     d="M 201.41775,109.31818 A 82.489174,82.489174 0 1 1 36.4394,109.31818 A 82.489174,82.489174 0 1 1 201.41775,109.31818 z"
     transform="matrix(3.0307007,0,0,3.0307007,-110.43691,-81.310673)" />
  <polyline
     transform="matrix(1.0531496,0,0,1.0531489,-262.97222,-191.64028)"
     id="polyline281"
     points="625.763,491.208 625.763,431.046 565.614,431.046 565.614,401.525 625.763,401.525 625.763,341.376 655.285,341.376 655.285,401.525 715.447,401.525 715.447,431.046 655.285,431.046 655.285,491.208 625.763,491.208"
     style="fill:#ffffff" />
  <path
     inkscape:connector-curvature="0"
     style="font-size:347.25384521px;font-style:normal;font-variant:normal;font-weight:bold;font-stretch:normal;text-align:start;line-height:125%;writing-mode:lr-tb;text-anchor:start;fill:#ffffff;fill-opacity:1;stroke:none;font-family:Arial;-inkscape-font-specification:Arial Bold"
     d="m 120.66338,369.23741 -41.043336,0 0,-173.85605 c -14.995769,15.76048 -32.669181,27.41653 -53.020419,34.96821 l 0,-41.86334 c 10.71112,-3.9399 22.347433,-11.40962 34.908758,-22.40921 12.561232,-10.99917 21.178859,-23.83179 25.852972,-38.49786 l 33.302025,0 0,241.65825 z m 200.54289,-181.73621 -39.72882,4.92511 c -0.97385,-9.19334 -3.50559,-15.97902 -7.59521,-20.35708 -4.08983,-4.37766 -9.39674,-6.5666 -15.92073,-6.5668 -8.66642,2e-4 -15.99385,4.37806 -21.98231,13.1336 -5.98859,8.75591 -9.76186,26.97876 -11.31978,54.66861 10.22425,-13.57125 22.93162,-20.35693 38.12213,-20.35708 17.1378,1.5e-4 31.81699,7.33307 44.03763,21.99877 12.22036,14.66598 18.33059,33.60023 18.33075,56.80283 -1.6e-4,24.62555 -6.42686,44.38065 -19.28015,59.26537 -12.85356,14.88475 -29.35853,22.32713 -49.51496,22.32713 -21.61721,0 -39.38804,-9.43977 -53.31255,-28.31934 -13.92459,-18.8795 -20.88685,-49.82551 -20.88684,-92.83813 -1e-5,-44.10685 7.25438,-75.90107 21.7632,-95.38277 14.50876,-19.48128 33.35071,-29.22201 56.52592,-29.22226 16.26145,2.5e-4 29.72346,5.11686 40.38609,15.34989 10.66238,10.23348 17.45424,25.09086 20.37563,44.57215 l 0,0 z M 228.1649,288.13743 c -6e-5,14.99425 3.06723,26.56822 9.20189,34.72195 6.13451,8.15381 13.14548,12.2307 21.0329,12.23066 7.59511,4e-5 13.92446,-3.33809 18.98804,-10.01438 5.06336,-6.67619 7.5951,-17.62084 7.59521,-32.83399 -1.1e-4,-15.65079 -2.7266,-27.11531 -8.17946,-34.39362 -5.45308,-7.27809 -12.2693,-10.91718 -20.44866,-10.91731 -7.88742,1.3e-4 -14.55756,3.47506 -20.01047,10.4248 -5.45302,6.94996 -8.17951,17.21059 -8.17945,30.78189 l 0,0 z"
     id="text3156-7" />
</svg>
