<svg width="18" height="19" viewBox="0 0 18 19" fill="none" xmlns="http://www.w3.org/2000/svg">
<path d="M18 9.5C18 14.4706 13.9706 18.5 9 18.5C4.02944 18.5 0 14.4706 0 9.5C0 4.52944 4.02944 0.5 9 0.5C13.9706 0.5 18 4.52944 18 9.5Z" fill="#B8DEEB"/>
<path d="M9.44678 11.8975H8.26611C8.27035 11.4912 8.30632 11.159 8.37402 10.9009C8.44596 10.6385 8.56234 10.3994 8.72314 10.1836C8.88395 9.96777 9.09766 9.72233 9.36426 9.44727C9.55892 9.24837 9.73665 9.06217 9.89746 8.88867C10.0625 8.71094 10.1958 8.52051 10.2974 8.31738C10.3989 8.11003 10.4497 7.86247 10.4497 7.57471C10.4497 7.28271 10.3968 7.03092 10.291 6.81934C10.1895 6.60775 10.0371 6.44482 9.83398 6.33057C9.63509 6.21631 9.38753 6.15918 9.09131 6.15918C8.84587 6.15918 8.61312 6.20361 8.39307 6.29248C8.17301 6.38135 7.99528 6.51888 7.85986 6.70508C7.72445 6.88704 7.65462 7.12614 7.65039 7.42236H6.47607C6.48454 6.94417 6.60303 6.53369 6.83154 6.19092C7.06429 5.84814 7.37744 5.58577 7.771 5.40381C8.16455 5.22184 8.60465 5.13086 9.09131 5.13086C9.62874 5.13086 10.0858 5.22819 10.4624 5.42285C10.8433 5.61751 11.1331 5.89681 11.332 6.26074C11.5309 6.62044 11.6304 7.04785 11.6304 7.54297C11.6304 7.92383 11.5521 8.27507 11.3955 8.59668C11.2432 8.91406 11.0464 9.2124 10.8052 9.4917C10.564 9.771 10.3079 10.0376 10.0371 10.2915C9.80436 10.5073 9.64779 10.7507 9.56738 11.0215C9.48698 11.2923 9.44678 11.5843 9.44678 11.8975ZM8.21533 13.9097C8.21533 13.7192 8.27458 13.5584 8.39307 13.4272C8.51156 13.2961 8.68294 13.2305 8.90723 13.2305C9.13574 13.2305 9.30924 13.2961 9.42773 13.4272C9.54622 13.5584 9.60547 13.7192 9.60547 13.9097C9.60547 14.0916 9.54622 14.2482 9.42773 14.3794C9.30924 14.5106 9.13574 14.5762 8.90723 14.5762C8.68294 14.5762 8.51156 14.5106 8.39307 14.3794C8.27458 14.2482 8.21533 14.0916 8.21533 13.9097Z" fill="white"/>
</svg>
