<?xml version="1.0" encoding="UTF-8"?>
<!DOCTYPE svg PUBLIC "-//W3C//DTD SVG 1.1//EN" "http://www.w3.org/Graphics/SVG/1.1/DTD/svg11.dtd">
<!-- Creator: CorelDRAW X6 -->
<svg xmlns="http://www.w3.org/2000/svg" xml:space="preserve" width="173.952mm" height="135.041mm" version="1.1" style="shape-rendering:geometricPrecision; text-rendering:geometricPrecision; image-rendering:optimizeQuality; fill-rule:evenodd; clip-rule:evenodd"
viewBox="0 0 2095 1626"
 xmlns:xlink="http://www.w3.org/1999/xlink">
 <defs>
  <style type="text/css">
   <![CDATA[
    .fil1 {fill:#FED62F;fill-rule:nonzero}
    .fil0 {fill:#FEFEFE;fill-rule:nonzero}
   ]]>
  </style>
 </defs>
 <g id="Слой_x0020_1">
  <metadata id="CorelCorpID_0Corel-Layer"/>
  <g id="_960519696">
   <path class="fil0" d="M888 1108l-10 0 -27 -31 0 31 -9 0 0 -62 9 0 0 30 26 -30 10 0 -26 30 27 32zm25 -47c6,0 10,1 13,4 3,3 4,7 4,12l0 31 -6 0 -2 -7 0 0c-1,2 -3,3 -4,4 -1,1 -3,2 -5,3 -2,1 -4,1 -7,1 -3,0 -5,-1 -7,-2 -2,-1 -4,-3 -5,-5 -1,-2 -2,-5 -2,-8 0,-5 2,-8 5,-11 4,-2 9,-4 16,-4l8 0 0 -3c0,-4 -1,-6 -2,-8 -2,-1 -4,-2 -7,-2 -2,0 -5,0 -7,1 -2,1 -4,2 -6,2l-3 -6c2,-1 5,-2 7,-3 3,-1 6,-1 9,-1zm9 25l-6 0c-5,0 -9,1 -11,3 -2,2 -3,4 -3,7 0,2 1,4 2,5 1,1 3,2 6,2 4,0 7,-1 9,-3 2,-2 4,-5 4,-9l0 -4zm50 -24l9 0 -20 22 21 24 -10 0 -21 -24 0 24 -9 0 0 -46 9 0 0 23 19 -23zm27 0l0 26c0,1 0,1 0,3 0,1 0,2 0,3 0,1 0,2 0,3 0,1 0,2 0,2l24 -38 10 0 0 46 -8 0 0 -26c0,-1 0,-2 0,-4 0,-2 0,-3 0,-4 0,-1 0,-3 0,-3l-24 38 -10 0 0 -46 8 0zm67 -1c4,0 8,1 10,3 3,2 5,4 7,7 2,3 2,7 2,11l0 5 -32 0c0,5 1,9 4,11 2,3 6,4 10,4 3,0 6,0 8,-1 2,-1 5,-1 7,-2l0 7c-2,1 -5,2 -7,2 -2,0 -5,1 -8,1 -5,0 -8,-1 -12,-3 -3,-2 -6,-4 -8,-8 -2,-4 -3,-8 -3,-13 0,-5 1,-9 3,-13 2,-4 4,-6 7,-8 3,-2 7,-3 11,-3zm0 7c-3,0 -6,1 -8,3 -2,2 -3,5 -4,10l23 0c0,-3 0,-5 -1,-7 -1,-2 -2,-3 -4,-5 -2,-1 -4,-2 -6,-2zm72 42c-4,0 -8,-1 -11,-3 -3,-2 -6,-4 -7,-8 -2,-4 -3,-8 -3,-13 0,-6 1,-10 3,-14 2,-4 4,-6 8,-8 3,-2 7,-3 11,-3 3,0 5,0 7,1 2,1 4,1 6,2l-3 7c-2,-1 -3,-1 -5,-2 -2,0 -4,-1 -5,-1 -3,0 -5,1 -7,2 -2,1 -3,3 -4,6 -1,3 -1,6 -1,9 0,4 0,7 1,9 1,2 2,4 4,6 2,1 4,2 7,2 3,0 5,0 7,-1 2,-1 4,-1 6,-2l0 7c-2,1 -3,2 -5,2 -2,0 -4,1 -7,1zm42 -48c4,0 8,1 10,3 3,2 5,4 7,7 2,3 2,7 2,11l0 5 -32 0c0,5 1,9 4,11 2,3 6,4 10,4 3,0 6,0 8,-1 2,-1 5,-1 7,-2l0 7c-2,1 -5,2 -7,2 -2,0 -5,1 -8,1 -5,0 -8,-1 -12,-3 -3,-2 -6,-4 -8,-8 -2,-4 -3,-8 -3,-13 0,-5 1,-9 3,-13 2,-4 4,-6 7,-8 3,-2 7,-3 11,-3zm0 7c-3,0 -6,1 -8,3 -2,2 -3,5 -4,10l23 0c0,-3 0,-5 -1,-7 -1,-2 -2,-3 -4,-5 -2,-1 -4,-2 -6,-2zm59 -6l9 0 -20 22 21 24 -10 0 -21 -24 0 24 -9 0 0 -46 9 0 0 23 19 -23zm42 -1c6,0 10,2 14,6 3,4 5,10 5,18 0,5 -1,10 -2,13 -2,4 -4,6 -7,8 -3,2 -6,3 -10,3 -2,0 -4,0 -6,-1 -2,-1 -3,-1 -5,-3 -1,-1 -2,-2 -3,-3l-1 0c0,1 0,2 0,4 0,1 0,3 0,4l0 19 -9 0 0 -67 7 0 1 7 0 0c1,-1 2,-3 3,-4 1,-1 3,-2 5,-3 2,-1 4,-1 6,-1zm-2 7c-3,0 -5,1 -7,2 -2,1 -3,3 -4,5 -1,2 -1,5 -1,9l0 1c0,4 0,7 1,9 1,3 2,4 4,6 2,1 4,2 7,2 3,0 5,-1 7,-2 2,-1 3,-3 4,-6 1,-3 1,-6 1,-9 0,-5 -1,-9 -3,-12 -2,-3 -5,-4 -9,-4zm51 -7c4,0 8,1 10,3 3,2 5,4 7,7 2,3 2,7 2,11l0 5 -32 0c0,5 1,9 4,11 2,3 6,4 10,4 3,0 6,0 8,-1 2,-1 5,-1 7,-2l0 7c-2,1 -5,2 -7,2 -2,0 -5,1 -8,1 -5,0 -8,-1 -12,-3 -3,-2 -6,-4 -8,-8 -2,-4 -3,-8 -3,-13 0,-5 1,-9 3,-13 2,-4 4,-6 7,-8 3,-2 7,-3 11,-3zm0 7c-3,0 -6,1 -8,3 -2,2 -3,5 -4,10l23 0c0,-3 0,-5 -1,-7 -1,-2 -2,-3 -4,-5 -2,-1 -4,-2 -6,-2zm64 1l-15 0 0 39 -8 0 0 -39 -15 0 0 -7 39 0 0 7zm9 39l0 -46 9 0 0 19 11 0c4,0 8,1 10,1 3,1 5,2 6,4 1,2 2,4 2,7 0,3 -1,5 -2,8 -1,2 -3,4 -6,5 -3,1 -6,2 -11,2l-19 0zm9 -6l10 0c3,0 6,-1 8,-2 2,-1 3,-3 3,-6 0,-3 -1,-4 -3,-5 -2,-1 -4,-2 -8,-2l-10 0 0 14zm37 6l0 -46 8 0 0 46 -8 0zm56 -24l-16 -23 10 0 11 17 11 -17 10 0 -16 23 17 24 -10 0 -12 -18 -12 18 -10 0 17 -24zm59 -23c6,0 10,2 14,6 3,4 5,10 5,18 0,5 -1,10 -2,13 -2,4 -4,6 -7,8 -3,2 -6,3 -10,3 -2,0 -4,0 -6,-1 -2,-1 -3,-1 -5,-3 -1,-1 -2,-2 -3,-3l-1 0c0,1 0,2 0,4 0,1 0,3 0,4l0 19 -9 0 0 -67 7 0 1 7 0 0c1,-1 2,-3 3,-4 1,-1 3,-2 5,-3 2,-1 4,-1 6,-1zm-2 7c-3,0 -5,1 -7,2 -2,1 -3,3 -4,5 -1,2 -1,5 -1,9l0 1c0,4 0,7 1,9 1,3 2,4 4,6 2,1 4,2 7,2 3,0 5,-1 7,-2 2,-1 3,-3 4,-6 1,-3 1,-6 1,-9 0,-5 -1,-9 -3,-12 -2,-3 -5,-4 -9,-4zm50 -7c6,0 10,1 13,4 3,3 4,7 4,12l0 31 -6 0 -2 -7 0 0c-1,2 -3,3 -4,4 -1,1 -3,2 -5,3 -2,1 -4,1 -7,1 -3,0 -5,-1 -7,-2 -2,-1 -4,-3 -5,-5 -1,-2 -2,-5 -2,-8 0,-5 2,-8 5,-11 4,-2 9,-4 16,-4l8 0 0 -3c0,-4 -1,-6 -2,-8 -2,-1 -4,-2 -7,-2 -2,0 -5,0 -7,1 -2,1 -4,2 -6,2l-3 -6c2,-1 5,-2 7,-3 3,-1 6,-1 9,-1zm9 25l-6 0c-5,0 -9,1 -11,3 -2,2 -3,4 -3,7 0,2 1,4 2,5 1,1 3,2 6,2 4,0 7,-1 9,-3 2,-2 4,-5 4,-9l0 -4zm31 -24l0 19 24 0 0 -19 8 0 0 46 -8 0 0 -20 -24 0 0 20 -9 0 0 -46 9 0zm55 0l0 26c0,1 0,1 0,3 0,1 0,2 0,3 0,1 0,2 0,3 0,1 0,2 0,2l24 -38 10 0 0 46 -8 0 0 -26c0,-1 0,-2 0,-4 0,-2 0,-3 0,-4 0,-1 0,-3 0,-3l-24 38 -10 0 0 -46 8 0zm82 7l-15 0 0 39 -8 0 0 -39 -15 0 0 -7 39 0 0 7zm61 -7l0 7 -21 0 0 39 -9 0 0 -46 29 0zm50 23c0,4 0,7 -1,10 -1,3 -2,6 -4,8 -2,2 -4,4 -7,5 -3,1 -6,2 -9,2 -3,0 -6,-1 -9,-2 -3,-1 -5,-3 -7,-5 -2,-2 -3,-5 -4,-8 -1,-3 -2,-6 -2,-10 0,-5 1,-9 3,-13 2,-4 4,-6 7,-8 3,-2 7,-3 12,-3 4,0 8,1 11,3 3,2 6,5 8,8 2,4 3,8 3,13zm-35 0c0,4 0,7 1,9 1,3 2,5 4,6 2,1 4,2 7,2 3,0 5,-1 7,-2 2,-1 3,-3 4,-6 1,-3 1,-6 1,-9 0,-4 0,-7 -1,-9 -1,-3 -2,-4 -4,-6 -2,-1 -4,-2 -7,-2 -4,0 -8,1 -10,4 -2,3 -3,7 -3,12zm69 -24c6,0 10,2 14,6 3,4 5,10 5,18 0,5 -1,10 -2,13 -2,4 -4,6 -7,8 -3,2 -6,3 -10,3 -2,0 -4,0 -6,-1 -2,-1 -3,-1 -5,-3 -1,-1 -2,-2 -3,-3l-1 0c0,1 0,2 0,4 0,1 0,3 0,4l0 19 -9 0 0 -67 7 0 1 7 0 0c1,-1 2,-3 3,-4 1,-1 3,-2 5,-3 2,-1 4,-1 6,-1zm-2 7c-3,0 -5,1 -7,2 -2,1 -3,3 -4,5 -1,2 -1,5 -1,9l0 1c0,4 0,7 1,9 1,3 2,4 4,6 2,1 4,2 7,2 3,0 5,-1 7,-2 2,-1 3,-3 4,-6 1,-3 1,-6 1,-9 0,-5 -1,-9 -3,-12 -2,-3 -5,-4 -9,-4zm73 17c0,4 0,7 -1,10 -1,3 -2,6 -4,8 -2,2 -4,4 -7,5 -3,1 -6,2 -9,2 -3,0 -6,-1 -9,-2 -3,-1 -5,-3 -7,-5 -2,-2 -3,-5 -4,-8 -1,-3 -2,-6 -2,-10 0,-5 1,-9 3,-13 2,-4 4,-6 7,-8 3,-2 7,-3 12,-3 4,0 8,1 11,3 3,2 6,5 8,8 2,4 3,8 3,13zm-35 0c0,4 0,7 1,9 1,3 2,5 4,6 2,1 4,2 7,2 3,0 5,-1 7,-2 2,-1 3,-3 4,-6 1,-3 1,-6 1,-9 0,-4 0,-7 -1,-9 -1,-3 -2,-4 -4,-6 -2,-1 -4,-2 -7,-2 -4,0 -8,1 -10,4 -2,3 -3,7 -3,12zm82 -23l0 40 7 0 0 23 -8 0 0 -16 -32 0 0 16 -8 0 0 -23 4 0c3,-4 5,-7 6,-12 2,-4 3,-9 4,-14 1,-5 1,-10 2,-14l26 0zm-8 7l-11 0c0,4 -1,8 -2,12 -1,4 -2,8 -3,11 -1,4 -3,7 -5,10l21 0 0 -33zm29 22l0 -2c0,-2 0,-4 1,-6 0,-2 1,-3 2,-4 1,-1 3,-3 4,-4 2,-2 4,-3 5,-4 1,-1 2,-2 3,-4 1,-1 1,-3 1,-4 0,-3 -1,-5 -3,-6 -2,-1 -4,-2 -7,-2 -3,0 -5,0 -7,1 -2,1 -4,2 -6,3l-3 -7c2,-1 5,-2 8,-3 3,-1 6,-1 9,-1 6,0 10,1 13,4 3,3 5,6 5,11 0,3 0,5 -1,7 -1,2 -2,3 -4,5 -2,2 -3,3 -6,5 -2,1 -3,3 -4,4 -1,1 -2,2 -2,3 0,1 -1,2 -1,4l0 2 -7 0zm-2 13c0,-2 1,-4 2,-5 1,-1 2,-1 4,-1 2,0 3,0 4,1 1,1 2,2 2,5 0,2 -1,4 -2,5 -1,1 -2,1 -4,1 -2,0 -3,0 -4,-1 -1,-1 -2,-2 -2,-5zm-927 192l18 0c8,0 14,1 18,3 4,2 6,6 6,12 0,2 0,5 -1,6 -1,2 -2,3 -4,5 -2,1 -4,2 -6,3l0 0c3,0 5,1 7,2 2,1 4,3 5,5 1,2 2,5 2,8 0,4 -1,7 -3,10 -2,3 -4,5 -8,6 -3,1 -7,2 -12,2l-22 0 0 -62zm9 26l11 0c5,0 8,-1 10,-2 2,-2 3,-4 3,-7 0,-3 -1,-6 -3,-7 -2,-1 -6,-2 -11,-2l-10 0 0 19zm0 7l0 21 12 0c5,0 9,-1 11,-3 2,-2 3,-5 3,-8 0,-2 0,-4 -1,-5 -1,-2 -2,-3 -5,-4 -2,-1 -5,-1 -9,-1l-11 0zm64 -19c6,0 10,1 13,4 3,3 4,7 4,12l0 31 -6 0 -2 -7 0 0c-1,2 -3,3 -4,4 -1,1 -3,2 -5,3 -2,1 -4,1 -7,1 -3,0 -5,-1 -7,-2 -2,-1 -4,-3 -5,-5 -1,-2 -2,-5 -2,-8 0,-5 2,-8 5,-11 4,-2 9,-4 16,-4l8 0 0 -3c0,-4 -1,-6 -2,-8 -2,-1 -4,-2 -7,-2 -2,0 -5,0 -7,1 -2,1 -4,2 -6,2l-3 -6c2,-1 5,-2 7,-3 3,-1 6,-1 9,-1zm9 25l-6 0c-5,0 -9,1 -11,3 -2,2 -3,4 -3,7 0,2 1,4 2,5 1,1 3,2 6,2 4,0 7,-1 9,-3 2,-2 4,-5 4,-9l0 -4zm74 -24l0 46 -8 0 0 -28c0,-1 0,-3 0,-4 0,-1 0,-3 0,-4l0 0 -15 37 -7 0 -15 -37 0 0c0,1 0,3 0,4 0,1 0,3 0,5l0 28 -8 0 0 -46 12 0 14 36 14 -36 11 0zm77 23c0,4 0,7 -1,10 -1,3 -2,6 -4,8 -2,2 -4,4 -7,5 -3,1 -6,2 -9,2 -3,0 -6,-1 -9,-2 -3,-1 -5,-3 -7,-5 -2,-2 -3,-5 -4,-8 -1,-3 -2,-6 -2,-10 0,-5 1,-9 3,-13 2,-4 4,-6 7,-8 3,-2 7,-3 12,-3 4,0 8,1 11,3 3,2 6,5 8,8 2,4 3,8 3,13zm-35 0c0,4 0,7 1,9 1,3 2,5 4,6 2,1 4,2 7,2 3,0 5,-1 7,-2 2,-1 3,-3 4,-6 1,-3 1,-6 1,-9 0,-4 0,-7 -1,-9 -1,-3 -2,-4 -4,-6 -2,-1 -4,-2 -7,-2 -4,0 -8,1 -10,4 -2,3 -3,7 -3,12zm80 -16l-15 0 0 39 -8 0 0 -39 -15 0 0 -7 39 0 0 7zm37 -7l9 0 -20 22 21 24 -10 0 -21 -24 0 24 -9 0 0 -46 9 0 0 23 19 -23zm42 -1c6,0 10,2 14,6 3,4 5,10 5,18 0,5 -1,10 -2,13 -2,4 -4,6 -7,8 -3,2 -6,3 -10,3 -2,0 -4,0 -6,-1 -2,-1 -3,-1 -5,-3 -1,-1 -2,-2 -3,-3l-1 0c0,1 0,2 0,4 0,1 0,3 0,4l0 19 -9 0 0 -67 7 0 1 7 0 0c1,-1 2,-3 3,-4 1,-1 3,-2 5,-3 2,-1 4,-1 6,-1zm-2 7c-3,0 -5,1 -7,2 -2,1 -3,3 -4,5 -1,2 -1,5 -1,9l0 1c0,4 0,7 1,9 1,3 2,4 4,6 2,1 4,2 7,2 3,0 5,-1 7,-2 2,-1 3,-3 4,-6 1,-3 1,-6 1,-9 0,-5 -1,-9 -3,-12 -2,-3 -5,-4 -9,-4zm73 17c0,4 0,7 -1,10 -1,3 -2,6 -4,8 -2,2 -4,4 -7,5 -3,1 -6,2 -9,2 -3,0 -6,-1 -9,-2 -3,-1 -5,-3 -7,-5 -2,-2 -3,-5 -4,-8 -1,-3 -2,-6 -2,-10 0,-5 1,-9 3,-13 2,-4 4,-6 7,-8 3,-2 7,-3 12,-3 4,0 8,1 11,3 3,2 6,5 8,8 2,4 3,8 3,13zm-35 0c0,4 0,7 1,9 1,3 2,5 4,6 2,1 4,2 7,2 3,0 5,-1 7,-2 2,-1 3,-3 4,-6 1,-3 1,-6 1,-9 0,-4 0,-7 -1,-9 -1,-3 -2,-4 -4,-6 -2,-1 -4,-2 -7,-2 -4,0 -8,1 -10,4 -2,3 -3,7 -3,12zm107 0c0,5 -1,9 -2,13 -2,4 -4,6 -7,8 -3,2 -7,3 -11,3 -4,0 -7,-1 -10,-2 -3,-2 -5,-4 -7,-7 -2,-3 -3,-7 -3,-12l-11 0 0 20 -8 0 0 -46 8 0 0 19 11 0c0,-4 2,-8 3,-11 2,-3 4,-5 7,-7 3,-2 6,-2 10,-2 4,0 8,1 11,3 3,2 5,5 7,8 2,4 3,8 3,13zm-32 0c0,4 0,7 1,9 1,3 2,4 4,6 2,1 4,2 7,2 3,0 5,-1 7,-2 2,-1 3,-3 4,-6 1,-3 1,-6 1,-9 0,-4 0,-7 -1,-9 -1,-3 -2,-4 -4,-6 -2,-1 -4,-2 -7,-2 -3,0 -5,1 -7,2 -2,1 -3,3 -4,6 -1,3 -1,6 -1,9zm78 -16l-15 0 0 39 -8 0 0 -39 -15 0 0 -7 39 0 0 7zm28 40c-4,0 -8,-1 -11,-3 -3,-2 -6,-4 -7,-8 -2,-4 -3,-8 -3,-13 0,-6 1,-10 3,-14 2,-4 4,-6 8,-8 3,-2 7,-3 11,-3 3,0 5,0 7,1 2,1 4,1 6,2l-3 7c-2,-1 -3,-1 -5,-2 -2,0 -4,-1 -5,-1 -3,0 -5,1 -7,2 -2,1 -3,3 -4,6 -1,3 -1,6 -1,9 0,4 0,7 1,9 1,2 2,4 4,6 2,1 4,2 7,2 3,0 5,0 7,-1 2,-1 4,-1 6,-2l0 7c-2,1 -3,2 -5,2 -2,0 -4,1 -7,1zm27 -1l-10 0 13 -19c-2,0 -4,-1 -5,-2 -2,-1 -3,-3 -4,-4 -1,-2 -1,-4 -1,-7 0,-4 2,-8 5,-10 3,-2 7,-4 12,-4l21 0 0 46 -8 0 0 -18 -11 0 -12 18zm1 -32c0,3 1,4 3,6 2,1 4,2 8,2l10 0 0 -15 -12 0c-3,0 -6,1 -7,2 -1,1 -2,3 -2,5zm100 -7l-15 0 0 39 -8 0 0 -39 -15 0 0 -7 39 0 0 7z"/>
   <path class="fil0" d="M1870 1310c6,0 10,1 13,4 3,3 4,7 4,12l0 31 -6 0 -2 -7 0 0c-1,2 -3,3 -4,4 -1,1 -3,2 -5,3 -2,1 -4,1 -7,1 -3,0 -5,-1 -7,-2 -2,-1 -4,-3 -5,-5 -1,-2 -2,-5 -2,-8 0,-5 2,-8 5,-11 4,-2 9,-4 16,-4l8 0 0 -3c0,-4 -1,-6 -2,-8 -2,-1 -4,-2 -7,-2 -2,0 -5,0 -7,1 -2,1 -4,2 -6,2l-3 -6c2,-1 5,-2 7,-3 3,-1 6,-1 9,-1zm9 25l-6 0c-5,0 -9,1 -11,3 -2,2 -3,4 -3,7 0,2 1,4 2,5 1,1 3,2 6,2 4,0 7,-1 9,-3 2,-2 4,-5 4,-9l0 -4zm31 -24l0 26c0,1 0,1 0,3 0,1 0,2 0,3 0,1 0,2 0,3 0,1 0,2 0,2l24 -38 10 0 0 46 -8 0 0 -26c0,-1 0,-2 0,-4 0,-2 0,-3 0,-4 0,-1 0,-3 0,-3l-24 38 -10 0 0 -46 8 0zm31 -19c0,3 -1,5 -2,7 -1,2 -3,4 -5,5 -2,1 -6,2 -9,2 -4,0 -7,-1 -10,-2 -2,-1 -4,-3 -5,-5 -1,-2 -2,-4 -2,-7l8 0c0,3 1,5 2,6 1,1 4,2 7,2 3,0 5,-1 6,-2 2,-1 2,-3 3,-6l8 0zm27 19l0 19 24 0 0 -19 8 0 0 46 -8 0 0 -20 -24 0 0 20 -9 0 0 -46 9 0zm47 46l0 -46 9 0 0 19 11 0c4,0 8,1 10,1 3,1 5,2 6,4 1,2 2,4 2,7 0,3 -1,5 -2,8 -1,2 -3,4 -6,5 -3,1 -6,2 -11,2l-19 0zm9 -6l10 0c3,0 6,-1 8,-2 2,-1 3,-3 3,-6 0,-3 -1,-4 -3,-5 -2,-1 -4,-2 -8,-2l-10 0 0 14zm37 6l0 -46 8 0 0 46 -8 0zm32 -10l1 1c-1,2 -1,4 -2,7 -1,2 -2,5 -3,7 -1,2 -2,5 -3,7l-6 0c1,-2 1,-5 2,-7 1,-3 1,-5 2,-7 0,-2 1,-5 1,-7l9 0zm-894 111c0,4 0,7 -1,10 -1,3 -2,6 -4,8 -2,2 -4,4 -7,5 -3,1 -6,2 -9,2 -3,0 -6,-1 -9,-2 -3,-1 -5,-3 -7,-5 -2,-2 -3,-5 -4,-8 -1,-3 -2,-6 -2,-10 0,-5 1,-9 3,-13 2,-4 4,-6 7,-8 3,-2 7,-3 12,-3 4,0 8,1 11,3 3,2 6,5 8,8 2,4 3,8 3,13zm-35 0c0,4 0,7 1,9 1,3 2,5 4,6 2,1 4,2 7,2 3,0 5,-1 7,-2 2,-1 3,-3 4,-6 1,-3 1,-6 1,-9 0,-4 0,-7 -1,-9 -1,-3 -2,-4 -4,-6 -2,-1 -4,-2 -7,-2 -4,0 -8,1 -10,4 -2,3 -3,7 -3,12zm97 -23l9 0 -20 22 21 24 -10 0 -21 -24 0 24 -9 0 0 -46 9 0 0 23 19 -23zm59 23c0,4 0,7 -1,10 -1,3 -2,6 -4,8 -2,2 -4,4 -7,5 -3,1 -6,2 -9,2 -3,0 -6,-1 -9,-2 -3,-1 -5,-3 -7,-5 -2,-2 -3,-5 -4,-8 -1,-3 -2,-6 -2,-10 0,-5 1,-9 3,-13 2,-4 4,-6 7,-8 3,-2 7,-3 12,-3 4,0 8,1 11,3 3,2 6,5 8,8 2,4 3,8 3,13zm-35 0c0,4 0,7 1,9 1,3 2,5 4,6 2,1 4,2 7,2 3,0 5,-1 7,-2 2,-1 3,-3 4,-6 1,-3 1,-6 1,-9 0,-4 0,-7 -1,-9 -1,-3 -2,-4 -4,-6 -2,-1 -4,-2 -7,-2 -4,0 -8,1 -10,4 -2,3 -3,7 -3,12zm80 -16l-15 0 0 39 -8 0 0 -39 -15 0 0 -7 39 0 0 7zm50 16c0,4 0,7 -1,10 -1,3 -2,6 -4,8 -2,2 -4,4 -7,5 -3,1 -6,2 -9,2 -3,0 -6,-1 -9,-2 -3,-1 -5,-3 -7,-5 -2,-2 -3,-5 -4,-8 -1,-3 -2,-6 -2,-10 0,-5 1,-9 3,-13 2,-4 4,-6 7,-8 3,-2 7,-3 12,-3 4,0 8,1 11,3 3,2 6,5 8,8 2,4 3,8 3,13zm-35 0c0,4 0,7 1,9 1,3 2,5 4,6 2,1 4,2 7,2 3,0 5,-1 7,-2 2,-1 3,-3 4,-6 1,-3 1,-6 1,-9 0,-4 0,-7 -1,-9 -1,-3 -2,-4 -4,-6 -2,-1 -4,-2 -7,-2 -4,0 -8,1 -10,4 -2,3 -3,7 -3,12zm69 -24c6,0 10,2 14,6 3,4 5,10 5,18 0,5 -1,10 -2,13 -2,4 -4,6 -7,8 -3,2 -6,3 -10,3 -2,0 -4,0 -6,-1 -2,-1 -3,-1 -5,-3 -1,-1 -2,-2 -3,-3l-1 0c0,1 0,2 0,4 0,1 0,3 0,4l0 19 -9 0 0 -67 7 0 1 7 0 0c1,-1 2,-3 3,-4 1,-1 3,-2 5,-3 2,-1 4,-1 6,-1zm-2 7c-3,0 -5,1 -7,2 -2,1 -3,3 -4,5 -1,2 -1,5 -1,9l0 1c0,4 0,7 1,9 1,3 2,4 4,6 2,1 4,2 7,2 3,0 5,-1 7,-2 2,-1 3,-3 4,-6 1,-3 1,-6 1,-9 0,-5 -1,-9 -3,-12 -2,-3 -5,-4 -9,-4zm32 40l0 -46 9 0 0 19 11 0c4,0 8,1 10,1 3,1 5,2 6,4 1,2 2,4 2,7 0,3 -1,5 -2,8 -1,2 -3,4 -6,5 -3,1 -6,2 -11,2l-19 0zm9 -6l10 0c3,0 6,-1 8,-2 2,-1 3,-3 3,-6 0,-3 -1,-4 -3,-5 -2,-1 -4,-2 -8,-2l-10 0 0 14zm37 6l0 -46 8 0 0 46 -8 0zm34 -24l-16 -23 10 0 11 17 11 -17 10 0 -16 23 17 24 -10 0 -12 -18 -12 18 -10 0 17 -24zm67 -23l0 19 24 0 0 -19 8 0 0 46 -8 0 0 -20 -24 0 0 20 -9 0 0 -46 9 0zm65 -1c4,0 8,1 10,3 3,2 5,4 7,7 2,3 2,7 2,11l0 5 -32 0c0,5 1,9 4,11 2,3 6,4 10,4 3,0 6,0 8,-1 2,-1 5,-1 7,-2l0 7c-2,1 -5,2 -7,2 -2,0 -5,1 -8,1 -5,0 -8,-1 -12,-3 -3,-2 -6,-4 -8,-8 -2,-4 -3,-8 -3,-13 0,-5 1,-9 3,-13 2,-4 4,-6 7,-8 3,-2 7,-3 11,-3zm0 7c-3,0 -6,1 -8,3 -2,2 -3,5 -4,10l23 0c0,-3 0,-5 -1,-7 -1,-2 -2,-3 -4,-5 -2,-1 -4,-2 -6,-2zm93 -6l0 46 -9 0 0 -39 -23 0 0 39 -9 0 0 -46 40 0zm37 -1c6,0 10,2 14,6 3,4 5,10 5,18 0,5 -1,10 -2,13 -2,4 -4,6 -7,8 -3,2 -6,3 -10,3 -2,0 -4,0 -6,-1 -2,-1 -3,-1 -5,-3 -1,-1 -2,-2 -3,-3l-1 0c0,1 0,2 0,4 0,1 0,3 0,4l0 19 -9 0 0 -67 7 0 1 7 0 0c1,-1 2,-3 3,-4 1,-1 3,-2 5,-3 2,-1 4,-1 6,-1zm-2 7c-3,0 -5,1 -7,2 -2,1 -3,3 -4,5 -1,2 -1,5 -1,9l0 1c0,4 0,7 1,9 1,3 2,4 4,6 2,1 4,2 7,2 3,0 5,-1 7,-2 2,-1 3,-3 4,-6 1,-3 1,-6 1,-9 0,-5 -1,-9 -3,-12 -2,-3 -5,-4 -9,-4zm41 -6l0 26c0,1 0,1 0,3 0,1 0,2 0,3 0,1 0,2 0,3 0,1 0,2 0,2l24 -38 10 0 0 46 -8 0 0 -26c0,-1 0,-2 0,-4 0,-2 0,-3 0,-4 0,-1 0,-3 0,-3l-24 38 -10 0 0 -46 8 0zm57 0l0 19 24 0 0 -19 8 0 0 46 -8 0 0 -20 -24 0 0 20 -9 0 0 -46 9 0zm50 46l-10 0 13 -19c-2,0 -4,-1 -5,-2 -2,-1 -3,-3 -4,-4 -1,-2 -1,-4 -1,-7 0,-4 2,-8 5,-10 3,-2 7,-4 12,-4l21 0 0 46 -8 0 0 -18 -11 0 -12 18zm1 -32c0,3 1,4 3,6 2,1 4,2 8,2l10 0 0 -15 -12 0c-3,0 -6,1 -7,2 -1,1 -2,3 -2,5zm77 -7l-15 0 0 39 -8 0 0 -39 -15 0 0 -7 39 0 0 7zm50 16c0,4 0,7 -1,10 -1,3 -2,6 -4,8 -2,2 -4,4 -7,5 -3,1 -6,2 -9,2 -3,0 -6,-1 -9,-2 -3,-1 -5,-3 -7,-5 -2,-2 -3,-5 -4,-8 -1,-3 -2,-6 -2,-10 0,-5 1,-9 3,-13 2,-4 4,-6 7,-8 3,-2 7,-3 12,-3 4,0 8,1 11,3 3,2 6,5 8,8 2,4 3,8 3,13zm-35 0c0,4 0,7 1,9 1,3 2,5 4,6 2,1 4,2 7,2 3,0 5,-1 7,-2 2,-1 3,-3 4,-6 1,-3 1,-6 1,-9 0,-4 0,-7 -1,-9 -1,-3 -2,-4 -4,-6 -2,-1 -4,-2 -7,-2 -4,0 -8,1 -10,4 -2,3 -3,7 -3,12zm-699 101l0 7 -21 0 0 39 -9 0 0 -46 29 0zm32 -1c6,0 10,2 14,6 3,4 5,10 5,18 0,5 -1,10 -2,13 -2,4 -4,6 -7,8 -3,2 -6,3 -10,3 -2,0 -4,0 -6,-1 -2,-1 -3,-1 -5,-3 -1,-1 -2,-2 -3,-3l-1 0c0,1 0,2 0,4 0,1 0,3 0,4l0 19 -9 0 0 -67 7 0 1 7 0 0c1,-1 2,-3 3,-4 1,-1 3,-2 5,-3 2,-1 4,-1 6,-1zm-2 7c-3,0 -5,1 -7,2 -2,1 -3,3 -4,5 -1,2 -1,5 -1,9l0 1c0,4 0,7 1,9 1,3 2,4 4,6 2,1 4,2 7,2 3,0 5,-1 7,-2 2,-1 3,-3 4,-6 1,-3 1,-6 1,-9 0,-5 -1,-9 -3,-12 -2,-3 -5,-4 -9,-4zm73 17c0,4 0,7 -1,10 -1,3 -2,6 -4,8 -2,2 -4,4 -7,5 -3,1 -6,2 -9,2 -3,0 -6,-1 -9,-2 -3,-1 -5,-3 -7,-5 -2,-2 -3,-5 -4,-8 -1,-3 -2,-6 -2,-10 0,-5 1,-9 3,-13 2,-4 4,-6 7,-8 3,-2 7,-3 12,-3 4,0 8,1 11,3 3,2 6,5 8,8 2,4 3,8 3,13zm-35 0c0,4 0,7 1,9 1,3 2,5 4,6 2,1 4,2 7,2 3,0 5,-1 7,-2 2,-1 3,-3 4,-6 1,-3 1,-6 1,-9 0,-4 0,-7 -1,-9 -1,-3 -2,-4 -4,-6 -2,-1 -4,-2 -7,-2 -4,0 -8,1 -10,4 -2,3 -3,7 -3,12zm98 -23l0 46 -8 0 0 -28c0,-1 0,-3 0,-4 0,-1 0,-3 0,-4l0 0 -15 37 -7 0 -15 -37 0 0c0,1 0,3 0,4 0,1 0,3 0,5l0 28 -8 0 0 -46 12 0 14 36 14 -36 11 0zm42 0l9 0 -20 22 21 24 -10 0 -21 -24 0 24 -9 0 0 -46 9 0 0 23 19 -23zm59 23c0,4 0,7 -1,10 -1,3 -2,6 -4,8 -2,2 -4,4 -7,5 -3,1 -6,2 -9,2 -3,0 -6,-1 -9,-2 -3,-1 -5,-3 -7,-5 -2,-2 -3,-5 -4,-8 -1,-3 -2,-6 -2,-10 0,-5 1,-9 3,-13 2,-4 4,-6 7,-8 3,-2 7,-3 12,-3 4,0 8,1 11,3 3,2 6,5 8,8 2,4 3,8 3,13zm-35 0c0,4 0,7 1,9 1,3 2,5 4,6 2,1 4,2 7,2 3,0 5,-1 7,-2 2,-1 3,-3 4,-6 1,-3 1,-6 1,-9 0,-4 0,-7 -1,-9 -1,-3 -2,-4 -4,-6 -2,-1 -4,-2 -7,-2 -4,0 -8,1 -10,4 -2,3 -3,7 -3,12zm98 -23l0 7 -21 0 0 39 -9 0 0 -46 29 0zm50 23c0,4 0,7 -1,10 -1,3 -2,6 -4,8 -2,2 -4,4 -7,5 -3,1 -6,2 -9,2 -3,0 -6,-1 -9,-2 -3,-1 -5,-3 -7,-5 -2,-2 -3,-5 -4,-8 -1,-3 -2,-6 -2,-10 0,-5 1,-9 3,-13 2,-4 4,-6 7,-8 3,-2 7,-3 12,-3 4,0 8,1 11,3 3,2 6,5 8,8 2,4 3,8 3,13zm-35 0c0,4 0,7 1,9 1,3 2,5 4,6 2,1 4,2 7,2 3,0 5,-1 7,-2 2,-1 3,-3 4,-6 1,-3 1,-6 1,-9 0,-4 0,-7 -1,-9 -1,-3 -2,-4 -4,-6 -2,-1 -4,-2 -7,-2 -4,0 -8,1 -10,4 -2,3 -3,7 -3,12zm84 -11c0,3 -1,5 -2,7 -2,2 -4,3 -7,3l0 0c3,0 6,1 8,3 2,2 3,4 3,7 0,3 -1,5 -2,7 -1,2 -3,4 -6,5 -3,1 -6,2 -11,2l-21 0 0 -46 20 0c3,0 6,0 9,1 3,1 5,2 6,4 2,2 2,4 2,7zm-7 21c0,-3 -1,-4 -3,-5 -2,-1 -5,-2 -8,-2l-11 0 0 14 11 0c4,0 6,-1 8,-2 2,-1 3,-3 3,-6zm-1 -20c0,-2 -1,-3 -2,-4 -1,-1 -4,-1 -7,-1l-11 0 0 12 10 0c4,0 6,-1 8,-2 2,-1 3,-3 3,-5zm62 10c0,4 0,7 -1,10 -1,3 -2,6 -4,8 -2,2 -4,4 -7,5 -3,1 -6,2 -9,2 -3,0 -6,-1 -9,-2 -3,-1 -5,-3 -7,-5 -2,-2 -3,-5 -4,-8 -1,-3 -2,-6 -2,-10 0,-5 1,-9 3,-13 2,-4 4,-6 7,-8 3,-2 7,-3 12,-3 4,0 8,1 11,3 3,2 6,5 8,8 2,4 3,8 3,13zm-35 0c0,4 0,7 1,9 1,3 2,5 4,6 2,1 4,2 7,2 3,0 5,-1 7,-2 2,-1 3,-3 4,-6 1,-3 1,-6 1,-9 0,-4 0,-7 -1,-9 -1,-3 -2,-4 -4,-6 -2,-1 -4,-2 -7,-2 -4,0 -8,1 -10,4 -2,3 -3,7 -3,12zm69 -24c6,0 10,2 14,6 3,4 5,10 5,18 0,5 -1,10 -2,13 -2,4 -4,6 -7,8 -3,2 -6,3 -10,3 -2,0 -4,0 -6,-1 -2,-1 -3,-1 -5,-3 -1,-1 -2,-2 -3,-3l-1 0c0,1 0,2 0,4 0,1 0,3 0,4l0 19 -9 0 0 -67 7 0 1 7 0 0c1,-1 2,-3 3,-4 1,-1 3,-2 5,-3 2,-1 4,-1 6,-1zm-2 7c-3,0 -5,1 -7,2 -2,1 -3,3 -4,5 -1,2 -1,5 -1,9l0 1c0,4 0,7 1,9 1,3 2,4 4,6 2,1 4,2 7,2 3,0 5,-1 7,-2 2,-1 3,-3 4,-6 1,-3 1,-6 1,-9 0,-5 -1,-9 -3,-12 -2,-3 -5,-4 -9,-4zm41 -6l0 26c0,1 0,1 0,3 0,1 0,2 0,3 0,1 0,2 0,3 0,1 0,2 0,2l24 -38 10 0 0 46 -8 0 0 -26c0,-1 0,-2 0,-4 0,-2 0,-3 0,-4 0,-1 0,-3 0,-3l-24 38 -10 0 0 -46 8 0zm82 7l-15 0 0 39 -8 0 0 -39 -15 0 0 -7 39 0 0 7zm18 12l13 0c4,0 8,1 10,1 3,1 5,2 6,4 1,2 2,4 2,7 0,3 -1,5 -2,8 -1,2 -3,4 -6,5 -3,1 -6,2 -11,2l-21 0 0 -46 9 0 0 19zm23 14c0,-3 -1,-4 -3,-5 -2,-1 -5,-2 -8,-2l-12 0 0 14 12 0c3,0 6,-1 8,-2 2,-1 3,-3 3,-6zm19 9c0,-2 1,-4 2,-5 1,-1 2,-1 4,-1 2,0 3,0 4,1 1,1 2,2 2,5 0,2 -1,4 -2,5 -1,1 -2,1 -4,1 -2,0 -3,0 -4,-1 -1,-1 -2,-2 -2,-5zm23 0c0,-2 1,-4 2,-5 1,-1 2,-1 4,-1 2,0 3,0 4,1 1,1 2,2 2,5 0,2 -1,4 -2,5 -1,1 -2,1 -4,1 -2,0 -3,0 -4,-1 -1,-1 -2,-2 -2,-5z"/>
  </g>
  <path class="fil0" d="M61 80l-10 -25 -32 0 -10 25 -9 0 31 -80 8 0 31 80 -10 0zm-13 -34l-9 -25c0,-1 -1,-2 -1,-3 -1,-2 -1,-3 -2,-5 -1,-2 -1,-3 -1,-4 0,1 -1,3 -1,4 0,1 -1,3 -1,4 0,1 -1,2 -1,3l-10 25 26 0zm80 -11c0,4 -1,7 -3,9 -2,2 -5,4 -9,4l0 0c4,1 7,2 10,4 3,2 4,6 4,10 0,3 -1,6 -2,9 -2,3 -4,5 -8,6 -4,2 -8,2 -14,2l-26 0 0 -60 26 0c4,0 8,0 11,1 3,1 6,3 8,5 2,2 3,5 3,9zm-7 28c0,-4 -1,-6 -4,-8 -3,-2 -7,-2 -12,-2l-15 0 0 20 16 0c5,0 9,-1 12,-2 3,-2 4,-4 4,-8zm-2 -26c0,-3 -1,-5 -3,-6 -2,-1 -6,-2 -10,-2l-16 0 0 17 14 0c5,0 9,-1 11,-2 3,-1 4,-4 4,-7zm67 -8l-20 0 0 52 -9 0 0 -52 -20 0 0 -8 48 0 0 8zm64 22c0,5 -1,9 -2,13 -1,4 -3,7 -6,10 -2,3 -5,5 -9,6 -3,1 -7,2 -12,2 -4,0 -8,-1 -11,-2 -3,-1 -6,-3 -9,-6 -2,-3 -4,-6 -6,-10 -1,-4 -2,-8 -2,-13 0,-7 1,-12 3,-17 2,-5 5,-8 10,-11 4,-2 9,-4 15,-4 5,0 10,1 14,4 4,2 7,6 10,11 2,5 3,10 3,17zm-46 0c0,5 1,9 2,13 1,4 3,6 6,8 3,2 6,3 10,3 4,0 8,-1 10,-3 3,-2 5,-5 6,-8 1,-4 2,-8 2,-13 0,-5 -1,-9 -2,-12 -1,-4 -3,-6 -6,-8 -3,-2 -6,-3 -10,-3 -6,0 -11,2 -14,6 -3,4 -4,10 -4,17zm90 -31c8,0 13,3 18,8 4,5 7,13 7,23 0,7 -1,13 -3,17 -2,5 -5,8 -9,11 -4,2 -8,4 -13,4 -3,0 -6,0 -8,-1 -2,-1 -5,-2 -6,-3 -2,-1 -3,-3 -4,-5l-1 0c0,1 0,3 0,5 0,2 0,4 0,5l0 25 -9 0 0 -87 8 0 1 9 0 0c1,-2 3,-4 4,-5 2,-2 4,-3 6,-4 2,-1 5,-1 9,-1zm-2 8c-4,0 -8,1 -10,2 -3,2 -4,4 -6,7 -1,3 -2,7 -2,12l0 2c0,5 1,9 2,13 1,4 3,6 6,8 3,2 6,3 10,3 4,0 7,-1 9,-3 2,-2 4,-5 6,-8 1,-4 2,-8 2,-12 0,-7 -1,-13 -4,-17 -3,-4 -7,-6 -13,-6zm66 55c-5,0 -10,-1 -14,-3 -4,-2 -7,-6 -10,-10 -2,-5 -3,-10 -3,-17 0,-7 1,-13 4,-18 2,-5 6,-8 10,-10 4,-2 9,-3 15,-3 3,0 6,0 9,1 3,1 5,1 7,2l-3 8c-2,-1 -4,-1 -6,-2 -2,-1 -5,-1 -7,-1 -4,0 -8,1 -10,3 -3,2 -5,4 -6,8 -1,3 -2,8 -2,13 0,5 1,9 2,12 1,3 3,6 6,8 3,2 6,3 10,3 3,0 6,0 9,-1 3,-1 5,-1 7,-2l0 8c-2,1 -4,2 -7,2 -2,1 -5,1 -9,1zm65 -61l10 0 -26 29 28 31 -11 0 -27 -31 0 31 -9 0 0 -60 9 0 0 29 26 -29zm46 -1c7,0 13,2 16,5 3,3 5,8 5,15l0 41 -7 0 -2 -9 0 0c-2,2 -3,4 -5,6 -2,1 -4,3 -6,3 -2,1 -5,1 -9,1 -4,0 -7,-1 -10,-2 -3,-1 -5,-3 -7,-6 -2,-3 -2,-6 -2,-10 0,-6 2,-11 7,-14 5,-3 12,-5 22,-5l10 0 0 -4c0,-5 -1,-9 -3,-11 -2,-2 -5,-3 -9,-3 -3,0 -6,0 -9,1 -3,1 -6,2 -8,3l-3 -7c3,-1 6,-3 9,-4 4,-1 7,-1 11,-1zm12 32l-9 0c-8,0 -13,2 -16,4 -3,2 -5,5 -5,9 0,3 1,6 3,8 2,2 5,2 8,2 5,0 10,-1 13,-4 3,-3 5,-7 5,-13l0 -6zm31 30l-11 0 17 -25c-3,-1 -5,-1 -7,-3 -2,-1 -4,-3 -5,-6 -1,-2 -2,-5 -2,-9 0,-6 2,-10 6,-13 4,-3 9,-5 15,-5l27 0 0 60 -9 0 0 -24 -15 0 -16 24zm1 -42c0,4 1,6 4,8 3,2 6,3 11,3l15 0 0 -21 -17 0c-5,0 -8,1 -10,3 -2,2 -3,4 -3,7zm97 44c-3,0 -6,0 -9,-1 -3,-1 -5,-1 -7,-2l0 -8c2,1 5,2 7,2 3,1 6,1 9,1 4,0 8,-1 11,-2 3,-2 5,-4 7,-7 2,-3 3,-7 3,-11l-31 0 0 -8 30 0c0,-6 -2,-11 -5,-14 -3,-3 -8,-5 -14,-5 -2,0 -5,0 -7,1 -3,1 -5,1 -7,2l-3 -7c2,-1 5,-2 8,-2 3,-1 6,-1 9,-1 6,0 11,1 15,3 4,2 8,5 10,10 2,5 4,11 4,18 0,7 -1,13 -4,17 -3,5 -6,8 -11,10 -5,2 -10,3 -16,3zm81 -61l10 0 -26 29 28 31 -11 0 -27 -31 0 31 -9 0 0 -60 9 0 0 29 26 -29zm47 61c-5,0 -10,-1 -14,-3 -4,-2 -7,-6 -10,-10 -2,-5 -3,-10 -3,-17 0,-7 1,-13 4,-18 2,-5 6,-8 10,-10 4,-2 9,-3 15,-3 3,0 6,0 9,1 3,1 5,1 7,2l-3 8c-2,-1 -4,-1 -6,-2 -2,-1 -5,-1 -7,-1 -4,0 -8,1 -10,3 -3,2 -5,4 -6,8 -1,3 -2,8 -2,13 0,5 1,9 2,12 1,3 3,6 6,8 3,2 6,3 10,3 3,0 6,0 9,-1 3,-1 5,-1 7,-2l0 8c-2,1 -4,2 -7,2 -2,1 -5,1 -9,1zm65 -61l10 0 -26 29 28 31 -11 0 -27 -31 0 31 -9 0 0 -60 9 0 0 29 26 -29zm14 0l10 0 13 35c1,2 1,4 2,6 1,2 1,4 2,5 1,2 1,3 1,5l0 0c1,-2 1,-4 2,-7 1,-3 2,-6 3,-9l13 -35 10 0 -26 69c-1,4 -3,7 -5,10 -2,3 -4,5 -7,6 -3,1 -6,2 -10,2 -2,0 -3,0 -5,0 -1,0 -2,0 -3,-1l0 -7c1,0 2,0 3,0 1,0 2,0 4,0 2,0 4,0 6,-1 2,-1 3,-2 4,-4 1,-2 2,-4 3,-6l3 -8 -24 -60zm94 -1c8,0 13,3 18,8 4,5 7,13 7,23 0,7 -1,13 -3,17 -2,5 -5,8 -9,11 -4,2 -8,4 -13,4 -3,0 -6,0 -8,-1 -2,-1 -5,-2 -6,-3 -2,-1 -3,-3 -4,-5l-1 0c0,1 0,3 0,5 0,2 0,4 0,5l0 25 -9 0 0 -87 8 0 1 9 0 0c1,-2 3,-4 4,-5 2,-2 4,-3 6,-4 2,-1 5,-1 9,-1zm-2 8c-4,0 -8,1 -10,2 -3,2 -4,4 -6,7 -1,3 -2,7 -2,12l0 2c0,5 1,9 2,13 1,4 3,6 6,8 3,2 6,3 10,3 4,0 7,-1 9,-3 2,-2 4,-5 6,-8 1,-4 2,-8 2,-12 0,-7 -1,-13 -4,-17 -3,-4 -7,-6 -13,-6zm66 55c-5,0 -10,-1 -14,-3 -4,-2 -7,-6 -10,-10 -2,-5 -3,-10 -3,-17 0,-7 1,-13 4,-18 2,-5 6,-8 10,-10 4,-2 9,-3 15,-3 3,0 6,0 9,1 3,1 5,1 7,2l-3 8c-2,-1 -4,-1 -6,-2 -2,-1 -5,-1 -7,-1 -4,0 -8,1 -10,3 -3,2 -5,4 -6,8 -1,3 -2,8 -2,13 0,5 1,9 2,12 1,3 3,6 6,8 3,2 6,3 10,3 3,0 6,0 9,-1 3,-1 5,-1 7,-2l0 8c-2,1 -4,2 -7,2 -2,1 -5,1 -9,1zm38 -61l0 38c0,1 0,2 0,3 0,1 0,2 0,4 0,1 0,3 0,4 0,1 0,2 0,3l33 -51 11 0 0 60 -9 0 0 -37c0,-1 0,-3 0,-5 0,-2 0,-4 0,-5 0,-2 0,-3 0,-4l-33 51 -11 0 0 -60 9 0zm66 60l-11 0 17 -25c-3,-1 -5,-1 -7,-3 -2,-1 -4,-3 -5,-6 -1,-2 -2,-5 -2,-9 0,-6 2,-10 6,-13 4,-3 9,-5 15,-5l27 0 0 60 -9 0 0 -24 -15 0 -16 24zm1 -42c0,4 1,6 4,8 3,2 6,3 11,3l15 0 0 -21 -17 0c-5,0 -8,1 -10,3 -2,2 -3,4 -3,7z"/>
  <path class="fil1" d="M574 631l26 0 0 172 -26 0 0 -172zm-55 0l26 0 0 172 -26 0 0 -172zm14 75l55 0 0 25 -55 0 0 -25zm124 99c-8,0 -14,-1 -19,-4 -5,-3 -10,-7 -12,-12 -3,-5 -4,-11 -4,-19l0 -58c0,-7 1,-13 4,-18 3,-5 7,-9 12,-12 5,-3 12,-4 19,-4 8,0 14,1 19,4 5,3 10,7 12,12 3,5 4,11 4,18l0 59c0,7 -1,13 -4,18 -3,5 -7,9 -12,12 -5,3 -12,4 -19,4zm0 -24c3,0 6,-1 8,-3 2,-2 3,-5 3,-9l0 -55c0,-4 -1,-6 -3,-8 -2,-2 -4,-3 -8,-3 -3,0 -6,1 -8,3 -2,2 -3,5 -3,8l0 55c0,4 1,7 3,9 2,2 4,3 8,3zm105 -101l26 0 0 123 -26 0 0 -123zm-18 87c-6,0 -11,-1 -15,-4 -4,-3 -7,-6 -10,-11 -2,-5 -3,-11 -3,-18l0 -54 26 0 0 54c0,3 1,6 3,8 2,2 4,3 7,3 3,0 6,-1 8,-3 2,-2 3,-5 3,-10l0 -21 8 0 0 22c0,11 -2,20 -7,26 -5,6 -11,9 -19,9zm116 -87l25 0 0 123 -25 0 0 -123zm-47 0l25 0 0 123 -25 0 0 -123zm14 50l49 0 0 25 -49 0 0 -25zm116 75c-8,0 -14,-1 -19,-4 -5,-3 -10,-7 -12,-12 -3,-5 -4,-11 -4,-19l0 -58c0,-7 1,-13 4,-18 3,-5 7,-9 12,-12 5,-3 12,-4 19,-4 8,0 14,1 19,4 5,3 10,7 12,12 3,5 4,11 4,18l0 59c0,7 -1,13 -4,18 -3,5 -7,9 -12,12 -5,3 -12,4 -19,4zm0 -24c3,0 6,-1 8,-3 2,-2 3,-5 3,-9l0 -55c0,-4 -1,-6 -3,-8 -2,-2 -4,-3 -8,-3 -3,0 -6,1 -8,3 -2,2 -3,5 -3,8l0 55c0,4 1,7 3,9 2,2 4,3 8,3zm58 -101l26 0 0 123 -26 0 0 -123zm14 0l44 0 0 25 -44 0 0 -25zm84 125c-8,0 -14,-1 -19,-4 -5,-3 -10,-7 -12,-12 -3,-5 -4,-11 -4,-19l0 -58c0,-7 1,-13 4,-18 3,-5 7,-9 12,-12 5,-3 12,-4 19,-4 8,0 14,1 19,4 5,3 10,7 12,12 3,5 4,11 4,18l0 59c0,7 -1,13 -4,18 -3,5 -7,9 -12,12 -5,3 -12,4 -19,4zm0 -24c3,0 6,-1 8,-3 2,-2 3,-5 3,-9l0 -55c0,-4 -1,-6 -3,-8 -2,-2 -4,-3 -8,-3 -3,0 -6,1 -8,3 -2,2 -3,5 -3,8l0 55c0,4 1,7 3,9 2,2 4,3 8,3zm161 -150l26 0 0 172 -26 0 0 -172zm-55 0l26 0 0 172 -26 0 0 -172zm15 0l54 0 0 25 -54 0 0 -25zm125 174c-8,0 -15,-2 -21,-5 -6,-3 -10,-8 -13,-13 -3,-6 -4,-13 -4,-21l0 -46c0,-9 1,-16 4,-23 3,-6 7,-11 13,-14 6,-3 12,-5 20,-5 8,0 15,2 20,5 6,3 10,8 13,13 3,6 4,13 4,21l0 34 -55 0 0 -20 30 0 0 -14c0,-5 -1,-9 -3,-12 -2,-3 -5,-4 -9,-4 -4,0 -7,1 -9,4 -2,3 -3,7 -3,13l0 48c0,5 1,8 3,11 2,3 6,4 10,4 4,0 7,-1 9,-3 2,-2 3,-5 3,-8l0 -3 25 0 0 2c0,11 -3,20 -10,26 -6,6 -16,9 -27,9zm64 -125l26 0 0 123 -26 0 0 -123zm-21 0l68 0 0 25 -68 0 0 -25zm113 125c-8,0 -15,-2 -21,-5 -6,-3 -10,-8 -13,-13 -3,-6 -4,-13 -4,-21l0 -46c0,-9 1,-16 4,-23 3,-6 7,-11 13,-14 6,-3 12,-5 20,-5 8,0 15,2 20,5 6,3 10,8 13,13 3,6 4,13 4,21l0 34 -55 0 0 -20 30 0 0 -14c0,-5 -1,-9 -3,-12 -2,-3 -5,-4 -9,-4 -4,0 -7,1 -9,4 -2,3 -3,7 -3,13l0 48c0,5 1,8 3,11 2,3 6,4 10,4 4,0 7,-1 9,-3 2,-2 3,-5 3,-8l0 -3 25 0 0 2c0,11 -3,20 -10,26 -6,6 -16,9 -27,9zm59 -125l26 0 0 173 -26 0 0 -173zm48 125c-6,0 -11,-2 -15,-6 -4,-4 -7,-9 -9,-16l2 -18c0,3 0,6 1,9 1,2 2,4 4,5 2,1 4,2 6,2 4,0 7,-1 9,-4 2,-3 3,-7 3,-12l0 -48c0,-5 -1,-9 -3,-11 -2,-3 -5,-4 -9,-4 -3,0 -5,1 -6,2 -2,1 -3,3 -4,5 -1,2 -1,5 -1,8l-2 -16c3,-7 6,-13 11,-17 5,-4 10,-6 15,-6 6,0 10,1 14,4 4,3 7,7 9,12 2,5 3,12 3,20l0 53c0,8 -1,15 -3,20 -2,6 -5,10 -9,13 -4,3 -9,4 -15,4zm85 0c-8,0 -14,-1 -19,-4 -5,-3 -10,-7 -12,-12 -3,-5 -4,-11 -4,-18l0 -55 19 -14c3,-7 7,-11 11,-15 4,-3 8,-5 14,-5 6,0 11,1 16,4 4,3 8,6 10,11 2,5 3,11 3,18l0 56c0,7 -1,13 -4,18 -3,5 -7,9 -12,11 -5,3 -12,4 -19,4zm0 -22c3,0 6,-1 7,-3 2,-2 3,-5 3,-9l0 -54c0,-4 -1,-7 -3,-9 -2,-2 -4,-3 -7,-3 -3,0 -6,1 -7,3 -2,2 -3,5 -3,9l0 54c0,4 1,7 3,9 2,2 4,3 7,3zm-36 -95c0,-8 1,-14 4,-19 2,-5 6,-10 11,-14 5,-4 11,-7 18,-10 3,-1 5,-2 7,-3 2,-1 3,-3 4,-4 1,-2 1,-3 1,-5l25 0c0,6 -1,11 -3,15 -2,4 -4,8 -8,10 -4,3 -8,5 -14,7 -5,1 -8,3 -11,5 -3,2 -5,4 -6,7 -1,3 -2,6 -2,10l0 52 -26 0 0 -50zm167 -7l-35 152c-1,5 -3,9 -6,13 -3,3 -7,6 -12,7 -5,2 -10,3 -17,3l-6 0 0 -25 7 0c5,0 8,-1 11,-3 3,-2 4,-5 5,-10l28 -136 25 0zm-85 0l25 0 25 107 -13 28 -37 -135zm99 0l26 0 0 173 -26 0 0 -173zm48 125c-6,0 -11,-2 -15,-6 -4,-4 -7,-9 -9,-16l2 -18c0,3 0,6 1,9 1,2 2,4 4,5 2,1 4,2 6,2 4,0 7,-1 9,-4 2,-3 3,-7 3,-12l0 -48c0,-5 -1,-9 -3,-11 -2,-3 -5,-4 -9,-4 -3,0 -5,1 -6,2 -2,1 -3,3 -4,5 -1,2 -1,5 -1,8l-2 -16c3,-7 6,-13 11,-17 5,-4 10,-6 15,-6 6,0 10,1 14,4 4,3 7,7 9,12 2,5 3,12 3,20l0 53c0,8 -1,15 -3,20 -2,6 -5,10 -9,13 -4,3 -9,4 -15,4zm49 -125l26 0 0 123 -26 0 0 -123zm14 0l44 0 0 25 -44 0 0 -25zm110 34c0,-4 -1,-7 -3,-10 -2,-2 -5,-3 -9,-3 -3,0 -6,1 -8,3 -2,2 -3,5 -3,10l-25 0c0,-11 3,-20 10,-27 6,-6 15,-9 27,-9 8,0 14,1 20,4 6,3 10,7 13,12 3,5 4,12 4,19l0 89 -25 0 0 -89zm-22 91c-10,0 -17,-3 -22,-9 -5,-6 -7,-15 -7,-26 0,-14 3,-24 10,-31 7,-7 16,-10 29,-10l12 0 2 22 -13 0c-5,0 -9,2 -12,5 -3,3 -4,8 -4,14 0,4 1,7 3,9 2,2 5,3 9,3 5,0 8,-1 11,-4 3,-3 4,-7 4,-12l2 11c0,6 -1,11 -3,15 -2,4 -5,7 -8,9 -4,2 -8,3 -13,3z"/>
  <path class="fil0" d="M184 598l-59 0 0 -352 -59 0 0 59 -59 0 0 -117 293 0 0 117 -59 0 0 -59 -59 0 0 352zm234 -117l0 117 -59 0 0 -352c0,-39 20,-59 59,-59l117 0c39,0 59,20 59,59l0 352 -59 0 0 -117 -117 0zm0 -59l117 0 0 -176 -117 0 0 176zm322 -264c-20,0 -29,-5 -29,-15l0 -15 29 0c0,15 10,22 29,22 20,0 29,-7 29,-22l29 0 0 15c0,10 -10,15 -29,15l-59 0zm-29 294l117 -265 59 0 0 410 -59 0 0 -265 -117 265 -59 0 0 -410 59 0 0 265zm293 145l-59 0 0 -410 59 0 0 176 117 0 0 -176 59 0 0 410 -59 0 0 -176 -117 0 0 176zm234 0l0 -410 59 0 0 176 117 0c39,0 59,20 59,59l0 117c0,39 -20,59 -59,59l-176 0zm352 0l-59 0 0 -410 59 0 0 410zm-293 -59l117 0 0 -117 -117 0 0 117z"/>
 </g>
</svg>
