<svg width="18" height="18" viewBox="0 0 18 18" fill="none" xmlns="http://www.w3.org/2000/svg">
<path fill-rule="evenodd" clip-rule="evenodd" d="M13.8857 2.05714H9.77143V0.771429C9.77143 0.34538 9.42605 0 9 0C8.57395 0 8.22857 0.34538 8.22857 0.771429V2.05714H4.11429V0.771429C4.11429 0.34538 3.76891 0 3.34286 0C2.91681 0 2.57143 0.34538 2.57143 0.771429V2.06867C1.12976 2.19859 0 3.41022 0 4.88571V6.68571V8.22857V15.1714C0 16.7336 1.26639 18 2.82857 18H15.1714C16.7336 18 18 16.7336 18 15.1714V8.22857V6.68571V4.88571C18 3.41022 16.8702 2.19859 15.4286 2.06867V0.771429C15.4286 0.34538 15.0832 0 14.6571 0C14.2311 0 13.8857 0.34538 13.8857 0.771429V2.05714ZM3.34286 3.6L2.82857 3.6C2.11849 3.6 1.54286 4.17563 1.54286 4.88571V6.68571H16.4571V4.88571C16.4571 4.17563 15.8815 3.6 15.1714 3.6L14.6571 3.6H9H3.34286ZM1.54286 15.1714V8.22857H16.4571V15.1714C16.4571 15.8815 15.8815 16.4571 15.1714 16.4571H2.82857C2.11849 16.4571 1.54286 15.8815 1.54286 15.1714Z" fill="#2C84D1"/>
</svg>
