<svg width="18" height="18" viewBox="0 0 18 18" fill="none" xmlns="http://www.w3.org/2000/svg">
<path fill-rule="evenodd" clip-rule="evenodd" d="M9 18C13.9706 18 18 13.9706 18 9C18 4.02944 13.9706 0 9 0C4.02944 0 0 4.02944 0 9C0 13.9706 4.02944 18 9 18ZM9 16.6154C4.79414 16.6154 1.38462 13.2059 1.38462 9C1.38462 4.79414 4.79414 1.38462 9 1.38462C13.2059 1.38462 16.6154 4.79414 16.6154 9C16.6154 13.2059 13.2059 16.6154 9 16.6154ZM9 4.43143C9.38235 4.43143 9.69231 4.74139 9.69231 5.12374V9.63631L11.9407 11.8847C12.2111 12.1551 12.2111 12.5934 11.9407 12.8638C11.6703 13.1341 11.232 13.1341 10.9616 12.8638L8.51046 10.4126C8.38063 10.2828 8.30769 10.1067 8.30769 9.92308V5.12374C8.30769 4.74139 8.61765 4.43143 9 4.43143Z" fill="#2C84D1"/>
</svg>
