<?xml version="1.0" encoding="utf-8"?>
<!-- Generator: Adobe Illustrator 22.0.1, SVG Export Plug-In . SVG Version: 6.00 Build 0)  -->
<svg version="1.1" id="Слой_1" xmlns="http://www.w3.org/2000/svg" xmlns:xlink="http://www.w3.org/1999/xlink" x="0px" y="0px"
	 viewBox="0 0 800 600" style="enable-background:new 0 0 800 600;" xml:space="preserve">
<style type="text/css">
	.st0{fill:#231F20;}
	.st1{fill:url(#SVGID_1_);}
	.st2{fill:url(#SVGID_2_);}
	.st3{fill:url(#SVGID_3_);}
	.st4{fill:#FFFFFF;}
</style>
<image style="display:none;overflow:visible;opacity:0.3;" width="234" height="69" xlink:href="Слой 1@4x 2.jpg"  transform="matrix(2.4978 0 0 2.4978 169.5109 146.1298)">
</image>
<g>
	<g>
		<path class="st0" d="M387,249.2l16.4-90.2h68.1l-16.4,90.2h-8.8l14.9-82.1h-50.5l-14.9,82.1H387z"/>
		<path class="st0" d="M545.6,183.2l-12,66h-8l2.2-12.1h-0.4c-2.2,2.5-4.6,4.7-7.1,6.4c-2.5,1.7-5.1,3.1-7.7,4.2
			c-2.6,1.1-5.2,1.9-7.8,2.4c-2.6,0.5-5.1,0.7-7.4,0.7c-4.6,0-8.9-0.9-12.6-2.6c-3.8-1.7-6.9-4.1-9.4-7.2c-2.5-3.1-4.2-6.7-5.1-10.9
			c-0.9-4.2-1-8.9,0-13.9c0.9-5.1,2.6-9.8,5.1-14c2.5-4.3,5.5-7.9,9.1-11c3.6-3.1,7.6-5.4,12-7.1c4.4-1.7,9-2.5,13.7-2.5
			c3.4,0,6.5,0.4,9.1,1.2c2.7,0.8,5,1.9,6.9,3.2c1.9,1.4,3.6,3,5,4.8c1.4,1.8,2.5,3.8,3.4,5.8h0.5l2.4-13.4H545.6z M509.1,189
			c-3.9,0-7.6,0.7-11,2.1c-3.4,1.4-6.4,3.3-9.1,5.8c-2.6,2.5-4.9,5.4-6.7,8.7c-1.8,3.4-3.1,7-3.8,11c-0.8,4.4-0.8,8.3,0.1,11.6
			c0.8,3.4,2.2,6.2,4.2,8.4c2,2.2,4.4,3.9,7.2,5.1c2.8,1.1,5.8,1.7,9,1.7c3.9,0,7.7-0.7,11.4-2.2c3.6-1.4,6.9-3.4,9.9-5.9
			c2.9-2.5,5.4-5.3,7.4-8.6c2-3.2,3.3-6.7,4-10.3c0.6-3.5,0.6-6.9-0.1-10.2c-0.7-3.3-2.1-6.2-4-8.8c-1.9-2.6-4.5-4.7-7.6-6.2
			C516.8,189.8,513.2,189,509.1,189z"/>
		<path class="st0" d="M592,181.6c5.2,0,9.7,0.9,13.6,2.6c3.9,1.8,7,4.2,9.4,7.3c2.4,3.1,4,6.8,4.8,11c0.9,4.2,0.8,8.8-0.1,13.7
			c-0.9,5.1-2.6,9.7-5.2,13.9c-2.5,4.2-5.6,7.9-9.2,10.9c-3.6,3.1-7.5,5.5-11.9,7.2c-4.3,1.7-8.8,2.6-13.5,2.6
			c-2.4,0-4.8-0.2-7.2-0.7c-2.4-0.5-4.7-1.3-6.9-2.4c-2.2-1.1-4.3-2.5-6.1-4.2c-1.9-1.7-3.4-3.8-4.6-6.4h-0.4l-6.7,36.7h-8
			l10.5-57.6c0.9-4.9,2.6-9.5,5-13.7c2.5-4.2,5.5-7.9,9.2-11c3.6-3.1,7.8-5.5,12.4-7.3C581.9,182.5,586.8,181.6,592,181.6z M590,189
			c-3.9,0-7.6,0.8-11.1,2.3c-3.5,1.5-6.7,3.6-9.5,6.1c-2.8,2.5-5.1,5.5-7.1,8.8c-1.9,3.3-3.2,6.8-3.9,10.4
			c-0.7,3.9-0.6,7.6,0.3,10.9c0.9,3.3,2.5,6.1,4.6,8.5c2.1,2.4,4.7,4.2,7.7,5.5c3.1,1.3,6.3,2,9.7,2c3.5,0,6.9-0.6,10.3-1.9
			c3.3-1.3,6.4-3.1,9.1-5.5c2.8-2.4,5.1-5.2,7.1-8.5c2-3.3,3.3-7,4-11c0.7-4.1,0.8-7.9,0.1-11.3c-0.7-3.4-2-6.3-3.9-8.7
			c-1.9-2.5-4.3-4.3-7.3-5.7C597.3,189.7,593.8,189,590,189z"/>
		<path class="st0" d="M648.1,243.1l-20.2-59.9h9.2l16.9,50.3h0.5l31.6-50.3h8.6c-8.7,13.5-17.1,27-25.3,40.4
			c-8.2,13.4-16.6,26.6-25.4,39.6c-1.7,2.4-3.4,4.2-5.4,5.6c-1.9,1.4-3.8,2.4-5.8,3.1c-1.9,0.7-3.7,1.2-5.4,1.4
			c-1.7,0.2-3.1,0.3-4.2,0.3c-1.1,0-2.6-0.1-4.2-0.3c-1.7-0.2-3.4-0.6-5.1-1.3l3.7-6.7c0.9,0.3,1.8,0.5,2.6,0.7
			c0.8,0.2,1.8,0.3,2.7,0.3c3.8,0,6.9-0.7,9.3-2.2c2.4-1.5,4.3-3.2,5.6-5.3L648.1,243.1z"/>
		<path class="st0" d="M747.4,196.1c-4.7-4.7-10.4-7.1-17.3-7.1c-3.5,0-7,0.6-10.3,1.9c-3.4,1.3-6.5,3.1-9.3,5.5
			c-2.8,2.4-5.2,5.2-7.2,8.6c-2,3.3-3.4,7.1-4.1,11.2c-0.6,3.3-0.7,6.6-0.1,9.9c0.5,3.2,1.6,6.2,3.3,8.7c1.7,2.6,4.1,4.7,7.1,6.3
			c3,1.6,6.7,2.4,11.1,2.4c6.9,0,13.3-2.3,19.2-7l3.8,6.1c-2.5,1.8-4.9,3.2-7.2,4.3c-2.3,1.1-4.5,2-6.5,2.6c-2,0.6-4,1-5.7,1.2
			c-1.8,0.2-3.4,0.3-4.8,0.3c-5.8,0-10.7-1.1-14.6-3.2c-4-2.1-7.1-4.8-9.4-8.1c-2.3-3.3-3.8-7-4.5-11.1c-0.7-4.1-0.7-8.2,0.1-12.4
			c0.8-4.6,2.5-9.1,5-13.2c2.5-4.2,5.6-7.8,9.2-11c3.6-3.2,7.8-5.7,12.4-7.5c4.6-1.8,9.5-2.8,14.4-2.8c5.1,0,9.4,0.8,12.8,2.4
			c3.5,1.6,6.3,3.6,8.5,5.9L747.4,196.1z"/>
	</g>
</g>
<linearGradient id="SVGID_1_" gradientUnits="userSpaceOnUse" x1="345.6558" y1="204.1075" x2="286.4684" y2="289.8493">
	<stop  offset="0" style="stop-color:#2C84D1"/>
	<stop  offset="1" style="stop-color:#2C72B5"/>
</linearGradient>
<path class="st1" d="M376.9,307.1c-1.5-0.1-3.8-0.2-6.6-0.4c-2.9-0.1-6.3-0.3-10.3-0.5c-4-0.2-8.5-0.4-13.4-0.5
	c-4.9-0.2-10.2-0.3-15.9-0.5c-2.3-0.1-4.8-0.1-7.2-0.2c5.2-2.3,21.6-10.9,29.5-32.6c0,0-6.6,1-17.4,2.3c-9.9-61.9-47-115.3-47-115.3
	c11.9,25.5,11.3,59.1,8.7,83l-9.8-89.1l-0.1-1.5c0.9-0.4,1.6-1.4,1.6-2.5c0-1.5-1.2-2.7-2.7-2.7s-2.7,1.2-2.7,2.7
	c0,1.1,0.7,2.1,1.7,2.5l0,9.1c-8.1,8.3-49.7,53.5-57.7,112.6l13.5,7.8c-9.7,0.1-19.3-0.1-28.5-0.6c0,0-5.2,12.9,2.7,24.5
	c-4.5,0.1-8.7,0.3-12.7,0.4c-4.9,0.1-9.4,0.3-13.4,0.5c-4,0.2-7.5,0.3-10.3,0.5c-2.9,0.1-5.1,0.3-6.6,0.4c-1.5,0.1-2.4,0.2-2.4,0.2
	s0.8,0.1,2.4,0.2c1.5,0.1,3.8,0.2,6.6,0.4c2.9,0.1,6.3,0.3,10.3,0.5c4,0.2,8.5,0.4,13.4,0.5c4.9,0.2,10.2,0.3,15.9,0.5
	c5.6,0.1,11.6,0.3,17.7,0.4c6.1,0.1,12.5,0.2,18.9,0.2c6.4,0,13,0.1,19.5,0.1c6.5,0,13.1-0.1,19.5-0.1c6.4,0,12.8-0.2,18.9-0.2
	c6.1-0.1,12.1-0.2,17.7-0.4c5.6-0.1,10.9-0.3,15.9-0.5c4.9-0.1,9.4-0.3,13.4-0.5c4-0.2,7.5-0.3,10.3-0.5c2.9-0.1,5.1-0.3,6.6-0.4
	c1.5-0.1,2.4-0.2,2.4-0.2S378.4,307.2,376.9,307.1z M285.8,270c-2.1-4.3-6.7-16.7-0.1-29.3L285.8,270z M285.6,232.3
	c-2.6-4.8-5.3-14.1-0.1-28.5L285.6,232.3z M285.3,162.9l0.2,35.3C283.3,192.5,279.3,178.7,285.3,162.9z M244,281.4l-14.3-8.4
	c7-1.7,30-6.4,56.1-1.5l0,8.1C272.6,280.5,258.3,281.2,244,281.4z M288.3,175.7l8.1,73.4c-1.6,12.2-3.6,20.8-4.1,23L288.3,175.7z
	 M292.6,279l-0.3-6.5c2.3-0.1,4.5-0.2,6.6-0.2l0.7,6.1C297.3,278.7,295,278.9,292.6,279z M301.1,278.3l-0.7-6
	c11,0.1,19.7,1.8,25.8,3.5C318.9,276.7,310.4,277.5,301.1,278.3z"/>
<linearGradient id="SVGID_2_" gradientUnits="userSpaceOnUse" x1="353.4901" y1="209.5155" x2="294.3026" y2="295.2574">
	<stop  offset="0" style="stop-color:#2C84D1"/>
	<stop  offset="1" style="stop-color:#2C72B5"/>
</linearGradient>
<path class="st2" d="M347.7,315.4c-2-0.1-4.5-0.3-7.3-0.5c-2.8-0.2-6-0.4-9.5-0.5c-3.5-0.2-7.2-0.3-11.2-0.5
	c-4-0.1-8.2-0.3-12.5-0.4c-4.3-0.1-8.8-0.2-13.4-0.2c-4.6-0.1-9.2-0.1-13.8-0.1c-4.6,0-9.3,0-13.8,0.1c-4.6,0-9,0.1-13.4,0.2
	c-4.3,0.1-8.5,0.2-12.5,0.4c-4,0.1-7.7,0.3-11.2,0.5c-3.5,0.1-6.7,0.3-9.5,0.5c-2.8,0.2-5.3,0.3-7.3,0.5c-2,0.1-3.6,0.3-4.7,0.4
	c-1.1,0.1-1.7,0.2-1.7,0.2s0.6,0.1,1.7,0.2c1.1,0.1,2.7,0.2,4.7,0.4c2,0.1,4.5,0.3,7.3,0.5c2.8,0.2,6,0.4,9.5,0.5
	c3.5,0.2,7.2,0.3,11.2,0.5c4,0.1,8.2,0.3,12.5,0.4c4.3,0.1,8.8,0.2,13.4,0.2c4.6,0.1,9.2,0.1,13.8,0.1c4.6,0,9.3,0,13.8-0.1
	c4.6,0,9-0.1,13.4-0.2c4.3-0.1,8.5-0.2,12.5-0.4c4-0.1,7.7-0.3,11.2-0.5c3.5-0.1,6.7-0.3,9.5-0.5c2.8-0.2,5.3-0.3,7.3-0.5
	c2-0.1,3.6-0.3,4.7-0.4c1.1-0.1,1.7-0.2,1.7-0.2s-0.6-0.1-1.7-0.2C351.3,315.7,349.7,315.6,347.7,315.4z"/>
<linearGradient id="SVGID_3_" gradientUnits="userSpaceOnUse" x1="676.6287" y1="200.6739" x2="463.3748" y2="396.667">
	<stop  offset="0" style="stop-color:#2C84D1"/>
	<stop  offset="1" style="stop-color:#2C72B5"/>
</linearGradient>
<rect x="386.7" y="284.1" class="st3" width="366.7" height="29.1"/>
<g>
	<g>
		<path class="st4" d="M400.6,305.5c-2.1,0-3.8-0.9-5.1-2.6l1.4-0.8c0.4,0.6,0.9,1.1,1.6,1.4c0.7,0.4,1.4,0.5,2.1,0.5
			c1.4,0,2.6-0.4,3.5-1.3c1-0.9,1.5-2.1,1.6-3.5h-7.4v-1.5h7.3c-0.2-1.3-0.8-2.4-1.7-3.3c-0.9-0.8-2.1-1.2-3.4-1.2
			c-0.8,0-1.5,0.2-2.1,0.5c-0.7,0.4-1.2,0.8-1.6,1.4l-1.4-0.8c1.2-1.8,2.9-2.6,5.1-2.6c2,0,3.6,0.6,4.9,1.9c1.3,1.3,2,2.9,2,5
			c0,2-0.7,3.7-2,5C404.2,304.9,402.6,305.5,400.6,305.5z"/>
		<path class="st4" d="M420.3,305.3h-2.1l-5.1-6l-1.4,1.5v4.5h-1.7V292h1.7v6.9l5.9-6.9h2.1l-5.6,6.3L420.3,305.3z"/>
		<path class="st4" d="M428.6,305.5c-2,0-3.6-0.6-4.9-1.9c-1.3-1.3-2-2.9-2-5c0-2,0.7-3.7,2-5c1.3-1.3,3-1.9,4.9-1.9
			c2.1,0,3.8,0.9,5.1,2.6l-1.4,0.8c-0.4-0.6-0.9-1-1.6-1.4c-0.7-0.4-1.4-0.5-2.1-0.5c-1.5,0-2.7,0.5-3.7,1.5c-1,1-1.5,2.3-1.5,3.9
			c0,1.6,0.5,2.9,1.5,3.9c1,1,2.2,1.5,3.7,1.5c0.8,0,1.5-0.2,2.1-0.5c0.7-0.4,1.2-0.8,1.6-1.4l1.4,0.8
			C432.4,304.7,430.7,305.5,428.6,305.5z"/>
		<path class="st4" d="M446.1,305.3H444l-5.1-6l-1.4,1.5v4.5h-1.7V292h1.7v6.9l5.9-6.9h2.1l-5.6,6.3L446.1,305.3z"/>
		<path class="st4" d="M449.3,305.5c-0.6,0-1.1-0.1-1.5-0.3c-0.5-0.2-0.8-0.5-1.1-0.8l0.7-1.3c0.6,0.6,1.2,0.9,1.8,0.9
			c0.5,0,0.9-0.1,1.2-0.4c0.3-0.3,0.6-0.8,1-1.5l0.2-0.5l-5.2-9.7h1.9l4.2,8.2l4.2-8.2h1.9L453,303c-0.5,0.9-1,1.5-1.5,2
			C450.9,305.3,450.2,305.5,449.3,305.5z"/>
		<path class="st4" d="M462.3,305.3h-1.7V292h5.4c1.3,0,2.3,0.4,3.1,1.2c0.8,0.8,1.1,1.7,1.1,2.8s-0.4,2.1-1.1,2.8
			c-0.8,0.8-1.8,1.2-3.1,1.2h-3.7V305.3z M465.8,298.5c0.8,0,1.4-0.2,1.9-0.7c0.5-0.5,0.7-1.1,0.7-1.8c0-0.7-0.2-1.4-0.7-1.8
			c-0.5-0.5-1.1-0.7-1.9-0.7h-3.5v5.1H465.8z"/>
		<path class="st4" d="M478.8,305.5c-2,0-3.6-0.6-4.9-1.9c-1.3-1.3-2-2.9-2-5c0-2,0.7-3.7,2-5c1.3-1.3,3-1.9,4.9-1.9
			c2.1,0,3.8,0.9,5.1,2.6l-1.4,0.8c-0.4-0.6-0.9-1-1.6-1.4c-0.7-0.4-1.4-0.5-2.1-0.5c-1.5,0-2.7,0.5-3.7,1.5c-1,1-1.5,2.3-1.5,3.9
			c0,1.6,0.5,2.9,1.5,3.9c1,1,2.2,1.5,3.7,1.5c0.8,0,1.5-0.2,2.1-0.5c0.7-0.4,1.2-0.8,1.6-1.4l1.4,0.8
			C482.6,304.7,480.9,305.5,478.8,305.5z"/>
		<path class="st4" d="M487.7,305.3H486V292h1.7v10.4l7.7-10.4h1.7v13.3h-1.7v-10.6L487.7,305.3z"/>
		<path class="st4" d="M501.9,305.3h-1.6V292h1.7v10.4l7.7-10.4h1.7v13.3h-1.7v-10.6L501.9,305.3z"/>
		<path class="st4" d="M531,305.3h-1.7v-11.8h-7.9v11.8h-1.7V292H531V305.3z"/>
		<path class="st4" d="M540.3,305.5c-2,0-3.6-0.7-4.8-2c-1.2-1.3-1.9-2.9-1.9-4.9c0-2,0.6-3.6,1.9-4.9c1.2-1.3,2.8-2,4.8-2
			c2,0,3.6,0.6,4.8,2c1.2,1.3,1.9,2.9,1.9,4.9c0,2-0.6,3.6-1.9,4.9C543.8,304.9,542.2,305.5,540.3,305.5z M540.3,304.1
			c1.5,0,2.7-0.5,3.6-1.5c0.9-1,1.4-2.3,1.4-3.9c0-1.6-0.5-2.9-1.4-3.9c-0.9-1-2.1-1.5-3.6-1.5c-1.5,0-2.7,0.5-3.6,1.5
			c-0.9,1-1.4,2.3-1.4,3.9c0,1.6,0.5,2.9,1.4,3.9C537.6,303.6,538.8,304.1,540.3,304.1z"/>
		<path class="st4" d="M561.1,305.5c-2,0-3.6-0.6-4.9-1.9c-1.3-1.3-2-2.9-2-5c0-2,0.7-3.7,2-5c1.3-1.3,3-1.9,4.9-1.9
			c2.1,0,3.8,0.9,5.1,2.6l-1.4,0.8c-0.4-0.6-0.9-1-1.6-1.4c-0.7-0.4-1.4-0.5-2.1-0.5c-1.5,0-2.7,0.5-3.7,1.5c-1,1-1.5,2.3-1.5,3.9
			c0,1.6,0.5,2.9,1.5,3.9c1,1,2.2,1.5,3.7,1.5c0.8,0,1.5-0.2,2.1-0.5c0.7-0.4,1.2-0.8,1.6-1.4l1.4,0.8
			C565,304.7,563.3,305.5,561.1,305.5z"/>
		<path class="st4" d="M579.9,305.3H578l-1.2-2.9h-6.7l-1.2,2.9H567l5.4-13.3h2.1L579.9,305.3z M576.3,300.9l-2.8-7.2l-2.9,7.2
			H576.3z"/>
		<path class="st4" d="M592.9,305.3h-1.7v-6.1h-7.9v6.1h-1.7V292h1.7v5.7h7.9V292h1.7V305.3z"/>
		<path class="st4" d="M606.2,305.3h-2.1l-5.1-6l-1.4,1.5v4.5H596V292h1.7v6.9l5.9-6.9h2.1l-5.6,6.3L606.2,305.3z"/>
		<path class="st4" d="M613.1,305.3h-1.7v-11.8h-4.3V292h10.2v1.5h-4.3V305.3z"/>
		<path class="st4" d="M623.5,301.1h-4.8v-1.3h4.8V301.1z"/>
		<path class="st4" d="M636.9,305.3h-1.7v-11.8h-7.9v11.8h-1.7V292h11.2V305.3z"/>
		<path class="st4" d="M648.8,305.3H640V292h8.8v1.5h-7.1v4.3h7v1.5h-7v4.6h7.1V305.3z"/>
		<path class="st4" d="M656.5,305.3h-1.7v-11.8h-4.3V292h10.2v1.5h-4.3V305.3z"/>
		<path class="st4" d="M671.8,305.3H663V292h8.8v1.5h-7.1v4.3h7v1.5h-7v4.6h7.1V305.3z"/>
		<path class="st4" d="M676.1,305.3h-1.7V292h5.4c1.3,0,2.3,0.4,3.1,1.2c0.8,0.8,1.1,1.7,1.1,2.8s-0.4,2.1-1.1,2.8
			c-0.8,0.8-1.8,1.2-3.1,1.2h-3.7V305.3z M679.7,298.5c0.8,0,1.4-0.2,1.9-0.7c0.5-0.5,0.7-1.1,0.7-1.8c0-0.7-0.2-1.4-0.7-1.8
			c-0.5-0.5-1.1-0.7-1.9-0.7h-3.5v5.1H679.7z"/>
		<path class="st4" d="M686.3,292h8.7v1.5H688v3.8h3.7c1.3,0,2.3,0.4,3.1,1.2c0.8,0.8,1.1,1.7,1.1,2.8c0,1.1-0.4,2.1-1.1,2.8
			c-0.8,0.8-1.8,1.2-3.1,1.2h-5.4V292z M691.5,298.8H688v5.1h3.5c0.8,0,1.4-0.2,1.9-0.7c0.5-0.5,0.7-1.1,0.7-1.8
			c0-0.7-0.2-1.4-0.7-1.8C692.9,299,692.3,298.8,691.5,298.8z"/>
		<path class="st4" d="M699.5,305.5c-0.6,0-1.1-0.1-1.5-0.3c-0.5-0.2-0.8-0.5-1.1-0.8l0.7-1.3c0.6,0.6,1.2,0.9,1.8,0.9
			c0.5,0,0.9-0.1,1.2-0.4c0.3-0.3,0.6-0.8,1-1.5l0.2-0.5l-5.2-9.7h1.9l4.2,8.2l4.2-8.2h1.9l-5.9,10.9c-0.5,0.9-1,1.5-1.5,2
			C701.1,305.3,700.4,305.5,699.5,305.5z"/>
		<path class="st4" d="M712.4,305.3h-1.7V292h5.4c1.3,0,2.3,0.4,3.1,1.2c0.8,0.8,1.1,1.7,1.1,2.8s-0.4,2.1-1.1,2.8
			c-0.8,0.8-1.8,1.2-3.1,1.2h-3.7V305.3z M716,298.5c0.8,0,1.4-0.2,1.9-0.7c0.5-0.5,0.7-1.1,0.7-1.8c0-0.7-0.2-1.4-0.7-1.8
			c-0.5-0.5-1.1-0.7-1.9-0.7h-3.5v5.1H716z"/>
		<path class="st4" d="M724.3,305.3h-1.7V292h8.8v1.5h-7.1V305.3z"/>
		<path class="st4" d="M735,305.5c-0.6,0-1.1-0.1-1.5-0.3c-0.5-0.2-0.8-0.5-1.1-0.8l0.7-1.3c0.6,0.6,1.2,0.9,1.8,0.9
			c0.5,0,0.9-0.1,1.2-0.4c0.3-0.3,0.6-0.8,1-1.5l0.2-0.5l-5.2-9.7h1.9l4.2,8.2l4.2-8.2h1.9l-5.9,10.9c-0.5,0.9-1,1.5-1.5,2
			C736.6,305.3,735.9,305.5,735,305.5z"/>
	</g>
</g>
</svg>
