<?xml version="1.0" encoding="utf-8"?>
<!-- Generator: Adobe Illustrator 24.0.1, SVG Export Plug-In . SVG Version: 6.00 Build 0)  -->
<svg version="1.1" id="Layer_1" xmlns="http://www.w3.org/2000/svg" xmlns:xlink="http://www.w3.org/1999/xlink" x="0px" y="0px"
	 viewBox="0 0 480 480" style="enable-background:new 0 0 480 480;" xml:space="preserve">
<style type="text/css">
	.st0{opacity:0.12;fill:#0088CC;}
	.st1{fill:#0088CC;}
	.st2{opacity:0.67;fill:#FF0000;}
</style>
<path class="st0" d="M432,240c0,106-86,192-192,192S48,346,48,240S134,48,240,48S432,134,432,240z"/>
<path class="st1" d="M240,480C107.5,480,0,372.5,0,240S107.5,0,240,0s240,107.5,240,240C479.9,372.5,372.5,479.9,240,480z M240,16
	C116.3,16,16,116.3,16,240s100.3,224,224,224s224-100.3,224-224C463.9,116.3,363.7,16.1,240,16z"/>
<path class="st2" d="M132,176c0-17.8,9.8-34.1,25.5-42.4c15.7-8.3,34.7-7.3,49.4,2.6l12,67.9l-38,19.9
	c13.8,36.5,42.7,65.4,79.2,79.2l19.8-38l67.9,12c9.9,14.7,10.9,33.7,2.6,49.4C342,342.2,325.7,352,308,352
	C210.8,352,132,273.2,132,176z"/>
</svg>
