<?xml version="1.0" encoding="utf-8"?>
<!-- Generator: Adobe Illustrator 24.0.1, SVG Export Plug-In . SVG Version: 6.00 Build 0)  -->
<svg version="1.1" id="Capa_1" xmlns="http://www.w3.org/2000/svg" xmlns:xlink="http://www.w3.org/1999/xlink" x="0px" y="0px"
	 viewBox="0 0 376 376" style="enable-background:new 0 0 376 376;" xml:space="preserve">
<style type="text/css">
	.st0{fill:#CCE4FF;}
	.st1{fill:#3E9DC3;}
	.st2{fill:#F24941;}
</style>
<path class="st0" d="M316,136c0,23.4-6.2,45.2-17.1,64L188,368L77.1,200C66.2,181.2,60,159.4,60,136C60,65.3,117.3,8,188,8
	S316,65.3,316,136z M252,136c0-35.4-28.6-64-64-64s-64,28.6-64,64s28.6,64,64,64S252,171.4,252,136z"/>
<g>
	<path class="st1" d="M70.4,204.4l110.9,168c1.5,2.2,4,3.6,6.7,3.6s5.2-1.4,6.7-3.6L305.8,204c11.9-20.6,18.2-44.1,18.2-68
		C324,61,263,0,188,0S52,61,52,136c0,23.9,6.3,47.4,18.2,68C70.3,204.1,70.4,204.3,70.4,204.4z M188,16c66.2,0,120,53.8,120,120
		c0,21.1-5.5,41.8-15.8,59.6L188,353.5L83.9,195.8C73.5,177.7,68,157,68,136C68,69.8,121.8,16,188,16z"/>
	<path class="st2" d="M188,208c39.7,0,72-32.3,72-72s-32.3-72-72-72s-72,32.3-72,72S148.3,208,188,208z M188,80
		c30.9,0,56,25.1,56,56s-25.1,56-56,56s-56-25.1-56-56S157.1,80,188,80z"/>
</g>
</svg>
