<svg width="14" height="18" viewBox="0 0 14 18" fill="none" xmlns="http://www.w3.org/2000/svg">
<path fill-rule="evenodd" clip-rule="evenodd" d="M7.00001 1.51868C3.99313 1.51868 1.55557 3.89539 1.55557 6.83401C1.55557 8.98292 2.53635 11.0711 3.75124 12.81C4.93113 14.5109 6.28446 15.8169 7.00001 16.4548C7.71557 15.8169 9.0689 14.5109 10.2488 12.81C11.4637 11.0711 12.4445 8.98292 12.4445 6.83401C12.4445 3.89539 10.0069 1.51868 7.00001 1.51868ZM0 6.834C0 3.06011 3.13367 0 7 0C10.8663 0 14 3.06011 14 6.834C14 9.41574 12.8326 11.8 11.536 13.668C10.2324 15.536 8.74689 16.9559 7.99556 17.6241C7.427 18.1253 6.573 18.1253 6.00445 17.6241C5.25311 16.9559 3.76756 15.536 2.464 13.668C1.16744 11.8 0 9.41574 0 6.834ZM6.99999 5.31531C6.14132 5.31531 5.44443 5.99871 5.44443 6.83397C5.44443 7.66924 6.14132 8.35264 6.99999 8.35264C7.85865 8.35264 8.55554 7.66924 8.55554 6.83397C8.55554 5.99871 7.85865 5.31531 6.99999 5.31531ZM3.88886 6.83403C3.88886 5.1559 5.28186 3.79669 6.99997 3.79669C8.71808 3.79669 10.1111 5.1559 10.1111 6.83403C10.1111 8.51215 8.71808 9.87136 6.99997 9.87136C5.28186 9.87136 3.88886 8.51215 3.88886 6.83403Z" fill="#2C84D1"/>
</svg>
