<?xml version="1.0" encoding="iso-8859-1"?>
<!-- Generator: Adobe Illustrator 19.0.0, SVG Export Plug-In . SVG Version: 6.00 Build 0)  -->
<svg version="1.1" id="Capa_1" xmlns="http://www.w3.org/2000/svg" xmlns:xlink="http://www.w3.org/1999/xlink" x="0px" y="0px"
	 viewBox="0 0 512 512" style="enable-background:new 0 0 512 512;" xml:space="preserve">
<path style="fill:#1B87B3;" d="M505.927,201.518c-0.906-4.158-5.01-6.793-9.168-5.889c-4.159,0.905-6.795,5.01-5.889,9.168
	c32.705,150.185-82.041,291.793-234.891,291.793c-132.554,0-240.395-107.841-240.395-240.395S123.425,15.799,255.979,15.799
	c76.82,0,147.724,35.977,193.033,97.081l-18.176-3.209c-4.188-0.747-8.188,2.058-8.926,6.248c-0.741,4.19,2.058,8.188,6.248,8.926
	c36.656,5.7,38.311,8.538,42.928,5.203c4.624-3.341,2.455-5.84,8.69-43.403c0.613-4.211-2.302-8.122-6.513-8.736
	c-4.214-0.602-8.122,2.303-8.736,6.513l-2.871,19.701c-21.477-28.979-48.981-53.336-80.439-71.032
	C210.885-62.722,0.174,61.073,0.174,256.195C0.174,397.57,114.582,512,255.979,512c68.329,0,132.567-26.608,180.881-74.924
	C500.762,373.175,523.907,284.093,505.927,201.518z"/>
<path style="fill:#3993B7;" d="M430.851,355.373c-31.303,55.198-84.796,89.922-142.902,99.312
	c-43.579,7.047-89.768-0.144-131.149-23.618C60.211,376.29,26.33,253.596,81.107,157.016c42.655-75.211,126.495-112.4,207.11-99.312
	c22.909,3.719,45.562,11.496,66.941,23.618C451.747,136.1,485.629,258.794,430.851,355.373z"/>
<path style="fill:#3E9DC3;" d="M430.851,355.373c-31.303,55.198-84.796,89.922-142.902,99.312
	c-22.909-3.719-45.562-11.496-66.941-23.618c-96.59-54.777-130.471-177.471-75.694-274.051
	c31.303-55.198,84.796-89.922,142.902-99.312c22.909,3.719,45.562,11.496,66.941,23.618
	C451.747,136.1,485.629,258.794,430.851,355.373z"/>
<g>
	<path style="fill:#D2D2D7;" d="M323.814,120.916v58.27c0,18.687-9.061,36.213-24.317,47.011l-27.08,19.18l-15.266,10.818
		l-1.171,0.832l-1.171-0.832l-42.347-29.998c-15.256-10.797-24.317-28.323-24.317-47.011v-58.27
		C188.145,120.916,323.814,120.916,323.814,120.916z"/>
	<path style="fill:#D2D2D7;" d="M323.814,333.204v58.27H188.145v-58.27c0-18.687,9.061-36.213,24.317-47.011l42.347-29.998
		l1.171-0.832l1.171,0.832l15.266,10.818l27.08,19.18C314.753,296.99,323.814,314.516,323.814,333.204z"/>
</g>
<g>
	<path style="fill:#EBEBF0;" d="M323.814,120.916v58.27c0,18.687-9.061,36.213-24.317,47.011l-27.08,19.18l-27.08-19.18
		c-15.256-10.797-24.317-28.323-24.317-47.011v-58.27C221.019,120.916,323.814,120.916,323.814,120.916z"/>
	<path style="fill:#EBEBF0;" d="M323.814,333.204v58.27H221.019v-58.27c0-18.687,9.061-36.213,24.317-47.011l27.08-19.18
		l27.08,19.18C314.753,296.99,323.814,314.516,323.814,333.204z"/>
</g>
<g>
	<path style="fill:#F44545;" d="M331.705,139.704H180.254c-6.78,0-12.328-5.548-12.328-12.328v-12.928
		c0-6.78,5.548-12.328,12.328-12.328h151.451c6.78,0,12.328,5.548,12.328,12.328v12.928
		C344.033,134.156,338.485,139.704,331.705,139.704z"/>
	<path style="fill:#F44545;" d="M180.254,372.686h151.451c6.78,0,12.328,5.548,12.328,12.328v12.928
		c0,6.78-5.548,12.328-12.328,12.328H180.254c-6.78,0-12.328-5.548-12.328-12.328v-12.928
		C167.926,378.234,173.473,372.686,180.254,372.686z"/>
</g>
<g>
</g>
<g>
</g>
<g>
</g>
<g>
</g>
<g>
</g>
<g>
</g>
<g>
</g>
<g>
</g>
<g>
</g>
<g>
</g>
<g>
</g>
<g>
</g>
<g>
</g>
<g>
</g>
<g>
</g>
</svg>
