<svg width="18" height="17" viewBox="0 0 18 17" fill="none" xmlns="http://www.w3.org/2000/svg">
<path fill-rule="evenodd" clip-rule="evenodd" d="M9.3041 17C14.1067 17 18 13.1944 18 8.5C18 3.80558 14.1067 0 9.3041 0C4.5015 0 0.608227 3.80558 0.608227 8.5C0.608227 10.5534 1.35819 12.4881 2.67467 14.0016H0.668914C0.299483 14.0016 1.1134e-08 14.2944 0 14.6555C-1.11359e-08 15.0166 0.299483 15.3093 0.668913 15.3093L4.45286 15.3093C4.82229 15.3093 5.12177 15.0166 5.12177 14.6555V10.9567C5.12177 10.5956 4.82229 10.3029 4.45286 10.3029C4.08343 10.3029 3.78395 10.5956 3.78395 10.9567V13.2562C2.61413 11.9609 1.94605 10.2842 1.94605 8.5C1.94605 4.5278 5.24037 1.30769 9.3041 1.30769C13.3678 1.30769 16.6622 4.5278 16.6622 8.5C16.6622 12.4722 13.3678 15.6923 9.3041 15.6923C8.93467 15.6923 8.63519 15.985 8.63519 16.3462C8.63519 16.7073 8.93467 17 9.3041 17ZM9.30415 4.18521C9.67358 4.18521 9.97306 4.47794 9.97306 4.83905V9.10093L12.1455 11.2244C12.4067 11.4797 12.4067 11.8937 12.1455 12.1491C11.8842 12.4044 11.4607 12.4044 11.1995 12.1491L8.83115 9.8341C8.70571 9.71148 8.63523 9.54517 8.63523 9.37176V4.83905C8.63523 4.47794 8.93472 4.18521 9.30415 4.18521Z" fill="#2C84D1"/>
</svg>
