<svg width="169" height="19" viewBox="0 0 169 19" fill="none" xmlns="http://www.w3.org/2000/svg">
<path d="M4.72821 13.7516C5.14432 13.7516 5.52892 13.6665 5.88199 13.4963C6.23506 13.3261 6.52508 13.0928 6.75205 12.7965C6.97903 12.4938 7.10828 12.1502 7.1398 11.7656H8.80427C8.77275 12.3709 8.56784 12.9352 8.18955 13.4585C7.81757 13.9755 7.32895 14.3947 6.72368 14.7163C6.11842 15.0315 5.45326 15.1891 4.72821 15.1891C3.95902 15.1891 3.28755 15.0536 2.71381 14.7825C2.14638 14.5114 1.67352 14.1394 1.29523 13.6665C0.923244 13.1937 0.642679 12.6515 0.453534 12.0399C0.270694 11.422 0.179274 10.7695 0.179274 10.0822V9.68503C0.179274 8.99781 0.270694 8.34841 0.453534 7.73684C0.642679 7.11897 0.923244 6.5736 1.29523 6.10074C1.67352 5.62788 2.14638 5.25589 2.71381 4.98479C3.28755 4.71368 3.95902 4.57812 4.72821 4.57812C5.52892 4.57812 6.22875 4.74205 6.82771 5.0699C7.42667 5.39145 7.89638 5.83278 8.23684 6.39391C8.58361 6.94874 8.77275 7.57922 8.80427 8.28536H7.1398C7.10828 7.86294 6.98849 7.4815 6.78043 7.14104C6.57867 6.80058 6.30126 6.52947 5.94819 6.32771C5.60142 6.11965 5.19476 6.01562 4.72821 6.01562C4.1923 6.01562 3.7415 6.12281 3.37582 6.33717C3.01645 6.54523 2.72958 6.82895 2.51521 7.18832C2.30715 7.54139 2.15584 7.93544 2.06126 8.37048C1.973 8.7992 1.92886 9.23739 1.92886 9.68503V10.0822C1.92886 10.5299 1.973 10.9712 2.06126 11.4062C2.14953 11.8413 2.2977 12.2353 2.50575 12.5884C2.72012 12.9415 3.00699 13.2252 3.36636 13.4396C3.73204 13.6476 4.18599 13.7516 4.72821 13.7516ZM22.139 0.312911H23.5765C23.5765 0.930784 23.4819 1.42256 23.2928 1.78824C23.1036 2.14761 22.8451 2.42503 22.5173 2.62048C22.1957 2.81593 21.83 2.96409 21.4202 3.06497C21.0167 3.16584 20.5974 3.26357 20.1624 3.35814C19.6202 3.47163 19.1158 3.65132 18.6493 3.8972C18.189 4.13679 17.7918 4.47725 17.4576 4.91859C17.1298 5.35992 16.8871 5.93366 16.7294 6.6398C16.5781 7.34594 16.5371 8.21916 16.6065 9.25946V10.1295H15.169V9.25946C15.169 8.09306 15.2793 7.07484 15.5 6.20477C15.727 5.3347 16.0454 4.60019 16.4552 4.00123C16.865 3.40227 17.3505 2.92626 17.9116 2.57319C18.479 2.22012 19.1032 1.97738 19.7841 1.84498C20.2759 1.75041 20.6983 1.64953 21.0514 1.54235C21.4045 1.42886 21.6724 1.27755 21.8553 1.0884C22.0444 0.89926 22.139 0.640762 22.139 0.312911ZM20.0678 5.35362C20.7362 5.35362 21.332 5.47026 21.8553 5.70354C22.3786 5.93681 22.8231 6.26151 23.1887 6.67763C23.5544 7.09375 23.8318 7.58553 24.021 8.15296C24.2164 8.71409 24.3141 9.32566 24.3141 9.98766V10.1957C24.3141 10.9082 24.2101 11.5702 24.0021 12.1817C23.8003 12.787 23.5008 13.3166 23.1036 13.7706C22.7127 14.2182 22.2336 14.5681 21.6661 14.8203C21.105 15.0725 20.465 15.1986 19.7463 15.1986C19.0275 15.1986 18.3845 15.0725 17.817 14.8203C17.2559 14.5681 16.7767 14.2182 16.3795 13.7706C15.9823 13.3166 15.6797 12.787 15.4716 12.1817C15.2699 11.5702 15.169 10.9082 15.169 10.1957V9.98766C15.169 9.83004 15.1974 9.67558 15.2541 9.52426C15.3109 9.37294 15.3802 9.21848 15.4622 9.06086C15.5504 8.90323 15.6292 8.73616 15.6986 8.55962C15.9319 7.99219 16.2503 7.46573 16.6538 6.98026C17.0636 6.49479 17.5522 6.10389 18.1197 5.80757C18.6934 5.50493 19.3428 5.35362 20.0678 5.35362ZM19.7274 6.78166C19.0843 6.78166 18.5547 6.92982 18.1386 7.22615C17.7288 7.52248 17.423 7.91653 17.2212 8.40831C17.0195 8.89378 16.9186 9.42023 16.9186 9.98766V10.1957C16.9186 10.6749 16.9753 11.1288 17.0888 11.5576C17.2023 11.9863 17.3725 12.3677 17.5995 12.7019C17.8328 13.0297 18.126 13.2882 18.479 13.4774C18.8384 13.6665 19.2608 13.7611 19.7463 13.7611C20.2318 13.7611 20.651 13.6665 21.0041 13.4774C21.3572 13.2882 21.6472 13.0297 21.8742 12.7019C22.1011 12.3677 22.2714 11.9863 22.3849 11.5576C22.4984 11.1288 22.5551 10.6749 22.5551 10.1957V9.98766C22.5551 9.55894 22.4984 9.15228 22.3849 8.76768C22.2714 8.38309 22.098 8.04263 21.8647 7.7463C21.6377 7.44997 21.3446 7.21669 20.9852 7.04646C20.6321 6.86993 20.2129 6.78166 19.7274 6.78166ZM25.8368 9.99712V9.77961C25.8368 9.04194 25.9439 8.35787 26.1583 7.72738C26.3727 7.0906 26.6816 6.53893 27.0851 6.07237C27.4886 5.59951 27.9772 5.23383 28.551 4.97533C29.1247 4.71053 29.7678 4.57812 30.4803 4.57812C31.199 4.57812 31.8453 4.71053 32.419 4.97533C32.999 5.23383 33.4908 5.59951 33.8943 6.07237C34.3041 6.53893 34.6162 7.0906 34.8306 7.72738C35.045 8.35787 35.1521 9.04194 35.1521 9.77961V9.99712C35.1521 10.7348 35.045 11.4189 34.8306 12.0493C34.6162 12.6798 34.3041 13.2315 33.8943 13.7044C33.4908 14.1709 33.0022 14.5366 32.4285 14.8014C31.861 15.0599 31.2179 15.1891 30.4992 15.1891C29.7804 15.1891 29.1342 15.0599 28.5604 14.8014C27.9867 14.5366 27.4949 14.1709 27.0851 13.7044C26.6816 13.2315 26.3727 12.6798 26.1583 12.0493C25.9439 11.4189 25.8368 10.7348 25.8368 9.99712ZM27.5863 9.77961V9.99712C27.5863 10.5078 27.6462 10.9901 27.766 11.4441C27.8858 11.8917 28.0655 12.2889 28.3051 12.6357C28.551 12.9825 28.8568 13.2567 29.2225 13.4585C29.5881 13.6539 30.0137 13.7516 30.4992 13.7516C30.9783 13.7516 31.3976 13.6539 31.757 13.4585C32.1227 13.2567 32.4253 12.9825 32.6649 12.6357C32.9045 12.2889 33.0842 11.8917 33.2039 11.4441C33.33 10.9901 33.3931 10.5078 33.3931 9.99712V9.77961C33.3931 9.27522 33.33 8.7992 33.2039 8.35156C33.0842 7.89761 32.9013 7.49726 32.6554 7.15049C32.4158 6.79742 32.1132 6.52001 31.7475 6.31826C31.3882 6.1165 30.9657 6.01562 30.4803 6.01562C30.0011 6.01562 29.5787 6.1165 29.213 6.31826C28.8536 6.52001 28.551 6.79742 28.3051 7.15049C28.0655 7.49726 27.8858 7.89761 27.766 8.35156C27.6462 8.7992 27.5863 9.27522 27.5863 9.77961ZM39.0958 6.73437V18.9342H37.3368V4.76727H38.9445L39.0958 6.73437ZM45.9901 9.79852V9.99712C45.9901 10.7411 45.9019 11.4315 45.7253 12.0683C45.5488 12.6987 45.2903 13.2473 44.9498 13.7138C44.6157 14.1804 44.2027 14.5429 43.7109 14.8014C43.2192 15.0599 42.6549 15.1891 42.0181 15.1891C41.3687 15.1891 40.795 15.082 40.2969 14.8676C39.7988 14.6532 39.3764 14.3411 39.0296 13.9313C38.6828 13.5215 38.4054 13.0297 38.1974 12.456C37.9956 11.8823 37.8569 11.236 37.7812 10.5173V9.45806C37.8569 8.70148 37.9988 8.02371 38.2068 7.42475C38.4149 6.82579 38.6891 6.3151 39.0296 5.89268C39.3764 5.46395 39.7956 5.13925 40.2874 4.91859C40.7792 4.69161 41.3466 4.57812 41.9897 4.57812C42.6328 4.57812 43.2034 4.70422 43.7015 4.95641C44.1996 5.2023 44.6188 5.55537 44.9593 6.01562C45.2998 6.47588 45.5551 7.02755 45.7253 7.67064C45.9019 8.30743 45.9901 9.01672 45.9901 9.79852ZM44.2311 9.99712V9.79852C44.2311 9.28783 44.1775 8.80866 44.0703 8.36102C43.9631 7.90707 43.7961 7.50987 43.5691 7.16941C43.3484 6.82264 43.0647 6.55153 42.7179 6.35609C42.3712 6.15433 41.9582 6.05345 41.479 6.05345C41.0377 6.05345 40.6531 6.12911 40.3252 6.28043C40.0037 6.43174 39.7294 6.63665 39.5025 6.89515C39.2755 7.14734 39.0895 7.43736 38.9445 7.76521C38.8058 8.08676 38.7018 8.42092 38.6324 8.76768V11.2171C38.7585 11.6584 38.935 12.0746 39.162 12.4655C39.389 12.8501 39.6916 13.1621 40.0699 13.4017C40.4482 13.635 40.9242 13.7516 41.4979 13.7516C41.9708 13.7516 42.3775 13.6539 42.7179 13.4585C43.0647 13.2567 43.3484 12.9825 43.5691 12.6357C43.7961 12.2889 43.9631 11.8917 44.0703 11.4441C44.1775 10.9901 44.2311 10.5078 44.2311 9.99712ZM51.6361 4.76727V15H49.8771V4.76727H51.6361ZM55.0691 4.76727V6.18586H46.5103V4.76727H55.0691ZM62.6727 13.2504V7.98273C62.6727 7.57922 62.5907 7.2293 62.4268 6.93298C62.2692 6.63035 62.0296 6.39707 61.7081 6.23314C61.3865 6.06922 60.9893 5.98725 60.5164 5.98725C60.0751 5.98725 59.6874 6.06291 59.3532 6.21423C59.0254 6.36554 58.7669 6.56414 58.5777 6.81003C58.3949 7.05592 58.3035 7.32072 58.3035 7.60444H56.5539C56.5539 7.23876 56.6484 6.87623 56.8376 6.51686C57.0267 6.15748 57.2978 5.83278 57.6509 5.54276C58.0103 5.24644 58.439 5.01316 58.9371 4.84293C59.4415 4.66639 60.0026 4.57812 60.6205 4.57812C61.3644 4.57812 62.0201 4.70422 62.5876 4.95641C63.1613 5.20861 63.609 5.59005 63.9305 6.10074C64.2584 6.60513 64.4223 7.23876 64.4223 8.00164V12.7681C64.4223 13.1086 64.4507 13.4711 64.5074 13.8557C64.5705 14.2403 64.6619 14.5713 64.7817 14.8487V15H62.9564C62.8681 14.7982 62.7988 14.5303 62.7484 14.1961C62.6979 13.8557 62.6727 13.5404 62.6727 13.2504ZM62.9753 8.79605L62.9942 10.0255H61.2257C60.7277 10.0255 60.2832 10.0665 59.8923 10.1484C59.5014 10.2241 59.1735 10.3407 58.9087 10.4984C58.6439 10.656 58.4422 10.8546 58.3035 11.0942C58.1647 11.3274 58.0954 11.6017 58.0954 11.9169C58.0954 12.2385 58.1679 12.5317 58.3129 12.7965C58.4579 13.0613 58.6754 13.2725 58.9655 13.4301C59.2618 13.5814 59.6243 13.6571 60.053 13.6571C60.589 13.6571 61.0618 13.5436 61.4716 13.3166C61.8814 13.0896 62.2061 12.8122 62.4457 12.4844C62.6916 12.1565 62.824 11.8381 62.8429 11.5292L63.5901 12.3709C63.5459 12.6357 63.4261 12.9289 63.2307 13.2504C63.0352 13.572 62.7736 13.8809 62.4457 14.1772C62.1242 14.4672 61.7396 14.71 61.2919 14.9054C60.8506 15.0946 60.3525 15.1891 59.7977 15.1891C59.1042 15.1891 58.4958 15.0536 57.9725 14.7825C57.4555 14.5114 57.0519 14.1488 56.7619 13.6949C56.4782 13.2346 56.3364 12.7208 56.3364 12.1534C56.3364 11.6049 56.4435 11.1225 56.6579 10.7064C56.8723 10.284 57.1812 9.93407 57.5847 9.65666C57.9882 9.37294 58.4737 9.15858 59.0411 9.01357C59.6086 8.86856 60.2422 8.79605 60.942 8.79605H62.9753ZM76.1493 4.76727V15H74.3902V4.76727H76.1493ZM79.5822 4.76727V6.18586H71.0234V4.76727H79.5822ZM84.7932 15.1891C84.0807 15.1891 83.4345 15.0694 82.8544 14.8298C82.2807 14.5839 81.7858 14.2403 81.3697 13.7989C80.9598 13.3576 80.6446 12.8343 80.4239 12.229C80.2033 11.6238 80.0929 10.9618 80.0929 10.243V9.84581C80.0929 9.01357 80.2159 8.27275 80.4618 7.62336C80.7076 6.96765 81.0418 6.41283 81.4642 5.95888C81.8866 5.50493 82.3658 5.16132 82.9017 4.92804C83.4376 4.69476 83.9925 4.57812 84.5662 4.57812C85.2976 4.57812 85.928 4.70422 86.4576 4.95641C86.9936 5.20861 87.4317 5.56168 87.7722 6.01562C88.1127 6.46327 88.3649 6.99287 88.5288 7.60444C88.6927 8.2097 88.7747 8.87171 88.7747 9.59046V10.3754H81.1332V8.94737H87.0251V8.81497C86.9999 8.36102 86.9053 7.91968 86.7414 7.49095C86.5837 7.06223 86.3315 6.70916 85.9848 6.43174C85.638 6.15433 85.1652 6.01562 84.5662 6.01562C84.169 6.01562 83.8033 6.10074 83.4692 6.27097C83.135 6.4349 82.8481 6.68078 82.6085 7.00863C82.369 7.33649 82.183 7.73684 82.0506 8.2097C81.9182 8.68257 81.852 9.22793 81.852 9.84581V10.243C81.852 10.7285 81.9182 11.1856 82.0506 11.6143C82.1893 12.0367 82.3879 12.4087 82.6464 12.7303C82.9112 13.0518 83.2296 13.304 83.6016 13.4868C83.9798 13.6697 84.4086 13.7611 84.8877 13.7611C85.5056 13.7611 86.0289 13.635 86.4576 13.3828C86.8864 13.1306 87.2615 12.7933 87.5831 12.3709L88.6423 13.2126C88.4216 13.5467 88.141 13.8651 87.8006 14.1678C87.4601 14.4704 87.0408 14.7163 86.5428 14.9054C86.051 15.0946 85.4678 15.1891 84.7932 15.1891ZM97.6361 4.76727V6.21423H92.463V4.76727H97.6361ZM92.7183 4.76727V15H90.9687V4.76727H92.7183ZM99.1871 4.76727V15H97.428V4.76727H99.1871ZM108.833 4.76727V6.21423H103.887V4.76727H108.833ZM110.375 4.76727V15H108.625V4.76727H110.375ZM103.462 4.76727H105.221L104.956 9.70395C104.912 10.4668 104.839 11.1414 104.738 11.7278C104.644 12.3078 104.512 12.8059 104.341 13.222C104.177 13.6382 103.969 13.9786 103.717 14.2434C103.471 14.5019 103.175 14.6942 102.828 14.8203C102.481 14.9401 102.081 15 101.627 15H101.079V13.4585L101.457 13.4301C101.728 13.4112 101.958 13.3481 102.147 13.241C102.343 13.1338 102.507 12.9762 102.639 12.7681C102.771 12.5537 102.879 12.2795 102.961 11.9453C103.049 11.6112 103.115 11.214 103.159 10.7537C103.21 10.2934 103.247 9.75754 103.273 9.14597L103.462 4.76727ZM112.73 9.99712V9.77961C112.73 9.04194 112.837 8.35787 113.051 7.72738C113.266 7.0906 113.575 6.53893 113.978 6.07237C114.382 5.59951 114.87 5.23383 115.444 4.97533C116.018 4.71053 116.661 4.57812 117.373 4.57812C118.092 4.57812 118.738 4.71053 119.312 4.97533C119.892 5.23383 120.384 5.59951 120.787 6.07237C121.197 6.53893 121.509 7.0906 121.724 7.72738C121.938 8.35787 122.045 9.04194 122.045 9.77961V9.99712C122.045 10.7348 121.938 11.4189 121.724 12.0493C121.509 12.6798 121.197 13.2315 120.787 13.7044C120.384 14.1709 119.895 14.5366 119.322 14.8014C118.754 15.0599 118.111 15.1891 117.392 15.1891C116.674 15.1891 116.027 15.0599 115.454 14.8014C114.88 14.5366 114.388 14.1709 113.978 13.7044C113.575 13.2315 113.266 12.6798 113.051 12.0493C112.837 11.4189 112.73 10.7348 112.73 9.99712ZM114.479 9.77961V9.99712C114.479 10.5078 114.539 10.9901 114.659 11.4441C114.779 11.8917 114.959 12.2889 115.198 12.6357C115.444 12.9825 115.75 13.2567 116.116 13.4585C116.481 13.6539 116.907 13.7516 117.392 13.7516C117.871 13.7516 118.291 13.6539 118.65 13.4585C119.016 13.2567 119.318 12.9825 119.558 12.6357C119.798 12.2889 119.977 11.8917 120.097 11.4441C120.223 10.9901 120.286 10.5078 120.286 9.99712V9.77961C120.286 9.27522 120.223 8.7992 120.097 8.35156C119.977 7.89761 119.794 7.49726 119.549 7.15049C119.309 6.79742 119.006 6.52001 118.641 6.31826C118.281 6.1165 117.859 6.01562 117.373 6.01562C116.894 6.01562 116.472 6.1165 116.106 6.31826C115.747 6.52001 115.444 6.79742 115.198 7.15049C114.959 7.49726 114.779 7.89761 114.659 8.35156C114.539 8.7992 114.479 9.27522 114.479 9.77961ZM125.213 4.76727L127.455 8.49342L129.725 4.76727H131.777L128.429 9.81743L131.881 15H129.857L127.493 11.1604L125.128 15H123.095L126.537 9.81743L123.199 4.76727H125.213ZM132.987 9.99712V9.77961C132.987 9.04194 133.094 8.35787 133.309 7.72738C133.523 7.0906 133.832 6.53893 134.236 6.07237C134.639 5.59951 135.128 5.23383 135.701 4.97533C136.275 4.71053 136.918 4.57812 137.631 4.57812C138.35 4.57812 138.996 4.71053 139.569 4.97533C140.15 5.23383 140.641 5.59951 141.045 6.07237C141.455 6.53893 141.767 7.0906 141.981 7.72738C142.195 8.35787 142.303 9.04194 142.303 9.77961V9.99712C142.303 10.7348 142.195 11.4189 141.981 12.0493C141.767 12.6798 141.455 13.2315 141.045 13.7044C140.641 14.1709 140.153 14.5366 139.579 14.8014C139.012 15.0599 138.368 15.1891 137.65 15.1891C136.931 15.1891 136.285 15.0599 135.711 14.8014C135.137 14.5366 134.645 14.1709 134.236 13.7044C133.832 13.2315 133.523 12.6798 133.309 12.0493C133.094 11.4189 132.987 10.7348 132.987 9.99712ZM134.737 9.77961V9.99712C134.737 10.5078 134.797 10.9901 134.917 11.4441C135.036 11.8917 135.216 12.2889 135.456 12.6357C135.701 12.9825 136.007 13.2567 136.373 13.4585C136.739 13.6539 137.164 13.7516 137.65 13.7516C138.129 13.7516 138.548 13.6539 138.907 13.4585C139.273 13.2567 139.576 12.9825 139.815 12.6357C140.055 12.2889 140.235 11.8917 140.354 11.4441C140.481 10.9901 140.544 10.5078 140.544 9.99712V9.77961C140.544 9.27522 140.481 8.7992 140.354 8.35156C140.235 7.89761 140.052 7.49726 139.806 7.15049C139.566 6.79742 139.264 6.52001 138.898 6.31826C138.539 6.1165 138.116 6.01562 137.631 6.01562C137.152 6.01562 136.729 6.1165 136.363 6.31826C136.004 6.52001 135.701 6.79742 135.456 7.15049C135.216 7.49726 135.036 7.89761 134.917 8.35156C134.797 8.7992 134.737 9.27522 134.737 9.77961ZM145.66 4.76727H147.41L147.258 8.59745C147.22 9.56839 147.11 10.4069 146.927 11.1131C146.744 11.8192 146.511 12.4213 146.227 12.9194C145.944 13.4112 145.625 13.8242 145.272 14.1583C144.925 14.4925 144.566 14.773 144.194 15H143.324L143.371 13.572L143.731 13.5625C143.939 13.3166 144.14 13.0644 144.336 12.8059C144.531 12.5411 144.711 12.229 144.875 11.8697C145.039 11.504 145.174 11.0595 145.282 10.5362C145.395 10.0066 145.468 9.36033 145.499 8.59745L145.66 4.76727ZM146.095 4.76727H152.252V15H150.502V6.38446H146.095V4.76727ZM142.927 13.5625H153.566V18.0169H151.817V15H144.676V18.0169H142.917L142.927 13.5625ZM161.539 13.2504V7.98273C161.539 7.57922 161.457 7.2293 161.293 6.93298C161.135 6.63035 160.896 6.39707 160.574 6.23314C160.252 6.06922 159.855 5.98725 159.382 5.98725C158.941 5.98725 158.553 6.06291 158.219 6.21423C157.891 6.36554 157.633 6.56414 157.444 6.81003C157.261 7.05592 157.169 7.32072 157.169 7.60444H155.42C155.42 7.23876 155.514 6.87623 155.704 6.51686C155.893 6.15748 156.164 5.83278 156.517 5.54276C156.876 5.24644 157.305 5.01316 157.803 4.84293C158.307 4.66639 158.869 4.57812 159.486 4.57812C160.23 4.57812 160.886 4.70422 161.454 4.95641C162.027 5.20861 162.475 5.59005 162.796 6.10074C163.124 6.60513 163.288 7.23876 163.288 8.00164V12.7681C163.288 13.1086 163.317 13.4711 163.373 13.8557C163.436 14.2403 163.528 14.5713 163.648 14.8487V15H161.822C161.734 14.7982 161.665 14.5303 161.614 14.1961C161.564 13.8557 161.539 13.5404 161.539 13.2504ZM161.841 8.79605L161.86 10.0255H160.092C159.594 10.0255 159.149 10.0665 158.758 10.1484C158.367 10.2241 158.039 10.3407 157.775 10.4984C157.51 10.656 157.308 10.8546 157.169 11.0942C157.031 11.3274 156.961 11.6017 156.961 11.9169C156.961 12.2385 157.034 12.5317 157.179 12.7965C157.324 13.0613 157.541 13.2725 157.831 13.4301C158.128 13.5814 158.49 13.6571 158.919 13.6571C159.455 13.6571 159.928 13.5436 160.338 13.3166C160.747 13.0896 161.072 12.8122 161.312 12.4844C161.558 12.1565 161.69 11.8381 161.709 11.5292L162.456 12.3709C162.412 12.6357 162.292 12.9289 162.097 13.2504C161.901 13.572 161.64 13.8809 161.312 14.1772C160.99 14.4672 160.606 14.71 160.158 14.9054C159.717 15.0946 159.218 15.1891 158.664 15.1891C157.97 15.1891 157.362 15.0536 156.838 14.7825C156.321 14.5114 155.918 14.1488 155.628 13.6949C155.344 13.2346 155.202 12.7208 155.202 12.1534C155.202 11.6049 155.309 11.1225 155.524 10.7064C155.738 10.284 156.047 9.93407 156.451 9.65666C156.854 9.37294 157.34 9.15858 157.907 9.01357C158.475 8.86856 159.108 8.79605 159.808 8.79605H161.841ZM168.121 1.23026L167.998 11.1131H166.419L166.286 1.23026H168.121ZM166.229 14.1205C166.229 13.8368 166.315 13.5972 166.485 13.4017C166.661 13.2063 166.92 13.1086 167.26 13.1086C167.594 13.1086 167.85 13.2063 168.026 13.4017C168.209 13.5972 168.301 13.8368 168.301 14.1205C168.301 14.3916 168.209 14.6249 168.026 14.8203C167.85 15.0158 167.594 15.1135 167.26 15.1135C166.92 15.1135 166.661 15.0158 166.485 14.8203C166.315 14.6249 166.229 14.3916 166.229 14.1205Z" fill="white"/>
</svg>
