<svg width="215" height="22" viewBox="0 0 215 22" fill="none" xmlns="http://www.w3.org/2000/svg">
<path d="M11.3103 21.3057C9.80968 21.3057 8.42021 21.0556 7.14189 20.5554C5.86358 20.0366 4.74274 19.3234 3.77937 18.4156C2.83453 17.4893 2.09347 16.4055 1.55621 15.1642C1.03747 13.9229 0.778105 12.5798 0.778105 11.1347C0.778105 9.67116 1.03747 8.328 1.55621 7.10526C2.09347 5.864 2.83453 4.78947 3.77937 3.88168C4.74274 2.97389 5.85432 2.26063 7.11411 1.74189C8.39242 1.22316 9.77263 0.963788 11.2547 0.963788C12.8109 0.963788 14.2097 1.21389 15.4509 1.7141C16.6922 2.19579 17.7853 2.872 18.7301 3.74273L15.3954 7.07747C14.9322 6.55874 14.3579 6.15116 13.6724 5.85474C12.9869 5.55831 12.1811 5.4101 11.2547 5.4101C10.4581 5.4101 9.72632 5.53979 9.05937 5.79916C8.41095 6.05852 7.8459 6.44758 7.36421 6.96632C6.88253 7.46653 6.50274 8.06863 6.22484 8.77263C5.96547 9.47663 5.83579 10.264 5.83579 11.1347C5.83579 12.0055 5.96547 12.7928 6.22484 13.4968C6.50274 14.2008 6.88253 14.8122 7.36421 15.3309C7.8459 15.8312 8.41095 16.2202 9.05937 16.4981C9.72632 16.7575 10.4581 16.8872 11.2547 16.8872C12.1811 16.8872 12.9962 16.7482 13.7002 16.4703C14.4042 16.1739 15.0063 15.7571 15.5065 15.2198L18.8413 18.5545C17.8779 19.4253 16.7848 20.1015 15.5621 20.5832C14.3579 21.0648 12.9406 21.3057 11.3103 21.3057ZM27.6334 5.52126C29.6713 5.52126 31.2275 5.96589 32.302 6.85516C33.3951 7.72589 33.9416 9.06905 33.9416 10.8846V21H31.0515L30.2456 18.9436H30.1344C29.7083 19.4808 29.2637 19.9255 28.8005 20.2775C28.3559 20.6295 27.8372 20.8796 27.2443 21.0278C26.67 21.1945 25.9567 21.2779 25.1045 21.2779C24.2153 21.2779 23.4094 21.1112 22.6869 20.7777C21.9829 20.4257 21.4271 19.8977 21.0195 19.1937C20.6119 18.4712 20.4081 17.5634 20.4081 16.4703C20.4081 14.8585 20.9732 13.6728 22.1033 12.9133C23.2334 12.1352 24.9285 11.7091 27.1887 11.6349L29.8287 11.5516V10.8846C29.8287 10.088 29.6157 9.50442 29.1896 9.13389C28.782 8.76337 28.2077 8.5781 27.4666 8.5781C26.7256 8.5781 26.0031 8.68926 25.2991 8.91158C24.5951 9.11537 23.8911 9.37474 23.1871 9.68968L21.8254 6.88295C22.6405 6.45684 23.5391 6.12337 24.521 5.88253C25.5214 5.64168 26.5589 5.52126 27.6334 5.52126ZM28.217 14.0248C26.8831 14.0619 25.9567 14.3027 25.438 14.7474C24.9193 15.192 24.6599 15.7756 24.6599 16.4981C24.6599 17.128 24.8452 17.5819 25.2157 17.8598C25.5862 18.1192 26.0679 18.2488 26.6607 18.2488C27.55 18.2488 28.3003 17.9895 28.9117 17.4707C29.5231 16.9335 29.8287 16.1832 29.8287 15.2198V13.9693L28.217 14.0248ZM51.769 21H47.6283V8.93937H43.8212C43.6359 11.1625 43.4043 13.0615 43.1264 14.6362C42.8671 16.1924 42.5336 17.4615 42.126 18.4434C41.737 19.4253 41.2368 20.1478 40.6254 20.6109C40.014 21.0556 39.2637 21.2779 38.3744 21.2779C37.8928 21.2779 37.4574 21.2408 37.0683 21.1667C36.6793 21.0926 36.3273 20.9815 36.0123 20.8333V17.5263C36.2161 17.6004 36.4292 17.6653 36.6515 17.7208C36.8738 17.7764 37.1054 17.8042 37.3462 17.8042C37.6056 17.8042 37.8464 17.7023 38.0688 17.4985C38.3096 17.2947 38.5319 16.9335 38.7357 16.4147C38.958 15.896 39.1618 15.1827 39.3471 14.2749C39.5323 13.3672 39.6991 12.2278 39.8473 10.8568C40.014 9.46737 40.1622 7.79074 40.2919 5.82695H51.769V21ZM77.0444 13.3857C77.0444 15.0716 76.7572 16.5074 76.1829 17.6931C75.6086 18.8602 74.7842 19.7495 73.7096 20.3608C72.6536 20.9722 71.3938 21.2779 69.9303 21.2779C68.689 21.2779 67.5682 21.0463 66.5677 20.5832C65.5858 20.1015 64.7799 19.3789 64.1501 18.4156C63.5387 17.4522 63.1404 16.2295 62.9551 14.7474H60.2317V21H56.0911V5.82695H60.2317V11.6627H63.0107C63.1959 10.3474 63.5943 9.23579 64.2056 8.328C64.8355 7.42021 65.6414 6.73474 66.6233 6.27158C67.6237 5.78989 68.7538 5.54905 70.0136 5.54905C71.3846 5.54905 72.5981 5.85474 73.6541 6.4661C74.7101 7.07747 75.5345 7.96674 76.1273 9.13389C76.7387 10.2825 77.0444 11.6998 77.0444 13.3857ZM67.1235 13.3857C67.1235 14.3861 67.2162 15.2291 67.4014 15.9145C67.6052 16.5815 67.9202 17.0909 68.3463 17.4429C68.7724 17.7764 69.3189 17.9432 69.9858 17.9432C70.6528 17.9432 71.1901 17.7764 71.5976 17.4429C72.0237 17.0909 72.3294 16.5815 72.5147 15.9145C72.7185 15.2291 72.8204 14.3861 72.8204 13.3857C72.8204 12.3853 72.7185 11.5516 72.5147 10.8846C72.3294 10.2177 72.0237 9.71747 71.5976 9.384C71.1901 9.05053 70.6435 8.88379 69.9581 8.88379C69.2911 8.88379 68.7446 9.05053 68.3185 9.384C67.9109 9.71747 67.6052 10.2177 67.4014 10.8846C67.2162 11.5516 67.1235 12.3853 67.1235 13.3857ZM92.7506 8.93937H87.7763V21H83.6357V8.93937H78.6614V5.82695H92.7506V8.93937ZM104.82 5.82695V11.6627H110.6V5.82695H114.741V21H110.6V14.7474H104.82V21H100.679V5.82695H104.82ZM125.304 5.52126C127.342 5.52126 128.898 5.96589 129.972 6.85516C131.065 7.72589 131.612 9.06905 131.612 10.8846V21H128.722L127.916 18.9436H127.805C127.379 19.4808 126.934 19.9255 126.471 20.2775C126.026 20.6295 125.507 20.8796 124.915 21.0278C124.34 21.1945 123.627 21.2779 122.775 21.2779C121.886 21.2779 121.08 21.1112 120.357 20.7777C119.653 20.4257 119.097 19.8977 118.69 19.1937C118.282 18.4712 118.078 17.5634 118.078 16.4703C118.078 14.8585 118.643 13.6728 119.774 12.9133C120.904 12.1352 122.599 11.7091 124.859 11.6349L127.499 11.5516V10.8846C127.499 10.088 127.286 9.50442 126.86 9.13389C126.452 8.76337 125.878 8.5781 125.137 8.5781C124.396 8.5781 123.673 8.68926 122.969 8.91158C122.265 9.11537 121.561 9.37474 120.857 9.68968L119.496 6.88295C120.311 6.45684 121.209 6.12337 122.191 5.88253C123.192 5.64168 124.229 5.52126 125.304 5.52126ZM125.887 14.0248C124.553 14.0619 123.627 14.3027 123.108 14.7474C122.59 15.192 122.33 15.7756 122.33 16.4981C122.33 17.128 122.515 17.5819 122.886 17.8598C123.256 18.1192 123.738 18.2488 124.331 18.2488C125.22 18.2488 125.971 17.9895 126.582 17.4707C127.193 16.9335 127.499 16.1832 127.499 15.2198V13.9693L125.887 14.0248ZM141.452 21L147.871 12.1352L149.705 12.2741C149.427 12.7373 149.14 13.1356 148.844 13.4691C148.566 13.784 148.214 14.0341 147.788 14.2194C147.362 14.4046 146.797 14.4973 146.093 14.4973C144.851 14.4973 143.721 14.2101 142.702 13.6358C141.702 13.0429 140.896 12.2463 140.285 11.2459C139.673 10.2455 139.367 9.12463 139.367 7.88337C139.367 6.58652 139.701 5.41937 140.368 4.38189C141.035 3.32589 141.933 2.49221 143.063 1.88084C144.194 1.26947 145.453 0.963788 146.843 0.963788C148.269 0.963788 149.538 1.26947 150.65 1.88084C151.78 2.49221 152.669 3.31663 153.318 4.3541C153.985 5.39158 154.318 6.55874 154.318 7.85558C154.318 9.46737 153.762 11.0977 152.651 12.7465L147.01 21H141.452ZM146.843 10.8291C147.38 10.8291 147.853 10.7086 148.26 10.4678C148.668 10.2269 148.983 9.89347 149.205 9.46737C149.446 9.04126 149.566 8.55958 149.566 8.02232C149.566 7.46653 149.446 6.97558 149.205 6.54947C148.983 6.12337 148.668 5.78989 148.26 5.54905C147.853 5.30821 147.38 5.18779 146.843 5.18779C146.324 5.18779 145.861 5.30821 145.453 5.54905C145.046 5.78989 144.722 6.12337 144.481 6.54947C144.258 6.97558 144.147 7.46653 144.147 8.02232C144.147 8.55958 144.258 9.04126 144.481 9.46737C144.722 9.89347 145.046 10.2269 145.453 10.4678C145.861 10.7086 146.324 10.8291 146.843 10.8291ZM181.32 5.82695V21H177.458V13.5524C177.458 12.8114 177.467 12.0888 177.486 11.3848C177.523 10.6808 177.569 10.0324 177.624 9.43958H177.541L173.345 21H170.232L165.981 9.41179H165.87C165.944 10.0232 165.99 10.6808 166.008 11.3848C166.046 12.0703 166.064 12.8299 166.064 13.6636V21H162.201V5.82695H168.065L171.844 16.1091L175.679 5.82695H181.32ZM191.874 5.52126C193.911 5.52126 195.468 5.96589 196.542 6.85516C197.635 7.72589 198.182 9.06905 198.182 10.8846V21H195.292L194.486 18.9436H194.375C193.948 19.4808 193.504 19.9255 193.041 20.2775C192.596 20.6295 192.077 20.8796 191.484 21.0278C190.91 21.1945 190.197 21.2779 189.345 21.2779C188.455 21.2779 187.65 21.1112 186.927 20.7777C186.223 20.4257 185.667 19.8977 185.26 19.1937C184.852 18.4712 184.648 17.5634 184.648 16.4703C184.648 14.8585 185.213 13.6728 186.343 12.9133C187.474 12.1352 189.169 11.7091 191.429 11.6349L194.069 11.5516V10.8846C194.069 10.088 193.856 9.50442 193.43 9.13389C193.022 8.76337 192.448 8.5781 191.707 8.5781C190.966 8.5781 190.243 8.68926 189.539 8.91158C188.835 9.11537 188.131 9.37474 187.427 9.68968L186.066 6.88295C186.881 6.45684 187.779 6.12337 188.761 5.88253C189.762 5.64168 190.799 5.52126 191.874 5.52126ZM192.457 14.0248C191.123 14.0619 190.197 14.3027 189.678 14.7474C189.159 15.192 188.9 15.7756 188.9 16.4981C188.9 17.128 189.085 17.5819 189.456 17.8598C189.826 18.1192 190.308 18.2488 190.901 18.2488C191.79 18.2488 192.54 17.9895 193.152 17.4707C193.763 16.9335 194.069 16.1832 194.069 15.2198V13.9693L192.457 14.0248ZM204.727 21H200.252L204.338 14.9975C203.819 14.7752 203.328 14.4787 202.865 14.1082C202.42 13.7192 202.059 13.2282 201.781 12.6354C201.503 12.0425 201.364 11.3385 201.364 10.5234C201.364 9.00421 201.938 7.84631 203.087 7.04968C204.236 6.23453 205.708 5.82695 207.506 5.82695H214.564V21H210.423V15.3587H208.145L204.727 21ZM205.421 10.5512C205.421 11.1811 205.671 11.6813 206.172 12.0518C206.672 12.4038 207.32 12.5798 208.117 12.5798H210.423V8.74484H207.589C206.848 8.74484 206.301 8.9301 205.949 9.30063C205.597 9.65263 205.421 10.0695 205.421 10.5512Z" fill="white"/>
</svg>
