<svg width="201" height="20" viewBox="0 0 201 20" fill="none" xmlns="http://www.w3.org/2000/svg">
<path d="M11.5452 7.6801V8.55016C11.5452 9.58416 11.416 10.511 11.1575 11.3306C10.899 12.1502 10.527 12.8469 10.0415 13.4206C9.55605 13.9944 8.97286 14.4326 8.29194 14.7352C7.61732 15.0378 6.86074 15.1891 6.0222 15.1891C5.20888 15.1891 4.46176 15.0378 3.78083 14.7352C3.10622 14.4326 2.51987 13.9944 2.02179 13.4206C1.53001 12.8469 1.14857 12.1502 0.877463 11.3306C0.606355 10.511 0.470802 9.58416 0.470802 8.55016V7.6801C0.470802 6.64611 0.603203 5.72245 0.868005 4.90913C1.13911 4.0895 1.52055 3.39282 2.01233 2.81908C2.50411 2.23903 3.0873 1.7977 3.76192 1.49507C4.44284 1.19243 5.18996 1.04112 6.00329 1.04112C6.84183 1.04112 7.59841 1.19243 8.27302 1.49507C8.95394 1.7977 9.53714 2.23903 10.0226 2.81908C10.5144 3.39282 10.8895 4.0895 11.148 4.90913C11.4128 5.72245 11.5452 6.64611 11.5452 7.6801ZM9.73889 8.55016V7.66118C9.73889 6.84156 9.65378 6.1165 9.48355 5.48602C9.31962 4.85554 9.07689 4.32593 8.75534 3.8972C8.4338 3.46848 8.03974 3.14378 7.57319 2.92311C7.11293 2.70244 6.58963 2.5921 6.00329 2.5921C5.43585 2.5921 4.92201 2.70244 4.46176 2.92311C4.00781 3.14378 3.61691 3.46848 3.28906 3.8972C2.96751 4.32593 2.71847 4.85554 2.54194 5.48602C2.3654 6.1165 2.27713 6.84156 2.27713 7.66118V8.55016C2.27713 9.3761 2.3654 10.1075 2.54194 10.7442C2.71847 11.3747 2.97066 11.9075 3.29852 12.3425C3.63267 12.7712 4.02672 13.0959 4.48067 13.3166C4.94092 13.5373 5.45477 13.6476 6.0222 13.6476C6.61485 13.6476 7.14131 13.5373 7.60156 13.3166C8.06181 13.0959 8.44956 12.7712 8.7648 12.3425C9.08634 11.9075 9.32908 11.3747 9.49301 10.7442C9.65693 10.1075 9.73889 9.3761 9.73889 8.55016ZM20.5769 0.312911H22.0144C22.0144 0.930784 21.9198 1.42256 21.7307 1.78824C21.5415 2.14761 21.283 2.42503 20.9552 2.62048C20.6336 2.81593 20.268 2.96409 19.8581 3.06497C19.4546 3.16584 19.0354 3.26357 18.6003 3.35814C18.0581 3.47163 17.5537 3.65132 17.0872 3.8972C16.6269 4.13679 16.2297 4.47725 15.8956 4.91859C15.5677 5.35992 15.325 5.93366 15.1673 6.6398C15.016 7.34594 14.9751 8.21916 15.0444 9.25946V10.1295H13.6069V9.25946C13.6069 8.09306 13.7172 7.07484 13.9379 6.20477C14.1649 5.3347 14.4833 4.60019 14.8931 4.00123C15.3029 3.40227 15.7884 2.92626 16.3495 2.57319C16.9169 2.22012 17.5411 1.97738 18.222 1.84498C18.7138 1.75041 19.1362 1.64953 19.4893 1.54235C19.8424 1.42886 20.1103 1.27755 20.2932 1.0884C20.4823 0.89926 20.5769 0.640762 20.5769 0.312911ZM18.5058 5.35362C19.1741 5.35362 19.7699 5.47026 20.2932 5.70354C20.8165 5.93681 21.261 6.26151 21.6266 6.67763C21.9923 7.09375 22.2697 7.58553 22.4589 8.15296C22.6543 8.71409 22.7521 9.32566 22.7521 9.98766V10.1957C22.7521 10.9082 22.648 11.5702 22.44 12.1817C22.2382 12.787 21.9387 13.3166 21.5415 13.7706C21.1506 14.2182 20.6715 14.5681 20.104 14.8203C19.5429 15.0725 18.903 15.1986 18.1842 15.1986C17.4655 15.1986 16.8224 15.0725 16.2549 14.8203C15.6938 14.5681 15.2146 14.2182 14.8174 13.7706C14.4202 13.3166 14.1176 12.787 13.9095 12.1817C13.7078 11.5702 13.6069 10.9082 13.6069 10.1957V9.98766C13.6069 9.83004 13.6353 9.67558 13.692 9.52426C13.7488 9.37294 13.8181 9.21848 13.9001 9.06086C13.9883 8.90323 14.0672 8.73616 14.1365 8.55962C14.3698 7.99219 14.6882 7.46573 15.0917 6.98026C15.5015 6.49479 15.9901 6.10389 16.5576 5.80757C17.1313 5.50493 17.7807 5.35362 18.5058 5.35362ZM18.1653 6.78166C17.5222 6.78166 16.9926 6.92982 16.5765 7.22615C16.1667 7.52248 15.8609 7.91653 15.6591 8.40831C15.4574 8.89378 15.3565 9.42023 15.3565 9.98766V10.1957C15.3565 10.6749 15.4132 11.1288 15.5267 11.5576C15.6402 11.9863 15.8104 12.3677 16.0374 12.7019C16.2707 13.0297 16.5639 13.2882 16.9169 13.4774C17.2763 13.6665 17.6987 13.7611 18.1842 13.7611C18.6697 13.7611 19.0889 13.6665 19.442 13.4774C19.7951 13.2882 20.0851 13.0297 20.3121 12.7019C20.5391 12.3677 20.7093 11.9863 20.8228 11.5576C20.9363 11.1288 20.993 10.6749 20.993 10.1957V9.98766C20.993 9.55894 20.9363 9.15228 20.8228 8.76768C20.7093 8.38309 20.5359 8.04263 20.3026 7.7463C20.0757 7.44997 19.7825 7.21669 19.4231 7.04646C19.07 6.86993 18.6508 6.78166 18.1653 6.78166ZM28.5588 10.1106H26.6768V9.03248H28.4169C28.9024 9.03248 29.287 8.97259 29.5707 8.8528C29.8544 8.7267 30.0562 8.55332 30.176 8.33265C30.2958 8.11198 30.3557 7.85348 30.3557 7.55715C30.3557 7.29235 30.2863 7.04331 30.1476 6.81003C30.0152 6.57045 29.8008 6.37815 29.5045 6.23314C29.2082 6.08183 28.811 6.00617 28.3129 6.00617C27.9094 6.00617 27.5437 6.07867 27.2159 6.22368C26.888 6.36239 26.6264 6.55469 26.4309 6.80058C26.2418 7.04016 26.1472 7.31127 26.1472 7.6139H24.3976C24.3976 6.98972 24.5741 6.45381 24.9272 6.00617C25.2866 5.55222 25.7626 5.2023 26.3553 4.95641C26.9542 4.71053 27.6068 4.58758 28.3129 4.58758C28.9056 4.58758 29.4352 4.65378 29.9017 4.78618C30.3746 4.91228 30.7749 5.10143 31.1028 5.35362C31.4306 5.59951 31.6797 5.90844 31.8499 6.28043C32.0264 6.64611 32.1147 7.07168 32.1147 7.55715C32.1147 7.90392 32.0328 8.23177 31.8688 8.54071C31.7049 8.84964 31.4685 9.1239 31.1595 9.36349C30.8506 9.59677 30.4755 9.77961 30.0341 9.91201C29.5991 10.0444 29.1073 10.1106 28.5588 10.1106ZM26.6768 9.4486H28.5588C29.1704 9.4486 29.7094 9.5085 30.176 9.62829C30.6425 9.74178 31.0334 9.91201 31.3487 10.139C31.6639 10.366 31.9004 10.6465 32.058 10.9807C32.2219 11.3085 32.3039 11.6868 32.3039 12.1155C32.3039 12.5947 32.2061 13.0266 32.0107 13.4112C31.8215 13.7895 31.5504 14.111 31.1974 14.3758C30.8443 14.6406 30.4219 14.8424 29.9301 14.9811C29.4446 15.1198 28.9056 15.1891 28.3129 15.1891C27.6509 15.1891 27.0078 15.0757 26.3836 14.8487C25.7595 14.6217 25.2456 14.2718 24.8421 13.7989C24.4386 13.3198 24.2368 12.7113 24.2368 11.9737H25.9864C25.9864 12.2826 26.0842 12.5758 26.2796 12.8532C26.4751 13.1306 26.7462 13.3544 27.0929 13.5247C27.446 13.6949 27.8527 13.78 28.3129 13.78C28.8047 13.78 29.2145 13.7044 29.5423 13.553C29.8702 13.4017 30.1161 13.2 30.28 12.9478C30.4502 12.6956 30.5354 12.4213 30.5354 12.125C30.5354 11.7404 30.4597 11.4315 30.3084 11.1982C30.1571 10.9649 29.9238 10.7947 29.6085 10.6875C29.2996 10.574 28.9024 10.5173 28.4169 10.5173H26.6768V9.4486ZM34.1102 9.99712V9.77961C34.1102 9.04194 34.2174 8.35787 34.4317 7.72738C34.6461 7.0906 34.955 6.53893 35.3585 6.07237C35.7621 5.59951 36.2507 5.23383 36.8244 4.97533C37.3982 4.71053 38.0413 4.57812 38.7537 4.57812C39.4724 4.57812 40.1187 4.71053 40.6924 4.97533C41.2725 5.23383 41.7643 5.59951 42.1678 6.07237C42.5776 6.53893 42.8897 7.0906 43.104 7.72738C43.3184 8.35787 43.4256 9.04194 43.4256 9.77961V9.99712C43.4256 10.7348 43.3184 11.4189 43.104 12.0493C42.8897 12.6798 42.5776 13.2315 42.1678 13.7044C41.7643 14.1709 41.2756 14.5366 40.7019 14.8014C40.1345 15.0599 39.4914 15.1891 38.7726 15.1891C38.0539 15.1891 37.4076 15.0599 36.8339 14.8014C36.2601 14.5366 35.7684 14.1709 35.3585 13.7044C34.955 13.2315 34.6461 12.6798 34.4317 12.0493C34.2174 11.4189 34.1102 10.7348 34.1102 9.99712ZM35.8598 9.77961V9.99712C35.8598 10.5078 35.9197 10.9901 36.0395 11.4441C36.1593 11.8917 36.3389 12.2889 36.5785 12.6357C36.8244 12.9825 37.1302 13.2567 37.4959 13.4585C37.8616 13.6539 38.2871 13.7516 38.7726 13.7516C39.2518 13.7516 39.671 13.6539 40.0304 13.4585C40.3961 13.2567 40.6987 12.9825 40.9383 12.6357C41.1779 12.2889 41.3576 11.8917 41.4774 11.4441C41.6035 10.9901 41.6665 10.5078 41.6665 9.99712V9.77961C41.6665 9.27522 41.6035 8.7992 41.4774 8.35156C41.3576 7.89761 41.1747 7.49726 40.9289 7.15049C40.6893 6.79742 40.3866 6.52001 40.021 6.31826C39.6616 6.1165 39.2392 6.01562 38.7537 6.01562C38.2745 6.01562 37.8521 6.1165 37.4864 6.31826C37.1271 6.52001 36.8244 6.79742 36.5785 7.15049C36.3389 7.49726 36.1593 7.89761 36.0395 8.35156C35.9197 8.7992 35.8598 9.27522 35.8598 9.77961ZM47.3692 6.73437V18.9342H45.6102V4.76727H47.2179L47.3692 6.73437ZM54.2636 9.79852V9.99712C54.2636 10.7411 54.1753 11.4315 53.9988 12.0683C53.8222 12.6987 53.5637 13.2473 53.2233 13.7138C52.8891 14.1804 52.4761 14.5429 51.9844 14.8014C51.4926 15.0599 50.9283 15.1891 50.2915 15.1891C49.6421 15.1891 49.0684 15.082 48.5703 14.8676C48.0722 14.6532 47.6498 14.3411 47.303 13.9313C46.9563 13.5215 46.6789 13.0297 46.4708 12.456C46.269 11.8823 46.1303 11.236 46.0547 10.5173V9.45806C46.1303 8.70148 46.2722 8.02371 46.4803 7.42475C46.6883 6.82579 46.9626 6.3151 47.303 5.89268C47.6498 5.46395 48.0691 5.13925 48.5609 4.91859C49.0526 4.69161 49.6201 4.57812 50.2632 4.57812C50.9062 4.57812 51.4768 4.70422 51.9749 4.95641C52.473 5.2023 52.8923 5.55537 53.2327 6.01562C53.5732 6.47588 53.8285 7.02755 53.9988 7.67064C54.1753 8.30743 54.2636 9.01672 54.2636 9.79852ZM52.5045 9.99712V9.79852C52.5045 9.28783 52.4509 8.80866 52.3437 8.36102C52.2366 7.90707 52.0695 7.50987 51.8425 7.16941C51.6218 6.82264 51.3381 6.55153 50.9914 6.35609C50.6446 6.15433 50.2316 6.05345 49.7525 6.05345C49.3111 6.05345 48.9265 6.12911 48.5987 6.28043C48.2771 6.43174 48.0029 6.63665 47.7759 6.89515C47.5489 7.14734 47.3629 7.43736 47.2179 7.76521C47.0792 8.08676 46.9752 8.42092 46.9058 8.76768V11.2171C47.0319 11.6584 47.2085 12.0746 47.4354 12.4655C47.6624 12.8501 47.965 13.1621 48.3433 13.4017C48.7216 13.635 49.1976 13.7516 49.7714 13.7516C50.2442 13.7516 50.6509 13.6539 50.9914 13.4585C51.3381 13.2567 51.6218 12.9825 51.8425 12.6357C52.0695 12.2889 52.2366 11.8917 52.3437 11.4441C52.4509 10.9901 52.5045 10.5078 52.5045 9.99712ZM63.4371 9.20271V10.6213H58.0275V9.20271H63.4371ZM58.3964 4.76727V15H56.6468V4.76727H58.3964ZM64.8557 4.76727V15H63.0966V4.76727H64.8557ZM73.7076 13.2504V7.98273C73.7076 7.57922 73.6257 7.2293 73.4618 6.93298C73.3041 6.63035 73.0646 6.39707 72.743 6.23314C72.4215 6.06922 72.0243 5.98725 71.5514 5.98725C71.1101 5.98725 70.7223 6.06291 70.3882 6.21423C70.0603 6.36554 69.8018 6.56414 69.6127 6.81003C69.4298 7.05592 69.3384 7.32072 69.3384 7.60444H67.5888C67.5888 7.23876 67.6834 6.87623 67.8725 6.51686C68.0617 6.15748 68.3328 5.83278 68.6859 5.54276C69.0452 5.24644 69.474 5.01316 69.972 4.84293C70.4764 4.66639 71.0376 4.57812 71.6554 4.57812C72.3994 4.57812 73.0551 4.70422 73.6225 4.95641C74.1963 5.20861 74.6439 5.59005 74.9655 6.10074C75.2933 6.60513 75.4572 7.23876 75.4572 8.00164V12.7681C75.4572 13.1086 75.4856 13.4711 75.5424 13.8557C75.6054 14.2403 75.6968 14.5713 75.8166 14.8487V15H73.9914C73.9031 14.7982 73.8337 14.5303 73.7833 14.1961C73.7329 13.8557 73.7076 13.5404 73.7076 13.2504ZM74.0103 8.79605L74.0292 10.0255H72.2607C71.7626 10.0255 71.3181 10.0665 70.9272 10.1484C70.5363 10.2241 70.2085 10.3407 69.9437 10.4984C69.6789 10.656 69.4771 10.8546 69.3384 11.0942C69.1997 11.3274 69.1303 11.6017 69.1303 11.9169C69.1303 12.2385 69.2029 12.5317 69.3479 12.7965C69.4929 13.0613 69.7104 13.2725 70.0004 13.4301C70.2967 13.5814 70.6593 13.6571 71.088 13.6571C71.6239 13.6571 72.0968 13.5436 72.5066 13.3166C72.9164 13.0896 73.2411 12.8122 73.4807 12.4844C73.7266 12.1565 73.859 11.8381 73.8779 11.5292L74.625 12.3709C74.5809 12.6357 74.4611 12.9289 74.2656 13.2504C74.0702 13.572 73.8085 13.8809 73.4807 14.1772C73.1591 14.4672 72.7745 14.71 72.3269 14.9054C71.8856 15.0946 71.3875 15.1891 70.8326 15.1891C70.1391 15.1891 69.5307 15.0536 69.0074 14.7825C68.4904 14.5114 68.0869 14.1488 67.7969 13.6949C67.5132 13.2346 67.3713 12.7208 67.3713 12.1534C67.3713 11.6049 67.4785 11.1225 67.6928 10.7064C67.9072 10.284 68.2161 9.93407 68.6197 9.65666C69.0232 9.37294 69.5086 9.15858 70.0761 9.01357C70.6435 8.86856 71.2771 8.79605 71.977 8.79605H74.0103ZM80.2804 10.1201H82.1719L79.2118 15H77.3203L80.2804 10.1201ZM81.7463 4.76727H86.021V15H84.2714V6.18586H81.7463C81.2482 6.18586 80.8416 6.27097 80.5263 6.4412C80.2111 6.60513 79.981 6.81949 79.8359 7.08429C79.6909 7.3491 79.6184 7.62336 79.6184 7.90707C79.6184 8.18448 79.6846 8.45244 79.817 8.71094C79.9494 8.96313 80.1575 9.17119 80.4412 9.33511C80.7249 9.49904 81.0906 9.581 81.5382 9.581H84.7442V11.0185H81.5382C80.9519 11.0185 80.4317 10.9397 79.9778 10.7821C79.5239 10.6245 79.1393 10.4069 78.824 10.1295C78.5088 9.84581 78.2692 9.5148 78.1053 9.13651C77.9413 8.75192 77.8594 8.3358 77.8594 7.88816C77.8594 7.44052 77.9445 7.02755 78.1147 6.64926C78.2913 6.27097 78.5435 5.93997 78.8713 5.65625C79.2055 5.37253 79.6121 5.15502 80.0913 5.0037C80.5768 4.84608 81.1284 4.76727 81.7463 4.76727ZM97.2278 6.01562C96.8432 6.01562 96.4744 6.10074 96.1213 6.27097C95.7745 6.4412 95.4877 6.67763 95.2607 6.98026C95.04 7.27659 94.9297 7.6202 94.9297 8.0111H93.2558C93.2558 7.39953 93.4449 6.83525 93.8232 6.31826C94.2015 5.79496 94.6933 5.37569 95.2985 5.06044C95.9038 4.7389 96.5469 4.57812 97.2278 4.57812C97.9465 4.57812 98.5833 4.71368 99.1382 4.98479C99.693 5.25589 100.16 5.62788 100.538 6.10074C100.922 6.5736 101.212 7.11897 101.408 7.73684C101.603 8.34841 101.701 8.99781 101.701 9.68503V10.0822C101.701 10.7695 101.6 11.422 101.398 12.0399C101.203 12.6515 100.913 13.1968 100.528 13.676C100.15 14.1488 99.6835 14.5208 99.1287 14.7919C98.5802 15.063 97.9497 15.1986 97.2373 15.1986C96.4744 15.1986 95.7903 15.0347 95.185 14.7068C94.5861 14.379 94.1132 13.9376 93.7665 13.3828C93.426 12.8217 93.2558 12.1912 93.2558 11.4914H94.9297C94.9297 11.9138 95.0306 12.2984 95.2323 12.6451C95.4404 12.9856 95.7178 13.2567 96.0646 13.4585C96.4113 13.6602 96.8022 13.7611 97.2373 13.7611C97.7101 13.7611 98.1168 13.6539 98.4572 13.4396C98.804 13.2252 99.0877 12.9415 99.3084 12.5884C99.5291 12.2353 99.6898 11.8413 99.7907 11.4062C99.8979 10.9649 99.9515 10.5236 99.9515 10.0822V9.68503C99.9515 9.23739 99.8979 8.79605 99.7907 8.36102C99.6898 7.92599 99.5291 7.53194 99.3084 7.17886C99.094 6.82579 98.8135 6.54523 98.4667 6.33717C98.1262 6.12281 97.7133 6.01562 97.2278 6.01562ZM100.803 9.07031V10.4984H96.0835V9.07031H100.803ZM105.966 4.76727V15H104.217V4.76727H105.966ZM112.681 4.76727L107.829 10.6308H105.38L105.115 9.09868H107.12L110.553 4.76727H112.681ZM110.799 15L107.035 10.366L108.16 9.09868L113.021 15H110.799ZM118.488 13.7516C118.904 13.7516 119.288 13.6665 119.641 13.4963C119.995 13.3261 120.285 13.0928 120.512 12.7965C120.738 12.4938 120.868 12.1502 120.899 11.7656H122.564C122.532 12.3709 122.327 12.9352 121.949 13.4585C121.577 13.9755 121.088 14.3947 120.483 14.7163C119.878 15.0315 119.213 15.1891 118.488 15.1891C117.718 15.1891 117.047 15.0536 116.473 14.7825C115.906 14.5114 115.433 14.1394 115.055 13.6665C114.683 13.1937 114.402 12.6515 114.213 12.0399C114.03 11.422 113.939 10.7695 113.939 10.0822V9.68503C113.939 8.99781 114.03 8.34841 114.213 7.73684C114.402 7.11897 114.683 6.5736 115.055 6.10074C115.433 5.62788 115.906 5.25589 116.473 4.98479C117.047 4.71368 117.718 4.57812 118.488 4.57812C119.288 4.57812 119.988 4.74205 120.587 5.0699C121.186 5.39145 121.656 5.83278 121.996 6.39391C122.343 6.94874 122.532 7.57922 122.564 8.28536H120.899C120.868 7.86294 120.748 7.4815 120.54 7.14104C120.338 6.80058 120.061 6.52947 119.708 6.32771C119.361 6.11965 118.954 6.01562 118.488 6.01562C117.952 6.01562 117.501 6.12281 117.135 6.33717C116.776 6.54523 116.489 6.82895 116.275 7.18832C116.067 7.54139 115.915 7.93544 115.821 8.37048C115.732 8.7992 115.688 9.23739 115.688 9.68503V10.0822C115.688 10.5299 115.732 10.9712 115.821 11.4062C115.909 11.8413 116.057 12.2353 116.265 12.5884C116.48 12.9415 116.766 13.2252 117.126 13.4396C117.492 13.6476 117.945 13.7516 118.488 13.7516ZM126.432 4.76727V15H124.682V4.76727H126.432ZM133.146 4.76727L128.295 10.6308H125.845L125.581 9.09868H127.586L131.018 4.76727H133.146ZM131.264 15L127.5 10.366L128.626 9.09868L133.487 15H131.264ZM137.884 13.9408L140.731 4.76727H142.604L138.499 16.5794C138.405 16.8316 138.279 17.1027 138.121 17.3927C137.97 17.689 137.774 17.9696 137.535 18.2344C137.295 18.4992 137.005 18.7135 136.664 18.8775C136.33 19.0477 135.93 19.1328 135.463 19.1328C135.325 19.1328 135.148 19.1139 134.934 19.0761C134.719 19.0382 134.568 19.0067 134.48 18.9815L134.47 17.5629C134.521 17.5692 134.6 17.5755 134.707 17.5818C134.82 17.5944 134.899 17.6007 134.943 17.6007C135.34 17.6007 135.678 17.5471 135.955 17.44C136.233 17.3391 136.466 17.1657 136.655 16.9198C136.85 16.6802 137.018 16.3492 137.156 15.9268L137.884 13.9408ZM135.794 4.76727L138.452 12.7113L138.906 14.5555L137.648 15.1986L133.884 4.76727H135.794ZM145.933 6.73437V18.9342H144.174V4.76727H145.781L145.933 6.73437ZM152.827 9.79852V9.99712C152.827 10.7411 152.739 11.4315 152.562 12.0683C152.386 12.6987 152.127 13.2473 151.787 13.7138C151.452 14.1804 151.039 14.5429 150.548 14.8014C150.056 15.0599 149.492 15.1891 148.855 15.1891C148.205 15.1891 147.632 15.082 147.134 14.8676C146.636 14.6532 146.213 14.3411 145.866 13.9313C145.52 13.5215 145.242 13.0297 145.034 12.456C144.832 11.8823 144.694 11.236 144.618 10.5173V9.45806C144.694 8.70148 144.836 8.02371 145.044 7.42475C145.252 6.82579 145.526 6.3151 145.866 5.89268C146.213 5.46395 146.632 5.13925 147.124 4.91859C147.616 4.69161 148.183 4.57812 148.826 4.57812C149.47 4.57812 150.04 4.70422 150.538 4.95641C151.036 5.2023 151.456 5.55537 151.796 6.01562C152.137 6.47588 152.392 7.02755 152.562 7.67064C152.739 8.30743 152.827 9.01672 152.827 9.79852ZM151.068 9.99712V9.79852C151.068 9.28783 151.014 8.80866 150.907 8.36102C150.8 7.90707 150.633 7.50987 150.406 7.16941C150.185 6.82264 149.901 6.55153 149.555 6.35609C149.208 6.15433 148.795 6.05345 148.316 6.05345C147.874 6.05345 147.49 6.12911 147.162 6.28043C146.84 6.43174 146.566 6.63665 146.339 6.89515C146.112 7.14734 145.926 7.43736 145.781 7.76521C145.643 8.08676 145.539 8.42092 145.469 8.76768V11.2171C145.595 11.6584 145.772 12.0746 145.999 12.4655C146.226 12.8501 146.528 13.1621 146.907 13.4017C147.285 13.635 147.761 13.7516 148.335 13.7516C148.808 13.7516 149.214 13.6539 149.555 13.4585C149.901 13.2567 150.185 12.9825 150.406 12.6357C150.633 12.2889 150.8 11.8917 150.907 11.4441C151.014 10.9901 151.068 10.5078 151.068 9.99712ZM159.154 13.7516C159.57 13.7516 159.955 13.6665 160.308 13.4963C160.661 13.3261 160.951 13.0928 161.178 12.7965C161.405 12.4938 161.534 12.1502 161.565 11.7656H163.23C163.198 12.3709 162.993 12.9352 162.615 13.4585C162.243 13.9755 161.755 14.3947 161.149 14.7163C160.544 15.0315 159.879 15.1891 159.154 15.1891C158.385 15.1891 157.713 15.0536 157.139 14.7825C156.572 14.5114 156.099 14.1394 155.721 13.6665C155.349 13.1937 155.068 12.6515 154.879 12.0399C154.696 11.422 154.605 10.7695 154.605 10.0822V9.68503C154.605 8.99781 154.696 8.34841 154.879 7.73684C155.068 7.11897 155.349 6.5736 155.721 6.10074C156.099 5.62788 156.572 5.25589 157.139 4.98479C157.713 4.71368 158.385 4.57812 159.154 4.57812C159.955 4.57812 160.654 4.74205 161.253 5.0699C161.852 5.39145 162.322 5.83278 162.662 6.39391C163.009 6.94874 163.198 7.57922 163.23 8.28536H161.565C161.534 7.86294 161.414 7.4815 161.206 7.14104C161.004 6.80058 160.727 6.52947 160.374 6.32771C160.027 6.11965 159.62 6.01562 159.154 6.01562C158.618 6.01562 158.167 6.12281 157.801 6.33717C157.442 6.54523 157.155 6.82895 156.941 7.18832C156.733 7.54139 156.581 7.93544 156.487 8.37048C156.399 8.7992 156.354 9.23739 156.354 9.68503V10.0822C156.354 10.5299 156.399 10.9712 156.487 11.4062C156.575 11.8413 156.723 12.2353 156.931 12.5884C157.146 12.9415 157.433 13.2252 157.792 13.4396C158.158 13.6476 158.612 13.7516 159.154 13.7516ZM167.088 12.229L171.808 4.76727H173.567V15H171.808V7.53824L167.088 15H165.348V4.76727H167.088V12.229ZM178.447 10.1201H180.338L177.378 15H175.486L178.447 10.1201ZM179.912 4.76727H184.187V15H182.437V6.18586H179.912C179.414 6.18586 179.008 6.27097 178.692 6.4412C178.377 6.60513 178.147 6.81949 178.002 7.08429C177.857 7.3491 177.785 7.62336 177.785 7.90707C177.785 8.18448 177.851 8.45244 177.983 8.71094C178.116 8.96313 178.324 9.17119 178.607 9.33511C178.891 9.49904 179.257 9.581 179.704 9.581H182.91V11.0185H179.704C179.118 11.0185 178.598 10.9397 178.144 10.7821C177.69 10.6245 177.305 10.4069 176.99 10.1295C176.675 9.84581 176.435 9.5148 176.271 9.13651C176.107 8.75192 176.025 8.3358 176.025 7.88816C176.025 7.44052 176.111 7.02755 176.281 6.64926C176.457 6.27097 176.71 5.93997 177.037 5.65625C177.372 5.37253 177.778 5.15502 178.257 5.0037C178.743 4.84608 179.295 4.76727 179.912 4.76727ZM193.701 12.229L198.42 4.76727H200.179V15H198.42V7.53824L193.701 15H191.961V4.76727H193.701V12.229Z" fill="white"/>
</svg>
