<svg width="148" height="34" viewBox="0 0 148 34" fill="none" xmlns="http://www.w3.org/2000/svg">
<path d="M7.70452 1.19205V12H6.62373V6.96659H2.33143V12H1.25063V1.19205H2.33143V5.97843H6.62373V1.19205H7.70452ZM11.751 12C11.1437 12 10.6805 11.8405 10.3614 11.5214C10.0526 11.2023 9.8982 10.7442 9.8982 10.1472V6.13283C9.8982 5.54611 10.0526 5.09321 10.3614 4.77412C10.6805 4.44473 11.1437 4.28004 11.751 4.28004H13.2178C13.8251 4.28004 14.2831 4.44473 14.5919 4.77412C14.911 5.09321 15.0706 5.54611 15.0706 6.13283V7.73858L14.2214 8.49514H10.979V10.1781C10.979 10.7339 11.2466 11.0118 11.7819 11.0118H13.4031L14.6537 10.6413L14.9316 11.5831L13.4031 12H11.751ZM10.979 6.11739V7.50698H13.7736L13.9898 7.33714V6.11739C13.9898 5.56155 13.7221 5.28363 13.1869 5.28363H11.7819C11.2466 5.28363 10.979 5.56155 10.979 6.11739ZM19.6787 12H17.9031L16.3745 11.5831L16.637 10.6413L17.9031 11.0118H19.6478C20.183 11.0118 20.4507 10.7339 20.4507 10.1781V9.35977C20.4507 8.79364 20.1573 8.51058 19.5706 8.51058H17.7332V7.52242H19.2463C19.8331 7.52242 20.1264 7.2445 20.1264 6.68867V6.11739C20.1264 5.56155 19.8588 5.28363 19.3235 5.28363H17.9803L16.9612 5.57699L16.6988 4.63516L17.9803 4.28004H19.3544C19.9514 4.28004 20.4095 4.44473 20.7286 4.77412C21.0477 5.09321 21.2072 5.54611 21.2072 6.13283V6.50339C21.2072 7.2445 20.9499 7.71285 20.4352 7.90842H20.2963V7.97018H20.4507C21.1712 8.17605 21.5315 8.68042 21.5315 9.48329V10.1472C21.5315 10.7442 21.3719 11.2023 21.0528 11.5214C20.744 11.8405 20.286 12 19.6787 12ZM23.2437 4.71236L24.7877 4.28004H26.5479C27.1552 4.28004 27.6132 4.44473 27.922 4.77412C28.2411 5.09321 28.4006 5.54611 28.4006 6.13283V10.7802L28.5705 12L27.5051 12.1235L27.3353 10.7494L25.606 12H24.8495C24.2525 12 23.7944 11.8405 23.4753 11.5214C23.1562 11.192 22.9967 10.7339 22.9967 10.1472V9.20537C22.9967 8.61866 23.1562 8.16575 23.4753 7.84666C23.7944 7.51728 24.2525 7.35258 24.8495 7.35258H27.3199V6.11739C27.3199 5.56155 27.0522 5.28363 26.517 5.28363H24.7877L23.5216 5.65419L23.2437 4.71236ZM24.8803 11.0118H25.3281L27.3199 9.56049V8.30986H24.8803C24.3451 8.30986 24.0775 8.58778 24.0775 9.14361V10.1781C24.0775 10.7339 24.3451 11.0118 24.8803 11.0118ZM34.0166 5.28363H32.6115C32.241 5.28363 31.9733 5.35569 31.8086 5.49979C31.6542 5.6439 31.577 5.88064 31.577 6.21003V10.1781C31.577 10.7339 31.8447 11.0118 32.3799 11.0118H33.8158C34.1761 11.0118 34.4334 10.9552 34.5878 10.842C34.7422 10.7288 34.8194 10.5075 34.8194 10.1781V6.34899C34.8194 5.95784 34.7577 5.68507 34.6342 5.53067C34.5209 5.36598 34.3151 5.28363 34.0166 5.28363ZM34.279 1.88685H32.3799C32.102 1.88685 31.8961 1.95376 31.7623 2.08757C31.6388 2.21109 31.577 2.4221 31.577 2.72061V3.8786L31.4227 4.68148L31.4844 4.71236C31.7314 4.42415 32.1277 4.28004 32.6733 4.28004H34.0474C34.6547 4.28004 35.1128 4.44473 35.4216 4.77412C35.7407 5.09321 35.9002 5.54611 35.9002 6.13283V9.79209C35.9002 10.5229 35.7613 11.0736 35.4833 11.4442C35.2054 11.8147 34.7268 12 34.0474 12H32.349C31.6697 12 31.1911 11.8147 30.9131 11.4442C30.6352 11.0736 30.4963 10.5229 30.4963 9.79209V3.10661C30.4963 2.37578 30.6352 1.82509 30.9131 1.45453C31.1911 1.07368 31.6697 0.883257 32.349 0.883257H34.279L35.5451 0.512699L35.8076 1.45453L34.279 1.88685ZM37.9168 5.54611L37.7624 4.28004L38.8123 4.14108L38.9976 5.54611V7.25994H41.4526C42.0599 7.25994 42.5179 7.41949 42.8267 7.73858C43.1458 8.05767 43.3054 8.51572 43.3054 9.11273V10.1472C43.3054 10.7442 43.1458 11.2023 42.8267 11.5214C42.5179 11.8405 42.0599 12 41.4526 12H37.9168V5.54611ZM41.4217 8.2481H38.9976V11.0118H41.4217C41.7099 11.0118 41.9158 10.9501 42.0393 10.8266C42.1628 10.703 42.2246 10.4869 42.2246 10.1781V9.08185C42.2246 8.78335 42.1628 8.57234 42.0393 8.44882C41.9158 8.31501 41.7099 8.2481 41.4217 8.2481ZM44.4325 4.28004H45.5133V10.7339L45.6677 12L44.6178 12.139L44.4325 10.7339V4.28004ZM48.7833 11.0118H51.2073C51.7426 11.0118 52.0102 10.7339 52.0102 10.1781V9.39065C52.0102 8.83482 51.7169 8.5569 51.1301 8.5569H48.7833V11.0118ZM50.8831 5.28363H48.7833V7.5533H50.8059C51.3926 7.5533 51.686 7.27538 51.686 6.71955V6.11739C51.686 5.56155 51.4184 5.28363 50.8831 5.28363ZM51.2382 12H47.7025V4.28004H50.914C51.511 4.28004 51.969 4.44473 52.2881 4.77412C52.6072 5.09321 52.7668 5.54611 52.7668 6.13283V6.53427C52.7668 7.29597 52.5094 7.76432 51.9948 7.9393H51.8558V8.00106H52.0102C52.7307 8.20693 53.091 8.71644 53.091 9.52961V10.1472C53.091 10.7442 52.9315 11.2023 52.6124 11.5214C52.3036 11.8405 51.8455 12 51.2382 12ZM54.8021 4.71236L56.3461 4.28004H58.1062C58.7135 4.28004 59.1716 4.44473 59.4804 4.77412C59.7995 5.09321 59.959 5.54611 59.959 6.13283V10.7802L60.1288 12L59.0635 12.1235L58.8936 10.7494L57.1644 12H56.4078C55.8108 12 55.3528 11.8405 55.0337 11.5214C54.7146 11.192 54.555 10.7339 54.555 10.1472V9.20537C54.555 8.61866 54.7146 8.16575 55.0337 7.84666C55.3528 7.51728 55.8108 7.35258 56.4078 7.35258H58.8782V6.11739C58.8782 5.56155 58.6106 5.28363 58.0753 5.28363H56.3461L55.08 5.65419L54.8021 4.71236ZM56.4387 11.0118H56.8865L58.8782 9.56049V8.30986H56.4387C55.9034 8.30986 55.6358 8.58778 55.6358 9.14361V10.1781C55.6358 10.7339 55.9034 11.0118 56.4387 11.0118ZM63.8456 12C63.2383 12 62.7751 11.8405 62.456 11.5214C62.1472 11.2023 61.9928 10.7442 61.9928 10.1472V6.13283C61.9928 5.54611 62.1472 5.09321 62.456 4.77412C62.7751 4.44473 63.2383 4.28004 63.8456 4.28004H65.3124C65.9197 4.28004 66.3778 4.44473 66.6866 4.77412C67.0057 5.09321 67.1652 5.54611 67.1652 6.13283V7.73858L66.316 8.49514H63.0736V10.1781C63.0736 10.7339 63.3413 11.0118 63.8765 11.0118H65.4977L66.7483 10.6413L67.0263 11.5831L65.4977 12H63.8456ZM63.0736 6.11739V7.50698H65.8683L66.0844 7.33714V6.11739C66.0844 5.56155 65.8168 5.28363 65.2816 5.28363H63.8765C63.3413 5.28363 63.0736 5.56155 63.0736 6.11739ZM74.8304 8.14002L74.9539 6.07107H74.8922L74.0893 8.0165L72.885 10.456H71.8968L70.708 8.0165L69.9205 6.07107H69.8588L69.9823 8.14002V12H68.9324V4.28004H70.0132L72.3909 9.35977L74.7995 4.28004H75.8803V10.7185L76.0347 11.9846L75.0157 12.1235L74.8304 10.7185V8.14002ZM81.4356 5.28363H79.7989C79.2637 5.28363 78.9961 5.56155 78.9961 6.11739V10.1781C78.9961 10.7339 79.2637 11.0118 79.7989 11.0118H81.4356C81.9708 11.0118 82.2384 10.7339 82.2384 10.1781V6.11739C82.2384 5.56155 81.9708 5.28363 81.4356 5.28363ZM81.4665 12H79.7681C79.1608 12 78.6976 11.8405 78.3785 11.5214C78.0697 11.2023 77.9153 10.7442 77.9153 10.1472V6.13283C77.9153 5.54611 78.0697 5.09321 78.3785 4.77412C78.6976 4.44473 79.1608 4.28004 79.7681 4.28004H81.4665C82.0738 4.28004 82.5318 4.44473 82.8406 4.77412C83.1597 5.09321 83.3192 5.54611 83.3192 6.13283V10.1472C83.3192 10.7442 83.1597 11.2023 82.8406 11.5214C82.5318 11.8405 82.0738 12 81.4665 12ZM87.0508 12C86.4434 12 85.9803 11.8405 85.6612 11.5214C85.3524 11.2023 85.198 10.7442 85.198 10.1472V6.13283C85.198 5.54611 85.3524 5.09321 85.6612 4.77412C85.9803 4.44473 86.4434 4.28004 87.0508 4.28004H88.5175C89.1248 4.28004 89.5829 4.44473 89.8917 4.77412C90.2108 5.09321 90.3703 5.54611 90.3703 6.13283V7.73858L89.5211 8.49514H86.2788V10.1781C86.2788 10.7339 86.5464 11.0118 87.0816 11.0118H88.7028L89.9535 10.6413L90.2314 11.5831L88.7028 12H87.0508ZM86.2788 6.11739V7.50698H89.0734L89.2895 7.33714V6.11739C89.2895 5.56155 89.0219 5.28363 88.4867 5.28363H87.0816C86.5464 5.28363 86.2788 5.56155 86.2788 6.11739ZM98.4916 12H96.716L95.1875 11.5831L95.45 10.6413L96.716 11.0118H98.4607C98.996 11.0118 99.2636 10.7339 99.2636 10.1781V9.35977C99.2636 8.79364 98.9703 8.51058 98.3835 8.51058H96.5462V7.52242H98.0593C98.646 7.52242 98.9394 7.2445 98.9394 6.68867V6.11739C98.9394 5.56155 98.6717 5.28363 98.1365 5.28363H96.7932L95.7742 5.57699L95.5117 4.63516L96.7932 4.28004H98.1674C98.7644 4.28004 99.2224 4.44473 99.5415 4.77412C99.8606 5.09321 100.02 5.54611 100.02 6.13283V6.50339C100.02 7.2445 99.7628 7.71285 99.2482 7.90842H99.1092V7.97018H99.2636C99.9841 8.17605 100.344 8.68042 100.344 9.48329V10.1472C100.344 10.7442 100.185 11.2023 99.8658 11.5214C99.557 11.8405 99.0989 12 98.4916 12ZM102.149 5.54611L101.995 4.31092L103.045 4.17196L103.184 5.26819L104.928 4.28004H105.7C106.297 4.28004 106.756 4.44473 107.075 4.77412C107.394 5.09321 107.553 5.54611 107.553 6.13283V10.1472C107.553 10.7339 107.394 11.192 107.075 11.5214C106.756 11.8405 106.297 12 105.7 12H104.959L103.23 11.6603V15.5512H102.149V5.54611ZM105.176 5.28363L103.23 6.36443V10.6722L104.99 11.0118H105.67C106.205 11.0118 106.472 10.7339 106.472 10.1781V6.11739C106.472 5.56155 106.205 5.28363 105.67 5.28363H105.176ZM111.296 12C110.689 12 110.226 11.8405 109.907 11.5214C109.598 11.2023 109.443 10.7442 109.443 10.1472V6.13283C109.443 5.54611 109.598 5.09321 109.907 4.77412C110.226 4.44473 110.689 4.28004 111.296 4.28004H112.763C113.37 4.28004 113.828 4.44473 114.137 4.77412C114.456 5.09321 114.616 5.54611 114.616 6.13283V7.73858L113.767 8.49514H110.524V10.1781C110.524 10.7339 110.792 11.0118 111.327 11.0118H112.948L114.199 10.6413L114.477 11.5831L112.948 12H111.296ZM110.524 6.11739V7.50698H113.319L113.535 7.33714V6.11739C113.535 5.56155 113.267 5.28363 112.732 5.28363H111.327C110.792 5.28363 110.524 5.56155 110.524 6.11739ZM121.741 10.7339L121.895 12L120.845 12.139L120.66 10.7339V5.28363H118.159L117.834 10.2398C117.773 10.8986 117.603 11.3721 117.325 11.6603C117.047 11.9485 116.584 12.0926 115.935 12.0926H115.688V11.1045H115.935C116.254 11.1045 116.47 11.0427 116.584 10.9192C116.707 10.7957 116.784 10.5589 116.815 10.209L117.217 4.28004H121.741V10.7339ZM127.643 7.46066L125.018 12H123.937V5.54611L123.783 4.28004L124.833 4.14108L125.018 5.54611V8.52602L124.863 10.5332L124.91 10.5486L125.774 8.83482L128.415 4.28004H129.495V10.7185L129.65 11.9846L128.6 12.1235L128.415 10.7185V7.75402L128.569 5.74683L128.507 5.73139L127.643 7.46066ZM138.728 4.28004H139.809V11.0118H141.044V12.7874L140.874 14.1153L139.809 13.9917L139.963 12.8338V12H131.687V5.54611L131.533 4.28004L132.583 4.14108L132.768 5.54611V11.0118H135.208V5.54611L135.053 4.28004L136.103 4.14108L136.288 5.54611V11.0118H138.728V4.28004ZM144.046 12C143.438 12 142.975 11.8405 142.656 11.5214C142.347 11.2023 142.193 10.7442 142.193 10.1472V6.13283C142.193 5.54611 142.347 5.09321 142.656 4.77412C142.975 4.44473 143.438 4.28004 144.046 4.28004H145.513C146.12 4.28004 146.578 4.44473 146.887 4.77412C147.206 5.09321 147.365 5.54611 147.365 6.13283V7.73858L146.516 8.49514H143.274V10.1781C143.274 10.7339 143.541 11.0118 144.077 11.0118H145.698L146.948 10.6413L147.226 11.5831L145.698 12H144.046ZM143.274 6.11739V7.50698H146.068L146.285 7.33714V6.11739C146.285 5.56155 146.017 5.28363 145.482 5.28363H144.077C143.541 5.28363 143.274 5.56155 143.274 6.11739ZM0.324238 22.28H5.57381V23.2836H3.56662V30H2.48583V23.2836H0.324238V22.28ZM10.3577 23.2836H8.72102C8.18577 23.2836 7.91815 23.5616 7.91815 24.1174V28.1781C7.91815 28.7339 8.18577 29.0118 8.72102 29.0118H10.3577C10.8929 29.0118 11.1605 28.7339 11.1605 28.1781V24.1174C11.1605 23.5616 10.8929 23.2836 10.3577 23.2836ZM10.3885 30H8.69014C8.08284 30 7.61964 29.8405 7.30055 29.5214C6.99175 29.2023 6.83735 28.7442 6.83735 28.1472V24.1328C6.83735 23.5461 6.99175 23.0932 7.30055 22.7741C7.61964 22.4447 8.08284 22.28 8.69014 22.28H10.3885C10.9958 22.28 11.4539 22.4447 11.7627 22.7741C12.0818 23.0932 12.2413 23.5461 12.2413 24.1328V28.1472C12.2413 28.7442 12.0818 29.2023 11.7627 29.5214C11.4539 29.8405 10.9958 30 10.3885 30ZM19.6321 28.7339L19.7865 30L18.7366 30.139L18.5513 28.7339V23.2836H16.05L15.7258 28.2398C15.664 28.8986 15.4942 29.3721 15.2163 29.6603C14.9384 29.9485 14.4752 30.0926 13.8267 30.0926H13.5797V29.1045H13.8267C14.1458 29.1045 14.3619 29.0427 14.4752 28.9192C14.5987 28.7957 14.6759 28.5589 14.7068 28.209L15.1082 22.28H19.6321V28.7339ZM22.9093 25.2599H25.3643C25.9716 25.2599 26.4296 25.4195 26.7384 25.7386C27.0575 26.0577 27.2171 26.5157 27.2171 27.1127V28.1472C27.2171 28.7442 27.0575 29.2023 26.7384 29.5214C26.4296 29.8405 25.9716 30 25.3643 30H21.8285V23.5461L21.6742 22.28L22.7241 22.1411L22.9093 23.5461V25.2599ZM25.3334 26.2481H22.9093V29.0118H25.3334C25.8687 29.0118 26.1363 28.7339 26.1363 28.1781V27.0819C26.1363 26.526 25.8687 26.2481 25.3334 26.2481ZM28.7626 23.5461L28.6082 22.28L29.6582 22.1411L29.8434 23.5461V25.4143H30.7544L32.0513 23.3454L32.6381 22.1565L33.7961 22.3109L33.1321 23.5307L31.5727 25.9084L34.3519 30H33.1321L30.7081 26.4025H29.8434V30H28.7626V23.5461ZM38.9004 23.2836H37.2638C36.7285 23.2836 36.4609 23.5616 36.4609 24.1174V28.1781C36.4609 28.7339 36.7285 29.0118 37.2638 29.0118H38.9004C39.4356 29.0118 39.7033 28.7339 39.7033 28.1781V24.1174C39.7033 23.5616 39.4356 23.2836 38.9004 23.2836ZM38.9313 30H37.2329C36.6256 30 36.1624 29.8405 35.8433 29.5214C35.5345 29.2023 35.3801 28.7442 35.3801 28.1472V24.1328C35.3801 23.5461 35.5345 23.0932 35.8433 22.7741C36.1624 22.4447 36.6256 22.28 37.2329 22.28H38.9313C39.5386 22.28 39.9966 22.4447 40.3054 22.7741C40.6245 23.0932 40.7841 23.5461 40.7841 24.1328V28.1472C40.7841 28.7442 40.6245 29.2023 40.3054 29.5214C39.9966 29.8405 39.5386 30 38.9313 30ZM50.8852 29.0118V30H45.4812V29.0118H47.6428V20.1956L45.8672 20.8441L45.6819 19.8714L47.6428 19.1921H48.7236V29.0118H50.8852ZM55.7391 23.5461L55.5847 22.3109L56.6346 22.172L56.7736 23.2682L58.5183 22.28H59.2903C59.8873 22.28 60.3453 22.4447 60.6644 22.7741C60.9835 23.0932 61.143 23.5461 61.143 24.1328V28.1472C61.143 28.7339 60.9835 29.192 60.6644 29.5214C60.3453 29.8405 59.8873 30 59.2903 30H58.5491L56.8199 29.6603V33.5512H55.7391V23.5461ZM58.7653 23.2836L56.8199 24.3644V28.6722L58.58 29.0118H59.2594C59.7946 29.0118 60.0623 28.7339 60.0623 28.1781V24.1174C60.0623 23.5616 59.7946 23.2836 59.2594 23.2836H58.7653ZM63.095 22.7124L64.639 22.28H66.3991C67.0064 22.28 67.4645 22.4447 67.7733 22.7741C68.0924 23.0932 68.2519 23.5461 68.2519 24.1328V28.7802L68.4218 30L67.3564 30.1235L67.1866 28.7494L65.4573 30H64.7007C64.1037 30 63.6457 29.8405 63.3266 29.5214C63.0075 29.192 62.848 28.7339 62.848 28.1472V27.2054C62.848 26.6187 63.0075 26.1658 63.3266 25.8467C63.6457 25.5173 64.1037 25.3526 64.7007 25.3526H67.1711V24.1174C67.1711 23.5616 66.9035 23.2836 66.3683 23.2836H64.639L63.3729 23.6542L63.095 22.7124ZM64.7316 29.0118H65.1794L67.1711 27.5605V26.3099H64.7316C64.1964 26.3099 63.9288 26.5878 63.9288 27.1436V28.1781C63.9288 28.7339 64.1964 29.0118 64.7316 29.0118ZM73.2811 30H71.5055L69.977 29.5831L70.2395 28.6413L71.5055 29.0118H73.2502C73.7855 29.0118 74.0531 28.7339 74.0531 28.1781V27.3598C74.0531 26.7936 73.7598 26.5106 73.173 26.5106H71.3357V25.5224H72.8488C73.4355 25.5224 73.7289 25.2445 73.7289 24.6887V24.1174C73.7289 23.5616 73.4613 23.2836 72.926 23.2836H71.5827L70.5637 23.577L70.3012 22.6352L71.5827 22.28H72.9569C73.5539 22.28 74.0119 22.4447 74.331 22.7741C74.6501 23.0932 74.8097 23.5461 74.8097 24.1328V24.5034C74.8097 25.2445 74.5523 25.7128 74.0377 25.9084H73.8987V25.9702H74.0531C74.7736 26.176 75.1339 26.6804 75.1339 27.4833V28.1472C75.1339 28.7442 74.9744 29.2023 74.6553 29.5214C74.3465 29.8405 73.8884 30 73.2811 30ZM81.5328 29.0118H83.9569C84.4921 29.0118 84.7597 28.7339 84.7597 28.1781V27.3907C84.7597 26.8348 84.4664 26.5569 83.8797 26.5569H81.5328V29.0118ZM83.6326 23.2836H81.5328V25.5533H83.5554C84.1421 25.5533 84.4355 25.2754 84.4355 24.7195V24.1174C84.4355 23.5616 84.1679 23.2836 83.6326 23.2836ZM83.9877 30H80.452V22.28H83.6635C84.2605 22.28 84.7186 22.4447 85.0376 22.7741C85.3567 23.0932 85.5163 23.5461 85.5163 24.1328V24.5343C85.5163 25.296 85.259 25.7643 84.7443 25.9393H84.6053V26.0011H84.7597C85.4803 26.2069 85.8405 26.7164 85.8405 27.5296V28.1472C85.8405 28.7442 85.681 29.2023 85.3619 29.5214C85.0531 29.8405 84.595 30 83.9877 30ZM91.142 22.28H95.5423V23.2836H92.2228V30H91.142V22.28ZM100.328 23.2836H98.6917C98.1565 23.2836 97.8889 23.5616 97.8889 24.1174V28.1781C97.8889 28.7339 98.1565 29.0118 98.6917 29.0118H100.328C100.864 29.0118 101.131 28.7339 101.131 28.1781V24.1174C101.131 23.5616 100.864 23.2836 100.328 23.2836ZM100.359 30H98.6609C98.0535 30 97.5904 29.8405 97.2713 29.5214C96.9625 29.2023 96.8081 28.7442 96.8081 28.1472V24.1328C96.8081 23.5461 96.9625 23.0932 97.2713 22.7741C97.5904 22.4447 98.0535 22.28 98.6609 22.28H100.359C100.967 22.28 101.425 22.4447 101.733 22.7741C102.052 23.0932 102.212 23.5461 102.212 24.1328V28.1472C102.212 28.7442 102.052 29.2023 101.733 29.5214C101.425 29.8405 100.967 30 100.359 30ZM106.206 23.2836L105.743 28.0546L105.511 29.0118H108.707V23.2836H106.206ZM109.865 30H104.477V30.8338L104.631 31.9917L103.566 32.1153L103.396 30.7566V29.0118H104.384L104.755 27.6068L105.264 22.28H109.788V29.0118H110.946V30.7566L110.776 32.1153L109.711 31.9917L109.865 30.8338V30ZM116.635 31.4668V28.9192L114.921 30H114.165C113.557 30 113.094 29.8405 112.775 29.5214C112.466 29.2023 112.312 28.7442 112.312 28.1472V23.5307L112.158 22.3109L113.207 22.172L113.393 23.5924V28.1781C113.393 28.7339 113.66 29.0118 114.196 29.0118H114.643L116.635 27.7149V22.28H117.716V31.4668C117.716 32.8564 117.006 33.5512 115.585 33.5512H114.072L112.528 33.1343L112.806 32.1925L114.072 32.563H115.693C116.033 32.563 116.275 32.4755 116.419 32.3005C116.563 32.1256 116.635 31.8476 116.635 31.4668Z" fill="white"/>
</svg>
