<svg width="200" height="12" viewBox="0 0 200 12" fill="none" xmlns="http://www.w3.org/2000/svg">
<path fill-rule="evenodd" clip-rule="evenodd" d="M7.4987 3.83325C7.4987 2.45409 6.37786 1.33325 4.9987 1.33325C3.61953 1.33325 2.4987 2.45409 2.4987 3.83325C2.4987 5.28742 4.00703 7.24575 4.67786 8.04992C4.84453 8.24992 5.1487 8.24992 5.31536 8.04992C5.99036 7.24575 7.4987 5.28742 7.4987 3.83325ZM4.16536 3.83325C4.16536 3.37492 4.54036 2.99992 4.9987 2.99992C5.45703 2.99992 5.83203 3.37492 5.83203 3.83325C5.83203 4.29159 5.4612 4.66659 4.9987 4.66659C4.54036 4.66659 4.16536 4.29159 4.16536 3.83325ZM2.08203 9.24992C2.08203 9.47908 2.26953 9.66658 2.4987 9.66658H7.4987C7.72786 9.66658 7.91536 9.47908 7.91536 9.24992C7.91536 9.02075 7.72786 8.83325 7.4987 8.83325H2.4987C2.26953 8.83325 2.08203 9.02075 2.08203 9.24992Z" fill="white"/>
<path d="M12.2486 9V8.0483L12.4616 8.04119C12.7505 8.03409 12.9777 7.93584 13.1435 7.74645C13.3116 7.55705 13.4335 7.25166 13.5092 6.83026C13.5874 6.40885 13.6394 5.84659 13.6655 5.14347L13.7898 1.72727H18.3885V9H17.3054V2.65767H14.8232L14.7095 5.43466C14.6787 6.21354 14.6006 6.86813 14.4751 7.39844C14.3497 7.92637 14.1366 8.32528 13.8359 8.59517C13.5376 8.86506 13.1127 9 12.5611 9H12.2486ZM20.7418 7.51207L23.1459 3.54545H24.2893V9H23.2489V5.02983L20.8554 9H19.7013V3.54545H20.7418V7.51207ZM29.0041 3.54545V4.46165H26.5645V9H25.5169V3.54545H29.0041ZM31.97 9.11009C31.4586 9.11009 31.0123 8.9929 30.6312 8.75852C30.25 8.52415 29.9541 8.19626 29.7434 7.77486C29.5327 7.35346 29.4273 6.86103 29.4273 6.29759C29.4273 5.73177 29.5327 5.23698 29.7434 4.81321C29.9541 4.38944 30.25 4.06037 30.6312 3.82599C31.0123 3.59162 31.4586 3.47443 31.97 3.47443C32.4813 3.47443 32.9276 3.59162 33.3087 3.82599C33.6899 4.06037 33.9858 4.38944 34.1965 4.81321C34.4072 5.23698 34.5126 5.73177 34.5126 6.29759C34.5126 6.86103 34.4072 7.35346 34.1965 7.77486C33.9858 8.19626 33.6899 8.52415 33.3087 8.75852C32.9276 8.9929 32.4813 9.11009 31.97 9.11009ZM31.9735 8.21875C32.3049 8.21875 32.5796 8.13116 32.7974 7.95597C33.0152 7.78078 33.1762 7.54759 33.2803 7.25639C33.3869 6.9652 33.4401 6.64441 33.4401 6.29403C33.4401 5.94602 33.3869 5.62642 33.2803 5.33523C33.1762 5.04167 33.0152 4.80611 32.7974 4.62855C32.5796 4.45099 32.3049 4.36222 31.9735 4.36222C31.6397 4.36222 31.3627 4.45099 31.1425 4.62855C30.9247 4.80611 30.7626 5.04167 30.656 5.33523C30.5519 5.62642 30.4998 5.94602 30.4998 6.29403C30.4998 6.64441 30.5519 6.9652 30.656 7.25639C30.7626 7.54759 30.9247 7.78078 31.1425 7.95597C31.3627 8.13116 31.6397 8.21875 31.9735 8.21875ZM35.4978 9V3.54545H37.7598C38.3754 3.54545 38.8631 3.67685 39.2229 3.93963C39.5828 4.20005 39.7627 4.55398 39.7627 5.00142C39.7627 5.32102 39.6609 5.57434 39.4573 5.76136C39.2537 5.94839 38.9838 6.07386 38.6476 6.13778C38.8915 6.16619 39.1152 6.23958 39.3188 6.35795C39.5224 6.47396 39.6857 6.63021 39.8088 6.8267C39.9343 7.0232 39.9971 7.25758 39.9971 7.52983C39.9971 7.81866 39.9225 8.07434 39.7733 8.29688C39.6242 8.51705 39.4076 8.68987 39.1235 8.81534C38.8418 8.93845 38.502 9 38.1043 9H35.4978ZM36.4956 8.11222H38.1043C38.3671 8.11222 38.573 8.04948 38.7222 7.92401C38.8713 7.79853 38.9459 7.62808 38.9459 7.41264C38.9459 7.15933 38.8713 6.96046 38.7222 6.81605C38.573 6.66927 38.3671 6.59588 38.1043 6.59588H36.4956V8.11222ZM36.4956 5.81818H37.7705C37.9694 5.81818 38.1398 5.78977 38.2819 5.73295C38.4263 5.67614 38.5364 5.59564 38.6121 5.49148C38.6902 5.38494 38.7293 5.25947 38.7293 5.11506C38.7293 4.90436 38.6429 4.73982 38.4701 4.62145C38.2972 4.50308 38.0605 4.44389 37.7598 4.44389H36.4956V5.81818ZM43.2594 9.11009C42.7315 9.11009 42.2769 8.99053 41.8958 8.75142C41.517 8.50994 41.2258 8.17732 41.0222 7.75355C40.8186 7.32978 40.7168 6.84446 40.7168 6.29759C40.7168 5.74361 40.821 5.25473 41.0293 4.83097C41.2376 4.40483 41.5312 4.07221 41.91 3.8331C42.2888 3.59399 42.735 3.47443 43.2488 3.47443C43.6631 3.47443 44.0324 3.55137 44.3567 3.70526C44.681 3.85677 44.9426 4.06984 45.1415 4.34446C45.3427 4.61908 45.4623 4.93987 45.5002 5.30682H44.4668C44.41 5.05114 44.2798 4.83097 44.0762 4.64631C43.8749 4.46165 43.6051 4.36932 43.2665 4.36932C42.9706 4.36932 42.7114 4.44744 42.4888 4.60369C42.2686 4.75758 42.097 4.97775 41.9739 5.2642C41.8508 5.5483 41.7892 5.88447 41.7892 6.27273C41.7892 6.67045 41.8496 7.01373 41.9703 7.30256C42.0911 7.59138 42.2615 7.8151 42.4817 7.97372C42.7042 8.13234 42.9658 8.21165 43.2665 8.21165C43.4677 8.21165 43.65 8.17495 43.8134 8.10156C43.9791 8.0258 44.1176 7.91809 44.2289 7.77841C44.3425 7.63873 44.4218 7.47064 44.4668 7.27415H45.5002C45.4623 7.62689 45.3475 7.94176 45.1557 8.21875C44.964 8.49574 44.7071 8.71354 44.3851 8.87216C44.0655 9.03078 43.6903 9.11009 43.2594 9.11009ZM46.4357 9V3.54545H47.4974V5.83239H48.0088L49.8092 3.54545H51.1232L49.0102 6.19815L51.148 9H49.8305L48.1864 6.8196H47.4974V9H46.4357ZM52.8132 7.51207L55.2174 3.54545H56.3608V9H55.3203V5.02983L52.9269 9H51.7728V3.54545H52.8132V7.51207ZM58.6289 7.51207L61.033 3.54545H62.1765V9H61.136V5.02983L58.7425 9H57.5884V3.54545H58.6289V7.51207ZM60.5784 1.69886H61.452C61.452 2.09896 61.31 2.42448 61.0259 2.67543C60.7442 2.92401 60.363 3.0483 59.8824 3.0483C59.4042 3.0483 59.0242 2.92401 58.7425 2.67543C58.4608 2.42448 58.3199 2.09896 58.3199 1.69886H59.19C59.19 1.87642 59.242 2.03385 59.3462 2.17116C59.4504 2.30611 59.6291 2.37358 59.8824 2.37358C60.131 2.37358 60.3086 2.30611 60.4151 2.17116C60.524 2.03622 60.5784 1.87879 60.5784 1.69886ZM65.8505 9V3.54545H70.3001V9H69.2596V4.46165H66.8839V9H65.8505ZM71.5196 11.0455V3.54545H72.5566V4.42969H72.6453C72.7069 4.31605 72.7957 4.18466 72.9117 4.03551C73.0277 3.88636 73.1887 3.75616 73.3946 3.64489C73.6006 3.53125 73.8729 3.47443 74.2114 3.47443C74.6517 3.47443 75.0447 3.5857 75.3904 3.80824C75.736 4.03078 76.0071 4.35156 76.2036 4.7706C76.4024 5.18963 76.5019 5.69389 76.5019 6.28338C76.5019 6.87287 76.4036 7.37831 76.2071 7.79972C76.0106 8.21875 75.7408 8.5419 75.3975 8.76918C75.0542 8.99408 74.6624 9.10653 74.2221 9.10653C73.8906 9.10653 73.6195 9.0509 73.4088 8.93963C73.2005 8.82836 73.0372 8.69815 72.9188 8.54901C72.8004 8.39986 72.7093 8.26728 72.6453 8.15128H72.5814V11.0455H71.5196ZM72.5601 6.27273C72.5601 6.65625 72.6158 6.99242 72.727 7.28125C72.8383 7.57008 72.9993 7.79616 73.21 7.95952C73.4207 8.1205 73.6787 8.20099 73.9841 8.20099C74.3014 8.20099 74.5665 8.11695 74.7796 7.94886C74.9926 7.77841 75.1536 7.54759 75.2625 7.25639C75.3738 6.9652 75.4294 6.63731 75.4294 6.27273C75.4294 5.91288 75.375 5.58973 75.2661 5.30327C75.1596 5.01681 74.9986 4.79072 74.7831 4.625C74.5701 4.45928 74.3037 4.37642 73.9841 4.37642C73.6764 4.37642 73.4159 4.45573 73.2029 4.61435C72.9922 4.77296 72.8324 4.99432 72.7235 5.27841C72.6146 5.5625 72.5601 5.89394 72.5601 6.27273ZM80.7053 5.46662V6.38636H77.4809V5.46662H80.7053ZM81.3904 4.46165V3.54545H85.9927V4.46165H84.2136V9H83.1766V4.46165H81.3904ZM87.4475 8.00568L87.3942 8.39276C87.3587 8.67685 87.2984 8.97277 87.2131 9.28054C87.1303 9.59067 87.0439 9.87831 86.9539 10.1435C86.8663 10.4086 86.7941 10.6193 86.7373 10.7756H85.9844C86.0152 10.6288 86.0578 10.4299 86.1123 10.179C86.1667 9.9304 86.22 9.65223 86.2721 9.34446C86.3242 9.0367 86.3632 8.72301 86.3893 8.40341L86.4248 8.00568H87.4475ZM90.9094 7.57955V6.69176L94.0521 1.72727H94.7517V3.03409H94.3078L92.0599 6.59233V6.64915H96.3675V7.57955H90.9094ZM94.3575 9V7.30966L94.3646 6.90483V1.72727H95.4051V9H94.3575ZM99.937 9.09943C99.4493 9.09943 99.0137 9.01539 98.6302 8.8473C98.249 8.67921 97.9472 8.44602 97.7246 8.14773C97.5045 7.84706 97.3861 7.49905 97.3695 7.10369H98.4846C98.4988 7.31913 98.571 7.50616 98.7012 7.66477C98.8338 7.82102 99.0066 7.94176 99.2197 8.02699C99.4327 8.11222 99.6695 8.15483 99.9299 8.15483C100.216 8.15483 100.47 8.10511 100.69 8.00568C100.912 7.90625 101.086 7.76776 101.212 7.5902C101.337 7.41027 101.4 7.20312 101.4 6.96875C101.4 6.72491 101.337 6.51065 101.212 6.32599C101.089 6.13897 100.908 5.99219 100.669 5.88565C100.432 5.77912 100.145 5.72585 99.8092 5.72585H99.1948V4.83097H99.8092C100.079 4.83097 100.316 4.78243 100.519 4.68537C100.725 4.5883 100.886 4.45336 101.002 4.28054C101.118 4.10535 101.176 3.90057 101.176 3.66619C101.176 3.44129 101.125 3.24598 101.024 3.08026C100.924 2.91217 100.782 2.78078 100.598 2.68608C100.415 2.59138 100.2 2.54403 99.9512 2.54403C99.7145 2.54403 99.4931 2.58783 99.2871 2.67543C99.0835 2.76065 98.9178 2.88376 98.79 3.04474C98.6621 3.20336 98.5935 3.39394 98.584 3.61648H97.5222C97.5341 3.22348 97.6501 2.87784 97.8702 2.57955C98.0928 2.28125 98.3863 2.04806 98.7509 1.87997C99.1155 1.71188 99.5203 1.62784 99.9654 1.62784C100.432 1.62784 100.834 1.71899 101.173 1.90128C101.514 2.0812 101.776 2.3215 101.961 2.62216C102.148 2.92282 102.241 3.25189 102.238 3.60938C102.241 4.01657 102.127 4.36222 101.897 4.64631C101.67 4.9304 101.367 5.12098 100.988 5.21804V5.27486C101.471 5.34825 101.845 5.54001 102.11 5.85014C102.378 6.16027 102.51 6.54498 102.508 7.00426C102.51 7.40436 102.399 7.76302 102.174 8.08026C101.952 8.39749 101.647 8.64725 101.262 8.82955C100.876 9.00947 100.434 9.09943 99.937 9.09943ZM106.878 4.90199V5.82528H103.654V4.90199H106.878ZM107.927 7.57955V6.69176L111.069 1.72727H111.769V3.03409H111.325L109.077 6.59233V6.64915H113.385V7.57955H107.927ZM111.375 9V7.30966L111.382 6.90483V1.72727H112.422V9H111.375ZM116.823 9.09943C116.378 9.09943 115.978 9.0142 115.623 8.84375C115.27 8.67093 114.988 8.43419 114.777 8.13352C114.567 7.83286 114.454 7.48958 114.44 7.10369H115.505C115.531 7.41619 115.67 7.67306 115.921 7.87429C116.172 8.07552 116.472 8.17614 116.823 8.17614C117.102 8.17614 117.35 8.11222 117.565 7.98438C117.783 7.85417 117.953 7.67543 118.076 7.44815C118.202 7.22088 118.265 6.96165 118.265 6.67045C118.265 6.37453 118.201 6.11056 118.073 5.87855C117.945 5.64654 117.769 5.46425 117.544 5.33168C117.321 5.1991 117.065 5.13163 116.777 5.12926C116.556 5.12926 116.335 5.16714 116.113 5.2429C115.89 5.31866 115.71 5.41809 115.573 5.54119L114.568 5.39205L114.976 1.72727H118.975V2.66832H115.889L115.658 4.70312H115.701C115.843 4.56581 116.031 4.45099 116.265 4.35866C116.502 4.26634 116.755 4.22017 117.025 4.22017C117.468 4.22017 117.862 4.32552 118.208 4.53622C118.556 4.74692 118.829 5.03456 119.028 5.39915C119.229 5.76136 119.329 6.17803 119.326 6.64915C119.329 7.12027 119.222 7.54048 119.007 7.9098C118.794 8.27912 118.498 8.57031 118.119 8.78338C117.743 8.99408 117.31 9.09943 116.823 9.09943Z" fill="white"/>
<path fill-rule="evenodd" clip-rule="evenodd" d="M144.995 1.33325C142.695 1.33325 140.832 3.19992 140.832 5.49992C140.832 7.79992 142.695 9.66658 144.995 9.66658C147.299 9.66658 149.165 7.79992 149.165 5.49992C149.165 3.19992 147.299 1.33325 144.995 1.33325ZM144.999 8.83325C143.157 8.83325 141.665 7.34159 141.665 5.49992C141.665 3.65825 143.157 2.16659 144.999 2.16659C146.84 2.16659 148.332 3.65825 148.332 5.49992C148.332 7.34159 146.84 8.83325 144.999 8.83325ZM144.907 3.41659H144.882C144.715 3.41659 144.582 3.54992 144.582 3.71659V5.68325C144.582 5.82908 144.657 5.96659 144.786 6.04158L146.515 7.07908C146.657 7.16242 146.84 7.12075 146.924 6.97908C147.011 6.83742 146.965 6.64992 146.82 6.56659L145.207 5.60825V3.71659C145.207 3.54992 145.074 3.41659 144.907 3.41659Z" fill="white"/>
<path d="M152.547 7.57955V6.69176L155.69 1.72727H156.389V3.03409H155.945L153.697 6.59233V6.64915H158.005V7.57955H152.547ZM155.995 9V7.30966L156.002 6.90483V1.72727H157.043V9H155.995ZM162.271 4.90199V5.82528H159.046V4.90199H162.271ZM165.872 9.09943C165.427 9.09943 165.027 9.0142 164.672 8.84375C164.319 8.67093 164.037 8.43419 163.827 8.13352C163.616 7.83286 163.503 7.48958 163.489 7.10369H164.555C164.581 7.41619 164.719 7.67306 164.97 7.87429C165.221 8.07552 165.522 8.17614 165.872 8.17614C166.151 8.17614 166.399 8.11222 166.614 7.98438C166.832 7.85417 167.002 7.67543 167.126 7.44815C167.251 7.22088 167.314 6.96165 167.314 6.67045C167.314 6.37453 167.25 6.11056 167.122 5.87855C166.994 5.64654 166.818 5.46425 166.593 5.33168C166.37 5.1991 166.115 5.13163 165.826 5.12926C165.606 5.12926 165.384 5.16714 165.162 5.2429C164.939 5.31866 164.759 5.41809 164.622 5.54119L163.617 5.39205L164.025 1.72727H168.024V2.66832H164.938L164.707 4.70312H164.75C164.892 4.56581 165.08 4.45099 165.314 4.35866C165.551 4.26634 165.805 4.22017 166.074 4.22017C166.517 4.22017 166.911 4.32552 167.257 4.53622C167.605 4.74692 167.878 5.03456 168.077 5.39915C168.279 5.76136 168.378 6.17803 168.376 6.64915C168.378 7.12027 168.271 7.54048 168.056 7.9098C167.843 8.27912 167.547 8.57031 167.168 8.78338C166.792 8.99408 166.36 9.09943 165.872 9.09943ZM176.312 3.54545V9H175.275V3.54545H176.312ZM175.861 6.07741V6.99361C175.698 7.0599 175.525 7.11908 175.342 7.17116C175.16 7.22088 174.968 7.25994 174.767 7.28835C174.566 7.31676 174.356 7.33097 174.139 7.33097C173.464 7.33097 172.928 7.16643 172.53 6.83736C172.132 6.50592 171.933 5.99929 171.933 5.31747V3.5348H172.967V5.31747C172.967 5.57552 173.014 5.78504 173.109 5.94602C173.203 6.10701 173.338 6.22538 173.514 6.30114C173.689 6.37689 173.897 6.41477 174.139 6.41477C174.458 6.41477 174.753 6.38518 175.023 6.32599C175.295 6.26444 175.574 6.18158 175.861 6.07741ZM179.112 9.12074C178.766 9.12074 178.454 9.05682 178.174 8.92898C177.895 8.79877 177.673 8.61056 177.51 8.36435C177.349 8.11813 177.269 7.81629 177.269 7.45881C177.269 7.15104 177.328 6.89773 177.446 6.69886C177.565 6.5 177.724 6.34257 177.926 6.22656C178.127 6.11056 178.352 6.02296 178.6 5.96378C178.849 5.90459 179.102 5.85961 179.36 5.82884C179.687 5.79096 179.952 5.76018 180.156 5.73651C180.359 5.71046 180.507 5.66903 180.6 5.61222C180.692 5.5554 180.738 5.46307 180.738 5.33523V5.31037C180.738 5.00024 180.651 4.75994 180.475 4.58949C180.302 4.41903 180.044 4.33381 179.701 4.33381C179.344 4.33381 179.062 4.41312 178.856 4.57173C178.652 4.72798 178.512 4.90199 178.433 5.09375L177.436 4.86648C177.554 4.53504 177.727 4.26752 177.954 4.06392C178.184 3.85795 178.448 3.70881 178.746 3.61648C179.044 3.52178 179.358 3.47443 179.687 3.47443C179.905 3.47443 180.136 3.50047 180.379 3.55256C180.626 3.60227 180.855 3.6946 181.068 3.82955C181.284 3.96449 181.46 4.15743 181.597 4.40838C181.735 4.65696 181.803 4.98011 181.803 5.37784V9H180.767V8.25426H180.724C180.655 8.39157 180.552 8.52652 180.415 8.65909C180.278 8.79167 180.101 8.90175 179.886 8.98935C179.67 9.07694 179.412 9.12074 179.112 9.12074ZM179.343 8.26847C179.636 8.26847 179.887 8.21046 180.095 8.09446C180.306 7.97846 180.466 7.82694 180.575 7.63991C180.686 7.45052 180.742 7.24811 180.742 7.03267V6.32955C180.704 6.36742 180.63 6.40294 180.521 6.43608C180.415 6.46686 180.293 6.49408 180.156 6.51776C180.018 6.53906 179.885 6.55919 179.754 6.57812C179.624 6.5947 179.515 6.6089 179.428 6.62074C179.222 6.64678 179.034 6.69058 178.863 6.75213C178.695 6.81368 178.56 6.90246 178.458 7.01847C178.359 7.1321 178.309 7.28362 178.309 7.47301C178.309 7.7358 178.406 7.93466 178.6 8.0696C178.794 8.20218 179.042 8.26847 179.343 8.26847ZM185.315 9.11009C184.787 9.11009 184.333 8.99053 183.952 8.75142C183.573 8.50994 183.282 8.17732 183.078 7.75355C182.874 7.32978 182.773 6.84446 182.773 6.29759C182.773 5.74361 182.877 5.25473 183.085 4.83097C183.293 4.40483 183.587 4.07221 183.966 3.8331C184.345 3.59399 184.791 3.47443 185.305 3.47443C185.719 3.47443 186.088 3.55137 186.413 3.70526C186.737 3.85677 186.999 4.06984 187.197 4.34446C187.399 4.61908 187.518 4.93987 187.556 5.30682H186.523C186.466 5.05114 186.336 4.83097 186.132 4.64631C185.931 4.46165 185.661 4.36932 185.322 4.36932C185.026 4.36932 184.767 4.44744 184.545 4.60369C184.325 4.75758 184.153 4.97775 184.03 5.2642C183.907 5.5483 183.845 5.88447 183.845 6.27273C183.845 6.67045 183.905 7.01373 184.026 7.30256C184.147 7.59138 184.317 7.8151 184.538 7.97372C184.76 8.13234 185.022 8.21165 185.322 8.21165C185.524 8.21165 185.706 8.17495 185.869 8.10156C186.035 8.0258 186.173 7.91809 186.285 7.77841C186.398 7.63873 186.478 7.47064 186.523 7.27415H187.556C187.518 7.62689 187.403 7.94176 187.212 8.21875C187.02 8.49574 186.763 8.71354 186.441 8.87216C186.121 9.03078 185.746 9.11009 185.315 9.11009ZM190.789 9.11009C190.278 9.11009 189.831 8.9929 189.45 8.75852C189.069 8.52415 188.773 8.19626 188.563 7.77486C188.352 7.35346 188.246 6.86103 188.246 6.29759C188.246 5.73177 188.352 5.23698 188.563 4.81321C188.773 4.38944 189.069 4.06037 189.45 3.82599C189.831 3.59162 190.278 3.47443 190.789 3.47443C191.3 3.47443 191.747 3.59162 192.128 3.82599C192.509 4.06037 192.805 4.38944 193.016 4.81321C193.226 5.23698 193.332 5.73177 193.332 6.29759C193.332 6.86103 193.226 7.35346 193.016 7.77486C192.805 8.19626 192.509 8.52415 192.128 8.75852C191.747 8.9929 191.3 9.11009 190.789 9.11009ZM190.793 8.21875C191.124 8.21875 191.399 8.13116 191.617 7.95597C191.834 7.78078 191.995 7.54759 192.099 7.25639C192.206 6.9652 192.259 6.64441 192.259 6.29403C192.259 5.94602 192.206 5.62642 192.099 5.33523C191.995 5.04167 191.834 4.80611 191.617 4.62855C191.399 4.45099 191.124 4.36222 190.793 4.36222C190.459 4.36222 190.182 4.45099 189.962 4.62855C189.744 4.80611 189.582 5.04167 189.475 5.33523C189.371 5.62642 189.319 5.94602 189.319 6.29403C189.319 6.64441 189.371 6.9652 189.475 7.25639C189.582 7.54759 189.744 7.78078 189.962 7.95597C190.182 8.13116 190.459 8.21875 190.793 8.21875ZM194.317 9V3.54545H196.579C197.195 3.54545 197.682 3.67685 198.042 3.93963C198.402 4.20005 198.582 4.55398 198.582 5.00142C198.582 5.32102 198.48 5.57434 198.276 5.76136C198.073 5.94839 197.803 6.07386 197.467 6.13778C197.711 6.16619 197.934 6.23958 198.138 6.35795C198.342 6.47396 198.505 6.63021 198.628 6.8267C198.753 7.0232 198.816 7.25758 198.816 7.52983C198.816 7.81866 198.742 8.07434 198.592 8.29688C198.443 8.51705 198.227 8.68987 197.943 8.81534C197.661 8.93845 197.321 9 196.923 9H194.317ZM195.315 8.11222H196.923C197.186 8.11222 197.392 8.04948 197.541 7.92401C197.69 7.79853 197.765 7.62808 197.765 7.41264C197.765 7.15933 197.69 6.96046 197.541 6.81605C197.392 6.66927 197.186 6.59588 196.923 6.59588H195.315V8.11222ZM195.315 5.81818H196.59C196.788 5.81818 196.959 5.78977 197.101 5.73295C197.245 5.67614 197.355 5.59564 197.431 5.49148C197.509 5.38494 197.548 5.25947 197.548 5.11506C197.548 4.90436 197.462 4.73982 197.289 4.62145C197.116 4.50308 196.88 4.44389 196.579 4.44389H195.315V5.81818Z" fill="white"/>
</svg>
