<svg width="200" height="129" viewBox="0 0 200 129" fill="none" xmlns="http://www.w3.org/2000/svg">
<path d="M0.707386 12V10.6705L3.81392 7.79403C4.07813 7.53835 4.29972 7.30824 4.47869 7.10369C4.66051 6.89915 4.7983 6.69886 4.89205 6.50284C4.9858 6.30398 5.03267 6.08949 5.03267 5.85938C5.03267 5.60369 4.97443 5.38352 4.85795 5.19886C4.74148 5.01136 4.58239 4.8679 4.38068 4.76847C4.17898 4.66619 3.95028 4.61506 3.6946 4.61506C3.42756 4.61506 3.1946 4.66903 2.99574 4.77699C2.79688 4.88494 2.64347 5.03977 2.53551 5.24148C2.42756 5.44318 2.37358 5.68324 2.37358 5.96165H0.622159C0.622159 5.39062 0.75142 4.89489 1.00994 4.47443C1.26847 4.05398 1.63068 3.72869 2.09659 3.49858C2.5625 3.26847 3.09943 3.15341 3.70739 3.15341C4.33239 3.15341 4.87642 3.2642 5.33949 3.4858C5.8054 3.70455 6.16761 4.00852 6.42614 4.39773C6.68466 4.78693 6.81392 5.23295 6.81392 5.7358C6.81392 6.06534 6.74858 6.39062 6.6179 6.71165C6.49006 7.03267 6.26136 7.3892 5.93182 7.78125C5.60227 8.17045 5.13778 8.63778 4.53835 9.18324L3.2642 10.4318V10.4915H6.92898V12H0.707386ZM8.37115 12L11.989 4.84091V4.78125H7.77456V3.27273H13.8981V4.80256L10.276 12H8.37115ZM21.3464 9.9929L23.1191 5.45455H24.4998L21.9473 12H20.7413L18.2484 5.45455H19.6248L21.3464 9.9929ZM19.2115 5.45455V12H17.4771V5.45455H19.2115ZM23.5708 12V5.45455H25.2839V12H23.5708ZM28.3145 12.1236C27.8969 12.1236 27.5247 12.0511 27.198 11.9062C26.8713 11.7585 26.6128 11.5412 26.4225 11.2543C26.235 10.9645 26.1412 10.6037 26.1412 10.1719C26.1412 9.80824 26.208 9.50284 26.3415 9.25568C26.475 9.00852 26.6568 8.80966 26.8869 8.65909C27.1171 8.50852 27.3784 8.39489 27.671 8.31818C27.9665 8.24148 28.2762 8.1875 28.6 8.15625C28.9807 8.11648 29.2875 8.07955 29.5205 8.04545C29.7534 8.00852 29.9225 7.95455 30.0276 7.88352C30.1327 7.8125 30.1852 7.70739 30.1852 7.56818V7.54261C30.1852 7.27273 30.1 7.06392 29.9296 6.91619C29.7619 6.76847 29.5233 6.6946 29.2137 6.6946C28.8869 6.6946 28.627 6.76705 28.4338 6.91193C28.2406 7.05398 28.1128 7.23295 28.0503 7.44886L26.3713 7.3125C26.4565 6.91477 26.6242 6.57102 26.8742 6.28125C27.1242 5.98864 27.4466 5.7642 27.8415 5.60795C28.2392 5.44886 28.6994 5.36932 29.2222 5.36932C29.5858 5.36932 29.9338 5.41193 30.2662 5.49716C30.6014 5.58239 30.8983 5.71449 31.1568 5.89347C31.4182 6.07244 31.6242 6.30256 31.7747 6.58381C31.9253 6.86222 32.0006 7.19602 32.0006 7.58523V12H30.279V11.0923H30.2279C30.1227 11.2969 29.9821 11.4773 29.806 11.6335C29.6298 11.7869 29.4182 11.9077 29.171 11.9957C28.9239 12.081 28.6384 12.1236 28.3145 12.1236ZM28.8344 10.8707C29.1014 10.8707 29.3372 10.8182 29.5418 10.7131C29.7463 10.6051 29.9068 10.4602 30.0233 10.2784C30.1398 10.0966 30.198 9.89062 30.198 9.66051V8.96591C30.1412 9.00284 30.0631 9.03693 29.9637 9.06818C29.8671 9.09659 29.7577 9.12358 29.6355 9.14915C29.5134 9.17187 29.3912 9.19318 29.269 9.21307C29.1469 9.23011 29.0361 9.24574 28.9367 9.25994C28.7236 9.29119 28.5375 9.34091 28.3784 9.40909C28.2193 9.47727 28.0958 9.5696 28.0077 9.68608C27.9196 9.79972 27.8756 9.94176 27.8756 10.1122C27.8756 10.3594 27.9651 10.5483 28.144 10.679C28.3259 10.8068 28.556 10.8707 28.8344 10.8707ZM37.0042 12V6.87784H35.7769C35.4445 6.87784 35.1917 6.95455 35.0184 7.10795C34.8451 7.26136 34.7599 7.44318 34.7627 7.65341C34.7599 7.86648 34.8423 8.04687 35.0099 8.1946C35.1803 8.33949 35.4303 8.41193 35.7599 8.41193H37.6093V9.6392H35.7599C35.2002 9.6392 34.7158 9.55398 34.3067 9.38352C33.8977 9.21307 33.5823 8.97585 33.3607 8.67188C33.1391 8.36506 33.0298 8.00852 33.0326 7.60227C33.0298 7.17614 33.1391 6.80256 33.3607 6.48153C33.5823 6.15767 33.8991 5.90625 34.311 5.72727C34.7258 5.54545 35.2144 5.45455 35.7769 5.45455H38.696V12H37.0042ZM32.8451 12L34.6647 8.59091H36.3991L34.5837 12H32.8451ZM42.3868 12V10.6705L45.4933 7.79403C45.7575 7.53835 45.9791 7.30824 46.1581 7.10369C46.3399 6.89915 46.4777 6.69886 46.5714 6.50284C46.6652 6.30398 46.712 6.08949 46.712 5.85938C46.712 5.60369 46.6538 5.38352 46.5373 5.19886C46.4209 5.01136 46.2618 4.8679 46.0601 4.76847C45.8584 4.66619 45.6297 4.61506 45.374 4.61506C45.1069 4.61506 44.874 4.66903 44.6751 4.77699C44.4762 4.88494 44.3228 5.03977 44.2149 5.24148C44.1069 5.44318 44.053 5.68324 44.053 5.96165H42.3015C42.3015 5.39062 42.4308 4.89489 42.6893 4.47443C42.9478 4.05398 43.3101 3.72869 43.776 3.49858C44.2419 3.26847 44.7788 3.15341 45.3868 3.15341C46.0118 3.15341 46.5558 3.2642 47.0189 3.4858C47.4848 3.70455 47.847 4.00852 48.1055 4.39773C48.364 4.78693 48.4933 5.23295 48.4933 5.7358C48.4933 6.06534 48.428 6.39062 48.2973 6.71165C48.1694 7.03267 47.9407 7.3892 47.6112 7.78125C47.2816 8.17045 46.8172 8.63778 46.2177 9.18324L44.9436 10.4318V10.4915H48.6084V12H42.3868ZM53.1272 12.1918C52.3943 12.1889 51.7636 12.0085 51.2352 11.6506C50.7096 11.2926 50.3048 10.7741 50.0207 10.0952C49.7394 9.41619 49.6002 8.59943 49.6031 7.64489C49.6031 6.69318 49.7437 5.8821 50.025 5.21165C50.3091 4.54119 50.7139 4.03125 51.2394 3.68182C51.7679 3.32955 52.3971 3.15341 53.1272 3.15341C53.8573 3.15341 54.4852 3.32955 55.0108 3.68182C55.5392 4.03409 55.9454 4.54545 56.2295 5.21591C56.5136 5.88352 56.6542 6.69318 56.6514 7.64489C56.6514 8.60227 56.5093 9.42045 56.2252 10.0994C55.944 10.7784 55.5406 11.2969 55.015 11.6548C54.4894 12.0128 53.8602 12.1918 53.1272 12.1918ZM53.1272 10.6619C53.6272 10.6619 54.0264 10.4105 54.3247 9.90767C54.623 9.40483 54.7707 8.65057 54.7679 7.64489C54.7679 6.98295 54.6997 6.43182 54.5633 5.99148C54.4298 5.55114 54.2394 5.22017 53.9923 4.99858C53.748 4.77699 53.4596 4.66619 53.1272 4.66619C52.6301 4.66619 52.2323 4.91477 51.9341 5.41193C51.6358 5.90909 51.4852 6.65341 51.4823 7.64489C51.4823 8.31534 51.5491 8.875 51.6826 9.32386C51.819 9.76989 52.0108 10.1051 52.2579 10.3295C52.5051 10.5511 52.7948 10.6619 53.1272 10.6619ZM57.7271 12V10.6705L60.8336 7.79403C61.0978 7.53835 61.3194 7.30824 61.4984 7.10369C61.6802 6.89915 61.818 6.69886 61.9117 6.50284C62.0055 6.30398 62.0524 6.08949 62.0524 5.85938C62.0524 5.60369 61.9941 5.38352 61.8776 5.19886C61.7612 5.01136 61.6021 4.8679 61.4004 4.76847C61.1987 4.66619 60.97 4.61506 60.7143 4.61506C60.4472 4.61506 60.2143 4.66903 60.0154 4.77699C59.8166 4.88494 59.6632 5.03977 59.5552 5.24148C59.4472 5.44318 59.3933 5.68324 59.3933 5.96165H57.6418C57.6418 5.39062 57.7711 4.89489 58.0296 4.47443C58.2882 4.05398 58.6504 3.72869 59.1163 3.49858C59.5822 3.26847 60.1191 3.15341 60.7271 3.15341C61.3521 3.15341 61.8961 3.2642 62.3592 3.4858C62.8251 3.70455 63.1873 4.00852 63.4458 4.39773C63.7043 4.78693 63.8336 5.23295 63.8336 5.7358C63.8336 6.06534 63.7683 6.39062 63.6376 6.71165C63.5097 7.03267 63.2811 7.3892 62.9515 7.78125C62.622 8.17045 62.1575 8.63778 61.558 9.18324L60.2839 10.4318V10.4915H63.9487V12H57.7271ZM64.7261 10.4659V9.01278L68.3695 3.27273H69.6224V5.28409H68.8809L66.584 8.91903V8.98722H71.7616V10.4659H64.7261ZM68.915 12V10.0227L68.9491 9.37926V3.27273H70.6792V12H68.915ZM75.3054 12V5.45455H78.0966C78.9034 5.45455 79.5412 5.60795 80.0099 5.91477C80.4787 6.22159 80.713 6.65767 80.713 7.22301C80.713 7.57812 80.5809 7.87358 80.3167 8.10938C80.0525 8.34517 79.6861 8.50426 79.2173 8.58665C79.6093 8.61506 79.9432 8.70455 80.2187 8.85511C80.4971 9.00284 80.7088 9.1946 80.8537 9.4304C81.0014 9.66619 81.0753 9.92756 81.0753 10.2145C81.0753 10.5866 80.9758 10.9062 80.777 11.1733C80.5809 11.4403 80.2926 11.6449 79.9119 11.7869C79.5341 11.929 79.0724 12 78.527 12H75.3054ZM76.9971 10.6406H78.527C78.7798 10.6406 78.9772 10.581 79.1193 10.4616C79.2642 10.3395 79.3366 10.1733 79.3366 9.96307C79.3366 9.73011 79.2642 9.54687 79.1193 9.41335C78.9772 9.27983 78.7798 9.21307 78.527 9.21307H76.9971V10.6406ZM76.9971 8.14773H78.1349C78.3167 8.14773 78.4716 8.12216 78.5994 8.07102C78.7301 8.01705 78.8295 7.94034 78.8977 7.84091C78.9687 7.74148 79.0042 7.62358 79.0042 7.48722C79.0042 7.28551 78.9233 7.12784 78.7613 7.0142C78.5994 6.90057 78.3778 6.84375 78.0966 6.84375H76.9971V8.14773ZM88.2966 3.27273V12H86.4514V5.02415H86.4003L84.4017 6.27699V4.64062L86.5622 3.27273H88.2966ZM93.2885 3.15341C93.7374 3.15341 94.1692 3.22869 94.584 3.37926C95.0016 3.52983 95.3737 3.76989 95.7004 4.09943C96.03 4.42898 96.2899 4.86648 96.4803 5.41193C96.6734 5.95455 96.7715 6.62074 96.7743 7.41051C96.7743 8.15199 96.6905 8.81392 96.5229 9.39631C96.3581 9.97585 96.1209 10.4688 95.8112 10.875C95.5016 11.2812 95.128 11.5909 94.6905 11.804C94.253 12.0142 93.7643 12.1193 93.2246 12.1193C92.6422 12.1193 92.128 12.0071 91.682 11.7827C91.2359 11.5554 90.8766 11.2472 90.6038 10.858C90.334 10.4659 90.1706 10.0256 90.1138 9.53693H91.9334C92.0044 9.85511 92.1536 10.1023 92.3808 10.2784C92.6081 10.4517 92.8893 10.5384 93.2246 10.5384C93.7928 10.5384 94.2246 10.2912 94.52 9.79688C94.8155 9.29972 94.9646 8.61932 94.9675 7.75568H94.9078C94.7771 8.01136 94.601 8.23153 94.3794 8.41619C94.1578 8.59801 93.9036 8.73864 93.6166 8.83807C93.3325 8.9375 93.03 8.98722 92.709 8.98722C92.1947 8.98722 91.7359 8.86648 91.3325 8.625C90.9291 8.38352 90.6109 8.05114 90.378 7.62784C90.145 7.20455 90.0286 6.72159 90.0286 6.17898C90.0257 5.59375 90.1607 5.07244 90.4334 4.61506C90.7061 4.15767 91.0868 3.79972 91.5754 3.54119C92.0669 3.27983 92.6379 3.15057 93.2885 3.15341ZM93.3013 4.60227C93.0143 4.60227 92.7587 4.67045 92.5342 4.80682C92.3126 4.94318 92.1365 5.12642 92.0058 5.35653C91.878 5.58665 91.8155 5.84375 91.8183 6.12784C91.8183 6.41477 91.8808 6.6733 92.0058 6.90341C92.1337 7.13068 92.307 7.3125 92.5257 7.44886C92.7473 7.58239 93.0001 7.64915 93.2842 7.64915C93.4973 7.64915 93.6947 7.60937 93.8766 7.52983C94.0584 7.45028 94.2161 7.34091 94.3496 7.2017C94.4859 7.05966 94.5925 6.89631 94.6692 6.71165C94.7459 6.52699 94.7842 6.33097 94.7842 6.12358C94.7814 5.84801 94.7161 5.59517 94.5882 5.36506C94.4604 5.13494 94.2842 4.95028 94.0598 4.81108C93.8354 4.67187 93.5825 4.60227 93.3013 4.60227ZM98.8908 10.9858C98.6096 10.9858 98.3681 10.8864 98.1664 10.6875C97.9675 10.4886 97.8681 10.2472 97.8681 9.96307C97.8681 9.68466 97.9675 9.44602 98.1664 9.24716C98.3681 9.0483 98.6096 8.94886 98.8908 8.94886C99.1636 8.94886 99.4022 9.0483 99.6067 9.24716C99.8113 9.44602 99.9136 9.68466 99.9136 9.96307C99.9136 10.1506 99.8653 10.3224 99.7687 10.4787C99.6749 10.6321 99.5513 10.7557 99.3979 10.8494C99.2445 10.9403 99.0755 10.9858 98.8908 10.9858ZM98.8908 6.70312C98.6096 6.70312 98.3681 6.60369 98.1664 6.40483C97.9675 6.20597 97.8681 5.96449 97.8681 5.6804C97.8681 5.40199 97.9675 5.16477 98.1664 4.96875C98.3681 4.76989 98.6096 4.67045 98.8908 4.67045C99.1636 4.67045 99.4022 4.76989 99.6067 4.96875C99.8113 5.16477 99.9136 5.40199 99.9136 5.6804C99.9136 5.87074 99.8653 6.04403 99.7687 6.20028C99.6749 6.35369 99.5513 6.47585 99.3979 6.56676C99.2445 6.65767 99.0755 6.70312 98.8908 6.70312ZM104.569 12.1918C103.836 12.1889 103.205 12.0085 102.677 11.6506C102.151 11.2926 101.746 10.7741 101.462 10.0952C101.181 9.41619 101.042 8.59943 101.045 7.64489C101.045 6.69318 101.185 5.8821 101.467 5.21165C101.751 4.54119 102.155 4.03125 102.681 3.68182C103.209 3.32955 103.839 3.15341 104.569 3.15341C105.299 3.15341 105.927 3.32955 106.452 3.68182C106.981 4.03409 107.387 4.54545 107.671 5.21591C107.955 5.88352 108.096 6.69318 108.093 7.64489C108.093 8.60227 107.951 9.42045 107.667 10.0994C107.386 10.7784 106.982 11.2969 106.457 11.6548C105.931 12.0128 105.302 12.1918 104.569 12.1918ZM104.569 10.6619C105.069 10.6619 105.468 10.4105 105.766 9.90767C106.065 9.40483 106.212 8.65057 106.209 7.64489C106.209 6.98295 106.141 6.43182 106.005 5.99148C105.871 5.55114 105.681 5.22017 105.434 4.99858C105.19 4.77699 104.901 4.66619 104.569 4.66619C104.072 4.66619 103.674 4.91477 103.376 5.41193C103.077 5.90909 102.927 6.65341 102.924 7.64489C102.924 8.31534 102.991 8.875 103.124 9.32386C103.261 9.76989 103.452 10.1051 103.699 10.3295C103.947 10.5511 104.236 10.6619 104.569 10.6619ZM112.591 12.1918C111.858 12.1889 111.227 12.0085 110.698 11.6506C110.173 11.2926 109.768 10.7741 109.484 10.0952C109.203 9.41619 109.064 8.59943 109.066 7.64489C109.066 6.69318 109.207 5.8821 109.488 5.21165C109.772 4.54119 110.177 4.03125 110.703 3.68182C111.231 3.32955 111.86 3.15341 112.591 3.15341C113.321 3.15341 113.948 3.32955 114.474 3.68182C115.002 4.03409 115.409 4.54545 115.693 5.21591C115.977 5.88352 116.118 6.69318 116.115 7.64489C116.115 8.60227 115.973 9.42045 115.689 10.0994C115.407 10.7784 115.004 11.2969 114.478 11.6548C113.953 12.0128 113.323 12.1918 112.591 12.1918ZM112.591 10.6619C113.091 10.6619 113.49 10.4105 113.788 9.90767C114.086 9.40483 114.234 8.65057 114.231 7.64489C114.231 6.98295 114.163 6.43182 114.027 5.99148C113.893 5.55114 113.703 5.22017 113.456 4.99858C113.211 4.77699 112.923 4.66619 112.591 4.66619C112.093 4.66619 111.696 4.91477 111.397 5.41193C111.099 5.90909 110.948 6.65341 110.946 7.64489C110.946 8.31534 111.012 8.875 111.146 9.32386C111.282 9.76989 111.474 10.1051 111.721 10.3295C111.968 10.5511 112.258 10.6619 112.591 10.6619Z" fill="#FAFF00"/>
<path d="M12.9478 21.1818V35H10.06V23.5568H4.47337V35H1.58558V21.1818H12.9478ZM15.2953 38.8864V24.6364H18.1291V26.3771H18.2573C18.3833 26.0982 18.5655 25.8149 18.8039 25.527C19.0468 25.2346 19.3616 24.9917 19.7485 24.7983C20.1398 24.6004 20.6256 24.5014 21.2058 24.5014C21.9615 24.5014 22.6587 24.6993 23.2975 25.0952C23.9362 25.4865 24.4467 26.078 24.8291 26.8697C25.2114 27.6568 25.4026 28.6442 25.4026 29.8317C25.4026 30.9877 25.2159 31.9638 24.8426 32.7599C24.4737 33.5516 23.9699 34.1521 23.3312 34.5614C22.697 34.9663 21.9863 35.1687 21.1991 35.1687C20.6413 35.1687 20.1668 35.0765 19.7755 34.892C19.3886 34.7076 19.0715 34.476 18.8241 34.1971C18.5767 33.9137 18.3878 33.6281 18.2573 33.3402H18.1696V38.8864H15.2953ZM18.1089 29.8182C18.1089 30.4344 18.1944 30.9719 18.3653 31.4308C18.5362 31.8896 18.7836 32.2472 19.1075 32.5036C19.4313 32.7554 19.8249 32.8814 20.2882 32.8814C20.756 32.8814 21.1519 32.7532 21.4757 32.4968C21.7996 32.2359 22.0447 31.8761 22.2112 31.4173C22.3821 30.954 22.4676 30.4209 22.4676 29.8182C22.4676 29.2199 22.3844 28.6937 22.2179 28.2393C22.0515 27.785 21.8063 27.4297 21.4825 27.1733C21.1586 26.9169 20.7605 26.7887 20.2882 26.7887C19.8204 26.7887 19.4246 26.9124 19.1007 27.1598C18.7814 27.4072 18.5362 27.758 18.3653 28.2124C18.1944 28.6667 18.1089 29.2019 18.1089 29.8182ZM29.894 35.1957C29.2328 35.1957 28.6436 35.081 28.1263 34.8516C27.609 34.6177 27.1997 34.2736 26.8983 33.8192C26.6014 33.3604 26.453 32.7892 26.453 32.1055C26.453 31.5297 26.5587 31.0462 26.7701 30.6548C26.9815 30.2635 27.2694 29.9486 27.6337 29.7102C27.9981 29.4718 28.4119 29.2919 28.8752 29.1705C29.343 29.049 29.8333 28.9635 30.3461 28.9141C30.9488 28.8511 31.4346 28.7926 31.8035 28.7386C32.1723 28.6802 32.44 28.5947 32.6064 28.4822C32.7728 28.3698 32.856 28.2034 32.856 27.983V27.9425C32.856 27.5152 32.7211 27.1845 32.4512 26.9506C32.1858 26.7167 31.808 26.5998 31.3177 26.5998C30.8004 26.5998 30.3888 26.7145 30.083 26.9439C29.7771 27.1688 29.5747 27.4522 29.4757 27.794L26.8173 27.5781C26.9523 26.9484 27.2177 26.4041 27.6135 25.9453C28.0093 25.482 28.5199 25.1267 29.1451 24.8793C29.7748 24.6274 30.5035 24.5014 31.3312 24.5014C31.9069 24.5014 32.458 24.5689 32.9842 24.7038C33.515 24.8388 33.9851 25.0479 34.3944 25.3313C34.8082 25.6147 35.1343 25.979 35.3727 26.4244C35.6111 26.8652 35.7303 27.3937 35.7303 28.0099V35H33.0045V33.5629H32.9235C32.7571 33.8867 32.5344 34.1723 32.2555 34.4197C31.9767 34.6626 31.6415 34.8538 31.2502 34.9933C30.8589 35.1282 30.4068 35.1957 29.894 35.1957ZM30.7172 33.212C31.14 33.212 31.5133 33.1288 31.8372 32.9624C32.1611 32.7914 32.4152 32.562 32.5996 32.2741C32.7841 31.9863 32.8763 31.6602 32.8763 31.2958V30.196C32.7863 30.2545 32.6626 30.3085 32.5052 30.358C32.3522 30.4029 32.1791 30.4457 31.9857 30.4862C31.7922 30.5221 31.5988 30.5559 31.4054 30.5874C31.212 30.6143 31.0365 30.6391 30.8791 30.6616C30.5418 30.7111 30.2471 30.7898 29.9952 30.8977C29.7433 31.0057 29.5477 31.1519 29.4082 31.3363C29.2688 31.5162 29.1991 31.7411 29.1991 32.011C29.1991 32.4023 29.3408 32.7015 29.6241 32.9084C29.912 33.1108 30.2764 33.212 30.7172 33.212ZM37.0472 32.065H39.8338C39.8473 32.4068 40.0002 32.6767 40.2926 32.8746C40.585 33.0726 40.9628 33.1715 41.4261 33.1715C41.8939 33.1715 42.2875 33.0636 42.6069 32.8477C42.9263 32.6272 43.0859 32.3124 43.0859 31.9031C43.0859 31.6512 43.023 31.433 42.897 31.2486C42.7711 31.0597 42.5956 30.9112 42.3707 30.8033C42.1458 30.6953 41.8849 30.6413 41.5881 30.6413H40.097V28.7589H41.5881C42.0334 28.7589 42.3752 28.6554 42.6136 28.4485C42.8565 28.2416 42.978 27.983 42.978 27.6726C42.978 27.3217 42.852 27.0406 42.6001 26.8292C42.3528 26.6133 42.0176 26.5053 41.5948 26.5053C41.1675 26.5053 40.8121 26.602 40.5288 26.7955C40.2499 26.9844 40.1059 27.2318 40.097 27.5376H37.3239C37.3329 26.9169 37.5195 26.3794 37.8839 25.9251C38.2527 25.4708 38.7475 25.1199 39.3683 24.8725C39.9935 24.6251 40.6929 24.5014 41.4666 24.5014C42.3123 24.5014 43.041 24.6206 43.6527 24.859C44.2689 25.0929 44.7412 25.428 45.0696 25.8643C45.4025 26.3007 45.5689 26.8202 45.5689 27.4229C45.5689 27.9717 45.389 28.4305 45.0291 28.7994C44.6693 29.1682 44.1655 29.4313 43.5178 29.5888V29.6967C43.9451 29.7237 44.3319 29.8384 44.6783 30.0408C45.0246 30.2433 45.3013 30.5221 45.5082 30.8775C45.7151 31.2283 45.8185 31.6444 45.8185 32.1257C45.8185 32.7689 45.6296 33.32 45.2518 33.7788C44.8784 34.2376 44.3612 34.5907 43.6999 34.8381C43.0432 35.081 42.2898 35.2024 41.4396 35.2024C40.612 35.2024 39.8698 35.0832 39.2131 34.8448C38.5608 34.6019 38.0413 34.2466 37.6545 33.7788C37.2721 33.311 37.0697 32.7397 37.0472 32.065ZM46.3916 38.0362V32.7195H47.1877C47.4171 32.5755 47.6016 32.3461 47.741 32.0312C47.8849 31.7164 48.0019 31.3453 48.0919 30.918C48.1863 30.4906 48.2583 30.0296 48.3078 29.5348C48.3617 29.0355 48.409 28.5317 48.4495 28.0234L48.7193 24.6364H56.6675V32.7195H58.2733V38.0362H55.534V35H49.1984V38.0362H46.3916ZM50.0485 32.7195H53.9551V26.8494H51.1618L51.0539 28.0234C50.9774 29.13 50.8672 30.0701 50.7233 30.8438C50.5793 31.6129 50.3544 32.2382 50.0485 32.7195ZM66.781 28.6712V30.9315H61.3698V28.6712H66.781ZM62.3144 24.6364V35H59.5683V24.6364H62.3144ZM68.5825 24.6364V35H65.8567V24.6364H68.5825ZM73.1785 31.2081L76.9097 24.6364H79.7435V35H77.0042V28.408L73.2865 35H70.4324V24.6364H73.1785V31.2081ZM90.6616 24.6364V35H87.9358V24.6364H90.6616ZM89.3325 29.1839V31.451C89.112 31.55 88.8377 31.6444 88.5093 31.7344C88.1809 31.8198 87.8368 31.8896 87.477 31.9435C87.1171 31.9975 86.7798 32.0245 86.4649 32.0245C84.976 32.0245 83.8043 31.7186 82.9496 31.1069C82.095 30.4906 81.6677 29.5078 81.6677 28.1584V24.6229H84.38V28.1584C84.38 28.5587 84.4475 28.8758 84.5825 29.1097C84.7219 29.3436 84.9423 29.5123 85.2437 29.6158C85.5495 29.7147 85.9566 29.7642 86.4649 29.7642C86.9372 29.7642 87.4005 29.7147 87.8548 29.6158C88.3091 29.5168 88.8017 29.3729 89.3325 29.1839ZM99.726 28.6712V30.9315H94.3148V28.6712H99.726ZM95.2594 24.6364V35H92.5133V24.6364H95.2594ZM101.527 24.6364V35H98.8016V24.6364H101.527ZM105.179 27.821H108.276C109.648 27.821 110.718 28.1494 111.487 28.8061C112.257 29.4583 112.641 30.331 112.641 31.424C112.641 32.1347 112.468 32.7599 112.122 33.2997C111.775 33.835 111.276 34.2533 110.624 34.5547C109.972 34.8516 109.189 35 108.276 35H103.377V24.6364H106.124V32.7397H108.276C108.757 32.7397 109.153 32.6183 109.463 32.3754C109.774 32.1325 109.931 31.8221 109.936 31.4442C109.931 31.0439 109.774 30.7178 109.463 30.4659C109.153 30.2095 108.757 30.0813 108.276 30.0813H105.179V27.821ZM113.755 35V24.6364H116.629V35H113.755ZM121.292 31.2081L125.024 24.6364H127.857V35H125.118V28.408L121.4 35H118.546V24.6364H121.292V31.2081ZM124.531 21.0199H126.535C126.53 21.8385 126.227 22.4975 125.624 22.9968C125.026 23.4961 124.216 23.7457 123.195 23.7457C122.169 23.7457 121.358 23.4961 120.759 22.9968C120.161 22.4975 119.862 21.8385 119.862 21.0199H121.852C121.848 21.3303 121.947 21.6091 122.149 21.8565C122.356 22.1039 122.705 22.2276 123.195 22.2276C123.672 22.2276 124.014 22.1062 124.221 21.8633C124.428 21.6204 124.531 21.3393 124.531 21.0199ZM138.481 35.2024C137.42 35.2024 136.507 34.9775 135.742 34.5277C134.982 34.0734 134.397 33.4437 133.988 32.6385C133.583 31.8333 133.381 30.9067 133.381 29.8587C133.381 28.7971 133.585 27.866 133.995 27.0653C134.408 26.2602 134.995 25.6327 135.756 25.1829C136.516 24.7286 137.42 24.5014 138.468 24.5014C139.372 24.5014 140.164 24.6656 140.843 24.994C141.522 25.3223 142.06 25.7834 142.456 26.3771C142.851 26.9709 143.07 27.6681 143.11 28.4688H140.398C140.321 27.9515 140.119 27.5354 139.79 27.2205C139.467 26.9012 139.041 26.7415 138.515 26.7415C138.07 26.7415 137.681 26.8629 137.348 27.1058C137.02 27.3442 136.763 27.6928 136.579 28.1516C136.394 28.6104 136.302 29.166 136.302 29.8182C136.302 30.4794 136.392 31.0417 136.572 31.505C136.756 31.9683 137.015 32.3214 137.348 32.5643C137.681 32.8072 138.07 32.9286 138.515 32.9286C138.844 32.9286 139.138 32.8612 139.399 32.7262C139.664 32.5913 139.883 32.3956 140.054 32.1392C140.229 31.8783 140.344 31.5657 140.398 31.2013H143.11C143.065 31.993 142.849 32.6902 142.462 33.293C142.08 33.8912 141.551 34.359 140.877 34.6964C140.202 35.0337 139.404 35.2024 138.481 35.2024ZM147.526 35.1957C146.864 35.1957 146.275 35.081 145.758 34.8516C145.241 34.6177 144.831 34.2736 144.53 33.8192C144.233 33.3604 144.085 32.7892 144.085 32.1055C144.085 31.5297 144.19 31.0462 144.402 30.6548C144.613 30.2635 144.901 29.9486 145.265 29.7102C145.63 29.4718 146.043 29.2919 146.507 29.1705C146.975 29.049 147.465 28.9635 147.978 28.9141C148.58 28.8511 149.066 28.7926 149.435 28.7386C149.804 28.6802 150.071 28.5947 150.238 28.4822C150.404 28.3698 150.488 28.2034 150.488 27.983V27.9425C150.488 27.5152 150.353 27.1845 150.083 26.9506C149.817 26.7167 149.439 26.5998 148.949 26.5998C148.432 26.5998 148.02 26.7145 147.714 26.9439C147.409 27.1688 147.206 27.4522 147.107 27.794L144.449 27.5781C144.584 26.9484 144.849 26.4041 145.245 25.9453C145.641 25.482 146.151 25.1267 146.777 24.8793C147.406 24.6274 148.135 24.5014 148.963 24.5014C149.538 24.5014 150.089 24.5689 150.616 24.7038C151.147 24.8388 151.617 25.0479 152.026 25.3313C152.44 25.6147 152.766 25.979 153.004 26.4244C153.243 26.8652 153.362 27.3937 153.362 28.0099V35H150.636V33.5629H150.555C150.389 33.8867 150.166 34.1723 149.887 34.4197C149.608 34.6626 149.273 34.8538 148.882 34.9933C148.49 35.1282 148.038 35.1957 147.526 35.1957ZM148.349 33.212C148.772 33.212 149.145 33.1288 149.469 32.9624C149.793 32.7914 150.047 32.562 150.231 32.2741C150.416 31.9863 150.508 31.6602 150.508 31.2958V30.196C150.418 30.2545 150.294 30.3085 150.137 30.358C149.984 30.4029 149.811 30.4457 149.617 30.4862C149.424 30.5221 149.23 30.5559 149.037 30.5874C148.843 30.6143 148.668 30.6391 148.511 30.6616C148.173 30.7111 147.879 30.7898 147.627 30.8977C147.375 31.0057 147.179 31.1519 147.04 31.3363C146.9 31.5162 146.831 31.7411 146.831 32.011C146.831 32.4023 146.972 32.7015 147.256 32.9084C147.544 33.1108 147.908 33.212 148.349 33.212ZM154.605 35L154.591 32.7195H154.935C155.178 32.7195 155.387 32.661 155.563 32.544C155.743 32.4226 155.891 32.2269 156.008 31.957C156.125 31.6871 156.217 31.3295 156.285 30.8842C156.352 30.4344 156.397 29.8812 156.42 29.2244L156.588 24.6364H164.469V35H161.73V26.8967H159.172L159.01 30.0611C158.97 30.9292 158.864 31.6759 158.693 32.3011C158.527 32.9264 158.295 33.4392 157.998 33.8395C157.701 34.2353 157.344 34.5277 156.926 34.7166C156.507 34.9055 156.021 35 155.468 35H154.605ZM172.045 28.7319V31.0124H166.425V28.7319H172.045ZM168.645 24.6364V35H165.777V24.6364H168.645ZM175.149 35.2024C174.124 35.2024 173.237 34.973 172.491 34.5142C171.744 34.0554 171.168 33.4212 170.764 32.6115C170.363 31.8018 170.163 30.873 170.163 29.8249C170.163 28.7769 170.363 27.8525 170.764 27.0518C171.168 26.2512 171.744 25.6259 172.491 25.1761C173.237 24.7263 174.124 24.5014 175.149 24.5014C176.179 24.5014 177.065 24.7263 177.808 25.1761C178.554 25.6259 179.128 26.2512 179.528 27.0518C179.933 27.8525 180.135 28.7769 180.135 29.8249C180.135 30.873 179.933 31.8018 179.528 32.6115C179.128 33.4212 178.554 34.0554 177.808 34.5142C177.065 34.973 176.179 35.2024 175.149 35.2024ZM175.149 32.8814C175.684 32.8814 176.116 32.7509 176.445 32.4901C176.773 32.2247 177.014 31.8626 177.167 31.4038C177.32 30.9405 177.396 30.4142 177.396 29.8249C177.396 29.2357 177.32 28.7139 177.167 28.2596C177.014 27.8008 176.773 27.4409 176.445 27.18C176.116 26.9192 175.684 26.7887 175.149 26.7887C174.618 26.7887 174.187 26.9192 173.854 27.18C173.521 27.4364 173.276 27.7918 173.118 28.2461C172.965 28.7004 172.889 29.2267 172.889 29.8249C172.889 30.4187 172.965 30.945 173.118 31.4038C173.276 31.8626 173.521 32.2247 173.854 32.4901C174.187 32.7509 174.618 32.8814 175.149 32.8814ZM180.705 26.8967V24.6364H190.097V26.8967H186.757V35H184.018V26.8967H180.705ZM8.35973 49.6712V51.9315H2.94851V49.6712H8.35973ZM3.89311 45.6364V56H1.14702V45.6364H3.89311ZM10.1612 45.6364V56H7.43537V45.6364H10.1612ZM14.9664 56.1957C14.3052 56.1957 13.7159 56.081 13.1987 55.8516C12.6814 55.6177 12.272 55.2736 11.9707 54.8192C11.6738 54.3604 11.5254 53.7892 11.5254 53.1055C11.5254 52.5297 11.6311 52.0462 11.8425 51.6548C12.0539 51.2635 12.3418 50.9486 12.7061 50.7102C13.0705 50.4718 13.4843 50.2919 13.9476 50.1705C14.4154 50.049 14.9057 49.9635 15.4185 49.9141C16.0212 49.8511 16.507 49.7926 16.8759 49.7386C17.2447 49.6802 17.5123 49.5947 17.6788 49.4822C17.8452 49.3698 17.9284 49.2034 17.9284 48.983V48.9425C17.9284 48.5152 17.7935 48.1845 17.5236 47.9506C17.2582 47.7167 16.8804 47.5998 16.3901 47.5998C15.8728 47.5998 15.4612 47.7145 15.1553 47.9439C14.8495 48.1688 14.647 48.4522 14.5481 48.794L11.8897 48.5781C12.0247 47.9484 12.29 47.4041 12.6859 46.9453C13.0817 46.482 13.5922 46.1267 14.2175 45.8793C14.8472 45.6274 15.5759 45.5014 16.4036 45.5014C16.9793 45.5014 17.5303 45.5689 18.0566 45.7038C18.5874 45.8388 19.0574 46.0479 19.4668 46.3313C19.8806 46.6147 20.2067 46.979 20.4451 47.4244C20.6835 47.8652 20.8027 48.3937 20.8027 49.0099V56H18.0769V54.5629H17.9959C17.8295 54.8867 17.6068 55.1723 17.3279 55.4197C17.049 55.6626 16.7139 55.8538 16.3226 55.9933C15.9313 56.1282 15.4792 56.1957 14.9664 56.1957ZM15.7896 54.212C16.2124 54.212 16.5857 54.1288 16.9096 53.9624C17.2335 53.7914 17.4876 53.562 17.672 53.2741C17.8564 52.9863 17.9487 52.6602 17.9487 52.2958V51.196C17.8587 51.2545 17.735 51.3085 17.5776 51.358C17.4246 51.4029 17.2515 51.4457 17.058 51.4862C16.8646 51.5221 16.6712 51.5559 16.4778 51.5874C16.2844 51.6143 16.1089 51.6391 15.9515 51.6616C15.6141 51.7111 15.3195 51.7898 15.0676 51.8977C14.8157 52.0057 14.6201 52.1519 14.4806 52.3363C14.3412 52.5162 14.2715 52.7411 14.2715 53.011C14.2715 53.4023 14.4131 53.7015 14.6965 53.9084C14.9844 54.1108 15.3488 54.212 15.7896 54.212ZM25.8604 59.0362V53.7195H26.6566C26.886 53.5755 27.0704 53.3461 27.2099 53.0312C27.3538 52.7164 27.4708 52.3453 27.5607 51.918C27.6552 51.4906 27.7272 51.0296 27.7766 50.5348C27.8306 50.0355 27.8778 49.5317 27.9183 49.0234L28.1882 45.6364H36.1364V53.7195H37.7422V59.0362H35.0028V56H28.6673V59.0362H25.8604ZM29.5174 53.7195H33.424V47.8494H30.6307L30.5227 49.0234C30.4463 50.13 30.3361 51.0701 30.1921 51.8438C30.0482 52.6129 29.8233 53.2382 29.5174 53.7195ZM43.7602 56.2024C42.6941 56.2024 41.7765 55.9865 41.0073 55.5547C40.2427 55.1184 39.6534 54.5021 39.2396 53.706C38.8258 52.9053 38.6188 51.9585 38.6188 50.8654C38.6188 49.7994 38.8258 48.8638 39.2396 48.0586C39.6534 47.2534 40.2359 46.6259 40.9871 46.1761C41.7428 45.7263 42.6289 45.5014 43.6455 45.5014C44.3292 45.5014 44.9657 45.6116 45.5549 45.832C46.1487 46.0479 46.666 46.3741 47.1068 46.8104C47.5521 47.2467 47.8984 47.7955 48.1458 48.4567C48.3932 49.1134 48.5169 49.8826 48.5169 50.7642V51.5536H39.7659V49.7724H45.8113C45.8113 49.3585 45.7214 48.992 45.5414 48.6726C45.3615 48.3532 45.1119 48.1036 44.7925 47.9237C44.4776 47.7392 44.111 47.647 43.6927 47.647C43.2564 47.647 42.8696 47.7482 42.5322 47.9506C42.1993 48.1486 41.9385 48.4162 41.7495 48.7536C41.5606 49.0864 41.4639 49.4575 41.4594 49.8668V51.5604C41.4594 52.0732 41.5539 52.5162 41.7428 52.8896C41.9362 53.2629 42.2083 53.5508 42.5592 53.7532C42.91 53.9556 43.3261 54.0568 43.8074 54.0568C44.1268 54.0568 44.4192 54.0118 44.6845 53.9219C44.9499 53.8319 45.1771 53.697 45.366 53.517C45.5549 53.3371 45.6989 53.1167 45.7978 52.8558L48.4562 53.0312C48.3213 53.67 48.0446 54.2277 47.6263 54.7045C47.2125 55.1768 46.6772 55.5457 46.0205 55.8111C45.3683 56.072 44.6148 56.2024 43.7602 56.2024ZM57.2254 49.6712V51.9315H51.8141V49.6712H57.2254ZM52.7587 45.6364V56H50.0126V45.6364H52.7587ZM59.0268 45.6364V56H56.301V45.6364H59.0268ZM62.6783 48.821H65.7752C67.1471 48.821 68.2177 49.1494 68.9869 49.8061C69.756 50.4583 70.1406 51.331 70.1406 52.424C70.1406 53.1347 69.9675 53.7599 69.6211 54.2997C69.2747 54.835 68.7755 55.2533 68.1232 55.5547C67.471 55.8516 66.6883 56 65.7752 56H60.8768V45.6364H63.6229V53.7397H65.7752C66.2565 53.7397 66.6524 53.6183 66.9627 53.3754C67.2731 53.1325 67.4305 52.8221 67.435 52.4442C67.4305 52.0439 67.2731 51.7178 66.9627 51.4659C66.6524 51.2095 66.2565 51.0813 65.7752 51.0813H62.6783V48.821ZM82.7822 45.6364V47.8967H78.4775V56H75.6842V45.6364H82.7822ZM88.4662 56.2024C87.4181 56.2024 86.5118 55.9798 85.7471 55.5344C84.9869 55.0846 84.3999 54.4594 83.9861 53.6587C83.5722 52.8536 83.3653 51.9202 83.3653 50.8587C83.3653 49.7881 83.5722 48.8525 83.9861 48.0518C84.3999 47.2467 84.9869 46.6214 85.7471 46.1761C86.5118 45.7263 87.4181 45.5014 88.4662 45.5014C89.5142 45.5014 90.4184 45.7263 91.1785 46.1761C91.9432 46.6214 92.5325 47.2467 92.9463 48.0518C93.3601 48.8525 93.567 49.7881 93.567 50.8587C93.567 51.9202 93.3601 52.8536 92.9463 53.6587C92.5325 54.4594 91.9432 55.0846 91.1785 55.5344C90.4184 55.9798 89.5142 56.2024 88.4662 56.2024ZM88.4797 53.9759C88.9565 53.9759 89.3546 53.8409 89.6739 53.571C89.9933 53.2966 90.2339 52.9233 90.3959 52.451C90.5623 51.9787 90.6455 51.4412 90.6455 50.8384C90.6455 50.2357 90.5623 49.6982 90.3959 49.2259C90.2339 48.7536 89.9933 48.3802 89.6739 48.1058C89.3546 47.8314 88.9565 47.6942 88.4797 47.6942C87.9984 47.6942 87.5936 47.8314 87.2652 48.1058C86.9413 48.3802 86.6962 48.7536 86.5298 49.2259C86.3678 49.6982 86.2869 50.2357 86.2869 50.8384C86.2869 51.4412 86.3678 51.9787 86.5298 52.451C86.6962 52.9233 86.9413 53.2966 87.2652 53.571C87.5936 53.8409 87.9984 53.9759 88.4797 53.9759ZM95.056 59.8864V45.6364H97.8898V47.3771H98.018C98.1439 47.0982 98.3261 46.8149 98.5645 46.527C98.8074 46.2346 99.1223 45.9917 99.5091 45.7983C99.9005 45.6004 100.386 45.5014 100.967 45.5014C101.722 45.5014 102.419 45.6993 103.058 46.0952C103.697 46.4865 104.207 47.078 104.59 47.8697C104.972 48.6568 105.163 49.6442 105.163 50.8317C105.163 51.9877 104.977 52.9638 104.603 53.7599C104.234 54.5516 103.731 55.1521 103.092 55.5614C102.458 55.9663 101.747 56.1687 100.96 56.1687C100.402 56.1687 99.9274 56.0765 99.5361 55.892C99.1493 55.7076 98.8322 55.476 98.5848 55.1971C98.3374 54.9137 98.1484 54.6281 98.018 54.3402H97.9303V59.8864H95.056ZM97.8696 50.8182C97.8696 51.4344 97.955 51.9719 98.126 52.4308C98.2969 52.8896 98.5443 53.2472 98.8681 53.5036C99.192 53.7554 99.5856 53.8814 100.049 53.8814C100.517 53.8814 100.913 53.7532 101.236 53.4968C101.56 53.2359 101.805 52.8761 101.972 52.4173C102.143 51.954 102.228 51.4209 102.228 50.8182C102.228 50.2199 102.145 49.6937 101.979 49.2393C101.812 48.785 101.567 48.4297 101.243 48.1733C100.919 47.9169 100.521 47.7887 100.049 47.7887C99.5811 47.7887 99.1853 47.9124 98.8614 48.1598C98.542 48.4072 98.2969 48.758 98.126 49.2124C97.955 49.6667 97.8696 50.2019 97.8696 50.8182ZM111.382 56.2024C110.334 56.2024 109.428 55.9798 108.663 55.5344C107.903 55.0846 107.316 54.4594 106.902 53.6587C106.488 52.8536 106.281 51.9202 106.281 50.8587C106.281 49.7881 106.488 48.8525 106.902 48.0518C107.316 47.2467 107.903 46.6214 108.663 46.1761C109.428 45.7263 110.334 45.5014 111.382 45.5014C112.43 45.5014 113.334 45.7263 114.094 46.1761C114.859 46.6214 115.448 47.2467 115.862 48.0518C116.276 48.8525 116.483 49.7881 116.483 50.8587C116.483 51.9202 116.276 52.8536 115.862 53.6587C115.448 54.4594 114.859 55.0846 114.094 55.5344C113.334 55.9798 112.43 56.2024 111.382 56.2024ZM111.395 53.9759C111.872 53.9759 112.27 53.8409 112.59 53.571C112.909 53.2966 113.15 52.9233 113.312 52.451C113.478 51.9787 113.561 51.4412 113.561 50.8384C113.561 50.2357 113.478 49.6982 113.312 49.2259C113.15 48.7536 112.909 48.3802 112.59 48.1058C112.27 47.8314 111.872 47.6942 111.395 47.6942C110.914 47.6942 110.509 47.8314 110.181 48.1058C109.857 48.3802 109.612 48.7536 109.446 49.2259C109.284 49.6982 109.203 50.2357 109.203 50.8384C109.203 51.4412 109.284 51.9787 109.446 52.451C109.612 52.9233 109.857 53.2966 110.181 53.571C110.509 53.8409 110.914 53.9759 111.395 53.9759ZM117.162 59.0362V53.7195H117.958C118.188 53.5755 118.372 53.3461 118.512 53.0312C118.655 52.7164 118.772 52.3453 118.862 51.918C118.957 51.4906 119.029 51.0296 119.078 50.5348C119.132 50.0355 119.18 49.5317 119.22 49.0234L119.49 45.6364H127.438V53.7195H129.044V59.0362H126.305V56H119.969V59.0362H117.162ZM120.819 53.7195H124.726V47.8494H121.932L121.824 49.0234C121.748 50.13 121.638 51.0701 121.494 51.8438C121.35 52.6129 121.125 53.2382 120.819 53.7195ZM133.294 56.1957C132.633 56.1957 132.044 56.081 131.526 55.8516C131.009 55.6177 130.6 55.2736 130.298 54.8192C130.001 54.3604 129.853 53.7892 129.853 53.1055C129.853 52.5297 129.959 52.0462 130.17 51.6548C130.382 51.2635 130.669 50.9486 131.034 50.7102C131.398 50.4718 131.812 50.2919 132.275 50.1705C132.743 50.049 133.233 49.9635 133.746 49.9141C134.349 49.8511 134.835 49.7926 135.204 49.7386C135.572 49.6802 135.84 49.5947 136.006 49.4822C136.173 49.3698 136.256 49.2034 136.256 48.983V48.9425C136.256 48.5152 136.121 48.1845 135.851 47.9506C135.586 47.7167 135.208 47.5998 134.718 47.5998C134.2 47.5998 133.789 47.7145 133.483 47.9439C133.177 48.1688 132.975 48.4522 132.876 48.794L130.217 48.5781C130.352 47.9484 130.618 47.4041 131.014 46.9453C131.409 46.482 131.92 46.1267 132.545 45.8793C133.175 45.6274 133.904 45.5014 134.731 45.5014C135.307 45.5014 135.858 45.5689 136.384 45.7038C136.915 45.8388 137.385 46.0479 137.794 46.3313C138.208 46.6147 138.534 46.979 138.773 47.4244C139.011 47.8652 139.13 48.3937 139.13 49.0099V56H136.405V54.5629H136.324C136.157 54.8867 135.934 55.1723 135.656 55.4197C135.377 55.6626 135.042 55.8538 134.65 55.9933C134.259 56.1282 133.807 56.1957 133.294 56.1957ZM134.117 54.212C134.54 54.212 134.913 54.1288 135.237 53.9624C135.561 53.7914 135.815 53.562 136 53.2741C136.184 52.9863 136.276 52.6602 136.276 52.2958V51.196C136.186 51.2545 136.063 51.3085 135.905 51.358C135.752 51.4029 135.579 51.4457 135.386 51.4862C135.192 51.5221 134.999 51.5559 134.805 51.5874C134.612 51.6143 134.437 51.6391 134.279 51.6616C133.942 51.7111 133.647 51.7898 133.395 51.8977C133.143 52.0057 132.948 52.1519 132.808 52.3363C132.669 52.5162 132.599 52.7411 132.599 53.011C132.599 53.4023 132.741 53.7015 133.024 53.9084C133.312 54.1108 133.676 54.212 134.117 54.212ZM5.82955 77.2024C4.76799 77.2024 3.85488 76.9775 3.0902 76.5277C2.33002 76.0734 1.74527 75.4437 1.33594 74.6385C0.931108 73.8333 0.728693 72.9067 0.728693 71.8587C0.728693 70.7971 0.933357 69.866 1.34268 69.0653C1.75651 68.2602 2.34351 67.6327 3.10369 67.1829C3.86387 66.7286 4.76799 66.5014 5.81605 66.5014C6.72017 66.5014 7.51184 66.6656 8.19105 66.994C8.87027 67.3223 9.40779 67.7834 9.80362 68.3771C10.1995 68.9709 10.4176 69.6681 10.4581 70.4688H7.74574C7.66927 69.9515 7.46686 69.5354 7.13849 69.2205C6.81463 68.9012 6.38956 68.7415 5.86328 68.7415C5.41797 68.7415 5.02888 68.8629 4.69602 69.1058C4.36766 69.3442 4.11127 69.6928 3.92685 70.1516C3.74242 70.6104 3.65021 71.166 3.65021 71.8182C3.65021 72.4794 3.74018 73.0417 3.9201 73.505C4.10452 73.9683 4.36316 74.3214 4.69602 74.5643C5.02888 74.8072 5.41797 74.9286 5.86328 74.9286C6.19164 74.9286 6.48627 74.8612 6.74716 74.7262C7.01255 74.5913 7.23071 74.3956 7.40163 74.1392C7.57706 73.8783 7.69176 73.5657 7.74574 73.2013H10.4581C10.4131 73.993 10.1972 74.6902 9.81037 75.293C9.42803 75.8912 8.8995 76.359 8.22479 76.6964C7.55007 77.0337 6.75166 77.2024 5.82955 77.2024ZM15.9358 77V66.6364H24.9973V77H22.2512V68.8967H18.6482V77H15.9358ZM29.8666 77.1957C29.2053 77.1957 28.6161 77.081 28.0988 76.8516C27.5815 76.6177 27.1722 76.2736 26.8708 75.8192C26.574 75.3604 26.4255 74.7892 26.4255 74.1055C26.4255 73.5297 26.5312 73.0462 26.7426 72.6548C26.954 72.2635 27.2419 71.9486 27.6063 71.7102C27.9706 71.4718 28.3844 71.2919 28.8477 71.1705C29.3156 71.049 29.8058 70.9635 30.3186 70.9141C30.9214 70.8511 31.4072 70.7926 31.776 70.7386C32.1449 70.6802 32.4125 70.5947 32.5789 70.4822C32.7454 70.3698 32.8286 70.2034 32.8286 69.983V69.9425C32.8286 69.5152 32.6936 69.1845 32.4237 68.9506C32.1584 68.7167 31.7805 68.5998 31.2902 68.5998C30.7729 68.5998 30.3614 68.7145 30.0555 68.9439C29.7496 69.1688 29.5472 69.4522 29.4482 69.794L26.7899 69.5781C26.9248 68.9484 27.1902 68.4041 27.586 67.9453C27.9819 67.482 28.4924 67.1267 29.1176 66.8793C29.7474 66.6274 30.4761 66.5014 31.3037 66.5014C31.8795 66.5014 32.4305 66.5689 32.9568 66.7038C33.4875 66.8388 33.9576 67.0479 34.3669 67.3313C34.7808 67.6147 35.1069 67.979 35.3453 68.4244C35.5837 68.8652 35.7029 69.3937 35.7029 70.0099V77H32.977V75.5629H32.896C32.7296 75.8867 32.507 76.1723 32.2281 76.4197C31.9492 76.6626 31.6141 76.8538 31.2227 76.9933C30.8314 77.1282 30.3794 77.1957 29.8666 77.1957ZM30.6897 75.212C31.1125 75.212 31.4859 75.1288 31.8098 74.9624C32.1336 74.7914 32.3878 74.562 32.5722 74.2741C32.7566 73.9863 32.8488 73.6602 32.8488 73.2958V72.196C32.7589 72.2545 32.6352 72.3085 32.4777 72.358C32.3248 72.4029 32.1516 72.4457 31.9582 72.4862C31.7648 72.5221 31.5714 72.5559 31.3779 72.5874C31.1845 72.6143 31.0091 72.6391 30.8517 72.6616C30.5143 72.7111 30.2197 72.7898 29.9678 72.8977C29.7159 73.0057 29.5202 73.1519 29.3808 73.3363C29.2413 73.5162 29.1716 73.7411 29.1716 74.011C29.1716 74.4023 29.3133 74.7015 29.5967 74.9084C29.8846 75.1108 30.2489 75.212 30.6897 75.212ZM36.9456 77L36.9321 74.7195H37.2762C37.5191 74.7195 37.7282 74.661 37.9037 74.544C38.0836 74.4226 38.232 74.2269 38.349 73.957C38.4659 73.6871 38.5581 73.3295 38.6256 72.8842C38.6931 72.4344 38.738 71.8812 38.7605 71.2244L38.9292 66.6364H46.8099V77H44.0706V68.8967H41.5134L41.3514 72.0611C41.311 72.9292 41.2053 73.6759 41.0343 74.3011C40.8679 74.9264 40.6362 75.4392 40.3394 75.8395C40.0425 76.2353 39.6849 76.5277 39.2666 76.7166C38.8483 76.9055 38.3625 77 37.8092 77H36.9456ZM50.0616 80.8864C49.6972 80.8864 49.3554 80.8571 49.036 80.7987C48.7211 80.7447 48.4602 80.675 48.2533 80.5895L48.901 78.4439C49.2384 78.5473 49.542 78.6036 49.8119 78.6126C50.0863 78.6216 50.3224 78.5586 50.5204 78.4237C50.7228 78.2887 50.887 78.0593 51.0129 77.7354L51.1816 77.2969L47.4639 66.6364H50.4866L52.6322 74.2472H52.7402L54.906 66.6364H57.949L53.9209 78.12C53.7275 78.6778 53.4644 79.1636 53.1315 79.5774C52.8032 79.9957 52.3871 80.3174 51.8833 80.5423C51.3795 80.7717 50.7723 80.8864 50.0616 80.8864ZM67.656 62.831L68.5331 64.7067C68.2407 64.9496 67.9169 65.1295 67.5615 65.2464C67.2062 65.3589 66.7811 65.4331 66.2863 65.4691C65.796 65.5051 65.1978 65.5298 64.4916 65.5433C63.6909 65.5523 63.0387 65.6805 62.5349 65.9279C62.0311 66.1753 61.6488 66.5644 61.3879 67.0952C61.127 67.6214 60.9561 68.3097 60.8751 69.1598H60.9763C61.2867 68.5256 61.723 68.0353 62.2853 67.6889C62.852 67.3426 63.5515 67.1694 64.3836 67.1694C65.2652 67.1694 66.0367 67.3628 66.6979 67.7496C67.3636 68.1365 67.8809 68.692 68.2497 69.4162C68.6186 70.1404 68.803 71.0085 68.803 72.0206C68.803 73.0732 68.5961 73.9885 68.1823 74.7667C67.7729 75.5404 67.1904 76.1409 66.4348 76.5682C65.6791 76.991 64.7795 77.2024 63.7359 77.2024C62.6878 77.2024 61.7837 76.982 61.0235 76.5412C60.2679 76.1004 59.6831 75.4504 59.2693 74.5913C58.8599 73.7321 58.6553 72.6751 58.6553 71.4201V70.57C58.6553 68.0735 59.1411 66.2225 60.1127 65.017C61.0843 63.8116 62.5124 63.1998 64.3971 63.1818C64.9099 63.1728 65.3732 63.1706 65.787 63.1751C66.2009 63.1796 66.563 63.1593 66.8733 63.1143C67.1882 63.0694 67.4491 62.9749 67.656 62.831ZM63.7494 74.9759C64.1902 74.9759 64.568 74.8612 64.8829 74.6317C65.2023 74.4023 65.4474 74.074 65.6184 73.6467C65.7938 73.2193 65.8815 72.7088 65.8815 72.1151C65.8815 71.5258 65.7938 71.0265 65.6184 70.6172C65.4474 70.2034 65.2023 69.8885 64.8829 69.6726C64.5635 69.4567 64.1812 69.3487 63.7359 69.3487C63.403 69.3487 63.1039 69.4094 62.8385 69.5309C62.5731 69.6523 62.346 69.8323 62.1571 70.0707C61.9726 70.3046 61.8287 70.5947 61.7252 70.9411C61.6263 71.2829 61.5768 71.6742 61.5768 72.1151C61.5768 73.0012 61.768 73.7006 62.1503 74.2134C62.5371 74.7217 63.0702 74.9759 63.7494 74.9759ZM72.1323 69.821H75.2292C76.6011 69.821 77.6717 70.1494 78.4408 70.8061C79.21 71.4583 79.5946 72.331 79.5946 73.424C79.5946 74.1347 79.4214 74.7599 79.0751 75.2997C78.7287 75.835 78.2294 76.2533 77.5772 76.5547C76.925 76.8516 76.1423 77 75.2292 77H70.3308V66.6364H73.0769V74.7397H75.2292C75.7105 74.7397 76.1063 74.6183 76.4167 74.3754C76.7271 74.1325 76.8845 73.8221 76.889 73.4442C76.8845 73.0439 76.7271 72.7178 76.4167 72.4659C76.1063 72.2095 75.7105 72.0813 75.2292 72.0813H72.1323V69.821ZM80.7079 77V66.6364H83.5822V77H80.7079ZM88.9773 68.8967V66.6364H98.3693V68.8967H95.0295V77H92.2901V68.8967H88.9773ZM104.084 77.2024C103.018 77.2024 102.1 76.9865 101.331 76.5547C100.566 76.1184 99.9769 75.5021 99.5631 74.706C99.1493 73.9053 98.9424 72.9585 98.9424 71.8654C98.9424 70.7994 99.1493 69.8638 99.5631 69.0586C99.9769 68.2534 100.559 67.6259 101.311 67.1761C102.066 66.7263 102.952 66.5014 103.969 66.5014C104.653 66.5014 105.289 66.6116 105.878 66.832C106.472 67.0479 106.989 67.3741 107.43 67.8104C107.876 68.2467 108.222 68.7955 108.469 69.4567C108.717 70.1134 108.84 70.8826 108.84 71.7642V72.5536H100.089V70.7724H106.135C106.135 70.3585 106.045 69.992 105.865 69.6726C105.685 69.3532 105.435 69.1036 105.116 68.9237C104.801 68.7392 104.435 68.647 104.016 68.647C103.58 68.647 103.193 68.7482 102.856 68.9506C102.523 69.1486 102.262 69.4162 102.073 69.7536C101.884 70.0864 101.787 70.4575 101.783 70.8668V72.5604C101.783 73.0732 101.877 73.5162 102.066 73.8896C102.26 74.2629 102.532 74.5508 102.883 74.7532C103.234 74.9556 103.65 75.0568 104.131 75.0568C104.45 75.0568 104.743 75.0118 105.008 74.9219C105.273 74.8319 105.501 74.697 105.69 74.517C105.878 74.3371 106.022 74.1167 106.121 73.8558L108.78 74.0312C108.645 74.67 108.368 75.2277 107.95 75.7045C107.536 76.1768 107.001 76.5457 106.344 76.8111C105.692 77.072 104.938 77.2024 104.084 77.2024ZM110.336 77V66.6364H119.398V77H116.651V68.8967H113.049V77H110.336ZM120.704 77L120.691 74.7195H121.035C121.278 74.7195 121.487 74.661 121.662 74.544C121.842 74.4226 121.991 74.2269 122.108 73.957C122.225 73.6871 122.317 73.3295 122.384 72.8842C122.452 72.4344 122.497 71.8812 122.519 71.2244L122.688 66.6364H130.569V77H127.829V68.8967H125.272L125.11 72.0611C125.07 72.9292 124.964 73.6759 124.793 74.3011C124.627 74.9264 124.395 75.4392 124.098 75.8395C123.801 76.2353 123.444 76.5277 123.025 76.7166C122.607 76.9055 122.121 77 121.568 77H120.704ZM137.1 77.2024C136.051 77.2024 135.145 76.9798 134.38 76.5344C133.62 76.0846 133.033 75.4594 132.619 74.6587C132.206 73.8536 131.999 72.9202 131.999 71.8587C131.999 70.7881 132.206 69.8525 132.619 69.0518C133.033 68.2467 133.62 67.6214 134.38 67.1761C135.145 66.7263 136.051 66.5014 137.1 66.5014C138.148 66.5014 139.052 66.7263 139.812 67.1761C140.577 67.6214 141.166 68.2467 141.58 69.0518C141.993 69.8525 142.2 70.7881 142.2 71.8587C142.2 72.9202 141.993 73.8536 141.58 74.6587C141.166 75.4594 140.577 76.0846 139.812 76.5344C139.052 76.9798 138.148 77.2024 137.1 77.2024ZM137.113 74.9759C137.59 74.9759 137.988 74.8409 138.307 74.571C138.627 74.2966 138.867 73.9233 139.029 73.451C139.196 72.9787 139.279 72.4412 139.279 71.8384C139.279 71.2357 139.196 70.6982 139.029 70.2259C138.867 69.7536 138.627 69.3802 138.307 69.1058C137.988 68.8314 137.59 68.6942 137.113 68.6942C136.632 68.6942 136.227 68.8314 135.899 69.1058C135.575 69.3802 135.329 69.7536 135.163 70.2259C135.001 70.6982 134.92 71.2357 134.92 71.8384C134.92 72.4412 135.001 72.9787 135.163 73.451C135.329 73.9233 135.575 74.2966 135.899 74.571C136.227 74.8409 136.632 74.9759 137.113 74.9759ZM145.72 66.6364L147.623 70.2596L149.573 66.6364H152.521L149.519 71.8182L152.602 77H149.667L147.623 73.4173L145.612 77H142.644L145.72 71.8182L142.751 66.6364H145.72ZM158.16 77.2024C157.112 77.2024 156.205 76.9798 155.441 76.5344C154.681 76.0846 154.094 75.4594 153.68 74.6587C153.266 73.8536 153.059 72.9202 153.059 71.8587C153.059 70.7881 153.266 69.8525 153.68 69.0518C154.094 68.2467 154.681 67.6214 155.441 67.1761C156.205 66.7263 157.112 66.5014 158.16 66.5014C159.208 66.5014 160.112 66.7263 160.872 67.1761C161.637 67.6214 162.226 68.2467 162.64 69.0518C163.054 69.8525 163.261 70.7881 163.261 71.8587C163.261 72.9202 163.054 73.8536 162.64 74.6587C162.226 75.4594 161.637 76.0846 160.872 76.5344C160.112 76.9798 159.208 77.2024 158.16 77.2024ZM158.173 74.9759C158.65 74.9759 159.048 74.8409 159.368 74.571C159.687 74.2966 159.928 73.9233 160.09 73.451C160.256 72.9787 160.339 72.4412 160.339 71.8384C160.339 71.2357 160.256 70.6982 160.09 70.2259C159.928 69.7536 159.687 69.3802 159.368 69.1058C159.048 68.8314 158.65 68.6942 158.173 68.6942C157.692 68.6942 157.287 68.8314 156.959 69.1058C156.635 69.3802 156.39 69.7536 156.223 70.2259C156.061 70.6982 155.98 71.2357 155.98 71.8384C155.98 72.4412 156.061 72.9787 156.223 73.451C156.39 73.9233 156.635 74.2966 156.959 74.571C157.287 74.8409 157.692 74.9759 158.173 74.9759ZM163.94 80.0362V74.7195H164.736C164.966 74.5755 165.15 74.3461 165.289 74.0312C165.433 73.7164 165.55 73.3453 165.64 72.918C165.735 72.4906 165.807 72.0296 165.856 71.5348C165.91 71.0355 165.957 70.5317 165.998 70.0234L166.268 66.6364H174.216V74.7195H175.822V80.0362H173.082V77H166.747V80.0362H163.94ZM167.597 74.7195H171.504V68.8494H168.71L168.602 70.0234C168.526 71.13 168.416 72.0701 168.272 72.8438C168.128 73.6129 167.903 74.2382 167.597 74.7195ZM180.072 77.1957C179.411 77.1957 178.821 77.081 178.304 76.8516C177.787 76.6177 177.378 76.2736 177.076 75.8192C176.779 75.3604 176.631 74.7892 176.631 74.1055C176.631 73.5297 176.737 73.0462 176.948 72.6548C177.159 72.2635 177.447 71.9486 177.812 71.7102C178.176 71.4718 178.59 71.2919 179.053 71.1705C179.521 71.049 180.011 70.9635 180.524 70.9141C181.127 70.8511 181.613 70.7926 181.981 70.7386C182.35 70.6802 182.618 70.5947 182.784 70.4822C182.951 70.3698 183.034 70.2034 183.034 69.983V69.9425C183.034 69.5152 182.899 69.1845 182.629 68.9506C182.364 68.7167 181.986 68.5998 181.496 68.5998C180.978 68.5998 180.567 68.7145 180.261 68.9439C179.955 69.1688 179.753 69.4522 179.654 69.794L176.995 69.5781C177.13 68.9484 177.396 68.4041 177.791 67.9453C178.187 67.482 178.698 67.1267 179.323 66.8793C179.953 66.6274 180.681 66.5014 181.509 66.5014C182.085 66.5014 182.636 66.5689 183.162 66.7038C183.693 66.8388 184.163 67.0479 184.572 67.3313C184.986 67.6147 185.312 67.979 185.551 68.4244C185.789 68.8652 185.908 69.3937 185.908 70.0099V77H183.182V75.5629H183.101C182.935 75.8867 182.712 76.1723 182.433 76.4197C182.155 76.6626 181.819 76.8538 181.428 76.9933C181.037 77.1282 180.585 77.1957 180.072 77.1957ZM180.895 75.212C181.318 75.212 181.691 75.1288 182.015 74.9624C182.339 74.7914 182.593 74.562 182.778 74.2741C182.962 73.9863 183.054 73.6602 183.054 73.2958V72.196C182.964 72.2545 182.841 72.3085 182.683 72.358C182.53 72.4029 182.357 72.4457 182.164 72.4862C181.97 72.5221 181.777 72.5559 181.583 72.5874C181.39 72.6143 181.214 72.6391 181.057 72.6616C180.72 72.7111 180.425 72.7898 180.173 72.8977C179.921 73.0057 179.726 73.1519 179.586 73.3363C179.447 73.5162 179.377 73.7411 179.377 74.011C179.377 74.4023 179.519 74.7015 179.802 74.9084C180.09 75.1108 180.454 75.212 180.895 75.212Z" fill="white"/>
<rect y="89" width="113" height="17" rx="8.5" fill="#FAFF00"/>
<path d="M11.5085 100H10.1903L12.1989 94.1818H13.7841L15.7898 100H14.4716L13.0142 95.5114H12.9688L11.5085 100ZM11.4261 97.7131H14.5398V98.6733H11.4261V97.7131ZM16.4673 100V95.6364H18.3281C18.866 95.6364 19.2912 95.7386 19.6037 95.9432C19.9162 96.1477 20.0724 96.4384 20.0724 96.8153C20.0724 97.0521 19.9844 97.2491 19.8082 97.4062C19.6321 97.5634 19.3878 97.6695 19.0753 97.7244C19.3366 97.7434 19.5592 97.803 19.7429 97.9034C19.9285 98.0019 20.0696 98.1297 20.1662 98.2869C20.2647 98.4441 20.3139 98.6184 20.3139 98.8097C20.3139 99.0578 20.2476 99.2708 20.1151 99.4489C19.9844 99.6269 19.7921 99.7633 19.5384 99.858C19.2865 99.9527 18.9787 100 18.6151 100H16.4673ZM17.5952 99.0938H18.6151C18.7836 99.0938 18.9152 99.054 19.0099 98.9744C19.1065 98.893 19.1548 98.7822 19.1548 98.642C19.1548 98.4867 19.1065 98.3646 19.0099 98.2756C18.9152 98.1866 18.7836 98.142 18.6151 98.142H17.5952V99.0938ZM17.5952 97.4318H18.3537C18.4749 97.4318 18.5781 97.4148 18.6634 97.3807C18.7505 97.3447 18.8168 97.2936 18.8622 97.2273C18.9096 97.161 18.9332 97.0824 18.9332 96.9915C18.9332 96.857 18.8793 96.7519 18.7713 96.6761C18.6634 96.6004 18.5156 96.5625 18.3281 96.5625H17.5952V97.4318ZM20.8494 96.5881V95.6364H24.804V96.5881H23.3977V100H22.2443V96.5881H20.8494ZM27.353 100.085C26.9117 100.085 26.5301 99.9915 26.2081 99.804C25.888 99.6146 25.6409 99.3513 25.4666 99.0142C25.2924 98.6752 25.2053 98.2822 25.2053 97.8352C25.2053 97.3845 25.2924 96.9905 25.4666 96.6534C25.6409 96.3144 25.888 96.0511 26.2081 95.8636C26.5301 95.6742 26.9117 95.5795 27.353 95.5795C27.7943 95.5795 28.175 95.6742 28.495 95.8636C28.817 96.0511 29.0651 96.3144 29.2393 96.6534C29.4136 96.9905 29.5007 97.3845 29.5007 97.8352C29.5007 98.2822 29.4136 98.6752 29.2393 99.0142C29.0651 99.3513 28.817 99.6146 28.495 99.804C28.175 99.9915 27.7943 100.085 27.353 100.085ZM27.3587 99.1477C27.5594 99.1477 27.727 99.0909 27.8615 98.9773C27.996 98.8617 28.0973 98.7045 28.1655 98.5057C28.2356 98.3068 28.2706 98.0805 28.2706 97.8267C28.2706 97.5729 28.2356 97.3466 28.1655 97.1477C28.0973 96.9489 27.996 96.7917 27.8615 96.6761C27.727 96.5606 27.5594 96.5028 27.3587 96.5028C27.156 96.5028 26.9856 96.5606 26.8473 96.6761C26.7109 96.7917 26.6077 96.9489 26.5376 97.1477C26.4695 97.3466 26.4354 97.5729 26.4354 97.8267C26.4354 98.0805 26.4695 98.3068 26.5376 98.5057C26.6077 98.7045 26.7109 98.8617 26.8473 98.9773C26.9856 99.0909 27.156 99.1477 27.3587 99.1477ZM33.9155 94.0341L34.2848 94.8239C34.1617 94.9261 34.0253 95.0019 33.8757 95.0511C33.7261 95.0985 33.5471 95.1297 33.3388 95.1449C33.1323 95.16 32.8804 95.1705 32.5831 95.1761C32.246 95.1799 31.9714 95.2339 31.7592 95.3381C31.5471 95.4422 31.3861 95.6061 31.2763 95.8295C31.1664 96.0511 31.0945 96.3409 31.0604 96.6989H31.103C31.2337 96.4318 31.4174 96.2254 31.6541 96.0795C31.8928 95.9337 32.1873 95.8608 32.5376 95.8608C32.9089 95.8608 33.2337 95.9422 33.5121 96.1051C33.7924 96.268 34.0102 96.5019 34.1655 96.8068C34.3208 97.1117 34.3984 97.4773 34.3984 97.9034C34.3984 98.3466 34.3113 98.732 34.1371 99.0597C33.9647 99.3854 33.7195 99.6383 33.4013 99.8182C33.0831 99.9962 32.7043 100.085 32.2649 100.085C31.8236 100.085 31.4429 99.9924 31.1229 99.8068C30.8047 99.6212 30.5585 99.3475 30.3842 98.9858C30.2119 98.6241 30.1257 98.179 30.1257 97.6506V97.2926C30.1257 96.2415 30.3303 95.4621 30.7393 94.9545C31.1484 94.447 31.7498 94.1894 32.5433 94.1818C32.7592 94.178 32.9543 94.1771 33.1286 94.179C33.3028 94.1809 33.4553 94.1723 33.5859 94.1534C33.7185 94.1345 33.8284 94.0947 33.9155 94.0341ZM32.2706 99.1477C32.4562 99.1477 32.6153 99.0994 32.7479 99.0028C32.8823 98.9062 32.9856 98.768 33.0575 98.5881C33.1314 98.4081 33.1683 98.1932 33.1683 97.9432C33.1683 97.6951 33.1314 97.4848 33.0575 97.3125C32.9856 97.1383 32.8823 97.0057 32.7479 96.9148C32.6134 96.8239 32.4524 96.7784 32.2649 96.7784C32.1248 96.7784 31.9988 96.804 31.8871 96.8551C31.7753 96.9062 31.6797 96.982 31.6001 97.0824C31.5225 97.1809 31.4619 97.303 31.4183 97.4489C31.3767 97.5928 31.3558 97.7576 31.3558 97.9432C31.3558 98.3163 31.4363 98.6108 31.5973 98.8267C31.7602 99.0407 31.9846 99.1477 32.2706 99.1477ZM35.9489 101.636C35.7955 101.636 35.6515 101.624 35.517 101.599C35.3845 101.577 35.2746 101.547 35.1875 101.511L35.4602 100.608C35.6023 100.652 35.7301 100.675 35.8438 100.679C35.9593 100.683 36.0587 100.656 36.142 100.599C36.2273 100.543 36.2964 100.446 36.3494 100.31L36.4205 100.125L34.8551 95.6364H36.1278L37.0312 98.8409H37.0767L37.9886 95.6364H39.2699L37.5739 100.472C37.4924 100.706 37.3816 100.911 37.2415 101.085C37.1032 101.261 36.928 101.397 36.7159 101.491C36.5038 101.588 36.2481 101.636 35.9489 101.636ZM41.7202 100.085C41.2732 100.085 40.8887 99.9905 40.5668 99.8011C40.2467 99.6098 40.0005 99.3447 39.8281 99.0057C39.6577 98.6667 39.5724 98.2765 39.5724 97.8352C39.5724 97.3883 39.6586 96.9962 39.831 96.6591C40.0052 96.3201 40.2524 96.0559 40.5724 95.8665C40.8925 95.6752 41.2732 95.5795 41.7145 95.5795C42.0952 95.5795 42.4285 95.6487 42.7145 95.7869C43.0005 95.9252 43.2268 96.1193 43.3935 96.3693C43.5601 96.6193 43.652 96.9129 43.669 97.25H42.527C42.4948 97.0322 42.4096 96.857 42.2713 96.7244C42.1349 96.59 41.956 96.5227 41.7344 96.5227C41.5469 96.5227 41.383 96.5739 41.2429 96.6761C41.1046 96.7765 40.9967 96.9233 40.919 97.1165C40.8414 97.3097 40.8026 97.5436 40.8026 97.8182C40.8026 98.0966 40.8404 98.3333 40.9162 98.5284C40.9938 98.7235 41.1027 98.8722 41.2429 98.9744C41.383 99.0767 41.5469 99.1278 41.7344 99.1278C41.8726 99.1278 41.9967 99.0994 42.1065 99.0426C42.2183 98.9858 42.3101 98.9034 42.3821 98.7955C42.456 98.6856 42.5043 98.554 42.527 98.4006H43.669C43.6501 98.7339 43.5592 99.0275 43.3963 99.2812C43.2353 99.5331 43.0128 99.7301 42.7287 99.8722C42.4446 100.014 42.1084 100.085 41.7202 100.085ZM47.4808 97.3352V98.2869H45.2024V97.3352H47.4808ZM45.6001 95.6364V100H44.4439V95.6364H45.6001ZM48.2393 95.6364V100H47.0916V95.6364H48.2393ZM50.4226 100.082C50.1442 100.082 49.8961 100.034 49.6783 99.9375C49.4605 99.839 49.2881 99.6941 49.1612 99.5028C49.0362 99.3097 48.9737 99.0691 48.9737 98.7812C48.9737 98.5388 49.0182 98.3352 49.1072 98.1705C49.1963 98.0057 49.3175 97.8731 49.4709 97.7727C49.6243 97.6723 49.7985 97.5966 49.9936 97.5455C50.1906 97.4943 50.397 97.4583 50.6129 97.4375C50.8667 97.411 51.0713 97.3864 51.2266 97.3636C51.3819 97.339 51.4946 97.303 51.5646 97.2557C51.6347 97.2083 51.6697 97.1383 51.6697 97.0455V97.0284C51.6697 96.8485 51.6129 96.7093 51.4993 96.6108C51.3875 96.5123 51.2285 96.4631 51.022 96.4631C50.8042 96.4631 50.6309 96.5114 50.5021 96.608C50.3733 96.7027 50.2881 96.822 50.2464 96.9659L49.1271 96.875C49.1839 96.6098 49.2957 96.3807 49.4624 96.1875C49.629 95.9924 49.844 95.8428 50.1072 95.7386C50.3724 95.6326 50.6792 95.5795 51.0277 95.5795C51.2701 95.5795 51.5021 95.608 51.7237 95.6648C51.9472 95.7216 52.1451 95.8097 52.3175 95.929C52.4917 96.0483 52.629 96.2017 52.7294 96.3892C52.8298 96.5748 52.88 96.7973 52.88 97.0568V100H51.7322V99.3949H51.6982C51.6281 99.5312 51.5343 99.6515 51.4169 99.7557C51.2995 99.858 51.1584 99.9384 50.9936 99.9972C50.8288 100.054 50.6385 100.082 50.4226 100.082ZM50.7692 99.2472C50.9472 99.2472 51.1044 99.2121 51.2408 99.142C51.3771 99.0701 51.4841 98.9735 51.5618 98.8523C51.6394 98.7311 51.6783 98.5937 51.6783 98.4403V97.9773C51.6404 98.0019 51.5883 98.0246 51.522 98.0455C51.4576 98.0644 51.3847 98.0824 51.3033 98.0994C51.2218 98.1146 51.1404 98.1288 51.0589 98.142C50.9775 98.1534 50.9036 98.1638 50.8374 98.1733C50.6953 98.1941 50.5713 98.2273 50.4652 98.2727C50.3591 98.3182 50.2768 98.3797 50.218 98.4574C50.1593 98.5331 50.13 98.6278 50.13 98.7415C50.13 98.9062 50.1896 99.0322 50.3089 99.1193C50.4302 99.2045 50.5836 99.2472 50.7692 99.2472ZM56.3757 100V96.5852H55.5575C55.3359 96.5852 55.1674 96.6364 55.0518 96.7386C54.9363 96.8409 54.8795 96.9621 54.8814 97.1023C54.8795 97.2443 54.9344 97.3646 55.0462 97.4631C55.1598 97.5597 55.3265 97.608 55.5462 97.608H56.7791V98.4261H55.5462C55.1731 98.4261 54.8501 98.3693 54.5774 98.2557C54.3047 98.142 54.0945 97.9839 53.9467 97.7812C53.799 97.5767 53.7261 97.339 53.728 97.0682C53.7261 96.7841 53.799 96.535 53.9467 96.321C54.0945 96.1051 54.3056 95.9375 54.5803 95.8182C54.8568 95.697 55.1825 95.6364 55.5575 95.6364H57.5036V100H56.3757ZM53.603 100L54.8161 97.7273H55.9723L54.7621 100H53.603ZM61.9091 96.5398C61.7727 96.5398 61.6515 96.5663 61.5455 96.6193C61.4394 96.6723 61.3561 96.7462 61.2955 96.8409C61.2367 96.9337 61.2074 97.0436 61.2074 97.1705H60.1193C60.1193 96.9337 60.1648 96.7178 60.2557 96.5227C60.3466 96.3258 60.4735 96.1562 60.6364 96.0142C60.7992 95.8703 60.9886 95.7595 61.2045 95.6818C61.4223 95.6042 61.6572 95.5653 61.9091 95.5653C62.3485 95.5653 62.7178 95.6638 63.017 95.8608C63.3182 96.0559 63.5455 96.3201 63.6989 96.6534C63.8542 96.9848 63.9318 97.357 63.9318 97.7699V97.875C63.9318 98.2898 63.8551 98.6638 63.7017 98.9972C63.5483 99.3305 63.321 99.5947 63.0199 99.7898C62.7206 99.983 62.3504 100.08 61.9091 100.08C61.5568 100.08 61.2462 100.01 60.9773 99.8722C60.7083 99.732 60.4981 99.5341 60.3466 99.2784C60.1951 99.0208 60.1193 98.715 60.1193 98.3608H61.2074C61.2074 98.4953 61.2358 98.6184 61.2926 98.7301C61.3494 98.8419 61.4299 98.9309 61.5341 98.9972C61.6402 99.0634 61.7652 99.0975 61.9091 99.0994C62.1345 99.0975 62.3097 99.0341 62.4347 98.9091C62.5616 98.7841 62.6496 98.6278 62.6989 98.4403C62.75 98.2509 62.7756 98.0625 62.7756 97.875V97.7699C62.7756 97.5634 62.7491 97.3665 62.696 97.179C62.6449 96.9915 62.5559 96.8381 62.429 96.7188C62.304 96.5994 62.1307 96.5398 61.9091 96.5398ZM63.125 97.4602V98.1761H61.5824V97.4602H63.125ZM64.7251 100V95.6364H65.9354V97.3295H66.2763L67.4638 95.6364H68.8842L67.3416 97.8011L68.9013 100H67.4638L66.3871 98.4517H65.9354V100H64.7251ZM71.2045 100.085C70.7576 100.085 70.3731 99.9905 70.0511 99.8011C69.7311 99.6098 69.4848 99.3447 69.3125 99.0057C69.142 98.6667 69.0568 98.2765 69.0568 97.8352C69.0568 97.3883 69.143 96.9962 69.3153 96.6591C69.4896 96.3201 69.7367 96.0559 70.0568 95.8665C70.3769 95.6752 70.7576 95.5795 71.1989 95.5795C71.5795 95.5795 71.9129 95.6487 72.1989 95.7869C72.4848 95.9252 72.7112 96.1193 72.8778 96.3693C73.0445 96.6193 73.1364 96.9129 73.1534 97.25H72.0114C71.9792 97.0322 71.8939 96.857 71.7557 96.7244C71.6193 96.59 71.4403 96.5227 71.2188 96.5227C71.0312 96.5227 70.8674 96.5739 70.7273 96.6761C70.589 96.7765 70.4811 96.9233 70.4034 97.1165C70.3258 97.3097 70.2869 97.5436 70.2869 97.8182C70.2869 98.0966 70.3248 98.3333 70.4006 98.5284C70.4782 98.7235 70.5871 98.8722 70.7273 98.9744C70.8674 99.0767 71.0312 99.1278 71.2188 99.1278C71.357 99.1278 71.4811 99.0994 71.5909 99.0426C71.7027 98.9858 71.7945 98.9034 71.8665 98.7955C71.9403 98.6856 71.9886 98.554 72.0114 98.4006H73.1534C73.1345 98.7339 73.0436 99.0275 72.8807 99.2812C72.7197 99.5331 72.4972 99.7301 72.2131 99.8722C71.929 100.014 71.5928 100.085 71.2045 100.085ZM73.9283 100V95.6364H75.1385V97.3295H75.4794L76.6669 95.6364H78.0874L76.5447 97.8011L78.1044 100H76.6669L75.5902 98.4517H75.1385V100H73.9283ZM79.4332 101.636C79.2798 101.636 79.1359 101.624 79.0014 101.599C78.8688 101.577 78.759 101.547 78.6719 101.511L78.9446 100.608C79.0866 100.652 79.2145 100.675 79.3281 100.679C79.4437 100.683 79.5431 100.656 79.6264 100.599C79.7116 100.543 79.7808 100.446 79.8338 100.31L79.9048 100.125L78.3395 95.6364H79.6122L80.5156 98.8409H80.5611L81.473 95.6364H82.7543L81.0582 100.472C80.9768 100.706 80.866 100.911 80.7259 101.085C80.5876 101.261 80.4124 101.397 80.2003 101.491C79.9882 101.588 79.7325 101.636 79.4332 101.636ZM83.3736 101.636V95.6364H84.5668V96.3693H84.6207C84.6738 96.2519 84.7505 96.1326 84.8509 96.0114C84.9531 95.8883 85.0857 95.786 85.2486 95.7045C85.4134 95.6212 85.6179 95.5795 85.8622 95.5795C86.1804 95.5795 86.474 95.6629 86.7429 95.8295C87.0118 95.9943 87.2268 96.2434 87.3878 96.5767C87.5488 96.9081 87.6293 97.3239 87.6293 97.8239C87.6293 98.3106 87.5507 98.7216 87.3935 99.0568C87.2382 99.3902 87.026 99.643 86.7571 99.8153C86.4901 99.9858 86.1908 100.071 85.8594 100.071C85.6245 100.071 85.4247 100.032 85.2599 99.9545C85.0971 99.8769 84.9635 99.7794 84.8594 99.6619C84.7552 99.5426 84.6757 99.4223 84.6207 99.3011H84.5838V101.636H83.3736ZM84.5582 97.8182C84.5582 98.0777 84.5942 98.304 84.6662 98.4972C84.7382 98.6903 84.8423 98.8409 84.9787 98.9489C85.1151 99.0549 85.2808 99.108 85.4759 99.108C85.6728 99.108 85.8395 99.054 85.9759 98.946C86.1122 98.8362 86.2154 98.6847 86.2855 98.4915C86.3575 98.2964 86.3935 98.072 86.3935 97.8182C86.3935 97.5663 86.3584 97.3447 86.2884 97.1534C86.2183 96.9621 86.1151 96.8125 85.9787 96.7045C85.8423 96.5966 85.6747 96.5426 85.4759 96.5426C85.2789 96.5426 85.1122 96.5947 84.9759 96.6989C84.8414 96.803 84.7382 96.9508 84.6662 97.142C84.5942 97.3333 84.5582 97.5587 84.5582 97.8182ZM90.4077 100.085C89.9607 100.085 89.5762 99.9905 89.2543 99.8011C88.9342 99.6098 88.688 99.3447 88.5156 99.0057C88.3452 98.6667 88.2599 98.2765 88.2599 97.8352C88.2599 97.3883 88.3461 96.9962 88.5185 96.6591C88.6927 96.3201 88.9399 96.0559 89.2599 95.8665C89.58 95.6752 89.9607 95.5795 90.402 95.5795C90.7827 95.5795 91.116 95.6487 91.402 95.7869C91.688 95.9252 91.9143 96.1193 92.081 96.3693C92.2476 96.6193 92.3395 96.9129 92.3565 97.25H91.2145C91.1823 97.0322 91.0971 96.857 90.9588 96.7244C90.8224 96.59 90.6435 96.5227 90.4219 96.5227C90.2344 96.5227 90.0705 96.5739 89.9304 96.6761C89.7921 96.7765 89.6842 96.9233 89.6065 97.1165C89.5289 97.3097 89.4901 97.5436 89.4901 97.8182C89.4901 98.0966 89.5279 98.3333 89.6037 98.5284C89.6813 98.7235 89.7902 98.8722 89.9304 98.9744C90.0705 99.0767 90.2344 99.1278 90.4219 99.1278C90.5601 99.1278 90.6842 99.0994 90.794 99.0426C90.9058 98.9858 90.9976 98.9034 91.0696 98.7955C91.1435 98.6856 91.1918 98.554 91.2145 98.4006H92.3565C92.3376 98.7339 92.2467 99.0275 92.0838 99.2812C91.9228 99.5331 91.7003 99.7301 91.4162 99.8722C91.1321 100.014 90.7959 100.085 90.4077 100.085ZM94.2876 98.4034L95.8587 95.6364H97.0518V100H95.8984V97.2244L94.3331 100H93.1314V95.6364H94.2876V98.4034ZM100.579 100V96.5852H99.7607C99.5391 96.5852 99.3705 96.6364 99.255 96.7386C99.1394 96.8409 99.0826 96.9621 99.0845 97.1023C99.0826 97.2443 99.1375 97.3646 99.2493 97.4631C99.3629 97.5597 99.5296 97.608 99.7493 97.608H100.982V98.4261H99.7493C99.3762 98.4261 99.0533 98.3693 98.7805 98.2557C98.5078 98.142 98.2976 97.9839 98.1499 97.7812C98.0021 97.5767 97.9292 97.339 97.9311 97.0682C97.9292 96.7841 98.0021 96.535 98.1499 96.321C98.2976 96.1051 98.5088 95.9375 98.7834 95.8182C99.0599 95.697 99.3857 95.6364 99.7607 95.6364H101.707V100H100.579ZM97.8061 100L99.0192 97.7273H100.175L98.9652 100H97.8061Z" fill="black"/>
<rect x="119" y="89" width="66" height="17" rx="8.5" fill="#FAFF00"/>
<path d="M131.807 94.8068H133.108C133.574 94.8068 133.987 94.9053 134.347 95.1023C134.708 95.2992 134.991 95.5767 135.196 95.9347C135.402 96.2907 135.506 96.7093 135.506 97.1903C135.506 97.6562 135.402 98.0625 135.196 98.4091C134.991 98.7557 134.708 99.0256 134.347 99.2188C133.987 99.41 133.574 99.5057 133.108 99.5057H131.807C131.339 99.5057 130.924 99.411 130.562 99.2216C130.201 99.0303 129.917 98.7614 129.71 98.4148C129.506 98.0682 129.403 97.6591 129.403 97.1875C129.403 96.7064 129.507 96.2879 129.713 95.9318C129.921 95.5739 130.206 95.2973 130.568 95.1023C130.93 94.9053 131.343 94.8068 131.807 94.8068ZM131.807 95.8352C131.557 95.8352 131.336 95.8854 131.145 95.9858C130.955 96.0843 130.808 96.2339 130.702 96.4347C130.596 96.6354 130.543 96.8864 130.543 97.1875C130.543 97.4754 130.597 97.715 130.705 97.9062C130.814 98.0975 130.964 98.2405 131.153 98.3352C131.343 98.4299 131.561 98.4773 131.807 98.4773H133.116C133.365 98.4773 133.581 98.429 133.767 98.3324C133.955 98.2358 134.099 98.0919 134.202 97.9006C134.306 97.7093 134.358 97.4725 134.358 97.1903C134.358 96.8892 134.306 96.6383 134.202 96.4375C134.099 96.2367 133.955 96.0862 133.767 95.9858C133.581 95.8854 133.365 95.8352 133.116 95.8352H131.807ZM133.04 94.0795V100.239H131.872V94.0795H133.04ZM138.378 100.085C137.929 100.085 137.543 99.9943 137.219 99.8125C136.897 99.6288 136.649 99.3693 136.474 99.0341C136.3 98.697 136.213 98.2983 136.213 97.8381C136.213 97.3892 136.3 96.9953 136.474 96.6562C136.649 96.3172 136.894 96.053 137.21 95.8636C137.528 95.6742 137.902 95.5795 138.33 95.5795C138.617 95.5795 138.885 95.6259 139.134 95.7188C139.384 95.8097 139.601 95.947 139.787 96.1307C139.974 96.3144 140.12 96.5455 140.224 96.8239C140.329 97.1004 140.381 97.4242 140.381 97.7955V98.1278H136.696V97.3778H139.241C139.241 97.2036 139.204 97.0492 139.128 96.9148C139.052 96.7803 138.947 96.6752 138.812 96.5994C138.68 96.5218 138.526 96.483 138.349 96.483C138.166 96.483 138.003 96.5256 137.861 96.6108C137.721 96.6941 137.611 96.8068 137.531 96.9489C137.452 97.089 137.411 97.2453 137.409 97.4176V98.1307C137.409 98.3466 137.449 98.5331 137.528 98.6903C137.61 98.8475 137.724 98.9688 137.872 99.054C138.02 99.1392 138.195 99.1818 138.398 99.1818C138.532 99.1818 138.655 99.1629 138.767 99.125C138.879 99.0871 138.974 99.0303 139.054 98.9545C139.134 98.8788 139.194 98.786 139.236 98.6761L140.355 98.75C140.298 99.0189 140.182 99.2538 140.006 99.4545C139.831 99.6534 139.606 99.8087 139.33 99.9205C139.055 100.03 138.738 100.085 138.378 100.085ZM142.327 98.4034L143.898 95.6364H145.091V100H143.938V97.2244L142.372 100H141.17V95.6364H142.327V98.4034ZM143.69 94.1136H144.534C144.532 94.4583 144.404 94.7358 144.151 94.946C143.899 95.1562 143.558 95.2614 143.128 95.2614C142.696 95.2614 142.354 95.1562 142.102 94.946C141.85 94.7358 141.724 94.4583 141.724 94.1136H142.562C142.561 94.2443 142.602 94.3617 142.688 94.4659C142.775 94.5701 142.921 94.6222 143.128 94.6222C143.329 94.6222 143.473 94.571 143.56 94.4688C143.647 94.3665 143.69 94.2481 143.69 94.1136ZM148.05 100.085C147.601 100.085 147.214 99.9943 146.891 99.8125C146.569 99.6288 146.321 99.3693 146.146 99.0341C145.972 98.697 145.885 98.2983 145.885 97.8381C145.885 97.3892 145.972 96.9953 146.146 96.6562C146.321 96.3172 146.566 96.053 146.882 95.8636C147.2 95.6742 147.573 95.5795 148.001 95.5795C148.289 95.5795 148.557 95.6259 148.805 95.7188C149.055 95.8097 149.273 95.947 149.459 96.1307C149.646 96.3144 149.792 96.5455 149.896 96.8239C150 97.1004 150.053 97.4242 150.053 97.7955V98.1278H146.368V97.3778H148.913C148.913 97.2036 148.875 97.0492 148.8 96.9148C148.724 96.7803 148.619 96.6752 148.484 96.5994C148.352 96.5218 148.197 96.483 148.021 96.483C147.838 96.483 147.675 96.5256 147.533 96.6108C147.393 96.6941 147.283 96.8068 147.203 96.9489C147.124 97.089 147.083 97.2453 147.081 97.4176V98.1307C147.081 98.3466 147.121 98.5331 147.2 98.6903C147.282 98.8475 147.396 98.9688 147.544 99.054C147.692 99.1392 147.867 99.1818 148.07 99.1818C148.204 99.1818 148.327 99.1629 148.439 99.125C148.551 99.0871 148.646 99.0303 148.726 98.9545C148.805 98.8788 148.866 98.786 148.908 98.6761L150.027 98.75C149.97 99.0189 149.854 99.2538 149.678 99.4545C149.503 99.6534 149.278 99.8087 149.001 99.9205C148.727 100.03 148.41 100.085 148.05 100.085ZM150.842 101.636V95.6364H152.036V96.3693H152.089C152.143 96.2519 152.219 96.1326 152.32 96.0114C152.422 95.8883 152.554 95.786 152.717 95.7045C152.882 95.6212 153.087 95.5795 153.331 95.5795C153.649 95.5795 153.943 95.6629 154.212 95.8295C154.481 95.9943 154.696 96.2434 154.857 96.5767C155.018 96.9081 155.098 97.3239 155.098 97.8239C155.098 98.3106 155.019 98.7216 154.862 99.0568C154.707 99.3902 154.495 99.643 154.226 99.8153C153.959 99.9858 153.66 100.071 153.328 100.071C153.093 100.071 152.893 100.032 152.729 99.9545C152.566 99.8769 152.432 99.7794 152.328 99.6619C152.224 99.5426 152.144 99.4223 152.089 99.3011H152.053V101.636H150.842ZM152.027 97.8182C152.027 98.0777 152.063 98.304 152.135 98.4972C152.207 98.6903 152.311 98.8409 152.447 98.9489C152.584 99.0549 152.75 99.108 152.945 99.108C153.142 99.108 153.308 99.054 153.445 98.946C153.581 98.8362 153.684 98.6847 153.754 98.4915C153.826 98.2964 153.862 98.072 153.862 97.8182C153.862 97.5663 153.827 97.3447 153.757 97.1534C153.687 96.9621 153.584 96.8125 153.447 96.7045C153.311 96.5966 153.143 96.5426 152.945 96.5426C152.748 96.5426 152.581 96.5947 152.445 96.6989C152.31 96.803 152.207 96.9508 152.135 97.142C152.063 97.3333 152.027 97.5587 152.027 97.8182ZM155.905 100V95.6364H157.766C158.304 95.6364 158.729 95.7386 159.041 95.9432C159.354 96.1477 159.51 96.4384 159.51 96.8153C159.51 97.0521 159.422 97.2491 159.246 97.4062C159.07 97.5634 158.825 97.6695 158.513 97.7244C158.774 97.7434 158.997 97.803 159.18 97.9034C159.366 98.0019 159.507 98.1297 159.604 98.2869C159.702 98.4441 159.751 98.6184 159.751 98.8097C159.751 99.0578 159.685 99.2708 159.553 99.4489C159.422 99.6269 159.23 99.7633 158.976 99.858C158.724 99.9527 158.416 100 158.053 100H155.905ZM157.033 99.0938H158.053C158.221 99.0938 158.353 99.054 158.447 98.9744C158.544 98.893 158.592 98.7822 158.592 98.642C158.592 98.4867 158.544 98.3646 158.447 98.2756C158.353 98.1866 158.221 98.142 158.053 98.142H157.033V99.0938ZM157.033 97.4318H157.791C157.912 97.4318 158.016 97.4148 158.101 97.3807C158.188 97.3447 158.254 97.2936 158.3 97.2273C158.347 97.161 158.371 97.0824 158.371 96.9915C158.371 96.857 158.317 96.7519 158.209 96.6761C158.101 96.6004 157.953 96.5625 157.766 96.5625H157.033V97.4318ZM162.503 100.085C162.054 100.085 161.668 99.9943 161.344 99.8125C161.022 99.6288 160.774 99.3693 160.599 99.0341C160.425 98.697 160.338 98.2983 160.338 97.8381C160.338 97.3892 160.425 96.9953 160.599 96.6562C160.774 96.3172 161.019 96.053 161.335 95.8636C161.653 95.6742 162.027 95.5795 162.455 95.5795C162.742 95.5795 163.01 95.6259 163.259 95.7188C163.509 95.8097 163.726 95.947 163.912 96.1307C164.099 96.3144 164.245 96.5455 164.349 96.8239C164.454 97.1004 164.506 97.4242 164.506 97.7955V98.1278H160.821V97.3778H163.366C163.366 97.2036 163.329 97.0492 163.253 96.9148C163.177 96.7803 163.072 96.6752 162.938 96.5994C162.805 96.5218 162.651 96.483 162.474 96.483C162.291 96.483 162.128 96.5256 161.986 96.6108C161.846 96.6941 161.736 96.8068 161.656 96.9489C161.577 97.089 161.536 97.2453 161.534 97.4176V98.1307C161.534 98.3466 161.574 98.5331 161.653 98.6903C161.735 98.8475 161.849 98.9688 161.997 99.054C162.145 99.1392 162.32 99.1818 162.523 99.1818C162.657 99.1818 162.78 99.1629 162.892 99.125C163.004 99.0871 163.099 99.0303 163.179 98.9545C163.259 98.8788 163.319 98.786 163.361 98.6761L164.48 98.75C164.423 99.0189 164.307 99.2538 164.131 99.4545C163.956 99.6534 163.731 99.8087 163.455 99.9205C163.18 100.03 162.863 100.085 162.503 100.085ZM165.295 101.636V95.6364H166.489V96.3693H166.543C166.596 96.2519 166.672 96.1326 166.773 96.0114C166.875 95.8883 167.008 95.786 167.17 95.7045C167.335 95.6212 167.54 95.5795 167.784 95.5795C168.102 95.5795 168.396 95.6629 168.665 95.8295C168.934 95.9943 169.149 96.2434 169.31 96.5767C169.471 96.9081 169.551 97.3239 169.551 97.8239C169.551 98.3106 169.473 98.7216 169.315 99.0568C169.16 99.3902 168.948 99.643 168.679 99.8153C168.412 99.9858 168.113 100.071 167.781 100.071C167.546 100.071 167.347 100.032 167.182 99.9545C167.019 99.8769 166.885 99.7794 166.781 99.6619C166.677 99.5426 166.598 99.4223 166.543 99.3011H166.506V101.636H165.295ZM166.48 97.8182C166.48 98.0777 166.516 98.304 166.588 98.4972C166.66 98.6903 166.764 98.8409 166.901 98.9489C167.037 99.0549 167.203 99.108 167.398 99.108C167.595 99.108 167.761 99.054 167.898 98.946C168.034 98.8362 168.137 98.6847 168.207 98.4915C168.279 98.2964 168.315 98.072 168.315 97.8182C168.315 97.5663 168.28 97.3447 168.21 97.1534C168.14 96.9621 168.037 96.8125 167.901 96.7045C167.764 96.5966 167.597 96.5426 167.398 96.5426C167.201 96.5426 167.034 96.5947 166.898 96.6989C166.763 96.803 166.66 96.9508 166.588 97.142C166.516 97.3333 166.48 97.5587 166.48 97.8182ZM170.358 100V95.6364H171.568V97.3295H171.909L173.097 95.6364H174.517L172.974 97.8011L174.534 100H173.097L172.02 98.4517H171.568V100H170.358Z" fill="black"/>
<rect y="112" width="112" height="17" rx="8.5" fill="#FAFF00"/>
<path d="M10.2841 118.196V117.182H15.0625V118.196H13.2812V123H12.0653V118.196H10.2841ZM17.1825 123.085C16.7337 123.085 16.3473 122.994 16.0234 122.812C15.7015 122.629 15.4534 122.369 15.2791 122.034C15.1049 121.697 15.0178 121.298 15.0178 120.838C15.0178 120.389 15.1049 119.995 15.2791 119.656C15.4534 119.317 15.6986 119.053 16.0149 118.864C16.3331 118.674 16.7062 118.58 17.1342 118.58C17.4221 118.58 17.6901 118.626 17.9382 118.719C18.1882 118.81 18.406 118.947 18.5916 119.131C18.7791 119.314 18.925 119.545 19.0291 119.824C19.1333 120.1 19.1854 120.424 19.1854 120.795V121.128H15.5007V120.378H18.0462C18.0462 120.204 18.0083 120.049 17.9325 119.915C17.8568 119.78 17.7517 119.675 17.6172 119.599C17.4846 119.522 17.3303 119.483 17.1541 119.483C16.9704 119.483 16.8075 119.526 16.6655 119.611C16.5253 119.694 16.4155 119.807 16.3359 119.949C16.2564 120.089 16.2157 120.245 16.2138 120.418V121.131C16.2138 121.347 16.2536 121.533 16.3331 121.69C16.4145 121.848 16.5291 121.969 16.6768 122.054C16.8246 122.139 16.9998 122.182 17.2024 122.182C17.3369 122.182 17.46 122.163 17.5717 122.125C17.6835 122.087 17.7791 122.03 17.8587 121.955C17.9382 121.879 17.9988 121.786 18.0405 121.676L19.1598 121.75C19.103 122.019 18.9865 122.254 18.8104 122.455C18.6361 122.653 18.4107 122.809 18.1342 122.92C17.8596 123.03 17.5424 123.085 17.1825 123.085ZM19.9751 123V118.636H23.7905V123H22.6342V119.588H21.1172V123H19.9751ZM24.5007 123L24.495 122.04H24.6399C24.7422 122.04 24.8303 122.015 24.9041 121.966C24.9799 121.915 25.0424 121.832 25.0916 121.719C25.1409 121.605 25.1797 121.455 25.2081 121.267C25.2365 121.078 25.2554 120.845 25.2649 120.568L25.3359 118.636H28.6541V123H27.5007V119.588H26.424L26.3558 120.92C26.3388 121.286 26.2943 121.6 26.2223 121.864C26.1522 122.127 26.0547 122.343 25.9297 122.511C25.8047 122.678 25.6541 122.801 25.478 122.881C25.3018 122.96 25.0973 123 24.8643 123H24.5007ZM31.5639 123.085C31.1226 123.085 30.741 122.991 30.419 122.804C30.099 122.615 29.8518 122.351 29.6776 122.014C29.5033 121.675 29.4162 121.282 29.4162 120.835C29.4162 120.384 29.5033 119.991 29.6776 119.653C29.8518 119.314 30.099 119.051 30.419 118.864C30.741 118.674 31.1226 118.58 31.5639 118.58C32.0052 118.58 32.3859 118.674 32.706 118.864C33.0279 119.051 33.276 119.314 33.4503 119.653C33.6245 119.991 33.7116 120.384 33.7116 120.835C33.7116 121.282 33.6245 121.675 33.4503 122.014C33.276 122.351 33.0279 122.615 32.706 122.804C32.3859 122.991 32.0052 123.085 31.5639 123.085ZM31.5696 122.148C31.7704 122.148 31.938 122.091 32.0724 121.977C32.2069 121.862 32.3082 121.705 32.3764 121.506C32.4465 121.307 32.4815 121.08 32.4815 120.827C32.4815 120.573 32.4465 120.347 32.3764 120.148C32.3082 119.949 32.2069 119.792 32.0724 119.676C31.938 119.561 31.7704 119.503 31.5696 119.503C31.367 119.503 31.1965 119.561 31.0582 119.676C30.9219 119.792 30.8187 119.949 30.7486 120.148C30.6804 120.347 30.6463 120.573 30.6463 120.827C30.6463 121.08 30.6804 121.307 30.7486 121.506C30.8187 121.705 30.9219 121.862 31.0582 121.977C31.1965 122.091 31.367 122.148 31.5696 122.148ZM35.3537 118.636L36.1548 120.162L36.9759 118.636H38.2173L36.9531 120.818L38.2514 123H37.0156L36.1548 121.491L35.3082 123H34.0582L35.3537 120.818L34.1037 118.636H35.3537ZM40.7514 123.085C40.3101 123.085 39.9285 122.991 39.6065 122.804C39.2865 122.615 39.0393 122.351 38.8651 122.014C38.6908 121.675 38.6037 121.282 38.6037 120.835C38.6037 120.384 38.6908 119.991 38.8651 119.653C39.0393 119.314 39.2865 119.051 39.6065 118.864C39.9285 118.674 40.3101 118.58 40.7514 118.58C41.1927 118.58 41.5734 118.674 41.8935 118.864C42.2154 119.051 42.4635 119.314 42.6378 119.653C42.812 119.991 42.8991 120.384 42.8991 120.835C42.8991 121.282 42.812 121.675 42.6378 122.014C42.4635 122.351 42.2154 122.615 41.8935 122.804C41.5734 122.991 41.1927 123.085 40.7514 123.085ZM40.7571 122.148C40.9579 122.148 41.1255 122.091 41.2599 121.977C41.3944 121.862 41.4957 121.705 41.5639 121.506C41.634 121.307 41.669 121.08 41.669 120.827C41.669 120.573 41.634 120.347 41.5639 120.148C41.4957 119.949 41.3944 119.792 41.2599 119.676C41.1255 119.561 40.9579 119.503 40.7571 119.503C40.5545 119.503 40.384 119.561 40.2457 119.676C40.1094 119.792 40.0062 119.949 39.9361 120.148C39.8679 120.347 39.8338 120.573 39.8338 120.827C39.8338 121.08 39.8679 121.307 39.9361 121.506C40.0062 121.705 40.1094 121.862 40.2457 121.977C40.384 122.091 40.5545 122.148 40.7571 122.148ZM43.3452 124.278V122.04H43.6804C43.777 121.979 43.8546 121.883 43.9134 121.75C43.974 121.617 44.0232 121.461 44.0611 121.281C44.1009 121.101 44.1312 120.907 44.152 120.699C44.1747 120.489 44.1946 120.277 44.2116 120.062L44.3253 118.636H47.6719V122.04H48.348V124.278H47.1946V123H44.527V124.278H43.3452ZM44.8849 122.04H46.5298V119.568H45.3537L45.3082 120.062C45.276 120.528 45.2296 120.924 45.169 121.25C45.1084 121.574 45.0137 121.837 44.8849 122.04ZM52.0902 120.335V121.287H49.8118V120.335H52.0902ZM50.2095 118.636V123H49.0533V118.636H50.2095ZM52.8487 118.636V123H51.701V118.636H52.8487ZM55.032 123.082C54.7536 123.082 54.5054 123.034 54.2876 122.938C54.0698 122.839 53.8975 122.694 53.7706 122.503C53.6456 122.31 53.5831 122.069 53.5831 121.781C53.5831 121.539 53.6276 121.335 53.7166 121.17C53.8056 121.006 53.9268 120.873 54.0803 120.773C54.2337 120.672 54.4079 120.597 54.603 120.545C54.8 120.494 55.0064 120.458 55.2223 120.438C55.4761 120.411 55.6806 120.386 55.8359 120.364C55.9912 120.339 56.1039 120.303 56.174 120.256C56.2441 120.208 56.2791 120.138 56.2791 120.045V120.028C56.2791 119.848 56.2223 119.709 56.1087 119.611C55.9969 119.512 55.8378 119.463 55.6314 119.463C55.4136 119.463 55.2403 119.511 55.1115 119.608C54.9827 119.703 54.8975 119.822 54.8558 119.966L53.7365 119.875C53.7933 119.61 53.9051 119.381 54.0717 119.188C54.2384 118.992 54.4534 118.843 54.7166 118.739C54.9818 118.633 55.2886 118.58 55.6371 118.58C55.8795 118.58 56.1115 118.608 56.3331 118.665C56.5566 118.722 56.7545 118.81 56.9268 118.929C57.1011 119.048 57.2384 119.202 57.3388 119.389C57.4392 119.575 57.4893 119.797 57.4893 120.057V123H56.3416V122.395H56.3075C56.2375 122.531 56.1437 122.652 56.0263 122.756C55.9089 122.858 55.7678 122.938 55.603 122.997C55.4382 123.054 55.2479 123.082 55.032 123.082ZM55.3786 122.247C55.5566 122.247 55.7138 122.212 55.8501 122.142C55.9865 122.07 56.0935 121.973 56.1712 121.852C56.2488 121.731 56.2876 121.594 56.2876 121.44V120.977C56.2498 121.002 56.1977 121.025 56.1314 121.045C56.067 121.064 55.9941 121.082 55.9126 121.099C55.8312 121.115 55.7498 121.129 55.6683 121.142C55.5869 121.153 55.513 121.164 55.4467 121.173C55.3047 121.194 55.1806 121.227 55.0746 121.273C54.9685 121.318 54.8861 121.38 54.8274 121.457C54.7687 121.533 54.7393 121.628 54.7393 121.741C54.7393 121.906 54.799 122.032 54.9183 122.119C55.0395 122.205 55.1929 122.247 55.3786 122.247ZM60.9851 123V119.585H60.1669C59.9453 119.585 59.7768 119.636 59.6612 119.739C59.5457 119.841 59.4889 119.962 59.4908 120.102C59.4889 120.244 59.5438 120.365 59.6555 120.463C59.7692 120.56 59.9358 120.608 60.1555 120.608H61.3885V121.426H60.1555C59.7824 121.426 59.4595 121.369 59.1868 121.256C58.9141 121.142 58.7038 120.984 58.5561 120.781C58.4084 120.577 58.3355 120.339 58.3374 120.068C58.3355 119.784 58.4084 119.535 58.5561 119.321C58.7038 119.105 58.915 118.937 59.1896 118.818C59.4661 118.697 59.7919 118.636 60.1669 118.636H62.1129V123H60.9851ZM58.2124 123L59.4254 120.727H60.5817L59.3714 123H58.2124ZM64.9048 123V118.636H68.7202V123H67.5639V119.588H66.0469V123H64.9048ZM69.6861 124.636V118.636H70.8793V119.369H70.9332C70.9863 119.252 71.063 119.133 71.1634 119.011C71.2656 118.888 71.3982 118.786 71.5611 118.705C71.7259 118.621 71.9304 118.58 72.1747 118.58C72.4929 118.58 72.7865 118.663 73.0554 118.83C73.3243 118.994 73.5393 119.243 73.7003 119.577C73.8613 119.908 73.9418 120.324 73.9418 120.824C73.9418 121.311 73.8632 121.722 73.706 122.057C73.5507 122.39 73.3385 122.643 73.0696 122.815C72.8026 122.986 72.5033 123.071 72.1719 123.071C71.937 123.071 71.7372 123.032 71.5724 122.955C71.4096 122.877 71.276 122.779 71.1719 122.662C71.0677 122.543 70.9882 122.422 70.9332 122.301H70.8963V124.636H69.6861ZM70.8707 120.818C70.8707 121.078 70.9067 121.304 70.9787 121.497C71.0507 121.69 71.1548 121.841 71.2912 121.949C71.4276 122.055 71.5933 122.108 71.7884 122.108C71.9853 122.108 72.152 122.054 72.2884 121.946C72.4247 121.836 72.5279 121.685 72.598 121.491C72.67 121.296 72.706 121.072 72.706 120.818C72.706 120.566 72.6709 120.345 72.6009 120.153C72.5308 119.962 72.4276 119.812 72.2912 119.705C72.1548 119.597 71.9872 119.543 71.7884 119.543C71.5914 119.543 71.4247 119.595 71.2884 119.699C71.1539 119.803 71.0507 119.951 70.9787 120.142C70.9067 120.333 70.8707 120.559 70.8707 120.818ZM76.7202 123.085C76.2789 123.085 75.8973 122.991 75.5753 122.804C75.2552 122.615 75.008 122.351 74.8338 122.014C74.6596 121.675 74.5724 121.282 74.5724 120.835C74.5724 120.384 74.6596 119.991 74.8338 119.653C75.008 119.314 75.2552 119.051 75.5753 118.864C75.8973 118.674 76.2789 118.58 76.7202 118.58C77.1615 118.58 77.5421 118.674 77.8622 118.864C78.1842 119.051 78.4323 119.314 78.6065 119.653C78.7808 119.991 78.8679 120.384 78.8679 120.835C78.8679 121.282 78.7808 121.675 78.6065 122.014C78.4323 122.351 78.1842 122.615 77.8622 122.804C77.5421 122.991 77.1615 123.085 76.7202 123.085ZM76.7259 122.148C76.9266 122.148 77.0942 122.091 77.2287 121.977C77.3632 121.862 77.4645 121.705 77.5327 121.506C77.6027 121.307 77.6378 121.08 77.6378 120.827C77.6378 120.573 77.6027 120.347 77.5327 120.148C77.4645 119.949 77.3632 119.792 77.2287 119.676C77.0942 119.561 76.9266 119.503 76.7259 119.503C76.5232 119.503 76.3527 119.561 76.2145 119.676C76.0781 119.792 75.9749 119.949 75.9048 120.148C75.8366 120.347 75.8026 120.573 75.8026 120.827C75.8026 121.08 75.8366 121.307 75.9048 121.506C75.9749 121.705 76.0781 121.862 76.2145 121.977C76.3527 122.091 76.5232 122.148 76.7259 122.148ZM82.6435 118.636V119.588H80.831V123H79.6548V118.636H82.6435ZM84.1286 124.636C83.9751 124.636 83.8312 124.624 83.6967 124.599C83.5642 124.577 83.4543 124.547 83.3672 124.511L83.6399 123.608C83.782 123.652 83.9098 123.675 84.0234 123.679C84.139 123.683 84.2384 123.656 84.3217 123.599C84.407 123.543 84.4761 123.446 84.5291 123.31L84.6001 123.125L83.0348 118.636H84.3075L85.2109 121.841H85.2564L86.1683 118.636H87.4496L85.7536 123.472C85.6721 123.706 85.5613 123.911 85.4212 124.085C85.2829 124.261 85.1077 124.397 84.8956 124.491C84.6835 124.588 84.4278 124.636 84.1286 124.636ZM87.4616 123L87.456 122.04H87.6009C87.7031 122.04 87.7912 122.015 87.8651 121.966C87.9408 121.915 88.0033 121.832 88.0526 121.719C88.1018 121.605 88.1406 121.455 88.169 121.267C88.1974 121.078 88.2164 120.845 88.2259 120.568L88.2969 118.636H91.6151V123H90.4616V119.588H89.3849L89.3168 120.92C89.2997 121.286 89.2552 121.6 89.1832 121.864C89.1132 122.127 89.0156 122.343 88.8906 122.511C88.7656 122.678 88.6151 122.801 88.4389 122.881C88.2628 122.96 88.0582 123 87.8253 123H87.4616ZM92.5533 123V118.636H93.7635V120.33H94.1044L95.2919 118.636H96.7124L95.1697 120.801L96.7294 123H95.2919L94.2152 121.452H93.7635V123H92.5533ZM98.4851 123.082C98.2067 123.082 97.9586 123.034 97.7408 122.938C97.523 122.839 97.3506 122.694 97.2237 122.503C97.0987 122.31 97.0362 122.069 97.0362 121.781C97.0362 121.539 97.0807 121.335 97.1697 121.17C97.2588 121.006 97.38 120.873 97.5334 120.773C97.6868 120.672 97.861 120.597 98.0561 120.545C98.2531 120.494 98.4595 120.458 98.6754 120.438C98.9292 120.411 99.1338 120.386 99.2891 120.364C99.4444 120.339 99.5571 120.303 99.6271 120.256C99.6972 120.208 99.7322 120.138 99.7322 120.045V120.028C99.7322 119.848 99.6754 119.709 99.5618 119.611C99.45 119.512 99.291 119.463 99.0845 119.463C98.8667 119.463 98.6934 119.511 98.5646 119.608C98.4358 119.703 98.3506 119.822 98.3089 119.966L97.1896 119.875C97.2464 119.61 97.3582 119.381 97.5249 119.188C97.6915 118.992 97.9065 118.843 98.1697 118.739C98.4349 118.633 98.7417 118.58 99.0902 118.58C99.3326 118.58 99.5646 118.608 99.7862 118.665C100.01 118.722 100.208 118.81 100.38 118.929C100.554 119.048 100.692 119.202 100.792 119.389C100.892 119.575 100.942 119.797 100.942 120.057V123H99.7947V122.395H99.7607C99.6906 122.531 99.5968 122.652 99.4794 122.756C99.362 122.858 99.2209 122.938 99.0561 122.997C98.8913 123.054 98.701 123.082 98.4851 123.082ZM98.8317 122.247C99.0097 122.247 99.1669 122.212 99.3033 122.142C99.4396 122.07 99.5466 121.973 99.6243 121.852C99.7019 121.731 99.7408 121.594 99.7408 121.44V120.977C99.7029 121.002 99.6508 121.025 99.5845 121.045C99.5201 121.064 99.4472 121.082 99.3658 121.099C99.2843 121.115 99.2029 121.129 99.1214 121.142C99.04 121.153 98.9661 121.164 98.8999 121.173C98.7578 121.194 98.6338 121.227 98.5277 121.273C98.4216 121.318 98.3393 121.38 98.2805 121.457C98.2218 121.533 98.1925 121.628 98.1925 121.741C98.1925 121.906 98.2521 122.032 98.3714 122.119C98.4927 122.205 98.6461 122.247 98.8317 122.247Z" fill="black"/>
</svg>
