<svg width="86" height="16" viewBox="0 0 86 16" fill="none" xmlns="http://www.w3.org/2000/svg">
<path d="M8.7777 5.32386V7.29545H3.76065V5.32386H8.7777ZM0.294744 8.1875H2.74361C2.78527 8.85417 2.99361 9.35606 3.36861 9.69318C3.74361 10.0303 4.29853 10.1989 5.03338 10.1989C5.63187 10.1989 6.10724 10.0587 6.45952 9.77841C6.81179 9.49811 7.06558 9.0947 7.22088 8.56818C7.37618 8.03788 7.45384 7.40341 7.45384 6.66477V5.72159C7.45384 4.96023 7.36482 4.31818 7.18679 3.79545C7.01255 3.26894 6.7455 2.87121 6.38565 2.60227C6.02959 2.33333 5.57315 2.19886 5.01634 2.19886C4.46709 2.19886 4.03149 2.2822 3.70952 2.44886C3.38755 2.61553 3.1527 2.85417 3.00497 3.16477C2.85724 3.47159 2.76634 3.8428 2.73224 4.27841H0.283381C0.359138 3.51326 0.578835 2.82386 0.942472 2.21023C1.3099 1.5928 1.83073 1.10417 2.50497 0.744318C3.183 0.384469 4.02012 0.204545 5.01634 0.204545C6.00497 0.204545 6.86293 0.429924 7.5902 0.880681C8.31747 1.33144 8.87997 1.9697 9.2777 2.79545C9.67543 3.62121 9.87429 4.59848 9.87429 5.72727V6.67045C9.87429 7.79924 9.67921 8.77462 9.28906 9.59659C8.9027 10.4148 8.34778 11.0473 7.62429 11.4943C6.90081 11.9375 6.03717 12.1591 5.03338 12.1591C4.07505 12.1591 3.25308 11.9924 2.56747 11.6591C1.88187 11.322 1.34588 10.8561 0.959517 10.2614C0.573153 9.66288 0.351563 8.97159 0.294744 8.1875ZM11.6456 12V3.27273H14.0661V6.65909H14.7479L17.1229 3.27273H19.9638L16.8786 7.60227L19.9979 12H17.1229L14.9695 8.90341H14.0661V12H11.6456ZM24.6044 12.1705C23.7105 12.1705 22.9415 11.9811 22.2976 11.6023C21.6574 11.2197 21.165 10.6894 20.8203 10.0114C20.4794 9.33333 20.3089 8.55303 20.3089 7.67045C20.3089 6.77652 20.4813 5.99242 20.826 5.31818C21.1745 4.64015 21.6688 4.11174 22.3089 3.73295C22.9491 3.35038 23.7105 3.15909 24.593 3.15909C25.3544 3.15909 26.0211 3.29735 26.593 3.57386C27.165 3.85038 27.6177 4.23864 27.951 4.73864C28.2843 5.23864 28.468 5.82576 28.5021 6.5H26.218C26.1536 6.06439 25.9832 5.71401 25.7067 5.44886C25.4339 5.17992 25.076 5.04545 24.6328 5.04545C24.2578 5.04545 23.9302 5.14773 23.6499 5.35227C23.3733 5.55303 23.1574 5.84659 23.0021 6.23295C22.8468 6.61932 22.7692 7.08712 22.7692 7.63636C22.7692 8.19318 22.8449 8.66667 22.9964 9.05682C23.1518 9.44697 23.3696 9.74432 23.6499 9.94886C23.9302 10.1534 24.2578 10.2557 24.6328 10.2557C24.9093 10.2557 25.1574 10.1989 25.3771 10.0852C25.6006 9.97159 25.7843 9.80682 25.9283 9.59091C26.076 9.37121 26.1726 9.10795 26.218 8.80114H28.5021C28.4643 9.4678 28.2824 10.0549 27.9567 10.5625C27.6347 11.0663 27.1896 11.4602 26.6214 11.7443C26.0533 12.0284 25.3809 12.1705 24.6044 12.1705ZM30.0518 12V3.27273H32.4723V6.65909H33.1541L35.5291 3.27273H38.37L35.2848 7.60227L38.4041 12H35.5291L33.3757 8.90341H32.4723V12H30.0518ZM41.0618 15.2727C40.755 15.2727 40.4671 15.2481 40.1982 15.1989C39.933 15.1534 39.7133 15.0947 39.5391 15.0227L40.0845 13.2159C40.3686 13.303 40.6243 13.3504 40.8516 13.358C41.0826 13.3655 41.2815 13.3125 41.4482 13.1989C41.6186 13.0852 41.7569 12.892 41.8629 12.6193L42.005 12.25L38.8743 3.27273H41.4197L43.2266 9.68182H43.3175L45.1413 3.27273H47.7038L44.3118 12.9432C44.1489 13.4129 43.9273 13.822 43.647 14.1705C43.3705 14.5227 43.0201 14.7936 42.5959 14.983C42.1716 15.1761 41.6603 15.2727 41.0618 15.2727ZM48.9425 15.2727V3.27273H51.3288V4.73864H51.4368C51.5429 4.50379 51.6963 4.26515 51.897 4.02273C52.1016 3.77652 52.3667 3.57197 52.6925 3.40909C53.022 3.24242 53.4311 3.15909 53.9197 3.15909C54.5561 3.15909 55.1432 3.32576 55.6811 3.65909C56.219 3.98864 56.6489 4.48674 56.9709 5.15341C57.2929 5.81629 57.4538 6.64773 57.4538 7.64773C57.4538 8.62121 57.2966 9.44318 56.9822 10.1136C56.6716 10.7803 56.2474 11.286 55.7095 11.6307C55.1754 11.9716 54.5769 12.142 53.9141 12.142C53.4444 12.142 53.0447 12.0644 52.7152 11.9091C52.3894 11.7538 52.1224 11.5587 51.9141 11.3239C51.7057 11.0852 51.5466 10.8447 51.4368 10.6023H51.3629V15.2727H48.9425ZM51.3118 7.63636C51.3118 8.1553 51.3838 8.60795 51.5277 8.99432C51.6716 9.38068 51.88 9.68182 52.1527 9.89773C52.4254 10.1098 52.7569 10.2159 53.147 10.2159C53.541 10.2159 53.8743 10.108 54.147 9.89205C54.4197 9.67235 54.6262 9.36932 54.7663 8.98295C54.9103 8.5928 54.9822 8.14394 54.9822 7.63636C54.9822 7.13258 54.9122 6.68939 54.772 6.30682C54.6319 5.92424 54.4254 5.625 54.1527 5.40909C53.88 5.19318 53.5447 5.08523 53.147 5.08523C52.7531 5.08523 52.4197 5.18939 52.147 5.39773C51.8781 5.60606 51.6716 5.90151 51.5277 6.28409C51.3838 6.66667 51.3118 7.11742 51.3118 7.63636ZM63.0107 12.1705C62.1167 12.1705 61.3478 11.9811 60.7038 11.6023C60.0637 11.2197 59.5713 10.6894 59.2266 10.0114C58.8857 9.33333 58.7152 8.55303 58.7152 7.67045C58.7152 6.77652 58.8875 5.99242 59.2322 5.31818C59.5807 4.64015 60.075 4.11174 60.7152 3.73295C61.3554 3.35038 62.1167 3.15909 62.9993 3.15909C63.7607 3.15909 64.4273 3.29735 64.9993 3.57386C65.5713 3.85038 66.0239 4.23864 66.3572 4.73864C66.6906 5.23864 66.8743 5.82576 66.9084 6.5H64.6243C64.5599 6.06439 64.3894 5.71401 64.1129 5.44886C63.8402 5.17992 63.4822 5.04545 63.0391 5.04545C62.6641 5.04545 62.3364 5.14773 62.0561 5.35227C61.7796 5.55303 61.5637 5.84659 61.4084 6.23295C61.2531 6.61932 61.1754 7.08712 61.1754 7.63636C61.1754 8.19318 61.2512 8.66667 61.4027 9.05682C61.558 9.44697 61.7758 9.74432 62.0561 9.94886C62.3364 10.1534 62.6641 10.2557 63.0391 10.2557C63.3156 10.2557 63.5637 10.1989 63.7834 10.0852C64.0069 9.97159 64.1906 9.80682 64.3345 9.59091C64.4822 9.37121 64.5788 9.10795 64.6243 8.80114H66.9084C66.8705 9.4678 66.6887 10.0549 66.3629 10.5625C66.041 11.0663 65.5959 11.4602 65.0277 11.7443C64.4595 12.0284 63.7872 12.1705 63.0107 12.1705ZM70.7706 8.80682L73.9126 3.27273H76.299V12H73.9922V6.44886L70.8615 12H68.4581V3.27273H70.7706V8.80682ZM83.353 12V5.17045H81.7166C81.2734 5.17045 80.9363 5.27273 80.7053 5.47727C80.4742 5.68182 80.3606 5.92424 80.3643 6.20455C80.3606 6.48864 80.4704 6.72917 80.6939 6.92614C80.9212 7.11932 81.2545 7.21591 81.6939 7.21591H84.1598V8.85227H81.6939C80.9477 8.85227 80.3018 8.73864 79.7564 8.51136C79.2109 8.28409 78.7905 7.9678 78.495 7.5625C78.1996 7.15341 78.0537 6.67803 78.0575 6.13636C78.0537 5.56818 78.1996 5.07008 78.495 4.64205C78.7905 4.21023 79.2128 3.875 79.7621 3.63636C80.3151 3.39394 80.9666 3.27273 81.7166 3.27273H85.6087V12H83.353ZM77.8075 12L80.2337 7.45455H82.5462L80.1257 12H77.8075Z" fill="white"/>
</svg>
