<?xml version="1.0" encoding="iso-8859-1"?>
<!-- Generator: Adobe Illustrator 19.0.0, SVG Export Plug-In . SVG Version: 6.00 Build 0)  -->
<svg version="1.1" id="Capa_1" xmlns="http://www.w3.org/2000/svg" xmlns:xlink="http://www.w3.org/1999/xlink" x="0px" y="0px"
	 viewBox="0 0 512.001 512.001" style="enable-background:new 0 0 512.001 512.001;" xml:space="preserve">
<path style="fill:#FFE17D;" d="M368.422,366.198l-97.005-55.851c-9.412-5.419-21.289-3.848-28.969,3.831l-25.101,25.101
	c-7.679,7.679-19.883,8.29-28.333,1.468c-14.765-11.919-29.519-25.158-43.947-39.585c-14.428-14.428-27.666-29.181-39.585-43.947
	c-6.821-8.45-6.211-20.654,1.468-28.333l25.101-25.101c7.679-7.679,9.25-19.557,3.831-28.968l-55.85-97.005
	c-7.886-13.697-26.624-16.175-37.8-4.999L13.441,101.6c-37.52,37.52,6.203,142.075,97.658,233.531s196.012,135.177,233.532,97.657
	l28.791-28.791C384.598,392.821,382.12,374.084,368.422,366.198z"/>
<g>
	<polygon style="fill:#FFD164;" points="29.29,85.751 109.964,225.87 121.815,214.019 41.142,73.899 	"/>
	<polygon style="fill:#FFD164;" points="218.987,337.639 359.558,417.862 371.43,405.99 230.86,325.767 	"/>
	<path style="fill:#FFD164;" d="M131.337,314.893C39.882,223.437-3.841,118.882,33.679,81.362l-20.237,20.237
		c-37.52,37.52,6.203,142.076,97.658,233.531s196.011,135.178,233.531,97.658l20.237-20.237
		C327.348,450.071,222.793,406.348,131.337,314.893z"/>
</g>
<g>
	<path style="fill:#5D5360;" d="M244.87,138.625c0-23.431-19.067-42.498-42.498-42.498s-42.498,19.067-42.498,42.498
		c0,5.589,4.53,10.119,10.119,10.119s10.119-4.53,10.119-10.119c0-12.277,9.984-22.261,22.261-22.261s22.261,9.984,22.261,22.261
		c0,19.328-12.862,32.964-27.755,48.751c-17.344,18.387-37.004,39.225-37.004,72.672c0,5.589,4.53,10.119,10.119,10.119h64.759
		c5.589,0,10.119-4.53,10.119-10.119s-4.53-10.119-10.119-10.119h-53.787c3.431-19.826,16.704-33.897,30.64-48.672
		C227.961,183.921,244.87,165.992,244.87,138.625z"/>
	<path style="fill:#5D5360;" d="M331.89,209.455h-6.071v-103.21c0-5.589-4.53-10.119-10.119-10.119s-10.119,4.53-10.119,10.119
		v103.209h-34.877l14.538-101.779c0.791-5.534-3.051-10.656-8.585-11.447c-5.462-0.822-10.664,3.051-11.447,8.585l-16.19,113.328
		c-0.419,2.901,0.451,5.842,2.372,8.063c1.921,2.213,4.711,3.486,7.644,3.486h46.545v30.356c0,5.589,4.53,10.119,10.119,10.119
		s10.119-4.53,10.119-10.119V229.69h6.071c5.589,0,10.119-4.53,10.119-10.119S337.479,209.455,331.89,209.455z"/>
	<path style="fill:#5D5360;" d="M510.04,100.261c-1.905-2.601-4.933-4.134-8.158-4.134h-56.664c-5.589,0-10.119,4.53-10.119,10.119
		s4.53,10.119,10.119,10.119h42.854l-44.411,140.64c-1.676,5.328,1.273,11.012,6.609,12.696c1.012,0.316,2.04,0.466,3.043,0.466
		c4.3,0,8.285-2.759,9.652-7.075l48.569-153.802C512.499,106.221,511.953,102.862,510.04,100.261z"/>
</g>
<path style="fill:#FFD164;" d="M415.566,72.214c-5.328-1.486-10.957,1.636-12.474,7.02l-56.664,202.371
	c-1.502,5.383,1.636,10.964,7.02,12.474c0.909,0.253,1.826,0.372,2.735,0.372c4.419,0,8.482-2.925,9.739-7.391l56.664-202.371
	C424.088,79.304,420.949,73.723,415.566,72.214z"/>
<g>
</g>
<g>
</g>
<g>
</g>
<g>
</g>
<g>
</g>
<g>
</g>
<g>
</g>
<g>
</g>
<g>
</g>
<g>
</g>
<g>
</g>
<g>
</g>
<g>
</g>
<g>
</g>
<g>
</g>
</svg>
