<?xml version="1.0" encoding="utf-8"?>
<!-- Generator: Adobe Illustrator 24.0.1, SVG Export Plug-In . SVG Version: 6.00 Build 0)  -->
<svg version="1.1" id="Capa_1" xmlns="http://www.w3.org/2000/svg" xmlns:xlink="http://www.w3.org/1999/xlink" x="0px" y="0px"
	 viewBox="0 0 464 464" style="enable-background:new 0 0 464 464;" xml:space="preserve">
<style type="text/css">
	.st0{fill:#FFFFFF;}
</style>
<g>
	<g>
		<path class="st0" d="M196.1,6.5l-12.9-5.8c-4-1.8-8.8,0-10.6,4c-0.8,1.8-0.9,3.8-0.3,5.6l26.3,85.3
			c23.8,77.5,19.9,160.9-10.9,235.9l-7.1,17.3c-1.7,4.1,0.3,8.8,4.3,10.4c1,0.4,2,0.6,3.1,0.6c0.6,0,1.1-0.1,1.7-0.2l17.8-3.8
			c60.9-13,123.9-12.5,184.5,1.5l10.2,2.3c4.3,1,8.6-1.7,9.6-6c0.1-0.5,0.2-1,0.2-1.5C417.3,203.8,331.9,66.9,196.1,6.5z
			 M204.2,340.4l-3,0.6l1.4-3.3c32.2-78.4,36.2-165.6,11.4-246.7l-21.1-68.4C317.6,79.7,397.3,204.7,396.2,342l-0.5-0.1
			C332.7,327.4,267.3,326.9,204.2,340.4z"/>
	</g>
</g>
<g>
	<g>
		<path class="st0" d="M163.8,43.5L154.9,28c-2.2-3.8-7.1-5.2-10.9-3c-2,1.1-3.4,3.1-3.9,5.3l-15.6,74.9
			c-16.1,77.1-42,151.8-77.2,222.2l-10.5,21c-2,4-0.4,8.8,3.6,10.7c2.1,1.1,4.6,1.1,6.7,0.2c33.8-14.4,71.9-14.4,105.7,0
			c3.7,1.6,8,0.2,10.1-3.3C218.6,259.4,218.9,140.5,163.8,43.5z M152.5,342c-29.6-11-62-12.4-92.5-4l1.7-3.4
			c35.8-71.7,62.2-147.6,78.6-226.1l11.3-54.2C201.1,143.7,201.4,252.3,152.5,342z"/>
	</g>
</g>
<g>
	<g>
		<path class="st0" d="M440.4,361.3c-1.3-0.8-2.8-1.3-4.4-1.3h-92.9c-29.3,0-58.4,3.3-86.9,9.9l-20,4.6c-27.3,6.3-55.3,9.5-83.3,9.5
			H28c-4.4,0-8,3.6-8,8c0,1.5,0.4,3,1.2,4.2l28.2,45.2c8.7,14.1,24.1,22.6,40.7,22.6h259.1c21.9,0.1,42.3-11.1,54-29.6l39.5-62.1
			C445.1,368.6,444.1,363.7,440.4,361.3z M389.7,425.8c-8.8,13.9-24.1,22.3-40.5,22.2H90.2c-11,0-21.3-5.7-27.1-15l-20.6-33h110.5
			c29.3,0,58.4-3.3,86.9-9.9l20-4.6c27.3-6.3,55.3-9.5,83.3-9.5h78.3L389.7,425.8z"/>
	</g>
</g>
</svg>
