<svg id="Capa_1" enable-background="new 0 0 512 512" height="512" viewBox="0 0 512 512" width="512" xmlns="http://www.w3.org/2000/svg"><g><path d="m84.979 482v-44.654l42.638-10 42.638 10v44.654c0 16.569-13.431 30-30 30h-25.276c-16.568 0-30-13.431-30-30z" fill="#736e6e"/><path d="m341.744 482v-44.654l42.638-10 42.638 10v44.654c0 16.569-13.431 30-30 30h-25.276c-16.568 0-30-13.431-30-30z" fill="#464141"/><path d="m0 191.5v-65.899c0-16.569 13.431-30 30-30h33.734l10 47.949-10 47.949h-63.734z" fill="#ffb655"/><path d="m448.266 191.5-10-47.949 10-47.949h33.734c16.569 0 30 13.431 30 30v65.898z" fill="#ff8859"/><g><path d="m94.734 0c-17.121 0-31 13.879-31 31v32.735l10 114.987-10 99.288v80.602l10 15-10 15v48.734h133.226l59.04-10 10-222.346-10-205z" fill="#ffde55"/><path d="m448.266 31c0-17.121-13.879-31-31-31h-161.266v427.346l59.04 10h133.226v-48.734l-10-15 10-15v-80.602l-10-99.288 10-114.987z" fill="#ffb655"/></g><g><path d="m196.96 373.612v63.734h59.04l10-31.867-10-31.867z" fill="#9b9696"/><path d="m256 373.612h59.04v63.735h-59.04z" fill="#736e6e"/></g><g><path d="m63.734 358.612h80.114v30h-80.114z" fill="#fff5cc"/></g><g><path d="m368.152 358.612h80.113v30h-80.113z" fill="#ffe9cc"/></g><g><path d="m63.734 63.734v214.276c64.089 10.466 128.177 15.699 192.266 15.699l10-114.987-10-114.988z" fill="#fff5cc"/><path d="m448.266 278.01v-214.276h-192.266v229.975c64.089 0 128.177-5.233 192.266-15.699z" fill="#ffe9cc"/></g></g></svg>