<svg width="19" height="19" viewBox="0 0 19 19" fill="none" xmlns="http://www.w3.org/2000/svg">
<path d="M9.5 4.67762C9.90359 4.67762 10.2308 5.0048 10.2308 5.40839V10.1717L12.6041 12.545C12.8894 12.8303 12.8894 13.293 12.6041 13.5784C12.3187 13.8638 11.856 13.8638 11.5706 13.5784L8.98327 10.9911C8.84622 10.854 8.76923 10.6682 8.76923 10.4744V5.40839C8.76923 5.0048 9.09641 4.67762 9.5 4.67762Z" fill="#777777"/>
<path fill-rule="evenodd" clip-rule="evenodd" d="M9.5 19C14.7467 19 19 14.7467 19 9.5C19 4.25329 14.7467 0 9.5 0C4.25329 0 0 4.25329 0 9.5C0 14.7467 4.25329 19 9.5 19ZM9.5 17.5385C5.06048 17.5385 1.46154 13.9395 1.46154 9.5C1.46154 5.06048 5.06048 1.46154 9.5 1.46154C13.9395 1.46154 17.5385 5.06048 17.5385 9.5C17.5385 13.9395 13.9395 17.5385 9.5 17.5385Z" fill="#777777"/>
</svg>
