<?xml version="1.0" encoding="UTF-8"?>
<svg width="512px" height="340px" viewBox="0 0 512 340" version="1.1" xmlns="http://www.w3.org/2000/svg" xmlns:xlink="http://www.w3.org/1999/xlink">
    <title>Untitled 155</title>
    <g id="Page-1" stroke="none" stroke-width="1" fill="none" fill-rule="evenodd">
        <g id="contact" fill-rule="nonzero">
            <path d="M474.230469,0.5 L37.769531,0.5 C16.910156,0.5 0,17.410156 0,38.269531 L0,301.277344 C0,322.136719 16.910156,339.046875 37.769531,339.046875 L474.230469,339.046875 C495.089844,339.046875 512,322.136719 512,301.277344 L512,38.269531 C512,17.410156 495.089844,0.5 474.230469,0.5 Z" id="Path" fill="#F7D360"></path>
            <polygon id="Path" fill="#FFFFFF" points="44.933594 63.195312 226.746094 63.195312 226.746094 270.082031 44.933594 270.082031"></polygon>
            <g id="Group" transform="translate(264.000000, 73.000000)" fill="#E6E6E6">
                <path d="M205.164062,16.203125 L8.722656,16.203125 C4.394531,16.203125 0.886719,12.695312 0.886719,8.367188 C0.886719,4.039062 4.394531,0.53125 8.722656,0.53125 L205.164062,0.53125 C209.492188,0.53125 213,4.039062 213,8.367188 C213,12.695312 209.492188,16.203125 205.164062,16.203125 L205.164062,16.203125 Z" id="Path"></path>
                <path d="M205.164062,73.050781 L8.722656,73.050781 C4.394531,73.050781 0.886719,69.542969 0.886719,65.214844 C0.886719,60.886719 4.394531,57.378906 8.722656,57.378906 L205.164062,57.378906 C209.492188,57.378906 213,60.886719 213,65.214844 C213,69.542969 209.492188,73.050781 205.164062,73.050781 L205.164062,73.050781 Z" id="Path"></path>
                <path d="M205.164062,129.898438 L8.722656,129.898438 C4.394531,129.898438 0.886719,126.390625 0.886719,122.0625 C0.886719,117.734375 4.394531,114.226562 8.722656,114.226562 L205.164062,114.226562 C209.492188,114.226562 213,117.734375 213,122.0625 C213,126.390625 209.492188,129.898438 205.164062,129.898438 L205.164062,129.898438 Z" id="Path"></path>
                <path d="M115.300781,186.75 L8.722656,186.75 C4.394531,186.75 0.886719,183.238281 0.886719,178.910156 C0.886719,174.582031 4.394531,171.074219 8.722656,171.074219 L115.300781,171.074219 C119.628906,171.074219 123.136719,174.582031 123.136719,178.910156 C123.136719,183.238281 119.628906,186.75 115.300781,186.75 Z" id="Path"></path>
            </g>
            <path d="M182.859375,150.964844 C182.859375,176.933594 161.808594,197.984375 135.839844,197.984375 C109.871094,197.984375 88.820312,176.933594 88.820312,150.964844 C88.820312,124.996094 109.871094,103.945312 135.839844,103.945312 C161.808594,103.945312 182.859375,124.996094 182.859375,150.964844 Z" id="Path" fill="#E8CDAC"></path>
            <path d="M182.859375,245.003906 C182.859375,219.035156 161.808594,197.984375 135.839844,197.984375 C109.871094,197.984375 88.820312,219.035156 88.820312,245.003906" id="Path" fill="#FC5F61"></path>
        </g>
    </g>
</svg>