<svg width="32" height="32" viewBox="0 0 32 32" fill="none" xmlns="http://www.w3.org/2000/svg">
<circle cx="16" cy="16" r="15.5" fill="#E2F2F8" stroke="url(#paint0_linear)"/>
<path fill-rule="evenodd" clip-rule="evenodd" d="M9.25806 9.55178C8.80649 9.55178 8.52018 9.90404 8.5551 10.2485C9.24487 17.2137 14.7863 22.7551 21.7515 23.4449C22.096 23.4798 22.4482 23.1935 22.4482 22.7419V19.9805C22.4482 19.6469 22.2348 19.3505 21.9175 19.245L19.2329 18.3496C18.9544 18.2573 18.6471 18.3294 18.4392 18.5374L18.0093 18.9672C17.4957 19.4809 16.6764 19.5794 16.0564 19.155C14.5884 18.151 13.7342 17.3022 12.8225 15.9304C12.4105 15.3097 12.5184 14.5043 13.0235 14L13.4626 13.5608C13.6706 13.3529 13.7427 13.0456 13.6496 12.7671L12.755 10.0825C12.6495 9.76515 12.3531 9.55178 12.0195 9.55178H9.25806ZM7.01108 10.4022C6.87607 9.04125 7.99568 8 9.25806 8H12.0195C13.0211 8 13.9103 8.64089 14.2269 9.59135L15.1222 12.2759C15.4008 13.1124 15.1835 14.0349 14.5597 14.6579L14.1276 15.0901C14.9112 16.2663 15.6157 16.9724 16.9177 17.8647L17.3421 17.4403C17.9651 16.8165 18.8876 16.5992 19.7241 16.8778L22.4086 17.7731C23.3591 18.0897 24 18.9789 24 19.9805V22.7419C24 24.0043 22.9588 25.1239 21.5978 24.9889C13.8971 24.2262 7.77378 18.1029 7.01108 10.4022ZM17.7929 8.77589C17.7929 8.3476 18.1405 8 18.5688 8C21.5684 8 24 10.4316 24 13.4312C24 13.8595 23.6524 14.2071 23.2241 14.2071C22.7958 14.2071 22.4482 13.8595 22.4482 13.4312C22.4482 11.289 20.711 9.55178 18.5688 9.55178C18.1405 9.55178 17.7929 9.20418 17.7929 8.77589ZM17.7929 11.8795C17.7929 11.4512 18.1405 11.1036 18.5688 11.1036C19.8544 11.1036 20.8964 12.1456 20.8964 13.4312C20.8964 13.8595 20.5488 14.2071 20.1205 14.2071C19.6922 14.2071 19.3447 13.8595 19.3447 13.4312C19.3447 13.0029 18.9971 12.6554 18.5688 12.6554C18.1405 12.6554 17.7929 12.3078 17.7929 11.8795Z" fill="#053E71"/>
<defs>
<linearGradient id="paint0_linear" x1="2.5" y1="5.60191e-07" x2="27.5" y2="25.5" gradientUnits="userSpaceOnUse">
<stop stop-color="#2C84D1" stop-opacity="0.28"/>
<stop offset="1" stop-color="#2C84D1" stop-opacity="0.03"/>
</linearGradient>
</defs>
</svg>
