<svg width="21" height="21" viewBox="0 0 21 21" fill="none" xmlns="http://www.w3.org/2000/svg">
<path d="M16.5808 2H4.41923C3.04615 2 2 3.04615 2 4.41923V16.5808C2 17.9538 3.04615 19 4.41923 19H16.5808C17.9538 19 19 17.9538 19 16.5808V4.41923C19 3.04615 17.9538 2 16.5808 2ZM10.5 15.6C13.3115 15.6 15.6 13.3769 15.6 10.6962C15.6 10.2385 15.5346 9.71538 15.4038 9.32308H16.8423V16.2538C16.8423 16.5808 16.5808 16.9077 16.1885 16.9077H4.81154C4.48462 16.9077 4.15769 16.6462 4.15769 16.2538V9.25769H5.66154C5.53077 9.71538 5.46539 10.1731 5.46539 10.6308C5.4 13.3769 7.68846 15.6 10.5 15.6ZM10.5 13.6385C8.66923 13.6385 7.23077 12.2 7.23077 10.4346C7.23077 8.66923 8.66923 7.23077 10.5 7.23077C12.3308 7.23077 13.7692 8.66923 13.7692 10.4346C13.7692 12.2654 12.3308 13.6385 10.5 13.6385ZM16.7769 6.64231C16.7769 7.03461 16.45 7.36154 16.0577 7.36154H14.2269C13.8346 7.36154 13.5077 7.03461 13.5077 6.64231V4.87692C13.5077 4.48462 13.8346 4.15769 14.2269 4.15769H16.0577C16.45 4.15769 16.7769 4.48462 16.7769 4.87692V6.64231Z" fill="url(#paint0_linear)"/>
<defs>
<linearGradient id="paint0_linear" x1="5.6125" y1="17.0875" x2="16.875" y2="5.4" gradientUnits="userSpaceOnUse">
<stop stop-color="#EEA054"/>
<stop offset="0.502762" stop-color="#D64763"/>
<stop offset="1" stop-color="#B62A99"/>
</linearGradient>
</defs>
</svg>
