<svg id="Flat" height="512" viewBox="0 0 512 512" width="512" xmlns="http://www.w3.org/2000/svg"><g><path d="m384 416-128 48-128-48-104 40v16.371a10 10 0 0 0 14.191 9.08l90.448-41.746 123.85 46.444a10 10 0 0 0 7.022 0l124.417-46.656 90.482 34.8a10 10 0 0 0 13.59-9.333v-16.96z" fill="#e6e6e6"/><path d="m256 472 128-48 90.41 34.773a10 10 0 0 0 13.59-9.333v-258.572a10 10 0 0 0 -6.41-9.333l-97.59-37.535-128 40-128-40-104 40v272.371a10 10 0 0 0 14.191 9.08l89.809-41.451z" fill="#25b1fa"/></g><path d="m488 296h-120l-24-40 32.227-109.571-74.063 23.145-30.164 78.426h-79.215l.167-25.428 34.577-47.469-43.529-15.103-56 24h-104v48h104v72l-104 6.559v64.374l104-6.933v56l64 24v-80l.419-64h39.581l56 39.2v116.8l96-36 8 3.077v-67.077h96z" fill="#ccf0ff"/><g><ellipse cx="384" cy="424" fill="#fdbf44" rx="56" ry="24"/><path d="m448 312a64 64 0 0 0 -128 0c0 48 64 104 64 104s64-56 64-104z" fill="#fa5131"/><circle cx="384" cy="312" fill="#fffbfa" r="24"/></g><g><ellipse cx="128" cy="160" fill="#fdbf44" rx="56" ry="24"/><path d="m130 40a10 10 0 0 0 -10 10v110h16v-56h70a10 10 0 0 0 10-10v-54z" fill="#fa5131"/></g></svg>