<?xml version="1.0" encoding="utf-8"?>
<!-- Generator: Adobe Illustrator 24.0.1, SVG Export Plug-In . SVG Version: 6.00 Build 0)  -->
<svg version="1.1" id="Capa_1" xmlns="http://www.w3.org/2000/svg" xmlns:xlink="http://www.w3.org/1999/xlink" x="0px" y="0px"
	 viewBox="0 0 512 512" style="enable-background:new 0 0 512 512;" xml:space="preserve">
<style type="text/css">
	.st0{fill:#A6D3FF;}
	.st1{fill:#1C82FF;}
	.st2{fill:#FFDA2D;}
	.st3{fill:#FDBF00;}
	.st4{fill:#465A61;}
	.st5{fill:#3B4A51;}
	.st6{fill:#596C76;}
</style>
<path class="st0" d="M417.9,246.7c-6.8-7.2-17.8-7.1-26.1,6.1C358.5,305.4,312.9,332,256,332c-56.9,0-102.6-26.6-135.6-79
	c-10.3-16.3-21.7-11.1-26.3-6.3c-8.5,9-2,17.8,0.9,22.3c37.3,59.3,91.8,93,161,93c69.4,0,124-34.4,161.1-93.2
	C421.5,261.9,425.2,254.4,417.9,246.7L417.9,246.7z"/>
<path class="st1" d="M417.9,246.7c-6.8-7.2-17.8-7.1-26.1,6.1C358.5,305.4,312.9,332,256,332v30c69.4,0,124-34.4,161.1-93.2
	C421.5,261.9,425.2,254.4,417.9,246.7L417.9,246.7z"/>
<path class="st2" d="M120,197v60l-45,7.4c-59.9-9.8-41.3-6.8-45-7.4v-60H120z"/>
<path class="st3" d="M120,197v60l-45,7.4V197H120z"/>
<path class="st4" d="M30,257h90v240H30V257z"/>
<path class="st5" d="M75,257h45v240H75V257z"/>
<path class="st4" d="M90,135v62c0,8.3-6.7,15-15,15s-15-6.7-15-15v-62c0-8.3,6.7-15,15-15S90,126.7,90,135z"/>
<path class="st4" d="M90,135v62c0,8.3-6.7,15-15,15v-92C83.3,120,90,126.7,90,135z"/>
<path class="st6" d="M150,197c0,8.3-6.7,15-15,15H15c-8.3,0-15-6.7-15-15s6.7-15,15-15h120C143.3,182,150,188.7,150,197z"/>
<path class="st4" d="M150,197c0,8.3-6.7,15-15,15H75v-30h60C143.3,182,150,188.7,150,197z"/>
<path class="st6" d="M150,497c0,8.3-6.7,15-15,15H15c-8.3,0-15-6.7-15-15s6.7-15,15-15h120C143.3,482,150,488.7,150,497z"/>
<path class="st4" d="M150,497c0,8.3-6.7,15-15,15H75v-30h60C143.3,482,150,488.7,150,497z"/>
<path class="st2" d="M75,150c-41.4,0-75-33.6-75-75S33.6,0,75,0s75,33.6,75,75S116.4,150,75,150z"/>
<path class="st3" d="M75,0v150c41.4,0,75-33.6,75-75S116.4,0,75,0z"/>
<path class="st2" d="M482,197v60l-45,7.4c-59.9-9.8-41.3-6.8-45-7.4v-60H482z"/>
<path class="st3" d="M482,197v60l-45,7.4V197H482z"/>
<path class="st4" d="M392,257h90v240h-90V257z"/>
<path class="st5" d="M437,257h45v240h-45V257z"/>
<path class="st4" d="M452,135v62c0,8.3-6.7,15-15,15s-15-6.7-15-15v-62c0-8.3,6.7-15,15-15S452,126.7,452,135z"/>
<path class="st4" d="M452,135v62c0,8.3-6.7,15-15,15v-92C445.3,120,452,126.7,452,135z"/>
<path class="st6" d="M512,197c0,8.3-6.7,15-15,15H377c-8.3,0-15-6.7-15-15s6.7-15,15-15h120C505.3,182,512,188.7,512,197z"/>
<path class="st4" d="M512,197c0,8.3-6.7,15-15,15h-60v-30h60C505.3,182,512,188.7,512,197z"/>
<path class="st6" d="M512,497c0,8.3-6.7,15-15,15H377c-8.3,0-15-6.7-15-15s6.7-15,15-15h120C505.3,482,512,488.7,512,497z"/>
<path class="st4" d="M512,497c0,8.3-6.7,15-15,15h-60v-30h60C505.3,482,512,488.7,512,497z"/>
<path class="st2" d="M437,150c-41.4,0-75-33.6-75-75s33.6-75,75-75s75,33.6,75,75S478.4,150,437,150z"/>
<path class="st3" d="M437,0v150c41.4,0,75-33.6,75-75S478.4,0,437,0z"/>
</svg>
