<?xml version="1.0" encoding="utf-8"?>
<!-- Generator: Adobe Illustrator 24.0.1, SVG Export Plug-In . SVG Version: 6.00 Build 0)  -->
<svg version="1.1" id="Capa_1" xmlns="http://www.w3.org/2000/svg" xmlns:xlink="http://www.w3.org/1999/xlink" x="0px" y="0px"
	 viewBox="0 0 512.1 512.1" style="enable-background:new 0 0 512.1 512.1;" xml:space="preserve">
<style type="text/css">
	.st0{fill:#FFB32C;}
	.st1{fill:#FAFAFA;}
	.st2{fill:#FFD54F;}
</style>
<path class="st0" d="M176.1,32C79,32,0.1,112.9,0.1,212.3c0,124.5,157.8,288,164.5,294.9c3,3.1,7.1,4.9,11.5,4.9s8.4-1.8,11.5-4.8
	c6.7-6.9,164.5-170.4,164.5-294.9C352.1,112.9,273.2,32,176.1,32z"/>
<circle class="st1" cx="176.1" cy="208" r="80"/>
<path class="st2" d="M336.1,0c-27.4,0-53.4,6.5-76.6,18c37.3,16.9,69,44.7,91.1,79.4c37.2,6.9,65.4,39.4,65.4,78.7
	c0,27.2-13.6,51.2-34.3,65.7c-10.2,67.3-52.5,139-92.6,193.9c19.3,22.9,33.5,37.6,35.4,39.5c3,3.1,7.1,4.9,11.5,4.9
	s8.4-1.8,11.5-4.8c6.7-6.9,164.5-170.4,164.5-294.9C512.1,80.9,433.2,0,336.1,0z"/>
</svg>
