<?xml version="1.0"?>
<svg width="588.5" height="173.1" xmlns="http://www.w3.org/2000/svg" xmlns:svg="http://www.w3.org/2000/svg" xmlns:xlink="http://www.w3.org/1999/xlink" version="1.1">
 <style type="text/css">.st0{fill:#231F20;}
	.st1{fill:url(#SVGID_1_);}
	.st2{fill:url(#SVGID_2_);}
	.st3{fill:url(#SVGID_3_);}
	.st4{fill:#FFFFFF;}</style>
 <linearGradient gradientUnits="userSpaceOnUse" id="SVGID_1_" x1="177.1448" x2="117.9573" y1="57.4849" y2="143.2267">
  <stop offset="0" stop-color="#2C84D1"/>
  <stop offset="1" stop-color="#2C72B5"/>
 </linearGradient>
 <linearGradient gradientUnits="userSpaceOnUse" id="SVGID_2_" x1="184.9791" x2="125.7916" y1="62.8929" y2="148.6348">
  <stop offset="0" stop-color="#2C84D1"/>
  <stop offset="1" stop-color="#2C72B5"/>
 </linearGradient>
 <linearGradient gradientUnits="userSpaceOnUse" id="SVGID_3_" x1="508.1177" x2="294.8638" y1="54.0512" y2="250.0444">
  <stop offset="0" stop-color="#2C84D1"/>
  <stop offset="1" stop-color="#2C72B5"/>
 </linearGradient>
 <g class="layer">
  <title>Layer 1</title>
  <image height="69" id="svg_1" opacity="0.3" transform="matrix(2.4978 0 0 2.4978 66.4547 -61.1038)" width="234" x="-25.22219" xlink:href="../Слой 1@4x 2.jpg" y="-57.65073"/>
  <g id="svg_2">
   <g id="svg_3">
    <path class="st0" d="m217.5,132.6l16.4,-90.2l68.1,0l-16.4,90.2l-8.8,0l14.9,-82.1l-50.5,0l-14.9,82.1l-8.8,0z" id="svg_4"/>
    <path class="st0" d="m376.1,66.6l-12,66l-8,0l2.2,-12.1l-0.4,0c-2.2,2.5 -4.6,4.7 -7.1,6.4c-2.5,1.7 -5.1,3.1 -7.7,4.2c-2.6,1.1 -5.2,1.9 -7.8,2.4c-2.6,0.5 -5.1,0.7 -7.4,0.7c-4.6,0 -8.9,-0.9 -12.6,-2.6c-3.8,-1.7 -6.9,-4.1 -9.4,-7.2c-2.5,-3.1 -4.2,-6.7 -5.1,-10.9c-0.9,-4.2 -1,-8.9 0,-13.9c0.9,-5.1 2.6,-9.8 5.1,-14c2.5,-4.3 5.5,-7.9 9.1,-11c3.6,-3.1 7.6,-5.4 12,-7.1c4.4,-1.7 9,-2.5 13.7,-2.5c3.4,0 6.5,0.4 9.1,1.2c2.7,0.8 5,1.9 6.9,3.2c1.9,1.4 3.6,3 5,4.8c1.4,1.8 2.5,3.8 3.4,5.8l0.5,0l2.4,-13.4l8.1,0zm-36.5,5.8c-3.9,0 -7.6,0.7 -11,2.1c-3.4,1.4 -6.4,3.3 -9.1,5.8c-2.6,2.5 -4.9,5.4 -6.7,8.7c-1.8,3.4 -3.1,7 -3.8,11c-0.8,4.4 -0.8,8.3 0.1,11.6c0.8,3.4 2.2,6.2 4.2,8.4c2,2.2 4.4,3.9 7.2,5.1c2.8,1.1 5.8,1.7 9,1.7c3.9,0 7.7,-0.7 11.4,-2.2c3.6,-1.4 6.9,-3.4 9.9,-5.9c2.9,-2.5 5.4,-5.3 7.4,-8.6c2,-3.2 3.3,-6.7 4,-10.3c0.6,-3.5 0.6,-6.9 -0.1,-10.2c-0.7,-3.3 -2.1,-6.2 -4,-8.8c-1.9,-2.6 -4.5,-4.7 -7.6,-6.2c-3.2,-1.4 -6.8,-2.2 -10.9,-2.2z" id="svg_5"/>
    <path class="st0" d="m422.5,65c5.2,0 9.7,0.9 13.6,2.6c3.9,1.8 7,4.2 9.4,7.3c2.4,3.1 4,6.8 4.8,11c0.9,4.2 0.8,8.8 -0.1,13.7c-0.9,5.1 -2.6,9.7 -5.2,13.9c-2.5,4.2 -5.6,7.9 -9.2,10.9c-3.6,3.1 -7.5,5.5 -11.9,7.2c-4.3,1.7 -8.8,2.6 -13.5,2.6c-2.4,0 -4.8,-0.2 -7.2,-0.7c-2.4,-0.5 -4.7,-1.3 -6.9,-2.4c-2.2,-1.1 -4.3,-2.5 -6.1,-4.2c-1.9,-1.7 -3.4,-3.8 -4.6,-6.4l-0.4,0l-6.7,36.7l-8,0l10.5,-57.6c0.9,-4.9 2.6,-9.5 5,-13.7c2.5,-4.2 5.5,-7.9 9.2,-11c3.6,-3.1 7.8,-5.5 12.4,-7.3c4.8,-1.7 9.7,-2.6 14.9,-2.6zm-2,7.4c-3.9,0 -7.6,0.8 -11.1,2.3c-3.5,1.5 -6.7,3.6 -9.5,6.1c-2.8,2.5 -5.1,5.5 -7.1,8.8c-1.9,3.3 -3.2,6.8 -3.9,10.4c-0.7,3.9 -0.6,7.6 0.3,10.9c0.9,3.3 2.5,6.1 4.6,8.5c2.1,2.4 4.7,4.2 7.7,5.5c3.1,1.3 6.3,2 9.7,2c3.5,0 6.9,-0.6 10.3,-1.9c3.3,-1.3 6.4,-3.1 9.1,-5.5c2.8,-2.4 5.1,-5.2 7.1,-8.5c2,-3.3 3.3,-7 4,-11c0.7,-4.1 0.8,-7.9 0.1,-11.3c-0.7,-3.4 -2,-6.3 -3.9,-8.7c-1.9,-2.5 -4.3,-4.3 -7.3,-5.7c-2.8,-1.3 -6.3,-1.9 -10.1,-1.9z" id="svg_6"/>
    <path class="st0" d="m478.5,126.4l-20.2,-59.9l9.2,0l16.9,50.3l0.5,0l31.6,-50.3l8.6,0c-8.7,13.5 -17.1,27 -25.3,40.4c-8.2,13.4 -16.6,26.6 -25.4,39.6c-1.7,2.4 -3.4,4.2 -5.4,5.6c-1.9,1.4 -3.8,2.4 -5.8,3.1c-1.9,0.7 -3.7,1.2 -5.4,1.4c-1.7,0.2 -3.1,0.3 -4.2,0.3c-1.1,0 -2.6,-0.1 -4.2,-0.3c-1.7,-0.2 -3.4,-0.6 -5.1,-1.3l3.7,-6.7c0.9,0.3 1.8,0.5 2.6,0.7c0.8,0.2 1.8,0.3 2.7,0.3c3.8,0 6.9,-0.7 9.3,-2.2c2.4,-1.5 4.3,-3.2 5.6,-5.3l10.3,-15.7z" id="svg_7"/>
    <path class="st0" d="m577.8,79.5c-4.7,-4.7 -10.4,-7.1 -17.3,-7.1c-3.5,0 -7,0.6 -10.3,1.9c-3.4,1.3 -6.5,3.1 -9.3,5.5c-2.8,2.4 -5.2,5.2 -7.2,8.6c-2,3.3 -3.4,7.1 -4.1,11.2c-0.6,3.3 -0.7,6.6 -0.1,9.9c0.5,3.2 1.6,6.2 3.3,8.7c1.7,2.6 4.1,4.7 7.1,6.3c3,1.6 6.7,2.4 11.1,2.4c6.9,0 13.3,-2.3 19.2,-7l3.8,6.1c-2.5,1.8 -4.9,3.2 -7.2,4.3c-2.3,1.1 -4.5,2 -6.5,2.6c-2,0.6 -4,1 -5.7,1.2c-1.8,0.2 -3.4,0.3 -4.8,0.3c-5.8,0 -10.7,-1.1 -14.6,-3.2c-4,-2.1 -7.1,-4.8 -9.4,-8.1c-2.3,-3.3 -3.8,-7 -4.5,-11.1c-0.7,-4.1 -0.7,-8.2 0.1,-12.4c0.8,-4.6 2.5,-9.1 5,-13.2c2.5,-4.2 5.6,-7.8 9.2,-11c3.6,-3.2 7.8,-5.7 12.4,-7.5c4.6,-1.8 9.5,-2.8 14.4,-2.8c5.1,0 9.4,0.8 12.8,2.4c3.5,1.6 6.3,3.6 8.5,5.9l-5.9,6.1z" id="svg_8"/>
   </g>
  </g>
  <path class="st1" d="m208.3,160.4c-1.5,-0.1 -3.8,-0.2 -6.6,-0.4c-2.9,-0.1 -6.3,-0.3 -10.3,-0.5c-4,-0.2 -8.5,-0.4 -13.4,-0.5c-4.9,-0.2 -10.2,-0.3 -15.9,-0.5c-2.3,-0.1 -4.8,-0.1 -7.2,-0.2c5.2,-2.3 21.6,-10.9 29.5,-32.6c0,0 -6.6,1 -17.4,2.3c-9.9,-61.9 -47,-115.3 -47,-115.3c11.9,25.5 11.3,59.1 8.7,83l-9.8,-89.1l-0.1,-1.5c0.9,-0.4 1.6,-1.4 1.6,-2.5c0,-1.5 -1.2,-2.7 -2.7,-2.7s-2.7,1.3 -2.7,2.8c0,1.1 0.7,2.1 1.7,2.5l0,9.1c-8.1,8.3 -49.7,53.5 -57.7,112.6l13.5,7.8c-9.7,0.1 -19.3,-0.1 -28.5,-0.6c0,0 -5.2,12.9 2.7,24.5c-4.5,0.1 -8.7,0.3 -12.7,0.4c-4.9,0.1 -9.4,0.3 -13.4,0.5c-4,0.2 -7.5,0.3 -10.3,0.5c-2.9,0.1 -5.1,0.3 -6.6,0.4c-1.5,0.1 -2.4,0.2 -2.4,0.2s0.8,0.1 2.4,0.2c1.5,0.1 3.8,0.2 6.6,0.4c2.9,0.1 6.3,0.3 10.3,0.5c4,0.2 8.5,0.4 13.4,0.5c4.9,0.2 10.2,0.3 15.9,0.5c5.6,0.1 11.6,0.3 17.7,0.4c6.1,0.1 12.5,0.2 18.9,0.2c6.4,0 13,0.1 19.5,0.1c6.5,0 13.1,-0.1 19.5,-0.1c6.4,0 12.8,-0.2 18.9,-0.2c6.1,-0.1 12.1,-0.2 17.7,-0.4c5.6,-0.1 10.9,-0.3 15.9,-0.5c4.9,-0.1 9.4,-0.3 13.4,-0.5c4,-0.2 7.5,-0.3 10.3,-0.5c2.9,-0.1 5.1,-0.3 6.6,-0.4c1.5,-0.1 2.4,-0.2 2.4,-0.2s-0.8,-0.1 -2.4,-0.2zm-91,-37c-2.1,-4.3 -6.7,-16.7 -0.1,-29.3l0.1,29.3zm-0.2,-37.7c-2.6,-4.8 -5.3,-14.1 -0.1,-28.5l0.1,28.5zm-0.3,-69.4l0.2,35.3c-2.2,-5.7 -6.2,-19.5 -0.2,-35.3zm-41.3,118.5l-14.3,-8.4c7,-1.7 30,-6.4 56.1,-1.5l0,8.1c-13.3,0.9 -27.5,1.6 -41.8,1.8zm44.3,-105.8l8.1,73.4c-1.6,12.2 -3.6,20.8 -4.1,23l-4,-96.4zm4.3,103.4l-0.3,-6.5c2.3,-0.1 4.5,-0.2 6.6,-0.2l0.7,6.1c-2.3,0.2 -4.6,0.4 -7,0.6zm8.5,-0.7l-0.7,-6c11,0.1 19.7,1.8 25.8,3.5c-7.3,0.8 -15.8,1.7 -25.1,2.5z" id="svg_9"/>
  <path class="st2" d="m179.2,168.8c-2,-0.1 -4.5,-0.3 -7.3,-0.5c-2.8,-0.2 -6,-0.4 -9.5,-0.5c-3.5,-0.2 -7.2,-0.3 -11.2,-0.5c-4,-0.1 -8.2,-0.3 -12.5,-0.4c-4.3,-0.1 -8.8,-0.2 -13.4,-0.2c-4.6,-0.1 -9.2,-0.1 -13.8,-0.1c-4.6,0 -9.3,0 -13.8,0.1c-4.6,0 -9,0.1 -13.4,0.2c-4.3,0.1 -8.5,0.2 -12.5,0.4c-4,0.1 -7.7,0.3 -11.2,0.5c-3.5,0.1 -6.7,0.3 -9.5,0.5c-2.8,0.2 -5.3,0.3 -7.3,0.5c-2,0.1 -3.6,0.3 -4.7,0.4c-1.1,0.1 -1.7,0.2 -1.7,0.2s0.6,0.1 1.7,0.2c1.1,0.1 2.7,0.2 4.7,0.4c2,0.1 4.5,0.3 7.3,0.5c2.8,0.2 6,0.4 9.5,0.5c3.5,0.2 7.2,0.3 11.2,0.5c4,0.1 8.2,0.3 12.5,0.4c4.3,0.1 8.8,0.2 13.4,0.2c4.6,0.1 9.2,0.1 13.8,0.1c4.6,0 9.3,0 13.8,-0.1c4.6,0 9,-0.1 13.4,-0.2c4.3,-0.1 8.5,-0.2 12.5,-0.4c4,-0.1 7.7,-0.3 11.2,-0.5c3.5,-0.1 6.7,-0.3 9.5,-0.5c2.8,-0.2 5.3,-0.3 7.3,-0.5c2,-0.1 3.6,-0.3 4.7,-0.4c1.1,-0.1 1.7,-0.2 1.7,-0.2s-0.6,-0.1 -1.7,-0.2c-1.1,-0.1 -2.7,-0.2 -4.7,-0.4z" id="svg_10"/>
  <g id="svg_12"/>
 </g>
</svg>