<svg xmlns="http://www.w3.org/2000/svg" width="32" height="32" viewBox="0 0 32 32" fill="none">
<circle cx="16" cy="16" r="15.5" fill="#FDA635" stroke="url(#paint0_linear)"/>
<path fill-rule="evenodd" clip-rule="evenodd" d="M16 8.51867C12.9931 8.51867 10.5555 10.8954 10.5555 13.834C10.5555 15.9829 11.5363 18.0711 12.7512 19.81C13.9311 21.5109 15.2844 22.8169 16 23.4548C16.7155 22.8169 18.0689 21.5109 19.2487 19.81C20.4636 18.0711 21.4444 15.9829 21.4444 13.834C21.4444 10.8954 19.0069 8.51867 16 8.51867ZM9 13.834C9 10.0601 12.1337 7 16 7C19.8663 7 23 10.0601 23 13.834C23 16.4157 21.8326 18.8 20.536 20.668C19.2324 22.536 17.7469 23.9559 16.9956 24.6241C16.427 25.1253 15.573 25.1253 15.0044 24.6241C14.2531 23.9559 12.7676 22.536 11.464 20.668C10.1674 18.8 9 16.4157 9 13.834ZM16 12.3153C15.1414 12.3153 14.4445 12.9987 14.4445 13.834C14.4445 14.6693 15.1414 15.3527 16 15.3527C16.8587 15.3527 17.5556 14.6693 17.5556 13.834C17.5556 12.9987 16.8587 12.3153 16 12.3153ZM12.889 13.834C12.889 12.1559 14.282 10.7967 16.0001 10.7967C17.7182 10.7967 19.1112 12.1559 19.1112 13.834C19.1112 15.5121 17.7182 16.8713 16.0001 16.8713C14.282 16.8713 12.889 15.5121 12.889 13.834Z" fill="#ffffff"/>
</svg>