<svg width="18" height="13" viewBox="0 0 18 13" fill="none" xmlns="http://www.w3.org/2000/svg">
<path fill-rule="evenodd" clip-rule="evenodd" d="M16.7143 2.09678H1.28571C0.576 2.09678 0 1.625 0 1.04839C0 0.471775 0.576 0 1.28571 0H16.7143C17.424 0 18 0.471775 18 1.04839C18 1.625 17.424 2.09678 16.7143 2.09678ZM0 6.50003C0 5.92342 0.576 5.45165 1.28571 5.45165H11.5714C12.2811 5.45165 12.8571 5.92342 12.8571 6.50003C12.8571 7.07665 12.2811 7.54842 11.5714 7.54842H1.28571C0.576 7.54842 0 7.07665 0 6.50003ZM0 11.9516C0 11.375 0.576 10.9032 1.28571 10.9032H11.5714C12.2811 10.9032 12.8571 11.375 12.8571 11.9516C12.8571 12.5282 12.2811 13 11.5714 13H1.28571C0.576 13 0 12.5282 0 11.9516Z" fill="#777777"/>
</svg>
