<svg width="19" height="19" viewBox="0 0 19 19" fill="none" xmlns="http://www.w3.org/2000/svg">
<path fill-rule="evenodd" clip-rule="evenodd" d="M14.6571 2.17143H10.3143V0.814286C10.3143 0.364568 9.94972 0 9.5 0C9.05028 0 8.68571 0.364568 8.68571 0.814286V2.17143H4.34286V0.814286C4.34286 0.364568 3.97829 0 3.52857 0C3.07885 0 2.71429 0.364568 2.71429 0.814286V2.1836C1.19252 2.32073 0 3.59967 0 5.15714V16.0143C0 17.6632 1.33675 19 2.98571 19H16.0143C17.6633 19 19 17.6632 19 16.0143V5.15714C19 3.59967 17.8075 2.32073 16.2857 2.1836V0.814286C16.2857 0.364568 15.9211 0 15.4714 0C15.0217 0 14.6571 0.364568 14.6571 0.814286V2.17143ZM2.98571 3.8C2.23619 3.8 1.62857 4.40761 1.62857 5.15714V7.05714H17.3714V5.15714C17.3714 4.40761 16.7638 3.8 16.0143 3.8H2.98571ZM1.62857 16.0143V8.68571H17.3714V16.0143C17.3714 16.7638 16.7638 17.3714 16.0143 17.3714H2.98571C2.23619 17.3714 1.62857 16.7638 1.62857 16.0143Z" fill="#777777"/>
</svg>
