<?xml version="1.0" encoding="UTF-8"?>
<svg width="512px" height="490px" viewBox="0 0 512 490" version="1.1" xmlns="http://www.w3.org/2000/svg" xmlns:xlink="http://www.w3.org/1999/xlink">
    <title>Slice 1</title>
    <g id="Page-1" stroke="none" stroke-width="1" fill="none" fill-rule="evenodd">
        <g id="star" fill-rule="nonzero">
            <path d="M511.266,186.258 C509.502,180.826 504.808,176.869 499.158,176.049 L340.436,152.983 L269.452,9.156 C266.925,4.035 261.711,0.795 256.001,0.795 C250.292,0.795 245.077,4.035 242.55,9.156 L171.562,152.982 L12.843,176.049 C7.194,176.869 2.498,180.826 0.735,186.256 C-1.03,191.688 0.442,197.649 4.53,201.633 L119.378,313.588 L92.27,471.67 C91.305,477.299 93.619,482.985 98.238,486.342 C102.857,489.697 108.979,490.141 114.035,487.483 L256,412.845 L397.961,487.482 C400.156,488.636 402.552,489.206489 404.94,489.206489 C408.05,489.206489 411.146,488.24 413.758,486.342 C418.377,482.985 420.691,477.297 419.726,471.67 L392.61,313.588 L507.47,201.633 C511.559,197.648 513.031,191.687 511.266,186.258 Z" id="Path" fill="#FED42D"></path>
            <path d="M511.266,186.258 C509.502,180.826 504.808,176.869 499.158,176.049 L340.436,152.983 L269.452,9.156 C266.925,4.035 261.711,0.795 256.001,0.795 L256.001,412.846 L397.962,487.483 C400.157,488.637 402.553,489.206 404.941,489.206 C408.051,489.206 411.147,488.241 413.759,486.343 C418.378,482.986 420.692,477.298 419.727,471.671 L392.61,313.588 L507.47,201.633 C511.559,197.648 513.031,191.687 511.266,186.258 Z" id="Path" fill="#FCBF29"></path>
        </g>
    </g>
</svg>