<?xml version="1.0" encoding="iso-8859-1"?>
<!-- Generator: Adobe Illustrator 21.0.0, SVG Export Plug-In . SVG Version: 6.00 Build 0)  -->
<svg xmlns="http://www.w3.org/2000/svg" xmlns:xlink="http://www.w3.org/1999/xlink" version="1.1" id="Capa_1" x="0px" y="0px" viewBox="0 0 497 497" style="enable-background:new 0 0 497 497;" xml:space="preserve" width="512" height="512">
<g>
	<path style="fill:#FFE07D;" d="M98.381,1.849c1.218-2.465,3.21-2.465,4.428,0.001l27.401,55.491   c1.218,2.466,4.44,4.806,7.162,5.201l61.287,8.897c2.722,0.395,3.337,2.288,1.366,4.207l-44.343,43.195   c-1.97,1.919-3.201,5.706-2.736,8.416l10.471,60.988c0.465,2.71-1.146,3.881-3.581,2.602l-54.814-28.798   c-2.435-1.279-6.419-1.279-8.854,0l-54.824,28.798c-2.435,1.279-4.046,0.108-3.581-2.603l10.47-60.987   c0.465-2.71-0.766-6.498-2.736-8.417L1.154,75.646c-1.971-1.918-1.355-3.812,1.366-4.207l61.286-8.897   c2.722-0.395,5.944-2.735,7.162-5.201L98.381,1.849z"/>
	<g>
		<path style="fill:#FFD064;" d="M102.809,1.85c-1.218-2.466-3.21-2.466-4.428,0"/>
		<path style="fill:#FFD064;" d="M200.026,75.646c1.971-1.919,1.355-3.812-1.366-4.207l-38.664-5.613    c1.525,0.741,1.62,2.272,0.03,3.82l-44.343,43.195c-1.97,1.919-3.201,5.706-2.736,8.417l8.483,49.413l38.406,20.177    c2.435,1.279,4.046,0.108,3.581-2.602l-10.471-60.988c-0.465-2.71,0.767-6.498,2.736-8.417L200.026,75.646z"/>
	</g>
	<path style="fill:#FFE4C2;" d="M72.5,254.752h154.025v-45.272v-34.081c0-29.893,3.461-98.479,48.062-98.479   c24.564,0,24.103,26.507,24.103,44.291c0,23.874-2.977,49.722,4.211,72.857c12.763,41.087,52.389,63.956,93.922,64.39L403.5,361.5   l-6.678,87.254c0,0-41.8,48.246-118.771,48.246c-61.53,0-68.547,0-205.551,0V254.752z"/>
	<path style="fill:#F2D0A5;" d="M302.901,194.068c-7.188-23.136-4.211-48.984-4.211-72.857c0-17.784,0.461-44.291-24.103-44.291   c-4.173,0-7.986,0.601-11.47,1.714c14.896,6.134,14.572,27.49,14.572,42.577c0,23.874-2.977,49.722,4.211,72.857   c12.763,41.087,32.068,60.331,59.6,91.432c54,61,47,211.5-84.449,211.5c6.383,0,13.26,0,21,0   c76.972,0,118.771-48.246,118.771-48.246L403.5,361.5l-6.678-103.042C355.289,258.024,315.663,235.156,302.901,194.068z"/>
	<path style="fill:#C3DDFF;" d="M401.848,485.659c-2.75,0-5-2.25-5-5V244.926c0-2.75,2.25-5,5-5H492c2.75,0,5,2.25,5,5v235.733   c0,2.75-2.25,5-5,5H401.848z"/>
	<path style="fill:#A4CCFF;" d="M492,239.926h-40c2.75,0,5,2.25,5,5v235.733c0,2.75-2.25,5-5,5h40c2.75,0,5-2.25,5-5V244.926   C497,242.176,494.75,239.926,492,239.926z"/>
	<path style="fill:#FFE4C2;" d="M173.469,466.656c0,16.728-13.566,30.289-30.303,30.289H60.348   c-16.744,0-30.301-13.561-30.301-30.289l0,0c0-16.727,13.557-30.286,30.301-30.286h82.818   C159.902,436.37,173.469,449.93,173.469,466.656L173.469,466.656z"/>
	<path style="fill:#F2D0A5;" d="M152.126,437.717c0.872,2.826,1.343,5.827,1.343,8.939c0,16.728-13.566,30.289-30.303,30.289H40.348   c-3.119,0-6.127-0.472-8.957-1.346c3.815,12.362,15.33,21.346,28.957,21.346h82.818c16.736,0,30.303-13.562,30.303-30.289   C173.469,453.047,164.488,441.536,152.126,437.717z"/>
	<path style="fill:#FFE4C2;" d="M186.038,406.09c0,16.723-13.572,30.28-30.315,30.28H35.613c-16.73,0-30.305-13.558-30.305-30.28   l0,0c0-16.729,13.357-30.289,30.098-30.289h120.317C172.466,375.801,186.038,389.361,186.038,406.09L186.038,406.09z"/>
	<path style="fill:#F2D0A5;" d="M164.694,377.15c0.873,2.826,1.344,5.828,1.344,8.94c0,16.723-13.572,30.28-30.314,30.28H15.613   c-3.12,0-6.129-0.473-8.962-1.348c3.816,12.363,15.343,21.348,28.962,21.348h120.11c16.742,0,30.314-13.558,30.314-30.28   C186.038,392.482,177.057,380.971,164.694,377.15z"/>
	<path style="fill:#FFE4C2;" d="M202.71,345.518c0,16.727-13.572,30.286-30.305,30.286H30.305C13.576,375.804,0,362.244,0,345.518   l0,0c0-16.727,13.576-30.282,30.305-30.282h142.101C189.138,315.235,202.71,328.791,202.71,345.518L202.71,345.518z"/>
	<path style="fill:#F2D0A5;" d="M181.368,316.583c0.872,2.824,1.343,5.824,1.343,8.934c0,16.727-13.572,30.286-30.305,30.286H10.305   c-3.119,0-6.128-0.473-8.961-1.348c3.818,12.363,15.344,21.348,28.961,21.348h142.101c16.732,0,30.305-13.56,30.305-30.286   C202.71,331.91,193.727,320.402,181.368,316.583z"/>
	<path style="fill:#FFE4C2;" d="M181.865,285.045c0,16.726-13.568,30.286-30.309,30.286H53.115   c-16.744,0-30.316-13.561-30.316-30.286l0,0c0-16.727,13.572-30.288,30.316-30.288h98.441   C168.297,254.757,181.865,268.317,181.865,285.045L181.865,285.045z"/>
	<path style="fill:#F2D0A5;" d="M160.522,256.105c0.872,2.826,1.344,5.828,1.344,8.94c0,16.726-13.568,30.286-30.309,30.286H33.115   c-3.124,0-6.137-0.473-8.973-1.35c3.817,12.364,15.343,21.35,28.973,21.35h98.441c16.74,0,30.309-13.561,30.309-30.286   C181.865,271.436,172.884,259.925,160.522,256.105z"/>
	<circle style="fill:#F0EEF0;" cx="446.926" cy="292.182" r="18.5"/>
</g>















</svg>
