<svg width="22" height="21" viewBox="0 0 22 21" fill="none" xmlns="http://www.w3.org/2000/svg">
<path d="M21.7853 15.0582C21.7853 14.9739 21.7011 14.9739 21.7011 14.8897C21.3641 14.2157 20.6059 13.3733 19.595 12.4466C19.0895 12.0254 18.8368 11.6884 18.6683 11.5199C18.4156 11.1829 18.4156 10.9302 18.4998 10.5932C18.5841 10.3405 18.921 9.91928 19.5107 9.16108C19.8477 8.73986 20.0162 8.48714 20.2689 8.23441C21.5326 6.54953 22.1223 5.45435 21.9538 4.94889L21.8696 4.86466C21.7853 4.78041 21.7011 4.69617 21.5326 4.69617C21.3641 4.61193 21.1114 4.61193 20.8586 4.69617H17.6574C17.5731 4.69617 17.5731 4.69617 17.4046 4.69617C17.3204 4.69617 17.2362 4.69617 17.2362 4.69617H17.1519H17.0677L16.9834 4.78041C16.8992 4.86465 16.8992 4.86465 16.8992 4.94889C16.5622 5.87557 16.141 6.63377 15.7198 7.47621C15.467 7.89743 15.2143 8.31865 14.9616 8.65563C14.7088 8.9926 14.5403 9.24533 14.3718 9.41382C14.2034 9.58231 14.0349 9.66655 13.9506 9.83504C13.8664 9.91928 13.6979 10.0035 13.6979 9.91929C13.6137 9.91929 13.5294 9.91928 13.5294 9.83504C13.4452 9.75079 13.3609 9.66655 13.2767 9.5823C13.1924 9.49806 13.1924 9.32957 13.1082 9.16108C13.1082 8.9926 13.1082 8.82411 13.1082 8.73986C13.1082 8.65562 13.1082 8.4029 13.1082 8.23441C13.1082 7.98168 13.1082 7.81318 13.1082 7.72894C13.1082 7.47621 13.1082 7.13924 13.1082 6.80227C13.1082 6.46529 13.1082 6.21255 13.1082 6.04406C13.1082 5.87558 13.1082 5.62285 13.1082 5.45436C13.1082 5.20163 13.1082 5.03314 13.1082 4.94889C13.1082 4.86465 13.024 4.69616 13.024 4.61192C12.9397 4.52768 12.8555 4.44343 12.7712 4.35919C12.687 4.27494 12.5185 4.27495 12.4342 4.1907C12.013 4.10646 11.5076 4.02222 10.9179 4.02222C9.56997 4.02222 8.64328 4.10646 8.3063 4.27495C8.13782 4.35919 7.96933 4.44343 7.88509 4.61192C7.7166 4.78041 7.71659 4.86466 7.80084 4.86466C8.22206 4.9489 8.55904 5.11738 8.72752 5.37011L8.81177 5.53861C8.89602 5.62285 8.896 5.79133 8.98024 6.04406C9.06449 6.2968 9.06449 6.54953 9.06449 6.8865C9.06449 7.39197 9.06449 7.89743 9.06449 8.23441C9.06449 8.65563 8.98024 8.90835 8.98024 9.16108C8.98024 9.41382 8.89602 9.58231 8.81177 9.66655C8.72753 9.83504 8.72752 9.91929 8.64327 9.91929C8.64327 9.91929 8.64327 10.0035 8.55903 10.0035C8.47478 10.0035 8.39054 10.0878 8.22206 10.0878C8.13781 10.0878 7.96933 10.0035 7.88509 9.91929C7.7166 9.83504 7.54811 9.66655 7.46387 9.49807C7.29538 9.32958 7.12689 9.07684 6.9584 8.73986C6.78991 8.40289 6.53717 8.06592 6.36868 7.56046L6.20021 7.22349C6.11596 7.055 5.94748 6.71802 5.77899 6.2968C5.6105 5.87558 5.44201 5.53861 5.27352 5.11739C5.18928 4.9489 5.10504 4.86465 5.0208 4.78041H4.93655C4.93655 4.78041 4.8523 4.69617 4.76805 4.69617C4.68381 4.69617 4.59957 4.61192 4.51533 4.61192H1.48255C1.14557 4.61192 0.977087 4.69616 0.892843 4.78041L0.808594 4.86466C0.808594 4.86466 0.808594 4.9489 0.808594 5.03314C0.808594 5.11738 0.808599 5.20162 0.892843 5.37011C1.31406 6.38104 1.81952 7.39197 2.32499 8.40289C2.83045 9.32958 3.33592 10.172 3.67289 10.7617C4.09411 11.3514 4.43108 11.9411 4.8523 12.4466C5.27352 12.9521 5.52625 13.289 5.61049 13.4575C5.77898 13.626 5.86322 13.7103 5.94746 13.7945L6.20021 14.0472C6.3687 14.2157 6.62142 14.4685 6.9584 14.7212C7.29537 14.9739 7.71659 15.2266 8.13781 15.4794C8.55903 15.7321 9.0645 15.9006 9.56996 16.0691C10.1597 16.2376 10.6651 16.3218 11.1706 16.2376H12.4342C12.687 16.2376 12.8555 16.1533 13.024 15.9848L13.1082 15.9006C13.1082 15.8163 13.1924 15.8163 13.1924 15.7321C13.1924 15.6479 13.1924 15.5636 13.1924 15.3951C13.1924 15.0582 13.1924 14.8054 13.2767 14.5527C13.3609 14.3 13.3609 14.1315 13.4452 13.963C13.5294 13.7945 13.6137 13.7103 13.6979 13.626C13.7821 13.5418 13.8664 13.4575 13.8664 13.4575H13.9506C14.1191 13.3733 14.3719 13.4575 14.5403 13.626C14.7931 13.7945 15.0458 14.0472 15.2143 14.3C15.3828 14.5527 15.6355 14.8054 15.9725 15.1424C16.3095 15.4794 16.5622 15.7321 16.7307 15.8164L16.9834 15.9848C17.1519 16.0691 17.3204 16.1533 17.5731 16.2376C17.8259 16.3218 17.9943 16.3218 18.1628 16.3218L21.0271 16.2376C21.2799 16.2376 21.5326 16.1533 21.7011 16.0691C21.8696 15.9848 21.9538 15.9006 21.9538 15.7321C21.9538 15.6479 21.9538 15.4794 21.9538 15.3951C21.7853 15.2266 21.7853 15.1424 21.7853 15.0582Z" fill="#7294C7"/>
</svg>
